<?xml version="1.0" encoding="utf-8" standalone="no"?>
<!DOCTYPE svg PUBLIC "-//W3C//DTD SVG 1.1//EN"
  "http://www.w3.org/Graphics/SVG/1.1/DTD/svg11.dtd">
<!-- Created with matplotlib (https://matplotlib.org/) -->
<svg height="360pt" version="1.1" viewBox="0 0 720 360" width="720pt" xmlns="http://www.w3.org/2000/svg" xmlns:xlink="http://www.w3.org/1999/xlink">
 <metadata>
  <rdf:RDF xmlns:cc="http://creativecommons.org/ns#" xmlns:dc="http://purl.org/dc/elements/1.1/" xmlns:rdf="http://www.w3.org/1999/02/22-rdf-syntax-ns#">
   <cc:Work>
    <dc:type rdf:resource="http://purl.org/dc/dcmitype/StillImage"/>
    <dc:date>2020-10-03T23:29:18.425781</dc:date>
    <dc:format>image/svg+xml</dc:format>
    <dc:creator>
     <cc:Agent>
      <dc:title>Matplotlib v3.3.2, https://matplotlib.org/</dc:title>
     </cc:Agent>
    </dc:creator>
   </cc:Work>
  </rdf:RDF>
 </metadata>
 <defs>
  <style type="text/css">*{stroke-linecap:butt;stroke-linejoin:round;}</style>
 </defs>
 <g id="figure_1">
  <g id="patch_1">
   <path d="M 0 360 
L 720 360 
L 720 0 
L 0 0 
z
" style="fill:#ffffff;"/>
  </g>
  <g id="axes_1">
   <g id="patch_2">
    <path d="M 24.175 332.2 
L 709.2 332.2 
L 709.2 10.8 
L 24.175 10.8 
z
" style="fill:#ffffff;"/>
   </g>
   <g id="matplotlib.axis_1">
    <g id="xtick_1">
     <g id="line2d_1">
      <path clip-path="url(#p16c080af04)" d="M 111.550414 332.2 
L 111.550414 10.8 
" style="fill:none;stroke:#cccccc;stroke-linecap:round;stroke-width:0.8;"/>
     </g>
     <g id="text_1">
      <!-- 0.5 -->
      <g style="fill:#262626;" transform="translate(103.598852 346.798438)scale(0.1 -0.1)">
       <defs>
        <path d="M 31.78125 66.40625 
Q 24.171875 66.40625 20.328125 58.90625 
Q 16.5 51.421875 16.5 36.375 
Q 16.5 21.390625 20.328125 13.890625 
Q 24.171875 6.390625 31.78125 6.390625 
Q 39.453125 6.390625 43.28125 13.890625 
Q 47.125 21.390625 47.125 36.375 
Q 47.125 51.421875 43.28125 58.90625 
Q 39.453125 66.40625 31.78125 66.40625 
z
M 31.78125 74.21875 
Q 44.046875 74.21875 50.515625 64.515625 
Q 56.984375 54.828125 56.984375 36.375 
Q 56.984375 17.96875 50.515625 8.265625 
Q 44.046875 -1.421875 31.78125 -1.421875 
Q 19.53125 -1.421875 13.0625 8.265625 
Q 6.59375 17.96875 6.59375 36.375 
Q 6.59375 54.828125 13.0625 64.515625 
Q 19.53125 74.21875 31.78125 74.21875 
z
" id="DejaVuSans-48"/>
        <path d="M 10.6875 12.40625 
L 21 12.40625 
L 21 0 
L 10.6875 0 
z
" id="DejaVuSans-46"/>
        <path d="M 10.796875 72.90625 
L 49.515625 72.90625 
L 49.515625 64.59375 
L 19.828125 64.59375 
L 19.828125 46.734375 
Q 21.96875 47.46875 24.109375 47.828125 
Q 26.265625 48.1875 28.421875 48.1875 
Q 40.625 48.1875 47.75 41.5 
Q 54.890625 34.8125 54.890625 23.390625 
Q 54.890625 11.625 47.5625 5.09375 
Q 40.234375 -1.421875 26.90625 -1.421875 
Q 22.3125 -1.421875 17.546875 -0.640625 
Q 12.796875 0.140625 7.71875 1.703125 
L 7.71875 11.625 
Q 12.109375 9.234375 16.796875 8.0625 
Q 21.484375 6.890625 26.703125 6.890625 
Q 35.15625 6.890625 40.078125 11.328125 
Q 45.015625 15.765625 45.015625 23.390625 
Q 45.015625 31 40.078125 35.4375 
Q 35.15625 39.890625 26.703125 39.890625 
Q 22.75 39.890625 18.8125 39.015625 
Q 14.890625 38.140625 10.796875 36.28125 
z
" id="DejaVuSans-53"/>
       </defs>
       <use xlink:href="#DejaVuSans-48"/>
       <use x="63.623047" xlink:href="#DejaVuSans-46"/>
       <use x="95.410156" xlink:href="#DejaVuSans-53"/>
      </g>
     </g>
    </g>
    <g id="xtick_2">
     <g id="line2d_2">
      <path clip-path="url(#p16c080af04)" d="M 199.308336 332.2 
L 199.308336 10.8 
" style="fill:none;stroke:#cccccc;stroke-linecap:round;stroke-width:0.8;"/>
     </g>
     <g id="text_2">
      <!-- 1.0 -->
      <g style="fill:#262626;" transform="translate(191.356774 346.798438)scale(0.1 -0.1)">
       <defs>
        <path d="M 12.40625 8.296875 
L 28.515625 8.296875 
L 28.515625 63.921875 
L 10.984375 60.40625 
L 10.984375 69.390625 
L 28.421875 72.90625 
L 38.28125 72.90625 
L 38.28125 8.296875 
L 54.390625 8.296875 
L 54.390625 0 
L 12.40625 0 
z
" id="DejaVuSans-49"/>
       </defs>
       <use xlink:href="#DejaVuSans-49"/>
       <use x="63.623047" xlink:href="#DejaVuSans-46"/>
       <use x="95.410156" xlink:href="#DejaVuSans-48"/>
      </g>
     </g>
    </g>
    <g id="xtick_3">
     <g id="line2d_3">
      <path clip-path="url(#p16c080af04)" d="M 287.066258 332.2 
L 287.066258 10.8 
" style="fill:none;stroke:#cccccc;stroke-linecap:round;stroke-width:0.8;"/>
     </g>
     <g id="text_3">
      <!-- 1.5 -->
      <g style="fill:#262626;" transform="translate(279.114696 346.798438)scale(0.1 -0.1)">
       <use xlink:href="#DejaVuSans-49"/>
       <use x="63.623047" xlink:href="#DejaVuSans-46"/>
       <use x="95.410156" xlink:href="#DejaVuSans-53"/>
      </g>
     </g>
    </g>
    <g id="xtick_4">
     <g id="line2d_4">
      <path clip-path="url(#p16c080af04)" d="M 374.824181 332.2 
L 374.824181 10.8 
" style="fill:none;stroke:#cccccc;stroke-linecap:round;stroke-width:0.8;"/>
     </g>
     <g id="text_4">
      <!-- 2.0 -->
      <g style="fill:#262626;" transform="translate(366.872618 346.798438)scale(0.1 -0.1)">
       <defs>
        <path d="M 19.1875 8.296875 
L 53.609375 8.296875 
L 53.609375 0 
L 7.328125 0 
L 7.328125 8.296875 
Q 12.9375 14.109375 22.625 23.890625 
Q 32.328125 33.6875 34.8125 36.53125 
Q 39.546875 41.84375 41.421875 45.53125 
Q 43.3125 49.21875 43.3125 52.78125 
Q 43.3125 58.59375 39.234375 62.25 
Q 35.15625 65.921875 28.609375 65.921875 
Q 23.96875 65.921875 18.8125 64.3125 
Q 13.671875 62.703125 7.8125 59.421875 
L 7.8125 69.390625 
Q 13.765625 71.78125 18.9375 73 
Q 24.125 74.21875 28.421875 74.21875 
Q 39.75 74.21875 46.484375 68.546875 
Q 53.21875 62.890625 53.21875 53.421875 
Q 53.21875 48.921875 51.53125 44.890625 
Q 49.859375 40.875 45.40625 35.40625 
Q 44.1875 33.984375 37.640625 27.21875 
Q 31.109375 20.453125 19.1875 8.296875 
z
" id="DejaVuSans-50"/>
       </defs>
       <use xlink:href="#DejaVuSans-50"/>
       <use x="63.623047" xlink:href="#DejaVuSans-46"/>
       <use x="95.410156" xlink:href="#DejaVuSans-48"/>
      </g>
     </g>
    </g>
    <g id="xtick_5">
     <g id="line2d_5">
      <path clip-path="url(#p16c080af04)" d="M 462.582103 332.2 
L 462.582103 10.8 
" style="fill:none;stroke:#cccccc;stroke-linecap:round;stroke-width:0.8;"/>
     </g>
     <g id="text_5">
      <!-- 2.5 -->
      <g style="fill:#262626;" transform="translate(454.63054 346.798438)scale(0.1 -0.1)">
       <use xlink:href="#DejaVuSans-50"/>
       <use x="63.623047" xlink:href="#DejaVuSans-46"/>
       <use x="95.410156" xlink:href="#DejaVuSans-53"/>
      </g>
     </g>
    </g>
    <g id="xtick_6">
     <g id="line2d_6">
      <path clip-path="url(#p16c080af04)" d="M 550.340025 332.2 
L 550.340025 10.8 
" style="fill:none;stroke:#cccccc;stroke-linecap:round;stroke-width:0.8;"/>
     </g>
     <g id="text_6">
      <!-- 3.0 -->
      <g style="fill:#262626;" transform="translate(542.388462 346.798438)scale(0.1 -0.1)">
       <defs>
        <path d="M 40.578125 39.3125 
Q 47.65625 37.796875 51.625 33 
Q 55.609375 28.21875 55.609375 21.1875 
Q 55.609375 10.40625 48.1875 4.484375 
Q 40.765625 -1.421875 27.09375 -1.421875 
Q 22.515625 -1.421875 17.65625 -0.515625 
Q 12.796875 0.390625 7.625 2.203125 
L 7.625 11.71875 
Q 11.71875 9.328125 16.59375 8.109375 
Q 21.484375 6.890625 26.8125 6.890625 
Q 36.078125 6.890625 40.9375 10.546875 
Q 45.796875 14.203125 45.796875 21.1875 
Q 45.796875 27.640625 41.28125 31.265625 
Q 36.765625 34.90625 28.71875 34.90625 
L 20.21875 34.90625 
L 20.21875 43.015625 
L 29.109375 43.015625 
Q 36.375 43.015625 40.234375 45.921875 
Q 44.09375 48.828125 44.09375 54.296875 
Q 44.09375 59.90625 40.109375 62.90625 
Q 36.140625 65.921875 28.71875 65.921875 
Q 24.65625 65.921875 20.015625 65.03125 
Q 15.375 64.15625 9.8125 62.3125 
L 9.8125 71.09375 
Q 15.4375 72.65625 20.34375 73.4375 
Q 25.25 74.21875 29.59375 74.21875 
Q 40.828125 74.21875 47.359375 69.109375 
Q 53.90625 64.015625 53.90625 55.328125 
Q 53.90625 49.265625 50.4375 45.09375 
Q 46.96875 40.921875 40.578125 39.3125 
z
" id="DejaVuSans-51"/>
       </defs>
       <use xlink:href="#DejaVuSans-51"/>
       <use x="63.623047" xlink:href="#DejaVuSans-46"/>
       <use x="95.410156" xlink:href="#DejaVuSans-48"/>
      </g>
     </g>
    </g>
    <g id="xtick_7">
     <g id="line2d_7">
      <path clip-path="url(#p16c080af04)" d="M 638.097947 332.2 
L 638.097947 10.8 
" style="fill:none;stroke:#cccccc;stroke-linecap:round;stroke-width:0.8;"/>
     </g>
     <g id="text_7">
      <!-- 3.5 -->
      <g style="fill:#262626;" transform="translate(630.146384 346.798438)scale(0.1 -0.1)">
       <use xlink:href="#DejaVuSans-51"/>
       <use x="63.623047" xlink:href="#DejaVuSans-46"/>
       <use x="95.410156" xlink:href="#DejaVuSans-53"/>
      </g>
     </g>
    </g>
    <g id="text_8">
     <!-- time_ms -->
     <g style="fill:#262626;" transform="translate(345.416406 360.476562)scale(0.1 -0.1)">
      <defs>
       <path d="M 18.3125 70.21875 
L 18.3125 54.6875 
L 36.8125 54.6875 
L 36.8125 47.703125 
L 18.3125 47.703125 
L 18.3125 18.015625 
Q 18.3125 11.328125 20.140625 9.421875 
Q 21.96875 7.515625 27.59375 7.515625 
L 36.8125 7.515625 
L 36.8125 0 
L 27.59375 0 
Q 17.1875 0 13.234375 3.875 
Q 9.28125 7.765625 9.28125 18.015625 
L 9.28125 47.703125 
L 2.6875 47.703125 
L 2.6875 54.6875 
L 9.28125 54.6875 
L 9.28125 70.21875 
z
" id="DejaVuSans-116"/>
       <path d="M 9.421875 54.6875 
L 18.40625 54.6875 
L 18.40625 0 
L 9.421875 0 
z
M 9.421875 75.984375 
L 18.40625 75.984375 
L 18.40625 64.59375 
L 9.421875 64.59375 
z
" id="DejaVuSans-105"/>
       <path d="M 52 44.1875 
Q 55.375 50.25 60.0625 53.125 
Q 64.75 56 71.09375 56 
Q 79.640625 56 84.28125 50.015625 
Q 88.921875 44.046875 88.921875 33.015625 
L 88.921875 0 
L 79.890625 0 
L 79.890625 32.71875 
Q 79.890625 40.578125 77.09375 44.375 
Q 74.3125 48.1875 68.609375 48.1875 
Q 61.625 48.1875 57.5625 43.546875 
Q 53.515625 38.921875 53.515625 30.90625 
L 53.515625 0 
L 44.484375 0 
L 44.484375 32.71875 
Q 44.484375 40.625 41.703125 44.40625 
Q 38.921875 48.1875 33.109375 48.1875 
Q 26.21875 48.1875 22.15625 43.53125 
Q 18.109375 38.875 18.109375 30.90625 
L 18.109375 0 
L 9.078125 0 
L 9.078125 54.6875 
L 18.109375 54.6875 
L 18.109375 46.1875 
Q 21.1875 51.21875 25.484375 53.609375 
Q 29.78125 56 35.6875 56 
Q 41.65625 56 45.828125 52.96875 
Q 50 49.953125 52 44.1875 
z
" id="DejaVuSans-109"/>
       <path d="M 56.203125 29.59375 
L 56.203125 25.203125 
L 14.890625 25.203125 
Q 15.484375 15.921875 20.484375 11.0625 
Q 25.484375 6.203125 34.421875 6.203125 
Q 39.59375 6.203125 44.453125 7.46875 
Q 49.3125 8.734375 54.109375 11.28125 
L 54.109375 2.78125 
Q 49.265625 0.734375 44.1875 -0.34375 
Q 39.109375 -1.421875 33.890625 -1.421875 
Q 20.796875 -1.421875 13.15625 6.1875 
Q 5.515625 13.8125 5.515625 26.8125 
Q 5.515625 40.234375 12.765625 48.109375 
Q 20.015625 56 32.328125 56 
Q 43.359375 56 49.78125 48.890625 
Q 56.203125 41.796875 56.203125 29.59375 
z
M 47.21875 32.234375 
Q 47.125 39.59375 43.09375 43.984375 
Q 39.0625 48.390625 32.421875 48.390625 
Q 24.90625 48.390625 20.390625 44.140625 
Q 15.875 39.890625 15.1875 32.171875 
z
" id="DejaVuSans-101"/>
       <path d="M 50.984375 -16.609375 
L 50.984375 -23.578125 
L -0.984375 -23.578125 
L -0.984375 -16.609375 
z
" id="DejaVuSans-95"/>
       <path d="M 44.28125 53.078125 
L 44.28125 44.578125 
Q 40.484375 46.53125 36.375 47.5 
Q 32.28125 48.484375 27.875 48.484375 
Q 21.1875 48.484375 17.84375 46.4375 
Q 14.5 44.390625 14.5 40.28125 
Q 14.5 37.15625 16.890625 35.375 
Q 19.28125 33.59375 26.515625 31.984375 
L 29.59375 31.296875 
Q 39.15625 29.25 43.1875 25.515625 
Q 47.21875 21.78125 47.21875 15.09375 
Q 47.21875 7.46875 41.1875 3.015625 
Q 35.15625 -1.421875 24.609375 -1.421875 
Q 20.21875 -1.421875 15.453125 -0.5625 
Q 10.6875 0.296875 5.421875 2 
L 5.421875 11.28125 
Q 10.40625 8.6875 15.234375 7.390625 
Q 20.0625 6.109375 24.8125 6.109375 
Q 31.15625 6.109375 34.5625 8.28125 
Q 37.984375 10.453125 37.984375 14.40625 
Q 37.984375 18.0625 35.515625 20.015625 
Q 33.0625 21.96875 24.703125 23.78125 
L 21.578125 24.515625 
Q 13.234375 26.265625 9.515625 29.90625 
Q 5.8125 33.546875 5.8125 39.890625 
Q 5.8125 47.609375 11.28125 51.796875 
Q 16.75 56 26.8125 56 
Q 31.78125 56 36.171875 55.265625 
Q 40.578125 54.546875 44.28125 53.078125 
z
" id="DejaVuSans-115"/>
      </defs>
      <use xlink:href="#DejaVuSans-116"/>
      <use x="39.208984" xlink:href="#DejaVuSans-105"/>
      <use x="66.992188" xlink:href="#DejaVuSans-109"/>
      <use x="164.404297" xlink:href="#DejaVuSans-101"/>
      <use x="225.927734" xlink:href="#DejaVuSans-95"/>
      <use x="275.927734" xlink:href="#DejaVuSans-109"/>
      <use x="373.339844" xlink:href="#DejaVuSans-115"/>
     </g>
    </g>
   </g>
   <g id="matplotlib.axis_2">
    <g id="ytick_1">
     <g id="line2d_8">
      <path clip-path="url(#p16c080af04)" d="M 24.175 312.083059 
L 709.2 312.083059 
" style="fill:none;stroke:#cccccc;stroke-linecap:round;stroke-width:0.8;"/>
     </g>
     <g id="text_9">
      <!-- 0 -->
      <g style="fill:#262626;" transform="translate(10.8125 315.882278)scale(0.1 -0.1)">
       <use xlink:href="#DejaVuSans-48"/>
      </g>
     </g>
    </g>
    <g id="ytick_2">
     <g id="line2d_9">
      <path clip-path="url(#p16c080af04)" d="M 24.175 268.038591 
L 709.2 268.038591 
" style="fill:none;stroke:#cccccc;stroke-linecap:round;stroke-width:0.8;"/>
     </g>
     <g id="text_10">
      <!-- 1 -->
      <g style="fill:#262626;" transform="translate(10.8125 271.837809)scale(0.1 -0.1)">
       <use xlink:href="#DejaVuSans-49"/>
      </g>
     </g>
    </g>
    <g id="ytick_3">
     <g id="line2d_10">
      <path clip-path="url(#p16c080af04)" d="M 24.175 223.994122 
L 709.2 223.994122 
" style="fill:none;stroke:#cccccc;stroke-linecap:round;stroke-width:0.8;"/>
     </g>
     <g id="text_11">
      <!-- 2 -->
      <g style="fill:#262626;" transform="translate(10.8125 227.793341)scale(0.1 -0.1)">
       <use xlink:href="#DejaVuSans-50"/>
      </g>
     </g>
    </g>
    <g id="ytick_4">
     <g id="line2d_11">
      <path clip-path="url(#p16c080af04)" d="M 24.175 179.949654 
L 709.2 179.949654 
" style="fill:none;stroke:#cccccc;stroke-linecap:round;stroke-width:0.8;"/>
     </g>
     <g id="text_12">
      <!-- 3 -->
      <g style="fill:#262626;" transform="translate(10.8125 183.748873)scale(0.1 -0.1)">
       <use xlink:href="#DejaVuSans-51"/>
      </g>
     </g>
    </g>
    <g id="ytick_5">
     <g id="line2d_12">
      <path clip-path="url(#p16c080af04)" d="M 24.175 135.905186 
L 709.2 135.905186 
" style="fill:none;stroke:#cccccc;stroke-linecap:round;stroke-width:0.8;"/>
     </g>
     <g id="text_13">
      <!-- 4 -->
      <g style="fill:#262626;" transform="translate(10.8125 139.704405)scale(0.1 -0.1)">
       <defs>
        <path d="M 37.796875 64.3125 
L 12.890625 25.390625 
L 37.796875 25.390625 
z
M 35.203125 72.90625 
L 47.609375 72.90625 
L 47.609375 25.390625 
L 58.015625 25.390625 
L 58.015625 17.1875 
L 47.609375 17.1875 
L 47.609375 0 
L 37.796875 0 
L 37.796875 17.1875 
L 4.890625 17.1875 
L 4.890625 26.703125 
z
" id="DejaVuSans-52"/>
       </defs>
       <use xlink:href="#DejaVuSans-52"/>
      </g>
     </g>
    </g>
    <g id="ytick_6">
     <g id="line2d_13">
      <path clip-path="url(#p16c080af04)" d="M 24.175 91.860718 
L 709.2 91.860718 
" style="fill:none;stroke:#cccccc;stroke-linecap:round;stroke-width:0.8;"/>
     </g>
     <g id="text_14">
      <!-- 5 -->
      <g style="fill:#262626;" transform="translate(10.8125 95.659937)scale(0.1 -0.1)">
       <use xlink:href="#DejaVuSans-53"/>
      </g>
     </g>
    </g>
    <g id="ytick_7">
     <g id="line2d_14">
      <path clip-path="url(#p16c080af04)" d="M 24.175 47.81625 
L 709.2 47.81625 
" style="fill:none;stroke:#cccccc;stroke-linecap:round;stroke-width:0.8;"/>
     </g>
     <g id="text_15">
      <!-- 6 -->
      <g style="fill:#262626;" transform="translate(10.8125 51.615468)scale(0.1 -0.1)">
       <defs>
        <path d="M 33.015625 40.375 
Q 26.375 40.375 22.484375 35.828125 
Q 18.609375 31.296875 18.609375 23.390625 
Q 18.609375 15.53125 22.484375 10.953125 
Q 26.375 6.390625 33.015625 6.390625 
Q 39.65625 6.390625 43.53125 10.953125 
Q 47.40625 15.53125 47.40625 23.390625 
Q 47.40625 31.296875 43.53125 35.828125 
Q 39.65625 40.375 33.015625 40.375 
z
M 52.59375 71.296875 
L 52.59375 62.3125 
Q 48.875 64.0625 45.09375 64.984375 
Q 41.3125 65.921875 37.59375 65.921875 
Q 27.828125 65.921875 22.671875 59.328125 
Q 17.53125 52.734375 16.796875 39.40625 
Q 19.671875 43.65625 24.015625 45.921875 
Q 28.375 48.1875 33.59375 48.1875 
Q 44.578125 48.1875 50.953125 41.515625 
Q 57.328125 34.859375 57.328125 23.390625 
Q 57.328125 12.15625 50.6875 5.359375 
Q 44.046875 -1.421875 33.015625 -1.421875 
Q 20.359375 -1.421875 13.671875 8.265625 
Q 6.984375 17.96875 6.984375 36.375 
Q 6.984375 53.65625 15.1875 63.9375 
Q 23.390625 74.21875 37.203125 74.21875 
Q 40.921875 74.21875 44.703125 73.484375 
Q 48.484375 72.75 52.59375 71.296875 
z
" id="DejaVuSans-54"/>
       </defs>
       <use xlink:href="#DejaVuSans-54"/>
      </g>
     </g>
    </g>
    <g id="text_16">
     <!-- complejidad -->
     <g style="fill:#262626;" transform="translate(4.732812 202.009375)rotate(-90)scale(0.1 -0.1)">
      <defs>
       <path d="M 48.78125 52.59375 
L 48.78125 44.1875 
Q 44.96875 46.296875 41.140625 47.34375 
Q 37.3125 48.390625 33.40625 48.390625 
Q 24.65625 48.390625 19.8125 42.84375 
Q 14.984375 37.3125 14.984375 27.296875 
Q 14.984375 17.28125 19.8125 11.734375 
Q 24.65625 6.203125 33.40625 6.203125 
Q 37.3125 6.203125 41.140625 7.25 
Q 44.96875 8.296875 48.78125 10.40625 
L 48.78125 2.09375 
Q 45.015625 0.34375 40.984375 -0.53125 
Q 36.96875 -1.421875 32.421875 -1.421875 
Q 20.0625 -1.421875 12.78125 6.34375 
Q 5.515625 14.109375 5.515625 27.296875 
Q 5.515625 40.671875 12.859375 48.328125 
Q 20.21875 56 33.015625 56 
Q 37.15625 56 41.109375 55.140625 
Q 45.0625 54.296875 48.78125 52.59375 
z
" id="DejaVuSans-99"/>
       <path d="M 30.609375 48.390625 
Q 23.390625 48.390625 19.1875 42.75 
Q 14.984375 37.109375 14.984375 27.296875 
Q 14.984375 17.484375 19.15625 11.84375 
Q 23.34375 6.203125 30.609375 6.203125 
Q 37.796875 6.203125 41.984375 11.859375 
Q 46.1875 17.53125 46.1875 27.296875 
Q 46.1875 37.015625 41.984375 42.703125 
Q 37.796875 48.390625 30.609375 48.390625 
z
M 30.609375 56 
Q 42.328125 56 49.015625 48.375 
Q 55.71875 40.765625 55.71875 27.296875 
Q 55.71875 13.875 49.015625 6.21875 
Q 42.328125 -1.421875 30.609375 -1.421875 
Q 18.84375 -1.421875 12.171875 6.21875 
Q 5.515625 13.875 5.515625 27.296875 
Q 5.515625 40.765625 12.171875 48.375 
Q 18.84375 56 30.609375 56 
z
" id="DejaVuSans-111"/>
       <path d="M 18.109375 8.203125 
L 18.109375 -20.796875 
L 9.078125 -20.796875 
L 9.078125 54.6875 
L 18.109375 54.6875 
L 18.109375 46.390625 
Q 20.953125 51.265625 25.265625 53.625 
Q 29.59375 56 35.59375 56 
Q 45.5625 56 51.78125 48.09375 
Q 58.015625 40.1875 58.015625 27.296875 
Q 58.015625 14.40625 51.78125 6.484375 
Q 45.5625 -1.421875 35.59375 -1.421875 
Q 29.59375 -1.421875 25.265625 0.953125 
Q 20.953125 3.328125 18.109375 8.203125 
z
M 48.6875 27.296875 
Q 48.6875 37.203125 44.609375 42.84375 
Q 40.53125 48.484375 33.40625 48.484375 
Q 26.265625 48.484375 22.1875 42.84375 
Q 18.109375 37.203125 18.109375 27.296875 
Q 18.109375 17.390625 22.1875 11.75 
Q 26.265625 6.109375 33.40625 6.109375 
Q 40.53125 6.109375 44.609375 11.75 
Q 48.6875 17.390625 48.6875 27.296875 
z
" id="DejaVuSans-112"/>
       <path d="M 9.421875 75.984375 
L 18.40625 75.984375 
L 18.40625 0 
L 9.421875 0 
z
" id="DejaVuSans-108"/>
       <path d="M 9.421875 54.6875 
L 18.40625 54.6875 
L 18.40625 -0.984375 
Q 18.40625 -11.421875 14.421875 -16.109375 
Q 10.453125 -20.796875 1.609375 -20.796875 
L -1.8125 -20.796875 
L -1.8125 -13.1875 
L 0.59375 -13.1875 
Q 5.71875 -13.1875 7.5625 -10.8125 
Q 9.421875 -8.453125 9.421875 -0.984375 
z
M 9.421875 75.984375 
L 18.40625 75.984375 
L 18.40625 64.59375 
L 9.421875 64.59375 
z
" id="DejaVuSans-106"/>
       <path d="M 45.40625 46.390625 
L 45.40625 75.984375 
L 54.390625 75.984375 
L 54.390625 0 
L 45.40625 0 
L 45.40625 8.203125 
Q 42.578125 3.328125 38.25 0.953125 
Q 33.9375 -1.421875 27.875 -1.421875 
Q 17.96875 -1.421875 11.734375 6.484375 
Q 5.515625 14.40625 5.515625 27.296875 
Q 5.515625 40.1875 11.734375 48.09375 
Q 17.96875 56 27.875 56 
Q 33.9375 56 38.25 53.625 
Q 42.578125 51.265625 45.40625 46.390625 
z
M 14.796875 27.296875 
Q 14.796875 17.390625 18.875 11.75 
Q 22.953125 6.109375 30.078125 6.109375 
Q 37.203125 6.109375 41.296875 11.75 
Q 45.40625 17.390625 45.40625 27.296875 
Q 45.40625 37.203125 41.296875 42.84375 
Q 37.203125 48.484375 30.078125 48.484375 
Q 22.953125 48.484375 18.875 42.84375 
Q 14.796875 37.203125 14.796875 27.296875 
z
" id="DejaVuSans-100"/>
       <path d="M 34.28125 27.484375 
Q 23.390625 27.484375 19.1875 25 
Q 14.984375 22.515625 14.984375 16.5 
Q 14.984375 11.71875 18.140625 8.90625 
Q 21.296875 6.109375 26.703125 6.109375 
Q 34.1875 6.109375 38.703125 11.40625 
Q 43.21875 16.703125 43.21875 25.484375 
L 43.21875 27.484375 
z
M 52.203125 31.203125 
L 52.203125 0 
L 43.21875 0 
L 43.21875 8.296875 
Q 40.140625 3.328125 35.546875 0.953125 
Q 30.953125 -1.421875 24.3125 -1.421875 
Q 15.921875 -1.421875 10.953125 3.296875 
Q 6 8.015625 6 15.921875 
Q 6 25.140625 12.171875 29.828125 
Q 18.359375 34.515625 30.609375 34.515625 
L 43.21875 34.515625 
L 43.21875 35.40625 
Q 43.21875 41.609375 39.140625 45 
Q 35.0625 48.390625 27.6875 48.390625 
Q 23 48.390625 18.546875 47.265625 
Q 14.109375 46.140625 10.015625 43.890625 
L 10.015625 52.203125 
Q 14.9375 54.109375 19.578125 55.046875 
Q 24.21875 56 28.609375 56 
Q 40.484375 56 46.34375 49.84375 
Q 52.203125 43.703125 52.203125 31.203125 
z
" id="DejaVuSans-97"/>
      </defs>
      <use xlink:href="#DejaVuSans-99"/>
      <use x="54.980469" xlink:href="#DejaVuSans-111"/>
      <use x="116.162109" xlink:href="#DejaVuSans-109"/>
      <use x="213.574219" xlink:href="#DejaVuSans-112"/>
      <use x="277.050781" xlink:href="#DejaVuSans-108"/>
      <use x="304.833984" xlink:href="#DejaVuSans-101"/>
      <use x="366.357422" xlink:href="#DejaVuSans-106"/>
      <use x="394.140625" xlink:href="#DejaVuSans-105"/>
      <use x="421.923828" xlink:href="#DejaVuSans-100"/>
      <use x="485.400391" xlink:href="#DejaVuSans-97"/>
      <use x="546.679688" xlink:href="#DejaVuSans-100"/>
     </g>
    </g>
   </g>
   <g id="PathCollection_1">
    <defs>
     <path d="M 0 3 
C 0.795609 3 1.55874 2.683901 2.12132 2.12132 
C 2.683901 1.55874 3 0.795609 3 0 
C 3 -0.795609 2.683901 -1.55874 2.12132 -2.12132 
C 1.55874 -2.683901 0.795609 -3 0 -3 
C -0.795609 -3 -1.55874 -2.683901 -2.12132 -2.12132 
C -2.683901 -1.55874 -3 -0.795609 -3 0 
C -3 0.795609 -2.683901 1.55874 -2.12132 2.12132 
C -1.55874 2.683901 -0.795609 3 0 3 
z
" id="m9c8281f0fc" style="stroke:#1f77b4;stroke-opacity:0.8;"/>
    </defs>
    <g clip-path="url(#p16c080af04)">
     <use style="fill:#1f77b4;fill-opacity:0.8;stroke:#1f77b4;stroke-opacity:0.8;" x="24.175" xlink:href="#m9c8281f0fc" y="312.083053"/>
     <use style="fill:#1f77b4;fill-opacity:0.8;stroke:#1f77b4;stroke-opacity:0.8;" x="24.290255" xlink:href="#m9c8281f0fc" y="312.083048"/>
     <use style="fill:#1f77b4;fill-opacity:0.8;stroke:#1f77b4;stroke-opacity:0.8;" x="24.331092" xlink:href="#m9c8281f0fc" y="312.083036"/>
     <use style="fill:#1f77b4;fill-opacity:0.8;stroke:#1f77b4;stroke-opacity:0.8;" x="24.492567" xlink:href="#m9c8281f0fc" y="312.083014"/>
     <use style="fill:#1f77b4;fill-opacity:0.8;stroke:#1f77b4;stroke-opacity:0.8;" x="24.498827" xlink:href="#m9c8281f0fc" y="312.082969"/>
     <use style="fill:#1f77b4;fill-opacity:0.8;stroke:#1f77b4;stroke-opacity:0.8;" x="24.877999" xlink:href="#m9c8281f0fc" y="312.082878"/>
     <use style="fill:#1f77b4;fill-opacity:0.8;stroke:#1f77b4;stroke-opacity:0.8;" x="24.983133" xlink:href="#m9c8281f0fc" y="312.082698"/>
     <use style="fill:#1f77b4;fill-opacity:0.8;stroke:#1f77b4;stroke-opacity:0.8;" x="25.030581" xlink:href="#m9c8281f0fc" y="312.082337"/>
     <use style="fill:#1f77b4;fill-opacity:0.8;stroke:#1f77b4;stroke-opacity:0.8;" x="25.60247" xlink:href="#m9c8281f0fc" y="312.081616"/>
     <use style="fill:#1f77b4;fill-opacity:0.8;stroke:#1f77b4;stroke-opacity:0.8;" x="26.576174" xlink:href="#m9c8281f0fc" y="312.080172"/>
     <use style="fill:#1f77b4;fill-opacity:0.8;stroke:#1f77b4;stroke-opacity:0.8;" x="26.525216" xlink:href="#m9c8281f0fc" y="312.077286"/>
     <use style="fill:#1f77b4;fill-opacity:0.8;stroke:#1f77b4;stroke-opacity:0.8;" x="28.770999" xlink:href="#m9c8281f0fc" y="312.071513"/>
     <use style="fill:#1f77b4;fill-opacity:0.8;stroke:#1f77b4;stroke-opacity:0.8;" x="28.921533" xlink:href="#m9c8281f0fc" y="312.059967"/>
     <use style="fill:#1f77b4;fill-opacity:0.8;stroke:#1f77b4;stroke-opacity:0.8;" x="29.854283" xlink:href="#m9c8281f0fc" y="312.036875"/>
     <use style="fill:#1f77b4;fill-opacity:0.8;stroke:#1f77b4;stroke-opacity:0.8;" x="33.457682" xlink:href="#m9c8281f0fc" y="311.990691"/>
     <use style="fill:#1f77b4;fill-opacity:0.8;stroke:#1f77b4;stroke-opacity:0.8;" x="34.454729" xlink:href="#m9c8281f0fc" y="311.898323"/>
     <use style="fill:#1f77b4;fill-opacity:0.8;stroke:#1f77b4;stroke-opacity:0.8;" x="36.705837" xlink:href="#m9c8281f0fc" y="311.713587"/>
     <use style="fill:#1f77b4;fill-opacity:0.8;stroke:#1f77b4;stroke-opacity:0.8;" x="40.613989" xlink:href="#m9c8281f0fc" y="311.344115"/>
     <use style="fill:#1f77b4;fill-opacity:0.8;stroke:#1f77b4;stroke-opacity:0.8;" x="42.957243" xlink:href="#m9c8281f0fc" y="310.605172"/>
     <use style="fill:#1f77b4;fill-opacity:0.8;stroke:#1f77b4;stroke-opacity:0.8;" x="50.477044" xlink:href="#m9c8281f0fc" y="309.127285"/>
     <use style="fill:#1f77b4;fill-opacity:0.8;stroke:#1f77b4;stroke-opacity:0.8;" x="86.056504" xlink:href="#m9c8281f0fc" y="306.17151"/>
     <use style="fill:#1f77b4;fill-opacity:0.8;stroke:#1f77b4;stroke-opacity:0.8;" x="94.122159" xlink:href="#m9c8281f0fc" y="300.259962"/>
     <use style="fill:#1f77b4;fill-opacity:0.8;stroke:#1f77b4;stroke-opacity:0.8;" x="111.968903" xlink:href="#m9c8281f0fc" y="288.436865"/>
     <use style="fill:#1f77b4;fill-opacity:0.8;stroke:#1f77b4;stroke-opacity:0.8;" x="137.127636" xlink:href="#m9c8281f0fc" y="264.790671"/>
     <use style="fill:#1f77b4;fill-opacity:0.8;stroke:#1f77b4;stroke-opacity:0.8;" x="118.978421" xlink:href="#m9c8281f0fc" y="217.498284"/>
     <use style="fill:#1f77b4;fill-opacity:0.8;stroke:#1f77b4;stroke-opacity:0.8;" x="249.987366" xlink:href="#m9c8281f0fc" y="122.913508"/>
     <use style="fill:#1f77b4;fill-opacity:0.8;stroke:#1f77b4;stroke-opacity:0.8;" x="24.298633" xlink:href="#m9c8281f0fc" y="312.083053"/>
     <use style="fill:#1f77b4;fill-opacity:0.8;stroke:#1f77b4;stroke-opacity:0.8;" x="24.409635" xlink:href="#m9c8281f0fc" y="312.083048"/>
     <use style="fill:#1f77b4;fill-opacity:0.8;stroke:#1f77b4;stroke-opacity:0.8;" x="24.514456" xlink:href="#m9c8281f0fc" y="312.083036"/>
     <use style="fill:#1f77b4;fill-opacity:0.8;stroke:#1f77b4;stroke-opacity:0.8;" x="24.507039" xlink:href="#m9c8281f0fc" y="312.083014"/>
     <use style="fill:#1f77b4;fill-opacity:0.8;stroke:#1f77b4;stroke-opacity:0.8;" x="24.612346" xlink:href="#m9c8281f0fc" y="312.082969"/>
     <use style="fill:#1f77b4;fill-opacity:0.8;stroke:#1f77b4;stroke-opacity:0.8;" x="24.835536" xlink:href="#m9c8281f0fc" y="312.082878"/>
     <use style="fill:#1f77b4;fill-opacity:0.8;stroke:#1f77b4;stroke-opacity:0.8;" x="25.041692" xlink:href="#m9c8281f0fc" y="312.082698"/>
     <use style="fill:#1f77b4;fill-opacity:0.8;stroke:#1f77b4;stroke-opacity:0.8;" x="25.31264" xlink:href="#m9c8281f0fc" y="312.082337"/>
     <use style="fill:#1f77b4;fill-opacity:0.8;stroke:#1f77b4;stroke-opacity:0.8;" x="25.923966" xlink:href="#m9c8281f0fc" y="312.081616"/>
     <use style="fill:#1f77b4;fill-opacity:0.8;stroke:#1f77b4;stroke-opacity:0.8;" x="26.233935" xlink:href="#m9c8281f0fc" y="312.080172"/>
     <use style="fill:#1f77b4;fill-opacity:0.8;stroke:#1f77b4;stroke-opacity:0.8;" x="27.004214" xlink:href="#m9c8281f0fc" y="312.077286"/>
     <use style="fill:#1f77b4;fill-opacity:0.8;stroke:#1f77b4;stroke-opacity:0.8;" x="27.758979" xlink:href="#m9c8281f0fc" y="312.071513"/>
     <use style="fill:#1f77b4;fill-opacity:0.8;stroke:#1f77b4;stroke-opacity:0.8;" x="29.772823" xlink:href="#m9c8281f0fc" y="312.059967"/>
     <use style="fill:#1f77b4;fill-opacity:0.8;stroke:#1f77b4;stroke-opacity:0.8;" x="32.191624" xlink:href="#m9c8281f0fc" y="312.036875"/>
     <use style="fill:#1f77b4;fill-opacity:0.8;stroke:#1f77b4;stroke-opacity:0.8;" x="35.190054" xlink:href="#m9c8281f0fc" y="311.990691"/>
     <use style="fill:#1f77b4;fill-opacity:0.8;stroke:#1f77b4;stroke-opacity:0.8;" x="39.39385" xlink:href="#m9c8281f0fc" y="311.898323"/>
     <use style="fill:#1f77b4;fill-opacity:0.8;stroke:#1f77b4;stroke-opacity:0.8;" x="43.201263" xlink:href="#m9c8281f0fc" y="311.713587"/>
     <use style="fill:#1f77b4;fill-opacity:0.8;stroke:#1f77b4;stroke-opacity:0.8;" x="49.81416" xlink:href="#m9c8281f0fc" y="311.344115"/>
     <use style="fill:#1f77b4;fill-opacity:0.8;stroke:#1f77b4;stroke-opacity:0.8;" x="64.646741" xlink:href="#m9c8281f0fc" y="310.605172"/>
     <use style="fill:#1f77b4;fill-opacity:0.8;stroke:#1f77b4;stroke-opacity:0.8;" x="75.951465" xlink:href="#m9c8281f0fc" y="309.127285"/>
     <use style="fill:#1f77b4;fill-opacity:0.8;stroke:#1f77b4;stroke-opacity:0.8;" x="94.472016" xlink:href="#m9c8281f0fc" y="306.17151"/>
     <use style="fill:#1f77b4;fill-opacity:0.8;stroke:#1f77b4;stroke-opacity:0.8;" x="117.973754" xlink:href="#m9c8281f0fc" y="300.259962"/>
     <use style="fill:#1f77b4;fill-opacity:0.8;stroke:#1f77b4;stroke-opacity:0.8;" x="158.597183" xlink:href="#m9c8281f0fc" y="288.436865"/>
     <use style="fill:#1f77b4;fill-opacity:0.8;stroke:#1f77b4;stroke-opacity:0.8;" x="213.809351" xlink:href="#m9c8281f0fc" y="264.790671"/>
     <use style="fill:#1f77b4;fill-opacity:0.8;stroke:#1f77b4;stroke-opacity:0.8;" x="284.766781" xlink:href="#m9c8281f0fc" y="217.498284"/>
     <use style="fill:#1f77b4;fill-opacity:0.8;stroke:#1f77b4;stroke-opacity:0.8;" x="390.913158" xlink:href="#m9c8281f0fc" y="122.913508"/>
     <use style="fill:#1f77b4;fill-opacity:0.8;stroke:#1f77b4;stroke-opacity:0.8;" x="24.252871" xlink:href="#m9c8281f0fc" y="312.083053"/>
     <use style="fill:#1f77b4;fill-opacity:0.8;stroke:#1f77b4;stroke-opacity:0.8;" x="24.232394" xlink:href="#m9c8281f0fc" y="312.083048"/>
     <use style="fill:#1f77b4;fill-opacity:0.8;stroke:#1f77b4;stroke-opacity:0.8;" x="24.328927" xlink:href="#m9c8281f0fc" y="312.083036"/>
     <use style="fill:#1f77b4;fill-opacity:0.8;stroke:#1f77b4;stroke-opacity:0.8;" x="24.440087" xlink:href="#m9c8281f0fc" y="312.083014"/>
     <use style="fill:#1f77b4;fill-opacity:0.8;stroke:#1f77b4;stroke-opacity:0.8;" x="24.714126" xlink:href="#m9c8281f0fc" y="312.082969"/>
     <use style="fill:#1f77b4;fill-opacity:0.8;stroke:#1f77b4;stroke-opacity:0.8;" x="25.014843" xlink:href="#m9c8281f0fc" y="312.082878"/>
     <use style="fill:#1f77b4;fill-opacity:0.8;stroke:#1f77b4;stroke-opacity:0.8;" x="25.214931" xlink:href="#m9c8281f0fc" y="312.082698"/>
     <use style="fill:#1f77b4;fill-opacity:0.8;stroke:#1f77b4;stroke-opacity:0.8;" x="25.64828" xlink:href="#m9c8281f0fc" y="312.082337"/>
     <use style="fill:#1f77b4;fill-opacity:0.8;stroke:#1f77b4;stroke-opacity:0.8;" x="26.152479" xlink:href="#m9c8281f0fc" y="312.081616"/>
     <use style="fill:#1f77b4;fill-opacity:0.8;stroke:#1f77b4;stroke-opacity:0.8;" x="27.152743" xlink:href="#m9c8281f0fc" y="312.080172"/>
     <use style="fill:#1f77b4;fill-opacity:0.8;stroke:#1f77b4;stroke-opacity:0.8;" x="28.551663" xlink:href="#m9c8281f0fc" y="312.077286"/>
     <use style="fill:#1f77b4;fill-opacity:0.8;stroke:#1f77b4;stroke-opacity:0.8;" x="29.602008" xlink:href="#m9c8281f0fc" y="312.071513"/>
     <use style="fill:#1f77b4;fill-opacity:0.8;stroke:#1f77b4;stroke-opacity:0.8;" x="32.210993" xlink:href="#m9c8281f0fc" y="312.059967"/>
     <use style="fill:#1f77b4;fill-opacity:0.8;stroke:#1f77b4;stroke-opacity:0.8;" x="35.793096" xlink:href="#m9c8281f0fc" y="312.036875"/>
     <use style="fill:#1f77b4;fill-opacity:0.8;stroke:#1f77b4;stroke-opacity:0.8;" x="39.156389" xlink:href="#m9c8281f0fc" y="311.990691"/>
     <use style="fill:#1f77b4;fill-opacity:0.8;stroke:#1f77b4;stroke-opacity:0.8;" x="42.870538" xlink:href="#m9c8281f0fc" y="311.898323"/>
     <use style="fill:#1f77b4;fill-opacity:0.8;stroke:#1f77b4;stroke-opacity:0.8;" x="53.518382" xlink:href="#m9c8281f0fc" y="311.713587"/>
     <use style="fill:#1f77b4;fill-opacity:0.8;stroke:#1f77b4;stroke-opacity:0.8;" x="63.157069" xlink:href="#m9c8281f0fc" y="311.344115"/>
     <use style="fill:#1f77b4;fill-opacity:0.8;stroke:#1f77b4;stroke-opacity:0.8;" x="84.530686" xlink:href="#m9c8281f0fc" y="310.605172"/>
     <use style="fill:#1f77b4;fill-opacity:0.8;stroke:#1f77b4;stroke-opacity:0.8;" x="102.775617" xlink:href="#m9c8281f0fc" y="309.127285"/>
     <use style="fill:#1f77b4;fill-opacity:0.8;stroke:#1f77b4;stroke-opacity:0.8;" x="152.549629" xlink:href="#m9c8281f0fc" y="306.17151"/>
     <use style="fill:#1f77b4;fill-opacity:0.8;stroke:#1f77b4;stroke-opacity:0.8;" x="182.460571" xlink:href="#m9c8281f0fc" y="300.259962"/>
     <use style="fill:#1f77b4;fill-opacity:0.8;stroke:#1f77b4;stroke-opacity:0.8;" x="274.07048" xlink:href="#m9c8281f0fc" y="288.436865"/>
     <use style="fill:#1f77b4;fill-opacity:0.8;stroke:#1f77b4;stroke-opacity:0.8;" x="356.638984" xlink:href="#m9c8281f0fc" y="264.790671"/>
     <use style="fill:#1f77b4;fill-opacity:0.8;stroke:#1f77b4;stroke-opacity:0.8;" x="530.489183" xlink:href="#m9c8281f0fc" y="217.498284"/>
     <use style="fill:#1f77b4;fill-opacity:0.8;stroke:#1f77b4;stroke-opacity:0.8;" x="709.2" xlink:href="#m9c8281f0fc" y="122.913508"/>
     <use style="fill:#1f77b4;fill-opacity:0.8;stroke:#1f77b4;stroke-opacity:0.8;" x="464.225399" xlink:href="#m9c8281f0fc" y="122.913508"/>
    </g>
   </g>
   <g id="PolyCollection_1">
    <defs>
     <path d="M 24.175 -48.686766 
L 24.175 -42.409091 
L 31.094444 -45.035404 
L 38.013889 -47.315543 
L 44.933333 -49.511152 
L 51.852778 -51.412525 
L 58.772222 -53.230665 
L 65.691667 -54.848794 
L 72.611111 -56.53422 
L 79.530556 -58.166673 
L 86.45 -59.891276 
L 93.369444 -61.439855 
L 100.288889 -63.052168 
L 107.208333 -64.51284 
L 114.127778 -66.101903 
L 121.047222 -67.728729 
L 127.966667 -69.348966 
L 134.886111 -70.850487 
L 141.805556 -72.374895 
L 148.725 -73.990474 
L 155.644444 -75.538485 
L 162.563889 -77.085865 
L 169.483333 -78.603982 
L 176.402778 -80.16654 
L 183.322222 -81.721012 
L 190.241667 -83.269034 
L 197.161111 -84.817055 
L 204.080556 -86.365076 
L 211 -87.913098 
L 217.919444 -89.461119 
L 224.838889 -91.00914 
L 231.758333 -92.5575 
L 238.677778 -94.102073 
L 245.597222 -95.64799 
L 252.516667 -97.193908 
L 259.436111 -98.739825 
L 266.355556 -100.285743 
L 273.275 -101.83166 
L 280.194444 -103.377577 
L 287.113889 -104.923495 
L 294.033333 -106.469412 
L 300.952778 -108.015329 
L 307.872222 -109.561247 
L 314.791667 -111.107164 
L 321.711111 -112.653081 
L 328.630556 -114.198999 
L 335.55 -115.744916 
L 342.469444 -117.290834 
L 349.388889 -118.818492 
L 356.308333 -120.342568 
L 363.227778 -121.867196 
L 370.147222 -123.392311 
L 377.066667 -124.917426 
L 383.986111 -126.442541 
L 390.905556 -127.967656 
L 397.825 -129.492772 
L 404.744444 -131.017887 
L 411.663889 -132.543002 
L 418.583333 -134.068117 
L 425.502778 -135.593232 
L 432.422222 -137.118347 
L 439.341667 -138.643462 
L 446.261111 -140.168577 
L 453.180556 -141.693692 
L 460.1 -143.218807 
L 467.019444 -144.743922 
L 473.938889 -146.269037 
L 480.858333 -147.794152 
L 487.777778 -149.319267 
L 494.697222 -150.844382 
L 501.616667 -152.369497 
L 508.536111 -153.891984 
L 515.455556 -155.398084 
L 522.375 -156.904185 
L 529.294444 -158.410285 
L 536.213889 -159.937402 
L 543.133333 -161.485111 
L 550.052778 -163.03282 
L 556.972222 -164.56658 
L 563.891667 -166.0906 
L 570.811111 -167.61462 
L 577.730556 -169.13864 
L 584.65 -170.66266 
L 591.569444 -172.18668 
L 598.488889 -173.7107 
L 605.408333 -175.23472 
L 612.327778 -176.75874 
L 619.247222 -178.282761 
L 626.166667 -179.806781 
L 633.086111 -181.330801 
L 640.005556 -182.854821 
L 646.925 -184.378841 
L 653.844444 -185.902861 
L 660.763889 -187.426881 
L 667.683333 -188.950901 
L 674.602778 -190.474921 
L 681.522222 -191.998941 
L 688.441667 -193.522961 
L 695.361111 -195.046981 
L 702.280556 -196.571002 
L 709.2 -198.095022 
L 709.2 -334.590909 
L 709.2 -334.590909 
L 702.280556 -331.670351 
L 695.361111 -328.749794 
L 688.441667 -325.829236 
L 681.522222 -322.908678 
L 674.602778 -319.988121 
L 667.683333 -317.067563 
L 660.763889 -314.147005 
L 653.844444 -311.226448 
L 646.925 -308.30589 
L 640.005556 -305.385332 
L 633.086111 -302.464775 
L 626.166667 -299.544217 
L 619.247222 -296.623659 
L 612.327778 -293.703102 
L 605.408333 -290.782544 
L 598.488889 -287.861986 
L 591.569444 -284.941429 
L 584.65 -282.020871 
L 577.730556 -279.100313 
L 570.811111 -276.179756 
L 563.891667 -273.259198 
L 556.972222 -270.33864 
L 550.052778 -267.384659 
L 543.133333 -264.413593 
L 536.213889 -261.438957 
L 529.294444 -258.464321 
L 522.375 -255.489685 
L 515.455556 -252.515049 
L 508.536111 -249.540413 
L 501.616667 -246.565777 
L 494.697222 -243.591141 
L 487.777778 -240.616505 
L 480.858333 -237.641869 
L 473.938889 -234.667234 
L 467.019444 -231.69525 
L 460.1 -228.771971 
L 453.180556 -225.848692 
L 446.261111 -222.925413 
L 439.341667 -220.002134 
L 432.422222 -217.078855 
L 425.502778 -214.154847 
L 418.583333 -211.198509 
L 411.663889 -208.242171 
L 404.744444 -205.285834 
L 397.825 -202.329496 
L 390.905556 -199.373029 
L 383.986111 -196.462803 
L 377.066667 -193.600797 
L 370.147222 -190.646748 
L 363.227778 -187.760909 
L 356.308333 -184.879289 
L 349.388889 -181.99767 
L 342.469444 -179.087296 
L 335.55 -176.121519 
L 328.630556 -173.132674 
L 321.711111 -170.143828 
L 314.791667 -167.154983 
L 307.872222 -164.164804 
L 300.952778 -161.173949 
L 294.033333 -158.183095 
L 287.113889 -155.192241 
L 280.194444 -152.201387 
L 273.275 -149.246539 
L 266.355556 -146.3574 
L 259.436111 -143.430286 
L 252.516667 -140.569608 
L 245.597222 -137.698668 
L 238.677778 -134.813962 
L 231.758333 -131.929256 
L 224.838889 -129.044551 
L 217.919444 -126.159845 
L 211 -123.273749 
L 204.080556 -120.386619 
L 197.161111 -117.499489 
L 190.241667 -114.612359 
L 183.322222 -111.727485 
L 176.402778 -108.844167 
L 169.483333 -105.960696 
L 162.563889 -103.06316 
L 155.644444 -100.176711 
L 148.725 -97.260016 
L 141.805556 -94.322515 
L 134.886111 -91.368785 
L 127.966667 -88.494997 
L 121.047222 -85.572192 
L 114.127778 -82.649028 
L 107.208333 -79.723474 
L 100.288889 -76.726191 
L 93.369444 -73.869218 
L 86.45 -70.989078 
L 79.530556 -68.105551 
L 72.611111 -65.336136 
L 65.691667 -62.656816 
L 58.772222 -60.096705 
L 51.852778 -57.619312 
L 44.933333 -55.258281 
L 38.013889 -52.980875 
L 31.094444 -50.721018 
L 24.175 -48.686766 
z
" id="mf9725b51c0" style="stroke:#ffffff;stroke-opacity:0.15;"/>
    </defs>
    <g clip-path="url(#p16c080af04)">
     <use style="fill:#ffa500;fill-opacity:0.15;stroke:#ffffff;stroke-opacity:0.15;" x="0" xlink:href="#mf9725b51c0" y="360"/>
    </g>
   </g>
   <g id="line2d_15">
    <path clip-path="url(#p16c080af04)" d="M 24.175 314.163643 
L 31.094444 312.043486 
L 38.013889 309.92333 
L 44.933333 307.803173 
L 51.852778 305.683016 
L 58.772222 303.562859 
L 65.691667 301.442702 
L 72.611111 299.322546 
L 79.530556 297.202389 
L 86.45 295.082232 
L 93.369444 292.962075 
L 100.288889 290.841919 
L 107.208333 288.721762 
L 114.127778 286.601605 
L 121.047222 284.481448 
L 127.966667 282.361291 
L 134.886111 280.241135 
L 141.805556 278.120978 
L 148.725 276.000821 
L 155.644444 273.880664 
L 162.563889 271.760507 
L 169.483333 269.640351 
L 176.402778 267.520194 
L 183.322222 265.400037 
L 190.241667 263.27988 
L 197.161111 261.159723 
L 204.080556 259.039567 
L 211 256.91941 
L 217.919444 254.799253 
L 224.838889 252.679096 
L 231.758333 250.55894 
L 238.677778 248.438783 
L 245.597222 246.318626 
L 252.516667 244.198469 
L 259.436111 242.078312 
L 266.355556 239.958156 
L 273.275 237.837999 
L 280.194444 235.717842 
L 287.113889 233.597685 
L 294.033333 231.477528 
L 300.952778 229.357372 
L 307.872222 227.237215 
L 314.791667 225.117058 
L 321.711111 222.996901 
L 328.630556 220.876744 
L 335.55 218.756588 
L 342.469444 216.636431 
L 349.388889 214.516274 
L 356.308333 212.396117 
L 363.227778 210.27596 
L 370.147222 208.155804 
L 377.066667 206.035647 
L 383.986111 203.91549 
L 390.905556 201.795333 
L 397.825 199.675177 
L 404.744444 197.55502 
L 411.663889 195.434863 
L 418.583333 193.314706 
L 425.502778 191.194549 
L 432.422222 189.074393 
L 439.341667 186.954236 
L 446.261111 184.834079 
L 453.180556 182.713922 
L 460.1 180.593765 
L 467.019444 178.473609 
L 473.938889 176.353452 
L 480.858333 174.233295 
L 487.777778 172.113138 
L 494.697222 169.992981 
L 501.616667 167.872825 
L 508.536111 165.752668 
L 515.455556 163.632511 
L 522.375 161.512354 
L 529.294444 159.392197 
L 536.213889 157.272041 
L 543.133333 155.151884 
L 550.052778 153.031727 
L 556.972222 150.91157 
L 563.891667 148.791414 
L 570.811111 146.671257 
L 577.730556 144.5511 
L 584.65 142.430943 
L 591.569444 140.310786 
L 598.488889 138.19063 
L 605.408333 136.070473 
L 612.327778 133.950316 
L 619.247222 131.830159 
L 626.166667 129.710002 
L 633.086111 127.589846 
L 640.005556 125.469689 
L 646.925 123.349532 
L 653.844444 121.229375 
L 660.763889 119.109218 
L 667.683333 116.989062 
L 674.602778 114.868905 
L 681.522222 112.748748 
L 688.441667 110.628591 
L 695.361111 108.508435 
L 702.280556 106.388278 
L 709.2 104.268121 
" style="fill:none;stroke:#ffa500;stroke-linecap:round;stroke-width:2.25;"/>
   </g>
   <g id="patch_3">
    <path d="M 24.175 332.2 
L 24.175 10.8 
" style="fill:none;stroke:#cccccc;stroke-linecap:square;stroke-linejoin:miter;stroke-width:0.8;"/>
   </g>
   <g id="patch_4">
    <path d="M 24.175 332.2 
L 709.2 332.2 
" style="fill:none;stroke:#cccccc;stroke-linecap:square;stroke-linejoin:miter;stroke-width:0.8;"/>
   </g>
   <g id="text_17">
    <!-- Correlacion entre complejidad teórica y tiempo de ejecución -->
    <g style="fill:#262626;" transform="translate(185.324375 -8.637375)scale(0.12 -0.12)">
     <defs>
      <path d="M 64.40625 67.28125 
L 64.40625 56.890625 
Q 59.421875 61.53125 53.78125 63.8125 
Q 48.140625 66.109375 41.796875 66.109375 
Q 29.296875 66.109375 22.65625 58.46875 
Q 16.015625 50.828125 16.015625 36.375 
Q 16.015625 21.96875 22.65625 14.328125 
Q 29.296875 6.6875 41.796875 6.6875 
Q 48.140625 6.6875 53.78125 8.984375 
Q 59.421875 11.28125 64.40625 15.921875 
L 64.40625 5.609375 
Q 59.234375 2.09375 53.4375 0.328125 
Q 47.65625 -1.421875 41.21875 -1.421875 
Q 24.65625 -1.421875 15.125 8.703125 
Q 5.609375 18.84375 5.609375 36.375 
Q 5.609375 53.953125 15.125 64.078125 
Q 24.65625 74.21875 41.21875 74.21875 
Q 47.75 74.21875 53.53125 72.484375 
Q 59.328125 70.75 64.40625 67.28125 
z
" id="DejaVuSans-67"/>
      <path d="M 41.109375 46.296875 
Q 39.59375 47.171875 37.8125 47.578125 
Q 36.03125 48 33.890625 48 
Q 26.265625 48 22.1875 43.046875 
Q 18.109375 38.09375 18.109375 28.8125 
L 18.109375 0 
L 9.078125 0 
L 9.078125 54.6875 
L 18.109375 54.6875 
L 18.109375 46.1875 
Q 20.953125 51.171875 25.484375 53.578125 
Q 30.03125 56 36.53125 56 
Q 37.453125 56 38.578125 55.875 
Q 39.703125 55.765625 41.0625 55.515625 
z
" id="DejaVuSans-114"/>
      <path d="M 54.890625 33.015625 
L 54.890625 0 
L 45.90625 0 
L 45.90625 32.71875 
Q 45.90625 40.484375 42.875 44.328125 
Q 39.84375 48.1875 33.796875 48.1875 
Q 26.515625 48.1875 22.3125 43.546875 
Q 18.109375 38.921875 18.109375 30.90625 
L 18.109375 0 
L 9.078125 0 
L 9.078125 54.6875 
L 18.109375 54.6875 
L 18.109375 46.1875 
Q 21.34375 51.125 25.703125 53.5625 
Q 30.078125 56 35.796875 56 
Q 45.21875 56 50.046875 50.171875 
Q 54.890625 44.34375 54.890625 33.015625 
z
" id="DejaVuSans-110"/>
      <path id="DejaVuSans-32"/>
      <path d="M 30.609375 48.390625 
Q 23.390625 48.390625 19.1875 42.75 
Q 14.984375 37.109375 14.984375 27.296875 
Q 14.984375 17.484375 19.15625 11.84375 
Q 23.34375 6.203125 30.609375 6.203125 
Q 37.796875 6.203125 41.984375 11.859375 
Q 46.1875 17.53125 46.1875 27.296875 
Q 46.1875 37.015625 41.984375 42.703125 
Q 37.796875 48.390625 30.609375 48.390625 
z
M 30.609375 56 
Q 42.328125 56 49.015625 48.375 
Q 55.71875 40.765625 55.71875 27.296875 
Q 55.71875 13.875 49.015625 6.21875 
Q 42.328125 -1.421875 30.609375 -1.421875 
Q 18.84375 -1.421875 12.171875 6.21875 
Q 5.515625 13.875 5.515625 27.296875 
Q 5.515625 40.765625 12.171875 48.375 
Q 18.84375 56 30.609375 56 
z
M 37.40625 79.984375 
L 47.125 79.984375 
L 31.21875 61.625 
L 23.734375 61.625 
z
" id="DejaVuSans-243"/>
      <path d="M 32.171875 -5.078125 
Q 28.375 -14.84375 24.75 -17.8125 
Q 21.140625 -20.796875 15.09375 -20.796875 
L 7.90625 -20.796875 
L 7.90625 -13.28125 
L 13.1875 -13.28125 
Q 16.890625 -13.28125 18.9375 -11.515625 
Q 21 -9.765625 23.484375 -3.21875 
L 25.09375 0.875 
L 2.984375 54.6875 
L 12.5 54.6875 
L 29.59375 11.921875 
L 46.6875 54.6875 
L 56.203125 54.6875 
z
" id="DejaVuSans-121"/>
      <path d="M 8.5 21.578125 
L 8.5 54.6875 
L 17.484375 54.6875 
L 17.484375 21.921875 
Q 17.484375 14.15625 20.5 10.265625 
Q 23.53125 6.390625 29.59375 6.390625 
Q 36.859375 6.390625 41.078125 11.03125 
Q 45.3125 15.671875 45.3125 23.6875 
L 45.3125 54.6875 
L 54.296875 54.6875 
L 54.296875 0 
L 45.3125 0 
L 45.3125 8.40625 
Q 42.046875 3.421875 37.71875 1 
Q 33.40625 -1.421875 27.6875 -1.421875 
Q 18.265625 -1.421875 13.375 4.4375 
Q 8.5 10.296875 8.5 21.578125 
z
M 31.109375 56 
z
" id="DejaVuSans-117"/>
     </defs>
     <use xlink:href="#DejaVuSans-67"/>
     <use x="69.824219" xlink:href="#DejaVuSans-111"/>
     <use x="131.005859" xlink:href="#DejaVuSans-114"/>
     <use x="170.369141" xlink:href="#DejaVuSans-114"/>
     <use x="209.232422" xlink:href="#DejaVuSans-101"/>
     <use x="270.755859" xlink:href="#DejaVuSans-108"/>
     <use x="298.539062" xlink:href="#DejaVuSans-97"/>
     <use x="359.818359" xlink:href="#DejaVuSans-99"/>
     <use x="414.798828" xlink:href="#DejaVuSans-105"/>
     <use x="442.582031" xlink:href="#DejaVuSans-111"/>
     <use x="503.763672" xlink:href="#DejaVuSans-110"/>
     <use x="567.142578" xlink:href="#DejaVuSans-32"/>
     <use x="598.929688" xlink:href="#DejaVuSans-101"/>
     <use x="660.453125" xlink:href="#DejaVuSans-110"/>
     <use x="723.832031" xlink:href="#DejaVuSans-116"/>
     <use x="763.041016" xlink:href="#DejaVuSans-114"/>
     <use x="801.904297" xlink:href="#DejaVuSans-101"/>
     <use x="863.427734" xlink:href="#DejaVuSans-32"/>
     <use x="895.214844" xlink:href="#DejaVuSans-99"/>
     <use x="950.195312" xlink:href="#DejaVuSans-111"/>
     <use x="1011.376953" xlink:href="#DejaVuSans-109"/>
     <use x="1108.789062" xlink:href="#DejaVuSans-112"/>
     <use x="1172.265625" xlink:href="#DejaVuSans-108"/>
     <use x="1200.048828" xlink:href="#DejaVuSans-101"/>
     <use x="1261.572266" xlink:href="#DejaVuSans-106"/>
     <use x="1289.355469" xlink:href="#DejaVuSans-105"/>
     <use x="1317.138672" xlink:href="#DejaVuSans-100"/>
     <use x="1380.615234" xlink:href="#DejaVuSans-97"/>
     <use x="1441.894531" xlink:href="#DejaVuSans-100"/>
     <use x="1505.371094" xlink:href="#DejaVuSans-32"/>
     <use x="1537.158203" xlink:href="#DejaVuSans-116"/>
     <use x="1576.367188" xlink:href="#DejaVuSans-101"/>
     <use x="1637.890625" xlink:href="#DejaVuSans-243"/>
     <use x="1699.072266" xlink:href="#DejaVuSans-114"/>
     <use x="1740.185547" xlink:href="#DejaVuSans-105"/>
     <use x="1767.96875" xlink:href="#DejaVuSans-99"/>
     <use x="1822.949219" xlink:href="#DejaVuSans-97"/>
     <use x="1884.228516" xlink:href="#DejaVuSans-32"/>
     <use x="1916.015625" xlink:href="#DejaVuSans-121"/>
     <use x="1975.195312" xlink:href="#DejaVuSans-32"/>
     <use x="2006.982422" xlink:href="#DejaVuSans-116"/>
     <use x="2046.191406" xlink:href="#DejaVuSans-105"/>
     <use x="2073.974609" xlink:href="#DejaVuSans-101"/>
     <use x="2135.498047" xlink:href="#DejaVuSans-109"/>
     <use x="2232.910156" xlink:href="#DejaVuSans-112"/>
     <use x="2296.386719" xlink:href="#DejaVuSans-111"/>
     <use x="2357.568359" xlink:href="#DejaVuSans-32"/>
     <use x="2389.355469" xlink:href="#DejaVuSans-100"/>
     <use x="2452.832031" xlink:href="#DejaVuSans-101"/>
     <use x="2514.355469" xlink:href="#DejaVuSans-32"/>
     <use x="2546.142578" xlink:href="#DejaVuSans-101"/>
     <use x="2607.666016" xlink:href="#DejaVuSans-106"/>
     <use x="2635.449219" xlink:href="#DejaVuSans-101"/>
     <use x="2696.972656" xlink:href="#DejaVuSans-99"/>
     <use x="2751.953125" xlink:href="#DejaVuSans-117"/>
     <use x="2815.332031" xlink:href="#DejaVuSans-99"/>
     <use x="2870.3125" xlink:href="#DejaVuSans-105"/>
     <use x="2898.095703" xlink:href="#DejaVuSans-243"/>
     <use x="2959.277344" xlink:href="#DejaVuSans-110"/>
    </g>
    <!-- BT -->
    <g style="fill:#262626;" transform="translate(358.90625 4.8)scale(0.12 -0.12)">
     <defs>
      <path d="M 19.671875 34.8125 
L 19.671875 8.109375 
L 35.5 8.109375 
Q 43.453125 8.109375 47.28125 11.40625 
Q 51.125 14.703125 51.125 21.484375 
Q 51.125 28.328125 47.28125 31.5625 
Q 43.453125 34.8125 35.5 34.8125 
z
M 19.671875 64.796875 
L 19.671875 42.828125 
L 34.28125 42.828125 
Q 41.5 42.828125 45.03125 45.53125 
Q 48.578125 48.25 48.578125 53.8125 
Q 48.578125 59.328125 45.03125 62.0625 
Q 41.5 64.796875 34.28125 64.796875 
z
M 9.8125 72.90625 
L 35.015625 72.90625 
Q 46.296875 72.90625 52.390625 68.21875 
Q 58.5 63.53125 58.5 54.890625 
Q 58.5 48.1875 55.375 44.234375 
Q 52.25 40.28125 46.1875 39.3125 
Q 53.46875 37.75 57.5 32.78125 
Q 61.53125 27.828125 61.53125 20.40625 
Q 61.53125 10.640625 54.890625 5.3125 
Q 48.25 0 35.984375 0 
L 9.8125 0 
z
" id="DejaVuSans-66"/>
      <path d="M -0.296875 72.90625 
L 61.375 72.90625 
L 61.375 64.59375 
L 35.5 64.59375 
L 35.5 0 
L 25.59375 0 
L 25.59375 64.59375 
L -0.296875 64.59375 
z
" id="DejaVuSans-84"/>
     </defs>
     <use xlink:href="#DejaVuSans-66"/>
     <use x="68.603516" xlink:href="#DejaVuSans-84"/>
    </g>
   </g>
  </g>
 </g>
 <defs>
  <clipPath id="p16c080af04">
   <rect height="321.4" width="685.025" x="24.175" y="10.8"/>
  </clipPath>
 </defs>
</svg>
