<?xml version="1.0" encoding="utf-8" standalone="no"?>
<!DOCTYPE svg PUBLIC "-//W3C//DTD SVG 1.1//EN"
  "http://www.w3.org/Graphics/SVG/1.1/DTD/svg11.dtd">
<!-- Created with matplotlib (https://matplotlib.org/) -->
<svg height="360pt" version="1.1" viewBox="0 0 720 360" width="720pt" xmlns="http://www.w3.org/2000/svg" xmlns:xlink="http://www.w3.org/1999/xlink">
 <metadata>
  <rdf:RDF xmlns:cc="http://creativecommons.org/ns#" xmlns:dc="http://purl.org/dc/elements/1.1/" xmlns:rdf="http://www.w3.org/1999/02/22-rdf-syntax-ns#">
   <cc:Work>
    <dc:type rdf:resource="http://purl.org/dc/dcmitype/StillImage"/>
    <dc:date>2020-10-03T20:43:19.230161</dc:date>
    <dc:format>image/svg+xml</dc:format>
    <dc:creator>
     <cc:Agent>
      <dc:title>Matplotlib v3.3.2, https://matplotlib.org/</dc:title>
     </cc:Agent>
    </dc:creator>
   </cc:Work>
  </rdf:RDF>
 </metadata>
 <defs>
  <style type="text/css">*{stroke-linecap:butt;stroke-linejoin:round;}</style>
 </defs>
 <g id="figure_1">
  <g id="patch_1">
   <path d="M 0 360 
L 720 360 
L 720 0 
L 0 0 
z
" style="fill:#ffffff;"/>
  </g>
  <g id="axes_1">
   <g id="patch_2">
    <path d="M 49.425 332.2 
L 709.2 332.2 
L 709.2 11.80921 
L 49.425 11.80921 
z
" style="fill:#ffffff;"/>
   </g>
   <g id="matplotlib.axis_1">
    <g id="xtick_1">
     <g id="line2d_1">
      <path clip-path="url(#p373832dbd6)" d="M 174.578202 332.2 
L 174.578202 11.80921 
" style="fill:none;stroke:#cccccc;stroke-linecap:round;stroke-width:0.8;"/>
     </g>
     <g id="text_1">
      <!-- 2000 -->
      <g style="fill:#262626;" transform="translate(161.853202 346.798438)scale(0.1 -0.1)">
       <defs>
        <path d="M 19.1875 8.296875 
L 53.609375 8.296875 
L 53.609375 0 
L 7.328125 0 
L 7.328125 8.296875 
Q 12.9375 14.109375 22.625 23.890625 
Q 32.328125 33.6875 34.8125 36.53125 
Q 39.546875 41.84375 41.421875 45.53125 
Q 43.3125 49.21875 43.3125 52.78125 
Q 43.3125 58.59375 39.234375 62.25 
Q 35.15625 65.921875 28.609375 65.921875 
Q 23.96875 65.921875 18.8125 64.3125 
Q 13.671875 62.703125 7.8125 59.421875 
L 7.8125 69.390625 
Q 13.765625 71.78125 18.9375 73 
Q 24.125 74.21875 28.421875 74.21875 
Q 39.75 74.21875 46.484375 68.546875 
Q 53.21875 62.890625 53.21875 53.421875 
Q 53.21875 48.921875 51.53125 44.890625 
Q 49.859375 40.875 45.40625 35.40625 
Q 44.1875 33.984375 37.640625 27.21875 
Q 31.109375 20.453125 19.1875 8.296875 
z
" id="DejaVuSans-50"/>
        <path d="M 31.78125 66.40625 
Q 24.171875 66.40625 20.328125 58.90625 
Q 16.5 51.421875 16.5 36.375 
Q 16.5 21.390625 20.328125 13.890625 
Q 24.171875 6.390625 31.78125 6.390625 
Q 39.453125 6.390625 43.28125 13.890625 
Q 47.125 21.390625 47.125 36.375 
Q 47.125 51.421875 43.28125 58.90625 
Q 39.453125 66.40625 31.78125 66.40625 
z
M 31.78125 74.21875 
Q 44.046875 74.21875 50.515625 64.515625 
Q 56.984375 54.828125 56.984375 36.375 
Q 56.984375 17.96875 50.515625 8.265625 
Q 44.046875 -1.421875 31.78125 -1.421875 
Q 19.53125 -1.421875 13.0625 8.265625 
Q 6.59375 17.96875 6.59375 36.375 
Q 6.59375 54.828125 13.0625 64.515625 
Q 19.53125 74.21875 31.78125 74.21875 
z
" id="DejaVuSans-48"/>
       </defs>
       <use xlink:href="#DejaVuSans-50"/>
       <use x="63.623047" xlink:href="#DejaVuSans-48"/>
       <use x="127.246094" xlink:href="#DejaVuSans-48"/>
       <use x="190.869141" xlink:href="#DejaVuSans-48"/>
      </g>
     </g>
    </g>
    <g id="xtick_2">
     <g id="line2d_2">
      <path clip-path="url(#p373832dbd6)" d="M 299.731566 332.2 
L 299.731566 11.80921 
" style="fill:none;stroke:#cccccc;stroke-linecap:round;stroke-width:0.8;"/>
     </g>
     <g id="text_2">
      <!-- 4000 -->
      <g style="fill:#262626;" transform="translate(287.006566 346.798438)scale(0.1 -0.1)">
       <defs>
        <path d="M 37.796875 64.3125 
L 12.890625 25.390625 
L 37.796875 25.390625 
z
M 35.203125 72.90625 
L 47.609375 72.90625 
L 47.609375 25.390625 
L 58.015625 25.390625 
L 58.015625 17.1875 
L 47.609375 17.1875 
L 47.609375 0 
L 37.796875 0 
L 37.796875 17.1875 
L 4.890625 17.1875 
L 4.890625 26.703125 
z
" id="DejaVuSans-52"/>
       </defs>
       <use xlink:href="#DejaVuSans-52"/>
       <use x="63.623047" xlink:href="#DejaVuSans-48"/>
       <use x="127.246094" xlink:href="#DejaVuSans-48"/>
       <use x="190.869141" xlink:href="#DejaVuSans-48"/>
      </g>
     </g>
    </g>
    <g id="xtick_3">
     <g id="line2d_3">
      <path clip-path="url(#p373832dbd6)" d="M 424.884931 332.2 
L 424.884931 11.80921 
" style="fill:none;stroke:#cccccc;stroke-linecap:round;stroke-width:0.8;"/>
     </g>
     <g id="text_3">
      <!-- 6000 -->
      <g style="fill:#262626;" transform="translate(412.159931 346.798438)scale(0.1 -0.1)">
       <defs>
        <path d="M 33.015625 40.375 
Q 26.375 40.375 22.484375 35.828125 
Q 18.609375 31.296875 18.609375 23.390625 
Q 18.609375 15.53125 22.484375 10.953125 
Q 26.375 6.390625 33.015625 6.390625 
Q 39.65625 6.390625 43.53125 10.953125 
Q 47.40625 15.53125 47.40625 23.390625 
Q 47.40625 31.296875 43.53125 35.828125 
Q 39.65625 40.375 33.015625 40.375 
z
M 52.59375 71.296875 
L 52.59375 62.3125 
Q 48.875 64.0625 45.09375 64.984375 
Q 41.3125 65.921875 37.59375 65.921875 
Q 27.828125 65.921875 22.671875 59.328125 
Q 17.53125 52.734375 16.796875 39.40625 
Q 19.671875 43.65625 24.015625 45.921875 
Q 28.375 48.1875 33.59375 48.1875 
Q 44.578125 48.1875 50.953125 41.515625 
Q 57.328125 34.859375 57.328125 23.390625 
Q 57.328125 12.15625 50.6875 5.359375 
Q 44.046875 -1.421875 33.015625 -1.421875 
Q 20.359375 -1.421875 13.671875 8.265625 
Q 6.984375 17.96875 6.984375 36.375 
Q 6.984375 53.65625 15.1875 63.9375 
Q 23.390625 74.21875 37.203125 74.21875 
Q 40.921875 74.21875 44.703125 73.484375 
Q 48.484375 72.75 52.59375 71.296875 
z
" id="DejaVuSans-54"/>
       </defs>
       <use xlink:href="#DejaVuSans-54"/>
       <use x="63.623047" xlink:href="#DejaVuSans-48"/>
       <use x="127.246094" xlink:href="#DejaVuSans-48"/>
       <use x="190.869141" xlink:href="#DejaVuSans-48"/>
      </g>
     </g>
    </g>
    <g id="xtick_4">
     <g id="line2d_4">
      <path clip-path="url(#p373832dbd6)" d="M 550.038295 332.2 
L 550.038295 11.80921 
" style="fill:none;stroke:#cccccc;stroke-linecap:round;stroke-width:0.8;"/>
     </g>
     <g id="text_4">
      <!-- 8000 -->
      <g style="fill:#262626;" transform="translate(537.313295 346.798438)scale(0.1 -0.1)">
       <defs>
        <path d="M 31.78125 34.625 
Q 24.75 34.625 20.71875 30.859375 
Q 16.703125 27.09375 16.703125 20.515625 
Q 16.703125 13.921875 20.71875 10.15625 
Q 24.75 6.390625 31.78125 6.390625 
Q 38.8125 6.390625 42.859375 10.171875 
Q 46.921875 13.96875 46.921875 20.515625 
Q 46.921875 27.09375 42.890625 30.859375 
Q 38.875 34.625 31.78125 34.625 
z
M 21.921875 38.8125 
Q 15.578125 40.375 12.03125 44.71875 
Q 8.5 49.078125 8.5 55.328125 
Q 8.5 64.0625 14.71875 69.140625 
Q 20.953125 74.21875 31.78125 74.21875 
Q 42.671875 74.21875 48.875 69.140625 
Q 55.078125 64.0625 55.078125 55.328125 
Q 55.078125 49.078125 51.53125 44.71875 
Q 48 40.375 41.703125 38.8125 
Q 48.828125 37.15625 52.796875 32.3125 
Q 56.78125 27.484375 56.78125 20.515625 
Q 56.78125 9.90625 50.3125 4.234375 
Q 43.84375 -1.421875 31.78125 -1.421875 
Q 19.734375 -1.421875 13.25 4.234375 
Q 6.78125 9.90625 6.78125 20.515625 
Q 6.78125 27.484375 10.78125 32.3125 
Q 14.796875 37.15625 21.921875 38.8125 
z
M 18.3125 54.390625 
Q 18.3125 48.734375 21.84375 45.5625 
Q 25.390625 42.390625 31.78125 42.390625 
Q 38.140625 42.390625 41.71875 45.5625 
Q 45.3125 48.734375 45.3125 54.390625 
Q 45.3125 60.0625 41.71875 63.234375 
Q 38.140625 66.40625 31.78125 66.40625 
Q 25.390625 66.40625 21.84375 63.234375 
Q 18.3125 60.0625 18.3125 54.390625 
z
" id="DejaVuSans-56"/>
       </defs>
       <use xlink:href="#DejaVuSans-56"/>
       <use x="63.623047" xlink:href="#DejaVuSans-48"/>
       <use x="127.246094" xlink:href="#DejaVuSans-48"/>
       <use x="190.869141" xlink:href="#DejaVuSans-48"/>
      </g>
     </g>
    </g>
    <g id="xtick_5">
     <g id="line2d_5">
      <path clip-path="url(#p373832dbd6)" d="M 675.191659 332.2 
L 675.191659 11.80921 
" style="fill:none;stroke:#cccccc;stroke-linecap:round;stroke-width:0.8;"/>
     </g>
     <g id="text_5">
      <!-- 10000 -->
      <g style="fill:#262626;" transform="translate(659.285409 346.798438)scale(0.1 -0.1)">
       <defs>
        <path d="M 12.40625 8.296875 
L 28.515625 8.296875 
L 28.515625 63.921875 
L 10.984375 60.40625 
L 10.984375 69.390625 
L 28.421875 72.90625 
L 38.28125 72.90625 
L 38.28125 8.296875 
L 54.390625 8.296875 
L 54.390625 0 
L 12.40625 0 
z
" id="DejaVuSans-49"/>
       </defs>
       <use xlink:href="#DejaVuSans-49"/>
       <use x="63.623047" xlink:href="#DejaVuSans-48"/>
       <use x="127.246094" xlink:href="#DejaVuSans-48"/>
       <use x="190.869141" xlink:href="#DejaVuSans-48"/>
       <use x="254.492188" xlink:href="#DejaVuSans-48"/>
      </g>
     </g>
    </g>
    <g id="text_6">
     <!-- time_ms -->
     <g style="fill:#262626;" transform="translate(358.041406 360.476562)scale(0.1 -0.1)">
      <defs>
       <path d="M 18.3125 70.21875 
L 18.3125 54.6875 
L 36.8125 54.6875 
L 36.8125 47.703125 
L 18.3125 47.703125 
L 18.3125 18.015625 
Q 18.3125 11.328125 20.140625 9.421875 
Q 21.96875 7.515625 27.59375 7.515625 
L 36.8125 7.515625 
L 36.8125 0 
L 27.59375 0 
Q 17.1875 0 13.234375 3.875 
Q 9.28125 7.765625 9.28125 18.015625 
L 9.28125 47.703125 
L 2.6875 47.703125 
L 2.6875 54.6875 
L 9.28125 54.6875 
L 9.28125 70.21875 
z
" id="DejaVuSans-116"/>
       <path d="M 9.421875 54.6875 
L 18.40625 54.6875 
L 18.40625 0 
L 9.421875 0 
z
M 9.421875 75.984375 
L 18.40625 75.984375 
L 18.40625 64.59375 
L 9.421875 64.59375 
z
" id="DejaVuSans-105"/>
       <path d="M 52 44.1875 
Q 55.375 50.25 60.0625 53.125 
Q 64.75 56 71.09375 56 
Q 79.640625 56 84.28125 50.015625 
Q 88.921875 44.046875 88.921875 33.015625 
L 88.921875 0 
L 79.890625 0 
L 79.890625 32.71875 
Q 79.890625 40.578125 77.09375 44.375 
Q 74.3125 48.1875 68.609375 48.1875 
Q 61.625 48.1875 57.5625 43.546875 
Q 53.515625 38.921875 53.515625 30.90625 
L 53.515625 0 
L 44.484375 0 
L 44.484375 32.71875 
Q 44.484375 40.625 41.703125 44.40625 
Q 38.921875 48.1875 33.109375 48.1875 
Q 26.21875 48.1875 22.15625 43.53125 
Q 18.109375 38.875 18.109375 30.90625 
L 18.109375 0 
L 9.078125 0 
L 9.078125 54.6875 
L 18.109375 54.6875 
L 18.109375 46.1875 
Q 21.1875 51.21875 25.484375 53.609375 
Q 29.78125 56 35.6875 56 
Q 41.65625 56 45.828125 52.96875 
Q 50 49.953125 52 44.1875 
z
" id="DejaVuSans-109"/>
       <path d="M 56.203125 29.59375 
L 56.203125 25.203125 
L 14.890625 25.203125 
Q 15.484375 15.921875 20.484375 11.0625 
Q 25.484375 6.203125 34.421875 6.203125 
Q 39.59375 6.203125 44.453125 7.46875 
Q 49.3125 8.734375 54.109375 11.28125 
L 54.109375 2.78125 
Q 49.265625 0.734375 44.1875 -0.34375 
Q 39.109375 -1.421875 33.890625 -1.421875 
Q 20.796875 -1.421875 13.15625 6.1875 
Q 5.515625 13.8125 5.515625 26.8125 
Q 5.515625 40.234375 12.765625 48.109375 
Q 20.015625 56 32.328125 56 
Q 43.359375 56 49.78125 48.890625 
Q 56.203125 41.796875 56.203125 29.59375 
z
M 47.21875 32.234375 
Q 47.125 39.59375 43.09375 43.984375 
Q 39.0625 48.390625 32.421875 48.390625 
Q 24.90625 48.390625 20.390625 44.140625 
Q 15.875 39.890625 15.1875 32.171875 
z
" id="DejaVuSans-101"/>
       <path d="M 50.984375 -16.609375 
L 50.984375 -23.578125 
L -0.984375 -23.578125 
L -0.984375 -16.609375 
z
" id="DejaVuSans-95"/>
       <path d="M 44.28125 53.078125 
L 44.28125 44.578125 
Q 40.484375 46.53125 36.375 47.5 
Q 32.28125 48.484375 27.875 48.484375 
Q 21.1875 48.484375 17.84375 46.4375 
Q 14.5 44.390625 14.5 40.28125 
Q 14.5 37.15625 16.890625 35.375 
Q 19.28125 33.59375 26.515625 31.984375 
L 29.59375 31.296875 
Q 39.15625 29.25 43.1875 25.515625 
Q 47.21875 21.78125 47.21875 15.09375 
Q 47.21875 7.46875 41.1875 3.015625 
Q 35.15625 -1.421875 24.609375 -1.421875 
Q 20.21875 -1.421875 15.453125 -0.5625 
Q 10.6875 0.296875 5.421875 2 
L 5.421875 11.28125 
Q 10.40625 8.6875 15.234375 7.390625 
Q 20.0625 6.109375 24.8125 6.109375 
Q 31.15625 6.109375 34.5625 8.28125 
Q 37.984375 10.453125 37.984375 14.40625 
Q 37.984375 18.0625 35.515625 20.015625 
Q 33.0625 21.96875 24.703125 23.78125 
L 21.578125 24.515625 
Q 13.234375 26.265625 9.515625 29.90625 
Q 5.8125 33.546875 5.8125 39.890625 
Q 5.8125 47.609375 11.28125 51.796875 
Q 16.75 56 26.8125 56 
Q 31.78125 56 36.171875 55.265625 
Q 40.578125 54.546875 44.28125 53.078125 
z
" id="DejaVuSans-115"/>
      </defs>
      <use xlink:href="#DejaVuSans-116"/>
      <use x="39.208984" xlink:href="#DejaVuSans-105"/>
      <use x="66.992188" xlink:href="#DejaVuSans-109"/>
      <use x="164.404297" xlink:href="#DejaVuSans-101"/>
      <use x="225.927734" xlink:href="#DejaVuSans-95"/>
      <use x="275.927734" xlink:href="#DejaVuSans-109"/>
      <use x="373.339844" xlink:href="#DejaVuSans-115"/>
     </g>
    </g>
   </g>
   <g id="matplotlib.axis_2">
    <g id="ytick_1">
     <g id="line2d_6">
      <path clip-path="url(#p373832dbd6)" d="M 49.425 316.404498 
L 709.2 316.404498 
" style="fill:none;stroke:#cccccc;stroke-linecap:round;stroke-width:0.8;"/>
     </g>
     <g id="text_7">
      <!-- 0 -->
      <g style="fill:#262626;" transform="translate(36.0625 320.203717)scale(0.1 -0.1)">
       <use xlink:href="#DejaVuSans-48"/>
      </g>
     </g>
    </g>
    <g id="ytick_2">
     <g id="line2d_7">
      <path clip-path="url(#p373832dbd6)" d="M 49.425 273.322167 
L 709.2 273.322167 
" style="fill:none;stroke:#cccccc;stroke-linecap:round;stroke-width:0.8;"/>
     </g>
     <g id="text_8">
      <!-- 2500 -->
      <g style="fill:#262626;" transform="translate(16.975 277.121386)scale(0.1 -0.1)">
       <defs>
        <path d="M 10.796875 72.90625 
L 49.515625 72.90625 
L 49.515625 64.59375 
L 19.828125 64.59375 
L 19.828125 46.734375 
Q 21.96875 47.46875 24.109375 47.828125 
Q 26.265625 48.1875 28.421875 48.1875 
Q 40.625 48.1875 47.75 41.5 
Q 54.890625 34.8125 54.890625 23.390625 
Q 54.890625 11.625 47.5625 5.09375 
Q 40.234375 -1.421875 26.90625 -1.421875 
Q 22.3125 -1.421875 17.546875 -0.640625 
Q 12.796875 0.140625 7.71875 1.703125 
L 7.71875 11.625 
Q 12.109375 9.234375 16.796875 8.0625 
Q 21.484375 6.890625 26.703125 6.890625 
Q 35.15625 6.890625 40.078125 11.328125 
Q 45.015625 15.765625 45.015625 23.390625 
Q 45.015625 31 40.078125 35.4375 
Q 35.15625 39.890625 26.703125 39.890625 
Q 22.75 39.890625 18.8125 39.015625 
Q 14.890625 38.140625 10.796875 36.28125 
z
" id="DejaVuSans-53"/>
       </defs>
       <use xlink:href="#DejaVuSans-50"/>
       <use x="63.623047" xlink:href="#DejaVuSans-53"/>
       <use x="127.246094" xlink:href="#DejaVuSans-48"/>
       <use x="190.869141" xlink:href="#DejaVuSans-48"/>
      </g>
     </g>
    </g>
    <g id="ytick_3">
     <g id="line2d_8">
      <path clip-path="url(#p373832dbd6)" d="M 49.425 230.239836 
L 709.2 230.239836 
" style="fill:none;stroke:#cccccc;stroke-linecap:round;stroke-width:0.8;"/>
     </g>
     <g id="text_9">
      <!-- 5000 -->
      <g style="fill:#262626;" transform="translate(16.975 234.039055)scale(0.1 -0.1)">
       <use xlink:href="#DejaVuSans-53"/>
       <use x="63.623047" xlink:href="#DejaVuSans-48"/>
       <use x="127.246094" xlink:href="#DejaVuSans-48"/>
       <use x="190.869141" xlink:href="#DejaVuSans-48"/>
      </g>
     </g>
    </g>
    <g id="ytick_4">
     <g id="line2d_9">
      <path clip-path="url(#p373832dbd6)" d="M 49.425 187.157505 
L 709.2 187.157505 
" style="fill:none;stroke:#cccccc;stroke-linecap:round;stroke-width:0.8;"/>
     </g>
     <g id="text_10">
      <!-- 7500 -->
      <g style="fill:#262626;" transform="translate(16.975 190.956724)scale(0.1 -0.1)">
       <defs>
        <path d="M 8.203125 72.90625 
L 55.078125 72.90625 
L 55.078125 68.703125 
L 28.609375 0 
L 18.3125 0 
L 43.21875 64.59375 
L 8.203125 64.59375 
z
" id="DejaVuSans-55"/>
       </defs>
       <use xlink:href="#DejaVuSans-55"/>
       <use x="63.623047" xlink:href="#DejaVuSans-53"/>
       <use x="127.246094" xlink:href="#DejaVuSans-48"/>
       <use x="190.869141" xlink:href="#DejaVuSans-48"/>
      </g>
     </g>
    </g>
    <g id="ytick_5">
     <g id="line2d_10">
      <path clip-path="url(#p373832dbd6)" d="M 49.425 144.075174 
L 709.2 144.075174 
" style="fill:none;stroke:#cccccc;stroke-linecap:round;stroke-width:0.8;"/>
     </g>
     <g id="text_11">
      <!-- 10000 -->
      <g style="fill:#262626;" transform="translate(10.6125 147.874393)scale(0.1 -0.1)">
       <use xlink:href="#DejaVuSans-49"/>
       <use x="63.623047" xlink:href="#DejaVuSans-48"/>
       <use x="127.246094" xlink:href="#DejaVuSans-48"/>
       <use x="190.869141" xlink:href="#DejaVuSans-48"/>
       <use x="254.492188" xlink:href="#DejaVuSans-48"/>
      </g>
     </g>
    </g>
    <g id="ytick_6">
     <g id="line2d_11">
      <path clip-path="url(#p373832dbd6)" d="M 49.425 100.992843 
L 709.2 100.992843 
" style="fill:none;stroke:#cccccc;stroke-linecap:round;stroke-width:0.8;"/>
     </g>
     <g id="text_12">
      <!-- 12500 -->
      <g style="fill:#262626;" transform="translate(10.6125 104.792062)scale(0.1 -0.1)">
       <use xlink:href="#DejaVuSans-49"/>
       <use x="63.623047" xlink:href="#DejaVuSans-50"/>
       <use x="127.246094" xlink:href="#DejaVuSans-53"/>
       <use x="190.869141" xlink:href="#DejaVuSans-48"/>
       <use x="254.492188" xlink:href="#DejaVuSans-48"/>
      </g>
     </g>
    </g>
    <g id="ytick_7">
     <g id="line2d_12">
      <path clip-path="url(#p373832dbd6)" d="M 49.425 57.910512 
L 709.2 57.910512 
" style="fill:none;stroke:#cccccc;stroke-linecap:round;stroke-width:0.8;"/>
     </g>
     <g id="text_13">
      <!-- 15000 -->
      <g style="fill:#262626;" transform="translate(10.6125 61.709731)scale(0.1 -0.1)">
       <use xlink:href="#DejaVuSans-49"/>
       <use x="63.623047" xlink:href="#DejaVuSans-53"/>
       <use x="127.246094" xlink:href="#DejaVuSans-48"/>
       <use x="190.869141" xlink:href="#DejaVuSans-48"/>
       <use x="254.492188" xlink:href="#DejaVuSans-48"/>
      </g>
     </g>
    </g>
    <g id="ytick_8">
     <g id="line2d_13">
      <path clip-path="url(#p373832dbd6)" d="M 49.425 14.828182 
L 709.2 14.828182 
" style="fill:none;stroke:#cccccc;stroke-linecap:round;stroke-width:0.8;"/>
     </g>
     <g id="text_14">
      <!-- 17500 -->
      <g style="fill:#262626;" transform="translate(10.6125 18.6274)scale(0.1 -0.1)">
       <use xlink:href="#DejaVuSans-49"/>
       <use x="63.623047" xlink:href="#DejaVuSans-55"/>
       <use x="127.246094" xlink:href="#DejaVuSans-53"/>
       <use x="190.869141" xlink:href="#DejaVuSans-48"/>
       <use x="254.492188" xlink:href="#DejaVuSans-48"/>
      </g>
     </g>
    </g>
    <g id="text_15">
     <!-- complejidad -->
     <g style="fill:#262626;" transform="translate(4.532813 202.51398)rotate(-90)scale(0.1 -0.1)">
      <defs>
       <path d="M 48.78125 52.59375 
L 48.78125 44.1875 
Q 44.96875 46.296875 41.140625 47.34375 
Q 37.3125 48.390625 33.40625 48.390625 
Q 24.65625 48.390625 19.8125 42.84375 
Q 14.984375 37.3125 14.984375 27.296875 
Q 14.984375 17.28125 19.8125 11.734375 
Q 24.65625 6.203125 33.40625 6.203125 
Q 37.3125 6.203125 41.140625 7.25 
Q 44.96875 8.296875 48.78125 10.40625 
L 48.78125 2.09375 
Q 45.015625 0.34375 40.984375 -0.53125 
Q 36.96875 -1.421875 32.421875 -1.421875 
Q 20.0625 -1.421875 12.78125 6.34375 
Q 5.515625 14.109375 5.515625 27.296875 
Q 5.515625 40.671875 12.859375 48.328125 
Q 20.21875 56 33.015625 56 
Q 37.15625 56 41.109375 55.140625 
Q 45.0625 54.296875 48.78125 52.59375 
z
" id="DejaVuSans-99"/>
       <path d="M 30.609375 48.390625 
Q 23.390625 48.390625 19.1875 42.75 
Q 14.984375 37.109375 14.984375 27.296875 
Q 14.984375 17.484375 19.15625 11.84375 
Q 23.34375 6.203125 30.609375 6.203125 
Q 37.796875 6.203125 41.984375 11.859375 
Q 46.1875 17.53125 46.1875 27.296875 
Q 46.1875 37.015625 41.984375 42.703125 
Q 37.796875 48.390625 30.609375 48.390625 
z
M 30.609375 56 
Q 42.328125 56 49.015625 48.375 
Q 55.71875 40.765625 55.71875 27.296875 
Q 55.71875 13.875 49.015625 6.21875 
Q 42.328125 -1.421875 30.609375 -1.421875 
Q 18.84375 -1.421875 12.171875 6.21875 
Q 5.515625 13.875 5.515625 27.296875 
Q 5.515625 40.765625 12.171875 48.375 
Q 18.84375 56 30.609375 56 
z
" id="DejaVuSans-111"/>
       <path d="M 18.109375 8.203125 
L 18.109375 -20.796875 
L 9.078125 -20.796875 
L 9.078125 54.6875 
L 18.109375 54.6875 
L 18.109375 46.390625 
Q 20.953125 51.265625 25.265625 53.625 
Q 29.59375 56 35.59375 56 
Q 45.5625 56 51.78125 48.09375 
Q 58.015625 40.1875 58.015625 27.296875 
Q 58.015625 14.40625 51.78125 6.484375 
Q 45.5625 -1.421875 35.59375 -1.421875 
Q 29.59375 -1.421875 25.265625 0.953125 
Q 20.953125 3.328125 18.109375 8.203125 
z
M 48.6875 27.296875 
Q 48.6875 37.203125 44.609375 42.84375 
Q 40.53125 48.484375 33.40625 48.484375 
Q 26.265625 48.484375 22.1875 42.84375 
Q 18.109375 37.203125 18.109375 27.296875 
Q 18.109375 17.390625 22.1875 11.75 
Q 26.265625 6.109375 33.40625 6.109375 
Q 40.53125 6.109375 44.609375 11.75 
Q 48.6875 17.390625 48.6875 27.296875 
z
" id="DejaVuSans-112"/>
       <path d="M 9.421875 75.984375 
L 18.40625 75.984375 
L 18.40625 0 
L 9.421875 0 
z
" id="DejaVuSans-108"/>
       <path d="M 9.421875 54.6875 
L 18.40625 54.6875 
L 18.40625 -0.984375 
Q 18.40625 -11.421875 14.421875 -16.109375 
Q 10.453125 -20.796875 1.609375 -20.796875 
L -1.8125 -20.796875 
L -1.8125 -13.1875 
L 0.59375 -13.1875 
Q 5.71875 -13.1875 7.5625 -10.8125 
Q 9.421875 -8.453125 9.421875 -0.984375 
z
M 9.421875 75.984375 
L 18.40625 75.984375 
L 18.40625 64.59375 
L 9.421875 64.59375 
z
" id="DejaVuSans-106"/>
       <path d="M 45.40625 46.390625 
L 45.40625 75.984375 
L 54.390625 75.984375 
L 54.390625 0 
L 45.40625 0 
L 45.40625 8.203125 
Q 42.578125 3.328125 38.25 0.953125 
Q 33.9375 -1.421875 27.875 -1.421875 
Q 17.96875 -1.421875 11.734375 6.484375 
Q 5.515625 14.40625 5.515625 27.296875 
Q 5.515625 40.1875 11.734375 48.09375 
Q 17.96875 56 27.875 56 
Q 33.9375 56 38.25 53.625 
Q 42.578125 51.265625 45.40625 46.390625 
z
M 14.796875 27.296875 
Q 14.796875 17.390625 18.875 11.75 
Q 22.953125 6.109375 30.078125 6.109375 
Q 37.203125 6.109375 41.296875 11.75 
Q 45.40625 17.390625 45.40625 27.296875 
Q 45.40625 37.203125 41.296875 42.84375 
Q 37.203125 48.484375 30.078125 48.484375 
Q 22.953125 48.484375 18.875 42.84375 
Q 14.796875 37.203125 14.796875 27.296875 
z
" id="DejaVuSans-100"/>
       <path d="M 34.28125 27.484375 
Q 23.390625 27.484375 19.1875 25 
Q 14.984375 22.515625 14.984375 16.5 
Q 14.984375 11.71875 18.140625 8.90625 
Q 21.296875 6.109375 26.703125 6.109375 
Q 34.1875 6.109375 38.703125 11.40625 
Q 43.21875 16.703125 43.21875 25.484375 
L 43.21875 27.484375 
z
M 52.203125 31.203125 
L 52.203125 0 
L 43.21875 0 
L 43.21875 8.296875 
Q 40.140625 3.328125 35.546875 0.953125 
Q 30.953125 -1.421875 24.3125 -1.421875 
Q 15.921875 -1.421875 10.953125 3.296875 
Q 6 8.015625 6 15.921875 
Q 6 25.140625 12.171875 29.828125 
Q 18.359375 34.515625 30.609375 34.515625 
L 43.21875 34.515625 
L 43.21875 35.40625 
Q 43.21875 41.609375 39.140625 45 
Q 35.0625 48.390625 27.6875 48.390625 
Q 23 48.390625 18.546875 47.265625 
Q 14.109375 46.140625 10.015625 43.890625 
L 10.015625 52.203125 
Q 14.9375 54.109375 19.578125 55.046875 
Q 24.21875 56 28.609375 56 
Q 40.484375 56 46.34375 49.84375 
Q 52.203125 43.703125 52.203125 31.203125 
z
" id="DejaVuSans-97"/>
      </defs>
      <use xlink:href="#DejaVuSans-99"/>
      <use x="54.980469" xlink:href="#DejaVuSans-111"/>
      <use x="116.162109" xlink:href="#DejaVuSans-109"/>
      <use x="213.574219" xlink:href="#DejaVuSans-112"/>
      <use x="277.050781" xlink:href="#DejaVuSans-108"/>
      <use x="304.833984" xlink:href="#DejaVuSans-101"/>
      <use x="366.357422" xlink:href="#DejaVuSans-106"/>
      <use x="394.140625" xlink:href="#DejaVuSans-105"/>
      <use x="421.923828" xlink:href="#DejaVuSans-100"/>
      <use x="485.400391" xlink:href="#DejaVuSans-97"/>
      <use x="546.679688" xlink:href="#DejaVuSans-100"/>
     </g>
    </g>
   </g>
   <g id="PathCollection_1">
    <defs>
     <path d="M 0 3 
C 0.795609 3 1.55874 2.683901 2.12132 2.12132 
C 2.683901 1.55874 3 0.795609 3 0 
C 3 -0.795609 2.683901 -1.55874 2.12132 -2.12132 
C 1.55874 -2.683901 0.795609 -3 0 -3 
C -0.795609 -3 -1.55874 -2.683901 -2.12132 -2.12132 
C -2.683901 -1.55874 -3 -0.795609 -3 0 
C -3 0.795609 -2.683901 1.55874 -2.12132 2.12132 
C -1.55874 2.683901 -0.795609 3 0 3 
z
" id="ma315d2b759" style="stroke:#1f77b4;stroke-opacity:0.8;"/>
    </defs>
    <g clip-path="url(#p373832dbd6)">
     <use style="fill:#1f77b4;fill-opacity:0.8;stroke:#1f77b4;stroke-opacity:0.8;" x="49.425" xlink:href="#ma315d2b759" y="316.404497"/>
     <use style="fill:#1f77b4;fill-opacity:0.8;stroke:#1f77b4;stroke-opacity:0.8;" x="49.425043" xlink:href="#ma315d2b759" y="316.404496"/>
     <use style="fill:#1f77b4;fill-opacity:0.8;stroke:#1f77b4;stroke-opacity:0.8;" x="49.425176" xlink:href="#ma315d2b759" y="316.404493"/>
     <use style="fill:#1f77b4;fill-opacity:0.8;stroke:#1f77b4;stroke-opacity:0.8;" x="49.425222" xlink:href="#ma315d2b759" y="316.404486"/>
     <use style="fill:#1f77b4;fill-opacity:0.8;stroke:#1f77b4;stroke-opacity:0.8;" x="49.425648" xlink:href="#ma315d2b759" y="316.40447"/>
     <use style="fill:#1f77b4;fill-opacity:0.8;stroke:#1f77b4;stroke-opacity:0.8;" x="49.425828" xlink:href="#ma315d2b759" y="316.404436"/>
     <use style="fill:#1f77b4;fill-opacity:0.8;stroke:#1f77b4;stroke-opacity:0.8;" x="49.426532" xlink:href="#ma315d2b759" y="316.404362"/>
     <use style="fill:#1f77b4;fill-opacity:0.8;stroke:#1f77b4;stroke-opacity:0.8;" x="49.427699" xlink:href="#ma315d2b759" y="316.404202"/>
     <use style="fill:#1f77b4;fill-opacity:0.8;stroke:#1f77b4;stroke-opacity:0.8;" x="49.430257" xlink:href="#ma315d2b759" y="316.403856"/>
     <use style="fill:#1f77b4;fill-opacity:0.8;stroke:#1f77b4;stroke-opacity:0.8;" x="49.435274" xlink:href="#ma315d2b759" y="316.403114"/>
     <use style="fill:#1f77b4;fill-opacity:0.8;stroke:#1f77b4;stroke-opacity:0.8;" x="49.444957" xlink:href="#ma315d2b759" y="316.401533"/>
     <use style="fill:#1f77b4;fill-opacity:0.8;stroke:#1f77b4;stroke-opacity:0.8;" x="49.471431" xlink:href="#ma315d2b759" y="316.398173"/>
     <use style="fill:#1f77b4;fill-opacity:0.8;stroke:#1f77b4;stroke-opacity:0.8;" x="49.498996" xlink:href="#ma315d2b759" y="316.391058"/>
     <use style="fill:#1f77b4;fill-opacity:0.8;stroke:#1f77b4;stroke-opacity:0.8;" x="49.564086" xlink:href="#ma315d2b759" y="316.376038"/>
     <use style="fill:#1f77b4;fill-opacity:0.8;stroke:#1f77b4;stroke-opacity:0.8;" x="49.68029" xlink:href="#ma315d2b759" y="316.344415"/>
     <use style="fill:#1f77b4;fill-opacity:0.8;stroke:#1f77b4;stroke-opacity:0.8;" x="49.958441" xlink:href="#ma315d2b759" y="316.278008"/>
     <use style="fill:#1f77b4;fill-opacity:0.8;stroke:#1f77b4;stroke-opacity:0.8;" x="50.331839" xlink:href="#ma315d2b759" y="316.138868"/>
     <use style="fill:#1f77b4;fill-opacity:0.8;stroke:#1f77b4;stroke-opacity:0.8;" x="51.081028" xlink:href="#ma315d2b759" y="315.847941"/>
     <use style="fill:#1f77b4;fill-opacity:0.8;stroke:#1f77b4;stroke-opacity:0.8;" x="52.519419" xlink:href="#ma315d2b759" y="315.240787"/>
     <use style="fill:#1f77b4;fill-opacity:0.8;stroke:#1f77b4;stroke-opacity:0.8;" x="56.017178" xlink:href="#ma315d2b759" y="313.975885"/>
     <use style="fill:#1f77b4;fill-opacity:0.8;stroke:#1f77b4;stroke-opacity:0.8;" x="63.993127" xlink:href="#ma315d2b759" y="311.344887"/>
     <use style="fill:#1f77b4;fill-opacity:0.8;stroke:#1f77b4;stroke-opacity:0.8;" x="74.996632" xlink:href="#ma315d2b759" y="305.880507"/>
     <use style="fill:#1f77b4;fill-opacity:0.8;stroke:#1f77b4;stroke-opacity:0.8;" x="101.669067" xlink:href="#ma315d2b759" y="294.546978"/>
     <use style="fill:#1f77b4;fill-opacity:0.8;stroke:#1f77b4;stroke-opacity:0.8;" x="133.847186" xlink:href="#ma315d2b759" y="271.070383"/>
     <use style="fill:#1f77b4;fill-opacity:0.8;stroke:#1f77b4;stroke-opacity:0.8;" x="268.099471" xlink:href="#ma315d2b759" y="222.498118"/>
     <use style="fill:#1f77b4;fill-opacity:0.8;stroke:#1f77b4;stroke-opacity:0.8;" x="471.294301" xlink:href="#ma315d2b759" y="122.115436"/>
     <use style="fill:#1f77b4;fill-opacity:0.8;stroke:#1f77b4;stroke-opacity:0.8;" x="49.425016" xlink:href="#ma315d2b759" y="316.404497"/>
     <use style="fill:#1f77b4;fill-opacity:0.8;stroke:#1f77b4;stroke-opacity:0.8;" x="49.425058" xlink:href="#ma315d2b759" y="316.404496"/>
     <use style="fill:#1f77b4;fill-opacity:0.8;stroke:#1f77b4;stroke-opacity:0.8;" x="49.425155" xlink:href="#ma315d2b759" y="316.404493"/>
     <use style="fill:#1f77b4;fill-opacity:0.8;stroke:#1f77b4;stroke-opacity:0.8;" x="49.425433" xlink:href="#ma315d2b759" y="316.404486"/>
     <use style="fill:#1f77b4;fill-opacity:0.8;stroke:#1f77b4;stroke-opacity:0.8;" x="49.425697" xlink:href="#ma315d2b759" y="316.40447"/>
     <use style="fill:#1f77b4;fill-opacity:0.8;stroke:#1f77b4;stroke-opacity:0.8;" x="49.426351" xlink:href="#ma315d2b759" y="316.404436"/>
     <use style="fill:#1f77b4;fill-opacity:0.8;stroke:#1f77b4;stroke-opacity:0.8;" x="49.427171" xlink:href="#ma315d2b759" y="316.404362"/>
     <use style="fill:#1f77b4;fill-opacity:0.8;stroke:#1f77b4;stroke-opacity:0.8;" x="49.429097" xlink:href="#ma315d2b759" y="316.404202"/>
     <use style="fill:#1f77b4;fill-opacity:0.8;stroke:#1f77b4;stroke-opacity:0.8;" x="49.432501" xlink:href="#ma315d2b759" y="316.403856"/>
     <use style="fill:#1f77b4;fill-opacity:0.8;stroke:#1f77b4;stroke-opacity:0.8;" x="49.439736" xlink:href="#ma315d2b759" y="316.403114"/>
     <use style="fill:#1f77b4;fill-opacity:0.8;stroke:#1f77b4;stroke-opacity:0.8;" x="49.454329" xlink:href="#ma315d2b759" y="316.401533"/>
     <use style="fill:#1f77b4;fill-opacity:0.8;stroke:#1f77b4;stroke-opacity:0.8;" x="49.473276" xlink:href="#ma315d2b759" y="316.398173"/>
     <use style="fill:#1f77b4;fill-opacity:0.8;stroke:#1f77b4;stroke-opacity:0.8;" x="49.518066" xlink:href="#ma315d2b759" y="316.391058"/>
     <use style="fill:#1f77b4;fill-opacity:0.8;stroke:#1f77b4;stroke-opacity:0.8;" x="49.610033" xlink:href="#ma315d2b759" y="316.376038"/>
     <use style="fill:#1f77b4;fill-opacity:0.8;stroke:#1f77b4;stroke-opacity:0.8;" x="49.788821" xlink:href="#ma315d2b759" y="316.344415"/>
     <use style="fill:#1f77b4;fill-opacity:0.8;stroke:#1f77b4;stroke-opacity:0.8;" x="50.175167" xlink:href="#ma315d2b759" y="316.278008"/>
     <use style="fill:#1f77b4;fill-opacity:0.8;stroke:#1f77b4;stroke-opacity:0.8;" x="50.88291" xlink:href="#ma315d2b759" y="316.138868"/>
     <use style="fill:#1f77b4;fill-opacity:0.8;stroke:#1f77b4;stroke-opacity:0.8;" x="52.170098" xlink:href="#ma315d2b759" y="315.847941"/>
     <use style="fill:#1f77b4;fill-opacity:0.8;stroke:#1f77b4;stroke-opacity:0.8;" x="54.962008" xlink:href="#ma315d2b759" y="315.240787"/>
     <use style="fill:#1f77b4;fill-opacity:0.8;stroke:#1f77b4;stroke-opacity:0.8;" x="60.47442" xlink:href="#ma315d2b759" y="313.975885"/>
     <use style="fill:#1f77b4;fill-opacity:0.8;stroke:#1f77b4;stroke-opacity:0.8;" x="71.19464" xlink:href="#ma315d2b759" y="311.344887"/>
     <use style="fill:#1f77b4;fill-opacity:0.8;stroke:#1f77b4;stroke-opacity:0.8;" x="92.005287" xlink:href="#ma315d2b759" y="305.880507"/>
     <use style="fill:#1f77b4;fill-opacity:0.8;stroke:#1f77b4;stroke-opacity:0.8;" x="134.704757" xlink:href="#ma315d2b759" y="294.546978"/>
     <use style="fill:#1f77b4;fill-opacity:0.8;stroke:#1f77b4;stroke-opacity:0.8;" x="216.663107" xlink:href="#ma315d2b759" y="271.070383"/>
     <use style="fill:#1f77b4;fill-opacity:0.8;stroke:#1f77b4;stroke-opacity:0.8;" x="384.687756" xlink:href="#ma315d2b759" y="222.498118"/>
     <use style="fill:#1f77b4;fill-opacity:0.8;stroke:#1f77b4;stroke-opacity:0.8;" x="709.2" xlink:href="#ma315d2b759" y="122.115436"/>
     <use style="fill:#1f77b4;fill-opacity:0.8;stroke:#1f77b4;stroke-opacity:0.8;" x="49.425031" xlink:href="#ma315d2b759" y="316.404497"/>
     <use style="fill:#1f77b4;fill-opacity:0.8;stroke:#1f77b4;stroke-opacity:0.8;" x="49.425049" xlink:href="#ma315d2b759" y="316.404496"/>
     <use style="fill:#1f77b4;fill-opacity:0.8;stroke:#1f77b4;stroke-opacity:0.8;" x="49.425107" xlink:href="#ma315d2b759" y="316.404493"/>
     <use style="fill:#1f77b4;fill-opacity:0.8;stroke:#1f77b4;stroke-opacity:0.8;" x="49.42518" xlink:href="#ma315d2b759" y="316.404486"/>
     <use style="fill:#1f77b4;fill-opacity:0.8;stroke:#1f77b4;stroke-opacity:0.8;" x="49.425335" xlink:href="#ma315d2b759" y="316.40447"/>
     <use style="fill:#1f77b4;fill-opacity:0.8;stroke:#1f77b4;stroke-opacity:0.8;" x="49.425872" xlink:href="#ma315d2b759" y="316.404436"/>
     <use style="fill:#1f77b4;fill-opacity:0.8;stroke:#1f77b4;stroke-opacity:0.8;" x="49.426491" xlink:href="#ma315d2b759" y="316.404362"/>
     <use style="fill:#1f77b4;fill-opacity:0.8;stroke:#1f77b4;stroke-opacity:0.8;" x="49.428093" xlink:href="#ma315d2b759" y="316.404202"/>
     <use style="fill:#1f77b4;fill-opacity:0.8;stroke:#1f77b4;stroke-opacity:0.8;" x="49.430732" xlink:href="#ma315d2b759" y="316.403856"/>
     <use style="fill:#1f77b4;fill-opacity:0.8;stroke:#1f77b4;stroke-opacity:0.8;" x="49.43588" xlink:href="#ma315d2b759" y="316.403114"/>
     <use style="fill:#1f77b4;fill-opacity:0.8;stroke:#1f77b4;stroke-opacity:0.8;" x="49.447056" xlink:href="#ma315d2b759" y="316.401533"/>
     <use style="fill:#1f77b4;fill-opacity:0.8;stroke:#1f77b4;stroke-opacity:0.8;" x="49.46726" xlink:href="#ma315d2b759" y="316.398173"/>
     <use style="fill:#1f77b4;fill-opacity:0.8;stroke:#1f77b4;stroke-opacity:0.8;" x="49.507878" xlink:href="#ma315d2b759" y="316.391058"/>
     <use style="fill:#1f77b4;fill-opacity:0.8;stroke:#1f77b4;stroke-opacity:0.8;" x="49.58951" xlink:href="#ma315d2b759" y="316.376038"/>
     <use style="fill:#1f77b4;fill-opacity:0.8;stroke:#1f77b4;stroke-opacity:0.8;" x="49.766855" xlink:href="#ma315d2b759" y="316.344415"/>
     <use style="fill:#1f77b4;fill-opacity:0.8;stroke:#1f77b4;stroke-opacity:0.8;" x="50.050542" xlink:href="#ma315d2b759" y="316.278008"/>
     <use style="fill:#1f77b4;fill-opacity:0.8;stroke:#1f77b4;stroke-opacity:0.8;" x="50.694443" xlink:href="#ma315d2b759" y="316.138868"/>
     <use style="fill:#1f77b4;fill-opacity:0.8;stroke:#1f77b4;stroke-opacity:0.8;" x="51.76352" xlink:href="#ma315d2b759" y="315.847941"/>
     <use style="fill:#1f77b4;fill-opacity:0.8;stroke:#1f77b4;stroke-opacity:0.8;" x="54.010499" xlink:href="#ma315d2b759" y="315.240787"/>
     <use style="fill:#1f77b4;fill-opacity:0.8;stroke:#1f77b4;stroke-opacity:0.8;" x="58.521485" xlink:href="#ma315d2b759" y="313.975885"/>
     <use style="fill:#1f77b4;fill-opacity:0.8;stroke:#1f77b4;stroke-opacity:0.8;" x="66.89656" xlink:href="#ma315d2b759" y="311.344887"/>
     <use style="fill:#1f77b4;fill-opacity:0.8;stroke:#1f77b4;stroke-opacity:0.8;" x="85.498105" xlink:href="#ma315d2b759" y="305.880507"/>
     <use style="fill:#1f77b4;fill-opacity:0.8;stroke:#1f77b4;stroke-opacity:0.8;" x="119.808587" xlink:href="#ma315d2b759" y="294.546978"/>
     <use style="fill:#1f77b4;fill-opacity:0.8;stroke:#1f77b4;stroke-opacity:0.8;" x="186.94398" xlink:href="#ma315d2b759" y="271.070383"/>
     <use style="fill:#1f77b4;fill-opacity:0.8;stroke:#1f77b4;stroke-opacity:0.8;" x="330.946693" xlink:href="#ma315d2b759" y="222.498118"/>
     <use style="fill:#1f77b4;fill-opacity:0.8;stroke:#1f77b4;stroke-opacity:0.8;" x="628.263736" xlink:href="#ma315d2b759" y="122.115436"/>
     <use style="fill:#1f77b4;fill-opacity:0.8;stroke:#1f77b4;stroke-opacity:0.8;" x="449.996411" xlink:href="#ma315d2b759" y="122.115436"/>
    </g>
   </g>
   <g id="PolyCollection_1">
    <defs>
     <path d="M 49.425 -44.632928 
L 49.425 -42.363218 
L 56.089394 -45.165754 
L 62.753788 -47.611835 
L 69.418182 -49.793545 
L 76.082576 -51.920355 
L 82.74697 -54.001747 
L 89.411364 -56.053761 
L 96.075758 -58.07378 
L 102.740152 -60.111981 
L 109.404545 -62.1581 
L 116.068939 -64.204396 
L 122.733333 -66.252442 
L 129.397727 -68.30116 
L 136.062121 -70.34325 
L 142.726515 -72.385953 
L 149.390909 -74.428608 
L 156.055303 -76.471348 
L 162.719697 -78.514088 
L 169.384091 -80.556828 
L 176.048485 -82.599568 
L 182.712879 -84.642308 
L 189.377273 -86.685048 
L 196.041667 -88.727788 
L 202.706061 -90.770528 
L 209.370455 -92.813268 
L 216.034848 -94.856058 
L 222.699242 -96.892241 
L 229.363636 -98.941745 
L 236.02803 -100.98423 
L 242.692424 -103.026968 
L 249.356818 -105.069708 
L 256.021212 -107.112448 
L 262.685606 -109.155188 
L 269.35 -111.197928 
L 276.014394 -113.240669 
L 282.678788 -115.283409 
L 289.343182 -117.326149 
L 296.007576 -119.368889 
L 302.67197 -121.411629 
L 309.336364 -123.454369 
L 316.000758 -125.497109 
L 322.665152 -127.539849 
L 329.329545 -129.582589 
L 335.993939 -131.625329 
L 342.658333 -133.668069 
L 349.322727 -135.710809 
L 355.987121 -137.753549 
L 362.651515 -139.796289 
L 369.315909 -141.839029 
L 375.980303 -143.881769 
L 382.644697 -145.924509 
L 389.309091 -147.967249 
L 395.973485 -150.009989 
L 402.637879 -152.052729 
L 409.302273 -154.095469 
L 415.966667 -156.138209 
L 422.631061 -158.180949 
L 429.295455 -160.223689 
L 435.959848 -162.266429 
L 442.624242 -164.309169 
L 449.288636 -166.351909 
L 455.95303 -168.394649 
L 462.617424 -170.437389 
L 469.281818 -172.480129 
L 475.946212 -174.522869 
L 482.610606 -176.565609 
L 489.275 -178.608349 
L 495.939394 -180.651089 
L 502.603788 -182.693829 
L 509.268182 -184.736569 
L 515.932576 -186.779309 
L 522.59697 -188.82205 
L 529.261364 -190.86479 
L 535.925758 -192.90753 
L 542.590152 -194.95027 
L 549.254545 -196.99301 
L 555.918939 -199.03575 
L 562.583333 -201.07849 
L 569.247727 -203.12123 
L 575.912121 -205.163896 
L 582.576515 -207.206424 
L 589.240909 -209.248951 
L 595.905303 -211.291479 
L 602.569697 -213.334007 
L 609.234091 -215.376534 
L 615.898485 -217.419062 
L 622.562879 -219.46159 
L 629.227273 -221.504118 
L 635.891667 -223.546645 
L 642.556061 -225.589173 
L 649.220455 -227.631701 
L 655.884848 -229.674228 
L 662.549242 -231.716756 
L 669.213636 -233.759284 
L 675.87803 -235.801812 
L 682.542424 -237.844339 
L 689.206818 -239.886867 
L 695.871212 -241.929395 
L 702.535606 -243.971923 
L 709.2 -246.01445 
L 709.2 -333.627572 
L 709.2 -333.627572 
L 702.535606 -330.684034 
L 695.871212 -327.740497 
L 689.206818 -324.796959 
L 682.542424 -321.853421 
L 675.87803 -318.909883 
L 669.213636 -315.966346 
L 662.549242 -313.022808 
L 655.884848 -310.07927 
L 649.220455 -307.135732 
L 642.556061 -304.192194 
L 635.891667 -301.248657 
L 629.227273 -298.305119 
L 622.562879 -295.361581 
L 615.898485 -292.418043 
L 609.234091 -289.474505 
L 602.569697 -286.533279 
L 595.905303 -283.597418 
L 589.240909 -280.661558 
L 582.576515 -277.725698 
L 575.912121 -274.789837 
L 569.247727 -271.853977 
L 562.583333 -268.917934 
L 555.918939 -265.981848 
L 549.254545 -263.045762 
L 542.590152 -260.109675 
L 535.925758 -257.173589 
L 529.261364 -254.237503 
L 522.59697 -251.301417 
L 515.932576 -248.365331 
L 509.268182 -245.429245 
L 502.603788 -242.493159 
L 495.939394 -239.557073 
L 489.275 -236.620986 
L 482.610606 -233.6849 
L 475.946212 -230.748814 
L 469.281818 -227.812728 
L 462.617424 -224.876642 
L 455.95303 -221.940556 
L 449.288636 -219.00447 
L 442.624242 -216.068384 
L 435.959848 -213.132297 
L 429.295455 -210.184913 
L 422.631061 -207.237266 
L 415.966667 -204.28962 
L 409.302273 -201.341973 
L 402.637879 -198.394635 
L 395.973485 -195.458404 
L 389.309091 -192.522174 
L 382.644697 -189.585943 
L 375.980303 -186.649713 
L 369.315909 -183.713482 
L 362.651515 -180.777252 
L 355.987121 -177.841021 
L 349.322727 -174.90479 
L 342.658333 -171.96856 
L 335.993939 -169.032329 
L 329.329545 -166.096099 
L 322.665152 -163.159868 
L 316.000758 -160.223638 
L 309.336364 -157.287407 
L 302.67197 -154.351177 
L 296.007576 -151.414946 
L 289.343182 -148.478716 
L 282.678788 -145.542485 
L 276.014394 -142.606255 
L 269.35 -139.670024 
L 262.685606 -136.733793 
L 256.021212 -133.797563 
L 249.356818 -130.861332 
L 242.692424 -127.930835 
L 236.02803 -125.008489 
L 229.363636 -122.086143 
L 222.699242 -119.163797 
L 216.034848 -116.241451 
L 209.370455 -113.315793 
L 202.706061 -110.380355 
L 196.041667 -107.444918 
L 189.377273 -104.509481 
L 182.712879 -101.574043 
L 176.048485 -98.638217 
L 169.384091 -95.702357 
L 162.719697 -92.766497 
L 156.055303 -89.830636 
L 149.390909 -86.894592 
L 142.726515 -83.957992 
L 136.062121 -80.99434 
L 129.397727 -78.026668 
L 122.733333 -75.072952 
L 116.068939 -72.135386 
L 109.404545 -69.198523 
L 102.740152 -66.212918 
L 96.075758 -63.318331 
L 89.411364 -60.376352 
L 82.74697 -57.441128 
L 76.082576 -54.601496 
L 69.418182 -51.839307 
L 62.753788 -49.249133 
L 56.089394 -46.892139 
L 49.425 -44.632928 
z
" id="me23d807ecd" style="stroke:#ffffff;stroke-opacity:0.15;"/>
    </defs>
    <g clip-path="url(#p373832dbd6)">
     <use style="fill:#ffa500;fill-opacity:0.15;stroke:#ffffff;stroke-opacity:0.15;" x="0" xlink:href="#me23d807ecd" y="360"/>
    </g>
   </g>
   <g id="line2d_14">
    <path clip-path="url(#p373832dbd6)" d="M 49.425 316.234307 
L 56.089394 313.882579 
L 62.753788 311.530851 
L 69.418182 309.179124 
L 76.082576 306.827396 
L 82.74697 304.475668 
L 89.411364 302.12394 
L 96.075758 299.772212 
L 102.740152 297.420484 
L 109.404545 295.068756 
L 116.068939 292.717028 
L 122.733333 290.3653 
L 129.397727 288.013572 
L 136.062121 285.661844 
L 142.726515 283.310116 
L 149.390909 280.958388 
L 156.055303 278.60666 
L 162.719697 276.254932 
L 169.384091 273.903204 
L 176.048485 271.551476 
L 182.712879 269.199748 
L 189.377273 266.84802 
L 196.041667 264.496292 
L 202.706061 262.144564 
L 209.370455 259.792836 
L 216.034848 257.441108 
L 222.699242 255.08938 
L 229.363636 252.737652 
L 236.02803 250.385924 
L 242.692424 248.034196 
L 249.356818 245.682468 
L 256.021212 243.33074 
L 262.685606 240.979012 
L 269.35 238.627284 
L 276.014394 236.275556 
L 282.678788 233.923828 
L 289.343182 231.5721 
L 296.007576 229.220372 
L 302.67197 226.868644 
L 309.336364 224.516916 
L 316.000758 222.165188 
L 322.665152 219.81346 
L 329.329545 217.461732 
L 335.993939 215.110004 
L 342.658333 212.758276 
L 349.322727 210.406548 
L 355.987121 208.05482 
L 362.651515 205.703092 
L 369.315909 203.351364 
L 375.980303 200.999636 
L 382.644697 198.647908 
L 389.309091 196.29618 
L 395.973485 193.944452 
L 402.637879 191.592724 
L 409.302273 189.240996 
L 415.966667 186.889268 
L 422.631061 184.53754 
L 429.295455 182.185812 
L 435.959848 179.834084 
L 442.624242 177.482356 
L 449.288636 175.130628 
L 455.95303 172.7789 
L 462.617424 170.427172 
L 469.281818 168.075444 
L 475.946212 165.723716 
L 482.610606 163.371988 
L 489.275 161.02026 
L 495.939394 158.668532 
L 502.603788 156.316804 
L 509.268182 153.965076 
L 515.932576 151.613348 
L 522.59697 149.26162 
L 529.261364 146.909892 
L 535.925758 144.558164 
L 542.590152 142.206436 
L 549.254545 139.854708 
L 555.918939 137.50298 
L 562.583333 135.151252 
L 569.247727 132.799524 
L 575.912121 130.447796 
L 582.576515 128.096068 
L 589.240909 125.74434 
L 595.905303 123.392612 
L 602.569697 121.040884 
L 609.234091 118.689156 
L 615.898485 116.337428 
L 622.562879 113.9857 
L 629.227273 111.633972 
L 635.891667 109.282244 
L 642.556061 106.930516 
L 649.220455 104.578788 
L 655.884848 102.22706 
L 662.549242 99.875332 
L 669.213636 97.523604 
L 675.87803 95.171876 
L 682.542424 92.820148 
L 689.206818 90.46842 
L 695.871212 88.116692 
L 702.535606 85.764964 
L 709.2 83.413236 
" style="fill:none;stroke:#ffa500;stroke-linecap:round;stroke-width:2.25;"/>
   </g>
   <g id="patch_3">
    <path d="M 49.425 332.2 
L 49.425 11.80921 
" style="fill:none;stroke:#cccccc;stroke-linecap:square;stroke-linejoin:miter;stroke-width:0.8;"/>
   </g>
   <g id="patch_4">
    <path d="M 49.425 332.2 
L 709.2 332.2 
" style="fill:none;stroke:#cccccc;stroke-linecap:square;stroke-linejoin:miter;stroke-width:0.8;"/>
   </g>
   <g id="text_16">
    <!-- Correlacion entre complejidad teórica y tiempo de ejecución -->
    <g style="fill:#262626;" transform="translate(197.949375 -7.628165)scale(0.12 -0.12)">
     <defs>
      <path d="M 64.40625 67.28125 
L 64.40625 56.890625 
Q 59.421875 61.53125 53.78125 63.8125 
Q 48.140625 66.109375 41.796875 66.109375 
Q 29.296875 66.109375 22.65625 58.46875 
Q 16.015625 50.828125 16.015625 36.375 
Q 16.015625 21.96875 22.65625 14.328125 
Q 29.296875 6.6875 41.796875 6.6875 
Q 48.140625 6.6875 53.78125 8.984375 
Q 59.421875 11.28125 64.40625 15.921875 
L 64.40625 5.609375 
Q 59.234375 2.09375 53.4375 0.328125 
Q 47.65625 -1.421875 41.21875 -1.421875 
Q 24.65625 -1.421875 15.125 8.703125 
Q 5.609375 18.84375 5.609375 36.375 
Q 5.609375 53.953125 15.125 64.078125 
Q 24.65625 74.21875 41.21875 74.21875 
Q 47.75 74.21875 53.53125 72.484375 
Q 59.328125 70.75 64.40625 67.28125 
z
" id="DejaVuSans-67"/>
      <path d="M 41.109375 46.296875 
Q 39.59375 47.171875 37.8125 47.578125 
Q 36.03125 48 33.890625 48 
Q 26.265625 48 22.1875 43.046875 
Q 18.109375 38.09375 18.109375 28.8125 
L 18.109375 0 
L 9.078125 0 
L 9.078125 54.6875 
L 18.109375 54.6875 
L 18.109375 46.1875 
Q 20.953125 51.171875 25.484375 53.578125 
Q 30.03125 56 36.53125 56 
Q 37.453125 56 38.578125 55.875 
Q 39.703125 55.765625 41.0625 55.515625 
z
" id="DejaVuSans-114"/>
      <path d="M 54.890625 33.015625 
L 54.890625 0 
L 45.90625 0 
L 45.90625 32.71875 
Q 45.90625 40.484375 42.875 44.328125 
Q 39.84375 48.1875 33.796875 48.1875 
Q 26.515625 48.1875 22.3125 43.546875 
Q 18.109375 38.921875 18.109375 30.90625 
L 18.109375 0 
L 9.078125 0 
L 9.078125 54.6875 
L 18.109375 54.6875 
L 18.109375 46.1875 
Q 21.34375 51.125 25.703125 53.5625 
Q 30.078125 56 35.796875 56 
Q 45.21875 56 50.046875 50.171875 
Q 54.890625 44.34375 54.890625 33.015625 
z
" id="DejaVuSans-110"/>
      <path id="DejaVuSans-32"/>
      <path d="M 30.609375 48.390625 
Q 23.390625 48.390625 19.1875 42.75 
Q 14.984375 37.109375 14.984375 27.296875 
Q 14.984375 17.484375 19.15625 11.84375 
Q 23.34375 6.203125 30.609375 6.203125 
Q 37.796875 6.203125 41.984375 11.859375 
Q 46.1875 17.53125 46.1875 27.296875 
Q 46.1875 37.015625 41.984375 42.703125 
Q 37.796875 48.390625 30.609375 48.390625 
z
M 30.609375 56 
Q 42.328125 56 49.015625 48.375 
Q 55.71875 40.765625 55.71875 27.296875 
Q 55.71875 13.875 49.015625 6.21875 
Q 42.328125 -1.421875 30.609375 -1.421875 
Q 18.84375 -1.421875 12.171875 6.21875 
Q 5.515625 13.875 5.515625 27.296875 
Q 5.515625 40.765625 12.171875 48.375 
Q 18.84375 56 30.609375 56 
z
M 37.40625 79.984375 
L 47.125 79.984375 
L 31.21875 61.625 
L 23.734375 61.625 
z
" id="DejaVuSans-243"/>
      <path d="M 32.171875 -5.078125 
Q 28.375 -14.84375 24.75 -17.8125 
Q 21.140625 -20.796875 15.09375 -20.796875 
L 7.90625 -20.796875 
L 7.90625 -13.28125 
L 13.1875 -13.28125 
Q 16.890625 -13.28125 18.9375 -11.515625 
Q 21 -9.765625 23.484375 -3.21875 
L 25.09375 0.875 
L 2.984375 54.6875 
L 12.5 54.6875 
L 29.59375 11.921875 
L 46.6875 54.6875 
L 56.203125 54.6875 
z
" id="DejaVuSans-121"/>
      <path d="M 8.5 21.578125 
L 8.5 54.6875 
L 17.484375 54.6875 
L 17.484375 21.921875 
Q 17.484375 14.15625 20.5 10.265625 
Q 23.53125 6.390625 29.59375 6.390625 
Q 36.859375 6.390625 41.078125 11.03125 
Q 45.3125 15.671875 45.3125 23.6875 
L 45.3125 54.6875 
L 54.296875 54.6875 
L 54.296875 0 
L 45.3125 0 
L 45.3125 8.40625 
Q 42.046875 3.421875 37.71875 1 
Q 33.40625 -1.421875 27.6875 -1.421875 
Q 18.265625 -1.421875 13.375 4.4375 
Q 8.5 10.296875 8.5 21.578125 
z
M 31.109375 56 
z
" id="DejaVuSans-117"/>
     </defs>
     <use xlink:href="#DejaVuSans-67"/>
     <use x="69.824219" xlink:href="#DejaVuSans-111"/>
     <use x="131.005859" xlink:href="#DejaVuSans-114"/>
     <use x="170.369141" xlink:href="#DejaVuSans-114"/>
     <use x="209.232422" xlink:href="#DejaVuSans-101"/>
     <use x="270.755859" xlink:href="#DejaVuSans-108"/>
     <use x="298.539062" xlink:href="#DejaVuSans-97"/>
     <use x="359.818359" xlink:href="#DejaVuSans-99"/>
     <use x="414.798828" xlink:href="#DejaVuSans-105"/>
     <use x="442.582031" xlink:href="#DejaVuSans-111"/>
     <use x="503.763672" xlink:href="#DejaVuSans-110"/>
     <use x="567.142578" xlink:href="#DejaVuSans-32"/>
     <use x="598.929688" xlink:href="#DejaVuSans-101"/>
     <use x="660.453125" xlink:href="#DejaVuSans-110"/>
     <use x="723.832031" xlink:href="#DejaVuSans-116"/>
     <use x="763.041016" xlink:href="#DejaVuSans-114"/>
     <use x="801.904297" xlink:href="#DejaVuSans-101"/>
     <use x="863.427734" xlink:href="#DejaVuSans-32"/>
     <use x="895.214844" xlink:href="#DejaVuSans-99"/>
     <use x="950.195312" xlink:href="#DejaVuSans-111"/>
     <use x="1011.376953" xlink:href="#DejaVuSans-109"/>
     <use x="1108.789062" xlink:href="#DejaVuSans-112"/>
     <use x="1172.265625" xlink:href="#DejaVuSans-108"/>
     <use x="1200.048828" xlink:href="#DejaVuSans-101"/>
     <use x="1261.572266" xlink:href="#DejaVuSans-106"/>
     <use x="1289.355469" xlink:href="#DejaVuSans-105"/>
     <use x="1317.138672" xlink:href="#DejaVuSans-100"/>
     <use x="1380.615234" xlink:href="#DejaVuSans-97"/>
     <use x="1441.894531" xlink:href="#DejaVuSans-100"/>
     <use x="1505.371094" xlink:href="#DejaVuSans-32"/>
     <use x="1537.158203" xlink:href="#DejaVuSans-116"/>
     <use x="1576.367188" xlink:href="#DejaVuSans-101"/>
     <use x="1637.890625" xlink:href="#DejaVuSans-243"/>
     <use x="1699.072266" xlink:href="#DejaVuSans-114"/>
     <use x="1740.185547" xlink:href="#DejaVuSans-105"/>
     <use x="1767.96875" xlink:href="#DejaVuSans-99"/>
     <use x="1822.949219" xlink:href="#DejaVuSans-97"/>
     <use x="1884.228516" xlink:href="#DejaVuSans-32"/>
     <use x="1916.015625" xlink:href="#DejaVuSans-121"/>
     <use x="1975.195312" xlink:href="#DejaVuSans-32"/>
     <use x="2006.982422" xlink:href="#DejaVuSans-116"/>
     <use x="2046.191406" xlink:href="#DejaVuSans-105"/>
     <use x="2073.974609" xlink:href="#DejaVuSans-101"/>
     <use x="2135.498047" xlink:href="#DejaVuSans-109"/>
     <use x="2232.910156" xlink:href="#DejaVuSans-112"/>
     <use x="2296.386719" xlink:href="#DejaVuSans-111"/>
     <use x="2357.568359" xlink:href="#DejaVuSans-32"/>
     <use x="2389.355469" xlink:href="#DejaVuSans-100"/>
     <use x="2452.832031" xlink:href="#DejaVuSans-101"/>
     <use x="2514.355469" xlink:href="#DejaVuSans-32"/>
     <use x="2546.142578" xlink:href="#DejaVuSans-101"/>
     <use x="2607.666016" xlink:href="#DejaVuSans-106"/>
     <use x="2635.449219" xlink:href="#DejaVuSans-101"/>
     <use x="2696.972656" xlink:href="#DejaVuSans-99"/>
     <use x="2751.953125" xlink:href="#DejaVuSans-117"/>
     <use x="2815.332031" xlink:href="#DejaVuSans-99"/>
     <use x="2870.3125" xlink:href="#DejaVuSans-105"/>
     <use x="2898.095703" xlink:href="#DejaVuSans-243"/>
     <use x="2959.277344" xlink:href="#DejaVuSans-110"/>
    </g>
    <!-- BT-O-C -->
    <g style="fill:#262626;" transform="translate(358.506562 5.80921)scale(0.12 -0.12)">
     <defs>
      <path d="M 19.671875 34.8125 
L 19.671875 8.109375 
L 35.5 8.109375 
Q 43.453125 8.109375 47.28125 11.40625 
Q 51.125 14.703125 51.125 21.484375 
Q 51.125 28.328125 47.28125 31.5625 
Q 43.453125 34.8125 35.5 34.8125 
z
M 19.671875 64.796875 
L 19.671875 42.828125 
L 34.28125 42.828125 
Q 41.5 42.828125 45.03125 45.53125 
Q 48.578125 48.25 48.578125 53.8125 
Q 48.578125 59.328125 45.03125 62.0625 
Q 41.5 64.796875 34.28125 64.796875 
z
M 9.8125 72.90625 
L 35.015625 72.90625 
Q 46.296875 72.90625 52.390625 68.21875 
Q 58.5 63.53125 58.5 54.890625 
Q 58.5 48.1875 55.375 44.234375 
Q 52.25 40.28125 46.1875 39.3125 
Q 53.46875 37.75 57.5 32.78125 
Q 61.53125 27.828125 61.53125 20.40625 
Q 61.53125 10.640625 54.890625 5.3125 
Q 48.25 0 35.984375 0 
L 9.8125 0 
z
" id="DejaVuSans-66"/>
      <path d="M -0.296875 72.90625 
L 61.375 72.90625 
L 61.375 64.59375 
L 35.5 64.59375 
L 35.5 0 
L 25.59375 0 
L 25.59375 64.59375 
L -0.296875 64.59375 
z
" id="DejaVuSans-84"/>
      <path d="M 4.890625 31.390625 
L 31.203125 31.390625 
L 31.203125 23.390625 
L 4.890625 23.390625 
z
" id="DejaVuSans-45"/>
      <path d="M 39.40625 66.21875 
Q 28.65625 66.21875 22.328125 58.203125 
Q 16.015625 50.203125 16.015625 36.375 
Q 16.015625 22.609375 22.328125 14.59375 
Q 28.65625 6.59375 39.40625 6.59375 
Q 50.140625 6.59375 56.421875 14.59375 
Q 62.703125 22.609375 62.703125 36.375 
Q 62.703125 50.203125 56.421875 58.203125 
Q 50.140625 66.21875 39.40625 66.21875 
z
M 39.40625 74.21875 
Q 54.734375 74.21875 63.90625 63.9375 
Q 73.09375 53.65625 73.09375 36.375 
Q 73.09375 19.140625 63.90625 8.859375 
Q 54.734375 -1.421875 39.40625 -1.421875 
Q 24.03125 -1.421875 14.8125 8.828125 
Q 5.609375 19.09375 5.609375 36.375 
Q 5.609375 53.65625 14.8125 63.9375 
Q 24.03125 74.21875 39.40625 74.21875 
z
" id="DejaVuSans-79"/>
     </defs>
     <use xlink:href="#DejaVuSans-66"/>
     <use x="68.603516" xlink:href="#DejaVuSans-84"/>
     <use x="120.5625" xlink:href="#DejaVuSans-45"/>
     <use x="159.396484" xlink:href="#DejaVuSans-79"/>
     <use x="240.857422" xlink:href="#DejaVuSans-45"/>
     <use x="276.941406" xlink:href="#DejaVuSans-67"/>
    </g>
   </g>
  </g>
 </g>
 <defs>
  <clipPath id="p373832dbd6">
   <rect height="320.39079" width="659.775" x="49.425" y="11.80921"/>
  </clipPath>
 </defs>
</svg>
