<?xml version="1.0" encoding="utf-8" standalone="no"?>
<!DOCTYPE svg PUBLIC "-//W3C//DTD SVG 1.1//EN"
  "http://www.w3.org/Graphics/SVG/1.1/DTD/svg11.dtd">
<!-- Created with matplotlib (https://matplotlib.org/) -->
<svg height="360pt" version="1.1" viewBox="0 0 720 360" width="720pt" xmlns="http://www.w3.org/2000/svg" xmlns:xlink="http://www.w3.org/1999/xlink">
 <metadata>
  <rdf:RDF xmlns:cc="http://creativecommons.org/ns#" xmlns:dc="http://purl.org/dc/elements/1.1/" xmlns:rdf="http://www.w3.org/1999/02/22-rdf-syntax-ns#">
   <cc:Work>
    <dc:type rdf:resource="http://purl.org/dc/dcmitype/StillImage"/>
    <dc:date>2020-10-03T20:43:46.737484</dc:date>
    <dc:format>image/svg+xml</dc:format>
    <dc:creator>
     <cc:Agent>
      <dc:title>Matplotlib v3.3.2, https://matplotlib.org/</dc:title>
     </cc:Agent>
    </dc:creator>
   </cc:Work>
  </rdf:RDF>
 </metadata>
 <defs>
  <style type="text/css">*{stroke-linecap:butt;stroke-linejoin:round;}</style>
 </defs>
 <g id="figure_1">
  <g id="patch_1">
   <path d="M 0 360 
L 720 360 
L 720 0 
L 0 0 
z
" style="fill:#ffffff;"/>
  </g>
  <g id="axes_1">
   <g id="patch_2">
    <path d="M 90 315 
L 648 315 
L 648 43.2 
L 90 43.2 
z
" style="fill:#ffffff;"/>
   </g>
   <g id="matplotlib.axis_1">
    <g id="xtick_1">
     <g id="text_1">
      <!-- 5 -->
      <g style="fill:#262626;" transform="translate(97.549519 329.598437)scale(0.1 -0.1)">
       <defs>
        <path d="M 10.796875 72.90625 
L 49.515625 72.90625 
L 49.515625 64.59375 
L 19.828125 64.59375 
L 19.828125 46.734375 
Q 21.96875 47.46875 24.109375 47.828125 
Q 26.265625 48.1875 28.421875 48.1875 
Q 40.625 48.1875 47.75 41.5 
Q 54.890625 34.8125 54.890625 23.390625 
Q 54.890625 11.625 47.5625 5.09375 
Q 40.234375 -1.421875 26.90625 -1.421875 
Q 22.3125 -1.421875 17.546875 -0.640625 
Q 12.796875 0.140625 7.71875 1.703125 
L 7.71875 11.625 
Q 12.109375 9.234375 16.796875 8.0625 
Q 21.484375 6.890625 26.703125 6.890625 
Q 35.15625 6.890625 40.078125 11.328125 
Q 45.015625 15.765625 45.015625 23.390625 
Q 45.015625 31 40.078125 35.4375 
Q 35.15625 39.890625 26.703125 39.890625 
Q 22.75 39.890625 18.8125 39.015625 
Q 14.890625 38.140625 10.796875 36.28125 
z
" id="DejaVuSans-53"/>
       </defs>
       <use xlink:href="#DejaVuSans-53"/>
      </g>
     </g>
    </g>
    <g id="xtick_2">
     <g id="text_2">
      <!-- 6 -->
      <g style="fill:#262626;" transform="translate(119.011058 329.598437)scale(0.1 -0.1)">
       <defs>
        <path d="M 33.015625 40.375 
Q 26.375 40.375 22.484375 35.828125 
Q 18.609375 31.296875 18.609375 23.390625 
Q 18.609375 15.53125 22.484375 10.953125 
Q 26.375 6.390625 33.015625 6.390625 
Q 39.65625 6.390625 43.53125 10.953125 
Q 47.40625 15.53125 47.40625 23.390625 
Q 47.40625 31.296875 43.53125 35.828125 
Q 39.65625 40.375 33.015625 40.375 
z
M 52.59375 71.296875 
L 52.59375 62.3125 
Q 48.875 64.0625 45.09375 64.984375 
Q 41.3125 65.921875 37.59375 65.921875 
Q 27.828125 65.921875 22.671875 59.328125 
Q 17.53125 52.734375 16.796875 39.40625 
Q 19.671875 43.65625 24.015625 45.921875 
Q 28.375 48.1875 33.59375 48.1875 
Q 44.578125 48.1875 50.953125 41.515625 
Q 57.328125 34.859375 57.328125 23.390625 
Q 57.328125 12.15625 50.6875 5.359375 
Q 44.046875 -1.421875 33.015625 -1.421875 
Q 20.359375 -1.421875 13.671875 8.265625 
Q 6.984375 17.96875 6.984375 36.375 
Q 6.984375 53.65625 15.1875 63.9375 
Q 23.390625 74.21875 37.203125 74.21875 
Q 40.921875 74.21875 44.703125 73.484375 
Q 48.484375 72.75 52.59375 71.296875 
z
" id="DejaVuSans-54"/>
       </defs>
       <use xlink:href="#DejaVuSans-54"/>
      </g>
     </g>
    </g>
    <g id="xtick_3">
     <g id="text_3">
      <!-- 7 -->
      <g style="fill:#262626;" transform="translate(140.472596 329.598437)scale(0.1 -0.1)">
       <defs>
        <path d="M 8.203125 72.90625 
L 55.078125 72.90625 
L 55.078125 68.703125 
L 28.609375 0 
L 18.3125 0 
L 43.21875 64.59375 
L 8.203125 64.59375 
z
" id="DejaVuSans-55"/>
       </defs>
       <use xlink:href="#DejaVuSans-55"/>
      </g>
     </g>
    </g>
    <g id="xtick_4">
     <g id="text_4">
      <!-- 8 -->
      <g style="fill:#262626;" transform="translate(161.934135 329.598437)scale(0.1 -0.1)">
       <defs>
        <path d="M 31.78125 34.625 
Q 24.75 34.625 20.71875 30.859375 
Q 16.703125 27.09375 16.703125 20.515625 
Q 16.703125 13.921875 20.71875 10.15625 
Q 24.75 6.390625 31.78125 6.390625 
Q 38.8125 6.390625 42.859375 10.171875 
Q 46.921875 13.96875 46.921875 20.515625 
Q 46.921875 27.09375 42.890625 30.859375 
Q 38.875 34.625 31.78125 34.625 
z
M 21.921875 38.8125 
Q 15.578125 40.375 12.03125 44.71875 
Q 8.5 49.078125 8.5 55.328125 
Q 8.5 64.0625 14.71875 69.140625 
Q 20.953125 74.21875 31.78125 74.21875 
Q 42.671875 74.21875 48.875 69.140625 
Q 55.078125 64.0625 55.078125 55.328125 
Q 55.078125 49.078125 51.53125 44.71875 
Q 48 40.375 41.703125 38.8125 
Q 48.828125 37.15625 52.796875 32.3125 
Q 56.78125 27.484375 56.78125 20.515625 
Q 56.78125 9.90625 50.3125 4.234375 
Q 43.84375 -1.421875 31.78125 -1.421875 
Q 19.734375 -1.421875 13.25 4.234375 
Q 6.78125 9.90625 6.78125 20.515625 
Q 6.78125 27.484375 10.78125 32.3125 
Q 14.796875 37.15625 21.921875 38.8125 
z
M 18.3125 54.390625 
Q 18.3125 48.734375 21.84375 45.5625 
Q 25.390625 42.390625 31.78125 42.390625 
Q 38.140625 42.390625 41.71875 45.5625 
Q 45.3125 48.734375 45.3125 54.390625 
Q 45.3125 60.0625 41.71875 63.234375 
Q 38.140625 66.40625 31.78125 66.40625 
Q 25.390625 66.40625 21.84375 63.234375 
Q 18.3125 60.0625 18.3125 54.390625 
z
" id="DejaVuSans-56"/>
       </defs>
       <use xlink:href="#DejaVuSans-56"/>
      </g>
     </g>
    </g>
    <g id="xtick_5">
     <g id="text_5">
      <!-- 9 -->
      <g style="fill:#262626;" transform="translate(183.395673 329.598437)scale(0.1 -0.1)">
       <defs>
        <path d="M 10.984375 1.515625 
L 10.984375 10.5 
Q 14.703125 8.734375 18.5 7.8125 
Q 22.3125 6.890625 25.984375 6.890625 
Q 35.75 6.890625 40.890625 13.453125 
Q 46.046875 20.015625 46.78125 33.40625 
Q 43.953125 29.203125 39.59375 26.953125 
Q 35.25 24.703125 29.984375 24.703125 
Q 19.046875 24.703125 12.671875 31.3125 
Q 6.296875 37.9375 6.296875 49.421875 
Q 6.296875 60.640625 12.9375 67.421875 
Q 19.578125 74.21875 30.609375 74.21875 
Q 43.265625 74.21875 49.921875 64.515625 
Q 56.59375 54.828125 56.59375 36.375 
Q 56.59375 19.140625 48.40625 8.859375 
Q 40.234375 -1.421875 26.421875 -1.421875 
Q 22.703125 -1.421875 18.890625 -0.6875 
Q 15.09375 0.046875 10.984375 1.515625 
z
M 30.609375 32.421875 
Q 37.25 32.421875 41.125 36.953125 
Q 45.015625 41.5 45.015625 49.421875 
Q 45.015625 57.28125 41.125 61.84375 
Q 37.25 66.40625 30.609375 66.40625 
Q 23.96875 66.40625 20.09375 61.84375 
Q 16.21875 57.28125 16.21875 49.421875 
Q 16.21875 41.5 20.09375 36.953125 
Q 23.96875 32.421875 30.609375 32.421875 
z
" id="DejaVuSans-57"/>
       </defs>
       <use xlink:href="#DejaVuSans-57"/>
      </g>
     </g>
    </g>
    <g id="xtick_6">
     <g id="text_6">
      <!-- 10 -->
      <g style="fill:#262626;" transform="translate(201.675962 329.598437)scale(0.1 -0.1)">
       <defs>
        <path d="M 12.40625 8.296875 
L 28.515625 8.296875 
L 28.515625 63.921875 
L 10.984375 60.40625 
L 10.984375 69.390625 
L 28.421875 72.90625 
L 38.28125 72.90625 
L 38.28125 8.296875 
L 54.390625 8.296875 
L 54.390625 0 
L 12.40625 0 
z
" id="DejaVuSans-49"/>
        <path d="M 31.78125 66.40625 
Q 24.171875 66.40625 20.328125 58.90625 
Q 16.5 51.421875 16.5 36.375 
Q 16.5 21.390625 20.328125 13.890625 
Q 24.171875 6.390625 31.78125 6.390625 
Q 39.453125 6.390625 43.28125 13.890625 
Q 47.125 21.390625 47.125 36.375 
Q 47.125 51.421875 43.28125 58.90625 
Q 39.453125 66.40625 31.78125 66.40625 
z
M 31.78125 74.21875 
Q 44.046875 74.21875 50.515625 64.515625 
Q 56.984375 54.828125 56.984375 36.375 
Q 56.984375 17.96875 50.515625 8.265625 
Q 44.046875 -1.421875 31.78125 -1.421875 
Q 19.53125 -1.421875 13.0625 8.265625 
Q 6.59375 17.96875 6.59375 36.375 
Q 6.59375 54.828125 13.0625 64.515625 
Q 19.53125 74.21875 31.78125 74.21875 
z
" id="DejaVuSans-48"/>
       </defs>
       <use xlink:href="#DejaVuSans-49"/>
       <use x="63.623047" xlink:href="#DejaVuSans-48"/>
      </g>
     </g>
    </g>
    <g id="xtick_7">
     <g id="text_7">
      <!-- 11 -->
      <g style="fill:#262626;" transform="translate(223.1375 329.598437)scale(0.1 -0.1)">
       <use xlink:href="#DejaVuSans-49"/>
       <use x="63.623047" xlink:href="#DejaVuSans-49"/>
      </g>
     </g>
    </g>
    <g id="xtick_8">
     <g id="text_8">
      <!-- 12 -->
      <g style="fill:#262626;" transform="translate(244.599038 329.598437)scale(0.1 -0.1)">
       <defs>
        <path d="M 19.1875 8.296875 
L 53.609375 8.296875 
L 53.609375 0 
L 7.328125 0 
L 7.328125 8.296875 
Q 12.9375 14.109375 22.625 23.890625 
Q 32.328125 33.6875 34.8125 36.53125 
Q 39.546875 41.84375 41.421875 45.53125 
Q 43.3125 49.21875 43.3125 52.78125 
Q 43.3125 58.59375 39.234375 62.25 
Q 35.15625 65.921875 28.609375 65.921875 
Q 23.96875 65.921875 18.8125 64.3125 
Q 13.671875 62.703125 7.8125 59.421875 
L 7.8125 69.390625 
Q 13.765625 71.78125 18.9375 73 
Q 24.125 74.21875 28.421875 74.21875 
Q 39.75 74.21875 46.484375 68.546875 
Q 53.21875 62.890625 53.21875 53.421875 
Q 53.21875 48.921875 51.53125 44.890625 
Q 49.859375 40.875 45.40625 35.40625 
Q 44.1875 33.984375 37.640625 27.21875 
Q 31.109375 20.453125 19.1875 8.296875 
z
" id="DejaVuSans-50"/>
       </defs>
       <use xlink:href="#DejaVuSans-49"/>
       <use x="63.623047" xlink:href="#DejaVuSans-50"/>
      </g>
     </g>
    </g>
    <g id="xtick_9">
     <g id="text_9">
      <!-- 13 -->
      <g style="fill:#262626;" transform="translate(266.060577 329.598437)scale(0.1 -0.1)">
       <defs>
        <path d="M 40.578125 39.3125 
Q 47.65625 37.796875 51.625 33 
Q 55.609375 28.21875 55.609375 21.1875 
Q 55.609375 10.40625 48.1875 4.484375 
Q 40.765625 -1.421875 27.09375 -1.421875 
Q 22.515625 -1.421875 17.65625 -0.515625 
Q 12.796875 0.390625 7.625 2.203125 
L 7.625 11.71875 
Q 11.71875 9.328125 16.59375 8.109375 
Q 21.484375 6.890625 26.8125 6.890625 
Q 36.078125 6.890625 40.9375 10.546875 
Q 45.796875 14.203125 45.796875 21.1875 
Q 45.796875 27.640625 41.28125 31.265625 
Q 36.765625 34.90625 28.71875 34.90625 
L 20.21875 34.90625 
L 20.21875 43.015625 
L 29.109375 43.015625 
Q 36.375 43.015625 40.234375 45.921875 
Q 44.09375 48.828125 44.09375 54.296875 
Q 44.09375 59.90625 40.109375 62.90625 
Q 36.140625 65.921875 28.71875 65.921875 
Q 24.65625 65.921875 20.015625 65.03125 
Q 15.375 64.15625 9.8125 62.3125 
L 9.8125 71.09375 
Q 15.4375 72.65625 20.34375 73.4375 
Q 25.25 74.21875 29.59375 74.21875 
Q 40.828125 74.21875 47.359375 69.109375 
Q 53.90625 64.015625 53.90625 55.328125 
Q 53.90625 49.265625 50.4375 45.09375 
Q 46.96875 40.921875 40.578125 39.3125 
z
" id="DejaVuSans-51"/>
       </defs>
       <use xlink:href="#DejaVuSans-49"/>
       <use x="63.623047" xlink:href="#DejaVuSans-51"/>
      </g>
     </g>
    </g>
    <g id="xtick_10">
     <g id="text_10">
      <!-- 14 -->
      <g style="fill:#262626;" transform="translate(287.522115 329.598437)scale(0.1 -0.1)">
       <defs>
        <path d="M 37.796875 64.3125 
L 12.890625 25.390625 
L 37.796875 25.390625 
z
M 35.203125 72.90625 
L 47.609375 72.90625 
L 47.609375 25.390625 
L 58.015625 25.390625 
L 58.015625 17.1875 
L 47.609375 17.1875 
L 47.609375 0 
L 37.796875 0 
L 37.796875 17.1875 
L 4.890625 17.1875 
L 4.890625 26.703125 
z
" id="DejaVuSans-52"/>
       </defs>
       <use xlink:href="#DejaVuSans-49"/>
       <use x="63.623047" xlink:href="#DejaVuSans-52"/>
      </g>
     </g>
    </g>
    <g id="xtick_11">
     <g id="text_11">
      <!-- 15 -->
      <g style="fill:#262626;" transform="translate(308.983654 329.598437)scale(0.1 -0.1)">
       <use xlink:href="#DejaVuSans-49"/>
       <use x="63.623047" xlink:href="#DejaVuSans-53"/>
      </g>
     </g>
    </g>
    <g id="xtick_12">
     <g id="text_12">
      <!-- 16 -->
      <g style="fill:#262626;" transform="translate(330.445192 329.598437)scale(0.1 -0.1)">
       <use xlink:href="#DejaVuSans-49"/>
       <use x="63.623047" xlink:href="#DejaVuSans-54"/>
      </g>
     </g>
    </g>
    <g id="xtick_13">
     <g id="text_13">
      <!-- 17 -->
      <g style="fill:#262626;" transform="translate(351.906731 329.598437)scale(0.1 -0.1)">
       <use xlink:href="#DejaVuSans-49"/>
       <use x="63.623047" xlink:href="#DejaVuSans-55"/>
      </g>
     </g>
    </g>
    <g id="xtick_14">
     <g id="text_14">
      <!-- 18 -->
      <g style="fill:#262626;" transform="translate(373.368269 329.598437)scale(0.1 -0.1)">
       <use xlink:href="#DejaVuSans-49"/>
       <use x="63.623047" xlink:href="#DejaVuSans-56"/>
      </g>
     </g>
    </g>
    <g id="xtick_15">
     <g id="text_15">
      <!-- 19 -->
      <g style="fill:#262626;" transform="translate(394.829808 329.598437)scale(0.1 -0.1)">
       <use xlink:href="#DejaVuSans-49"/>
       <use x="63.623047" xlink:href="#DejaVuSans-57"/>
      </g>
     </g>
    </g>
    <g id="xtick_16">
     <g id="text_16">
      <!-- 20 -->
      <g style="fill:#262626;" transform="translate(416.291346 329.598437)scale(0.1 -0.1)">
       <use xlink:href="#DejaVuSans-50"/>
       <use x="63.623047" xlink:href="#DejaVuSans-48"/>
      </g>
     </g>
    </g>
    <g id="xtick_17">
     <g id="text_17">
      <!-- 21 -->
      <g style="fill:#262626;" transform="translate(437.752885 329.598437)scale(0.1 -0.1)">
       <use xlink:href="#DejaVuSans-50"/>
       <use x="63.623047" xlink:href="#DejaVuSans-49"/>
      </g>
     </g>
    </g>
    <g id="xtick_18">
     <g id="text_18">
      <!-- 22 -->
      <g style="fill:#262626;" transform="translate(459.214423 329.598437)scale(0.1 -0.1)">
       <use xlink:href="#DejaVuSans-50"/>
       <use x="63.623047" xlink:href="#DejaVuSans-50"/>
      </g>
     </g>
    </g>
    <g id="xtick_19">
     <g id="text_19">
      <!-- 23 -->
      <g style="fill:#262626;" transform="translate(480.675962 329.598437)scale(0.1 -0.1)">
       <use xlink:href="#DejaVuSans-50"/>
       <use x="63.623047" xlink:href="#DejaVuSans-51"/>
      </g>
     </g>
    </g>
    <g id="xtick_20">
     <g id="text_20">
      <!-- 24 -->
      <g style="fill:#262626;" transform="translate(502.1375 329.598437)scale(0.1 -0.1)">
       <use xlink:href="#DejaVuSans-50"/>
       <use x="63.623047" xlink:href="#DejaVuSans-52"/>
      </g>
     </g>
    </g>
    <g id="xtick_21">
     <g id="text_21">
      <!-- 25 -->
      <g style="fill:#262626;" transform="translate(523.599038 329.598437)scale(0.1 -0.1)">
       <use xlink:href="#DejaVuSans-50"/>
       <use x="63.623047" xlink:href="#DejaVuSans-53"/>
      </g>
     </g>
    </g>
    <g id="xtick_22">
     <g id="text_22">
      <!-- 26 -->
      <g style="fill:#262626;" transform="translate(545.060577 329.598437)scale(0.1 -0.1)">
       <use xlink:href="#DejaVuSans-50"/>
       <use x="63.623047" xlink:href="#DejaVuSans-54"/>
      </g>
     </g>
    </g>
    <g id="xtick_23">
     <g id="text_23">
      <!-- 27 -->
      <g style="fill:#262626;" transform="translate(566.522115 329.598437)scale(0.1 -0.1)">
       <use xlink:href="#DejaVuSans-50"/>
       <use x="63.623047" xlink:href="#DejaVuSans-55"/>
      </g>
     </g>
    </g>
    <g id="xtick_24">
     <g id="text_24">
      <!-- 28 -->
      <g style="fill:#262626;" transform="translate(587.983654 329.598437)scale(0.1 -0.1)">
       <use xlink:href="#DejaVuSans-50"/>
       <use x="63.623047" xlink:href="#DejaVuSans-56"/>
      </g>
     </g>
    </g>
    <g id="xtick_25">
     <g id="text_25">
      <!-- 29 -->
      <g style="fill:#262626;" transform="translate(609.445192 329.598437)scale(0.1 -0.1)">
       <use xlink:href="#DejaVuSans-50"/>
       <use x="63.623047" xlink:href="#DejaVuSans-57"/>
      </g>
     </g>
    </g>
    <g id="xtick_26">
     <g id="text_26">
      <!-- 30 -->
      <g style="fill:#262626;" transform="translate(630.906731 329.598437)scale(0.1 -0.1)">
       <use xlink:href="#DejaVuSans-51"/>
       <use x="63.623047" xlink:href="#DejaVuSans-48"/>
      </g>
     </g>
    </g>
    <g id="text_27">
     <!-- n -->
     <g style="fill:#262626;" transform="translate(365.83125 343.276563)scale(0.1 -0.1)">
      <defs>
       <path d="M 54.890625 33.015625 
L 54.890625 0 
L 45.90625 0 
L 45.90625 32.71875 
Q 45.90625 40.484375 42.875 44.328125 
Q 39.84375 48.1875 33.796875 48.1875 
Q 26.515625 48.1875 22.3125 43.546875 
Q 18.109375 38.921875 18.109375 30.90625 
L 18.109375 0 
L 9.078125 0 
L 9.078125 54.6875 
L 18.109375 54.6875 
L 18.109375 46.1875 
Q 21.34375 51.125 25.703125 53.5625 
Q 30.078125 56 35.796875 56 
Q 45.21875 56 50.046875 50.171875 
Q 54.890625 44.34375 54.890625 33.015625 
z
" id="DejaVuSans-110"/>
      </defs>
      <use xlink:href="#DejaVuSans-110"/>
     </g>
    </g>
   </g>
   <g id="matplotlib.axis_2">
    <g id="ytick_1">
     <g id="line2d_1">
      <path clip-path="url(#p139723a50b)" d="M 90 302.645461 
L 648 302.645461 
" style="fill:none;stroke:#cccccc;stroke-linecap:round;stroke-width:0.8;"/>
     </g>
     <g id="text_28">
      <!-- 0 -->
      <g style="fill:#262626;" transform="translate(76.6375 306.444679)scale(0.1 -0.1)">
       <use xlink:href="#DejaVuSans-48"/>
      </g>
     </g>
    </g>
    <g id="ytick_2">
     <g id="line2d_2">
      <path clip-path="url(#p139723a50b)" d="M 90 265.008423 
L 648 265.008423 
" style="fill:none;stroke:#cccccc;stroke-linecap:round;stroke-width:0.8;"/>
     </g>
     <g id="text_29">
      <!-- 10000 -->
      <g style="fill:#262626;" transform="translate(51.1875 268.807642)scale(0.1 -0.1)">
       <use xlink:href="#DejaVuSans-49"/>
       <use x="63.623047" xlink:href="#DejaVuSans-48"/>
       <use x="127.246094" xlink:href="#DejaVuSans-48"/>
       <use x="190.869141" xlink:href="#DejaVuSans-48"/>
       <use x="254.492188" xlink:href="#DejaVuSans-48"/>
      </g>
     </g>
    </g>
    <g id="ytick_3">
     <g id="line2d_3">
      <path clip-path="url(#p139723a50b)" d="M 90 227.371386 
L 648 227.371386 
" style="fill:none;stroke:#cccccc;stroke-linecap:round;stroke-width:0.8;"/>
     </g>
     <g id="text_30">
      <!-- 20000 -->
      <g style="fill:#262626;" transform="translate(51.1875 231.170604)scale(0.1 -0.1)">
       <use xlink:href="#DejaVuSans-50"/>
       <use x="63.623047" xlink:href="#DejaVuSans-48"/>
       <use x="127.246094" xlink:href="#DejaVuSans-48"/>
       <use x="190.869141" xlink:href="#DejaVuSans-48"/>
       <use x="254.492188" xlink:href="#DejaVuSans-48"/>
      </g>
     </g>
    </g>
    <g id="ytick_4">
     <g id="line2d_4">
      <path clip-path="url(#p139723a50b)" d="M 90 189.734348 
L 648 189.734348 
" style="fill:none;stroke:#cccccc;stroke-linecap:round;stroke-width:0.8;"/>
     </g>
     <g id="text_31">
      <!-- 30000 -->
      <g style="fill:#262626;" transform="translate(51.1875 193.533567)scale(0.1 -0.1)">
       <use xlink:href="#DejaVuSans-51"/>
       <use x="63.623047" xlink:href="#DejaVuSans-48"/>
       <use x="127.246094" xlink:href="#DejaVuSans-48"/>
       <use x="190.869141" xlink:href="#DejaVuSans-48"/>
       <use x="254.492188" xlink:href="#DejaVuSans-48"/>
      </g>
     </g>
    </g>
    <g id="ytick_5">
     <g id="line2d_5">
      <path clip-path="url(#p139723a50b)" d="M 90 152.09731 
L 648 152.09731 
" style="fill:none;stroke:#cccccc;stroke-linecap:round;stroke-width:0.8;"/>
     </g>
     <g id="text_32">
      <!-- 40000 -->
      <g style="fill:#262626;" transform="translate(51.1875 155.896529)scale(0.1 -0.1)">
       <use xlink:href="#DejaVuSans-52"/>
       <use x="63.623047" xlink:href="#DejaVuSans-48"/>
       <use x="127.246094" xlink:href="#DejaVuSans-48"/>
       <use x="190.869141" xlink:href="#DejaVuSans-48"/>
       <use x="254.492188" xlink:href="#DejaVuSans-48"/>
      </g>
     </g>
    </g>
    <g id="ytick_6">
     <g id="line2d_6">
      <path clip-path="url(#p139723a50b)" d="M 90 114.460273 
L 648 114.460273 
" style="fill:none;stroke:#cccccc;stroke-linecap:round;stroke-width:0.8;"/>
     </g>
     <g id="text_33">
      <!-- 50000 -->
      <g style="fill:#262626;" transform="translate(51.1875 118.259492)scale(0.1 -0.1)">
       <use xlink:href="#DejaVuSans-53"/>
       <use x="63.623047" xlink:href="#DejaVuSans-48"/>
       <use x="127.246094" xlink:href="#DejaVuSans-48"/>
       <use x="190.869141" xlink:href="#DejaVuSans-48"/>
       <use x="254.492188" xlink:href="#DejaVuSans-48"/>
      </g>
     </g>
    </g>
    <g id="ytick_7">
     <g id="line2d_7">
      <path clip-path="url(#p139723a50b)" d="M 90 76.823235 
L 648 76.823235 
" style="fill:none;stroke:#cccccc;stroke-linecap:round;stroke-width:0.8;"/>
     </g>
     <g id="text_34">
      <!-- 60000 -->
      <g style="fill:#262626;" transform="translate(51.1875 80.622454)scale(0.1 -0.1)">
       <use xlink:href="#DejaVuSans-54"/>
       <use x="63.623047" xlink:href="#DejaVuSans-48"/>
       <use x="127.246094" xlink:href="#DejaVuSans-48"/>
       <use x="190.869141" xlink:href="#DejaVuSans-48"/>
       <use x="254.492188" xlink:href="#DejaVuSans-48"/>
      </g>
     </g>
    </g>
    <g id="text_35">
     <!-- time_ms -->
     <g style="fill:#262626;" transform="translate(44.829687 200.371094)rotate(-90)scale(0.1 -0.1)">
      <defs>
       <path d="M 18.3125 70.21875 
L 18.3125 54.6875 
L 36.8125 54.6875 
L 36.8125 47.703125 
L 18.3125 47.703125 
L 18.3125 18.015625 
Q 18.3125 11.328125 20.140625 9.421875 
Q 21.96875 7.515625 27.59375 7.515625 
L 36.8125 7.515625 
L 36.8125 0 
L 27.59375 0 
Q 17.1875 0 13.234375 3.875 
Q 9.28125 7.765625 9.28125 18.015625 
L 9.28125 47.703125 
L 2.6875 47.703125 
L 2.6875 54.6875 
L 9.28125 54.6875 
L 9.28125 70.21875 
z
" id="DejaVuSans-116"/>
       <path d="M 9.421875 54.6875 
L 18.40625 54.6875 
L 18.40625 0 
L 9.421875 0 
z
M 9.421875 75.984375 
L 18.40625 75.984375 
L 18.40625 64.59375 
L 9.421875 64.59375 
z
" id="DejaVuSans-105"/>
       <path d="M 52 44.1875 
Q 55.375 50.25 60.0625 53.125 
Q 64.75 56 71.09375 56 
Q 79.640625 56 84.28125 50.015625 
Q 88.921875 44.046875 88.921875 33.015625 
L 88.921875 0 
L 79.890625 0 
L 79.890625 32.71875 
Q 79.890625 40.578125 77.09375 44.375 
Q 74.3125 48.1875 68.609375 48.1875 
Q 61.625 48.1875 57.5625 43.546875 
Q 53.515625 38.921875 53.515625 30.90625 
L 53.515625 0 
L 44.484375 0 
L 44.484375 32.71875 
Q 44.484375 40.625 41.703125 44.40625 
Q 38.921875 48.1875 33.109375 48.1875 
Q 26.21875 48.1875 22.15625 43.53125 
Q 18.109375 38.875 18.109375 30.90625 
L 18.109375 0 
L 9.078125 0 
L 9.078125 54.6875 
L 18.109375 54.6875 
L 18.109375 46.1875 
Q 21.1875 51.21875 25.484375 53.609375 
Q 29.78125 56 35.6875 56 
Q 41.65625 56 45.828125 52.96875 
Q 50 49.953125 52 44.1875 
z
" id="DejaVuSans-109"/>
       <path d="M 56.203125 29.59375 
L 56.203125 25.203125 
L 14.890625 25.203125 
Q 15.484375 15.921875 20.484375 11.0625 
Q 25.484375 6.203125 34.421875 6.203125 
Q 39.59375 6.203125 44.453125 7.46875 
Q 49.3125 8.734375 54.109375 11.28125 
L 54.109375 2.78125 
Q 49.265625 0.734375 44.1875 -0.34375 
Q 39.109375 -1.421875 33.890625 -1.421875 
Q 20.796875 -1.421875 13.15625 6.1875 
Q 5.515625 13.8125 5.515625 26.8125 
Q 5.515625 40.234375 12.765625 48.109375 
Q 20.015625 56 32.328125 56 
Q 43.359375 56 49.78125 48.890625 
Q 56.203125 41.796875 56.203125 29.59375 
z
M 47.21875 32.234375 
Q 47.125 39.59375 43.09375 43.984375 
Q 39.0625 48.390625 32.421875 48.390625 
Q 24.90625 48.390625 20.390625 44.140625 
Q 15.875 39.890625 15.1875 32.171875 
z
" id="DejaVuSans-101"/>
       <path d="M 50.984375 -16.609375 
L 50.984375 -23.578125 
L -0.984375 -23.578125 
L -0.984375 -16.609375 
z
" id="DejaVuSans-95"/>
       <path d="M 44.28125 53.078125 
L 44.28125 44.578125 
Q 40.484375 46.53125 36.375 47.5 
Q 32.28125 48.484375 27.875 48.484375 
Q 21.1875 48.484375 17.84375 46.4375 
Q 14.5 44.390625 14.5 40.28125 
Q 14.5 37.15625 16.890625 35.375 
Q 19.28125 33.59375 26.515625 31.984375 
L 29.59375 31.296875 
Q 39.15625 29.25 43.1875 25.515625 
Q 47.21875 21.78125 47.21875 15.09375 
Q 47.21875 7.46875 41.1875 3.015625 
Q 35.15625 -1.421875 24.609375 -1.421875 
Q 20.21875 -1.421875 15.453125 -0.5625 
Q 10.6875 0.296875 5.421875 2 
L 5.421875 11.28125 
Q 10.40625 8.6875 15.234375 7.390625 
Q 20.0625 6.109375 24.8125 6.109375 
Q 31.15625 6.109375 34.5625 8.28125 
Q 37.984375 10.453125 37.984375 14.40625 
Q 37.984375 18.0625 35.515625 20.015625 
Q 33.0625 21.96875 24.703125 23.78125 
L 21.578125 24.515625 
Q 13.234375 26.265625 9.515625 29.90625 
Q 5.8125 33.546875 5.8125 39.890625 
Q 5.8125 47.609375 11.28125 51.796875 
Q 16.75 56 26.8125 56 
Q 31.78125 56 36.171875 55.265625 
Q 40.578125 54.546875 44.28125 53.078125 
z
" id="DejaVuSans-115"/>
      </defs>
      <use xlink:href="#DejaVuSans-116"/>
      <use x="39.208984" xlink:href="#DejaVuSans-105"/>
      <use x="66.992188" xlink:href="#DejaVuSans-109"/>
      <use x="164.404297" xlink:href="#DejaVuSans-101"/>
      <use x="225.927734" xlink:href="#DejaVuSans-95"/>
      <use x="275.927734" xlink:href="#DejaVuSans-109"/>
      <use x="373.339844" xlink:href="#DejaVuSans-115"/>
     </g>
    </g>
   </g>
   <g id="PathCollection_1">
    <defs>
     <path d="M 0 3.383948 
C 0.897434 3.383948 1.758231 3.027394 2.392813 2.392813 
C 3.027394 1.758231 3.383948 0.897434 3.383948 0 
C 3.383948 -0.897434 3.027394 -1.758231 2.392813 -2.392813 
C 1.758231 -3.027394 0.897434 -3.383948 0 -3.383948 
C -0.897434 -3.383948 -1.758231 -3.027394 -2.392813 -2.392813 
C -3.027394 -1.758231 -3.383948 -0.897434 -3.383948 0 
C -3.383948 0.897434 -3.027394 1.758231 -2.392813 2.392813 
C -1.758231 3.027394 -0.897434 3.383948 0 3.383948 
z
" id="mdcdfae1941" style="stroke:#1f77b4;stroke-width:2.025;"/>
    </defs>
    <g clip-path="url(#p139723a50b)">
     <use style="fill:#1f77b4;stroke:#1f77b4;stroke-width:2.025;" x="100.730769" xlink:href="#mdcdfae1941" y="302.645448"/>
     <use style="fill:#1f77b4;stroke:#1f77b4;stroke-width:2.025;" x="122.192308" xlink:href="#mdcdfae1941" y="302.64544"/>
     <use style="fill:#1f77b4;stroke:#1f77b4;stroke-width:2.025;" x="143.653846" xlink:href="#mdcdfae1941" y="302.645418"/>
     <use style="fill:#1f77b4;stroke:#1f77b4;stroke-width:2.025;" x="165.115385" xlink:href="#mdcdfae1941" y="302.645398"/>
     <use style="fill:#1f77b4;stroke:#1f77b4;stroke-width:2.025;" x="186.576923" xlink:href="#mdcdfae1941" y="302.645368"/>
     <use style="fill:#1f77b4;stroke:#1f77b4;stroke-width:2.025;" x="208.038462" xlink:href="#mdcdfae1941" y="302.645294"/>
     <use style="fill:#1f77b4;stroke:#1f77b4;stroke-width:2.025;" x="229.5" xlink:href="#mdcdfae1941" y="302.645123"/>
     <use style="fill:#1f77b4;stroke:#1f77b4;stroke-width:2.025;" x="250.961538" xlink:href="#mdcdfae1941" y="302.644838"/>
     <use style="fill:#1f77b4;stroke:#1f77b4;stroke-width:2.025;" x="272.423077" xlink:href="#mdcdfae1941" y="302.644132"/>
     <use style="fill:#1f77b4;stroke:#1f77b4;stroke-width:2.025;" x="293.884615" xlink:href="#mdcdfae1941" y="302.643238"/>
     <use style="fill:#1f77b4;stroke:#1f77b4;stroke-width:2.025;" x="315.346154" xlink:href="#mdcdfae1941" y="302.641135"/>
     <use style="fill:#1f77b4;stroke:#1f77b4;stroke-width:2.025;" x="336.807692" xlink:href="#mdcdfae1941" y="302.636183"/>
     <use style="fill:#1f77b4;stroke:#1f77b4;stroke-width:2.025;" x="358.269231" xlink:href="#mdcdfae1941" y="302.627635"/>
     <use style="fill:#1f77b4;stroke:#1f77b4;stroke-width:2.025;" x="379.730769" xlink:href="#mdcdfae1941" y="302.611541"/>
     <use style="fill:#1f77b4;stroke:#1f77b4;stroke-width:2.025;" x="401.192308" xlink:href="#mdcdfae1941" y="302.579615"/>
     <use style="fill:#1f77b4;stroke:#1f77b4;stroke-width:2.025;" x="422.653846" xlink:href="#mdcdfae1941" y="302.516858"/>
     <use style="fill:#1f77b4;stroke:#1f77b4;stroke-width:2.025;" x="444.115385" xlink:href="#mdcdfae1941" y="302.399738"/>
     <use style="fill:#1f77b4;stroke:#1f77b4;stroke-width:2.025;" x="465.576923" xlink:href="#mdcdfae1941" y="302.163984"/>
     <use style="fill:#1f77b4;stroke:#1f77b4;stroke-width:2.025;" x="487.038462" xlink:href="#mdcdfae1941" y="301.701012"/>
     <use style="fill:#1f77b4;stroke:#1f77b4;stroke-width:2.025;" x="508.5" xlink:href="#mdcdfae1941" y="300.758756"/>
     <use style="fill:#1f77b4;stroke:#1f77b4;stroke-width:2.025;" x="529.961538" xlink:href="#mdcdfae1941" y="298.908729"/>
     <use style="fill:#1f77b4;stroke:#1f77b4;stroke-width:2.025;" x="551.423077" xlink:href="#mdcdfae1941" y="295.203339"/>
     <use style="fill:#1f77b4;stroke:#1f77b4;stroke-width:2.025;" x="572.884615" xlink:href="#mdcdfae1941" y="287.838235"/>
     <use style="fill:#1f77b4;stroke:#1f77b4;stroke-width:2.025;" x="594.346154" xlink:href="#mdcdfae1941" y="272.968418"/>
     <use style="fill:#1f77b4;stroke:#1f77b4;stroke-width:2.025;" x="615.807692" xlink:href="#mdcdfae1941" y="242.847234"/>
     <use style="fill:#1f77b4;stroke:#1f77b4;stroke-width:2.025;" x="637.269231" xlink:href="#mdcdfae1941" y="184.676683"/>
    </g>
   </g>
   <g id="line2d_8">
    <path clip-path="url(#p139723a50b)" d="M 100.730769 302.645449 
L 100.730769 302.645448 
" style="fill:none;stroke:#1f77b4;stroke-linecap:round;stroke-width:2.7;"/>
   </g>
   <g id="line2d_9">
    <path clip-path="url(#p139723a50b)" d="M 122.192308 302.645443 
L 122.192308 302.645436 
" style="fill:none;stroke:#1f77b4;stroke-linecap:round;stroke-width:2.7;"/>
   </g>
   <g id="line2d_10">
    <path clip-path="url(#p139723a50b)" d="M 143.653846 302.64543 
L 143.653846 302.645393 
" style="fill:none;stroke:#1f77b4;stroke-linecap:round;stroke-width:2.7;"/>
   </g>
   <g id="line2d_11">
    <path clip-path="url(#p139723a50b)" d="M 165.115385 302.645402 
L 165.115385 302.645396 
" style="fill:none;stroke:#1f77b4;stroke-linecap:round;stroke-width:2.7;"/>
   </g>
   <g id="line2d_12">
    <path clip-path="url(#p139723a50b)" d="M 186.576923 302.645372 
L 186.576923 302.645364 
" style="fill:none;stroke:#1f77b4;stroke-linecap:round;stroke-width:2.7;"/>
   </g>
   <g id="line2d_13">
    <path clip-path="url(#p139723a50b)" d="M 208.038462 302.645294 
L 208.038462 302.645293 
" style="fill:none;stroke:#1f77b4;stroke-linecap:round;stroke-width:2.7;"/>
   </g>
   <g id="line2d_14">
    <path clip-path="url(#p139723a50b)" d="M 229.5 302.645167 
L 229.5 302.645074 
" style="fill:none;stroke:#1f77b4;stroke-linecap:round;stroke-width:2.7;"/>
   </g>
   <g id="line2d_15">
    <path clip-path="url(#p139723a50b)" d="M 250.961538 302.64489 
L 250.961538 302.64479 
" style="fill:none;stroke:#1f77b4;stroke-linecap:round;stroke-width:2.7;"/>
   </g>
   <g id="line2d_16">
    <path clip-path="url(#p139723a50b)" d="M 272.423077 302.644301 
L 272.423077 302.64402 
" style="fill:none;stroke:#1f77b4;stroke-linecap:round;stroke-width:2.7;"/>
   </g>
   <g id="line2d_17">
    <path clip-path="url(#p139723a50b)" d="M 293.884615 302.643428 
L 293.884615 302.643094 
" style="fill:none;stroke:#1f77b4;stroke-linecap:round;stroke-width:2.7;"/>
   </g>
   <g id="line2d_18">
    <path clip-path="url(#p139723a50b)" d="M 315.346154 302.641277 
L 315.346154 302.640963 
" style="fill:none;stroke:#1f77b4;stroke-linecap:round;stroke-width:2.7;"/>
   </g>
   <g id="line2d_19">
    <path clip-path="url(#p139723a50b)" d="M 336.807692 302.636304 
L 336.807692 302.636098 
" style="fill:none;stroke:#1f77b4;stroke-linecap:round;stroke-width:2.7;"/>
   </g>
   <g id="line2d_20">
    <path clip-path="url(#p139723a50b)" d="M 358.269231 302.628664 
L 358.269231 302.626241 
" style="fill:none;stroke:#1f77b4;stroke-linecap:round;stroke-width:2.7;"/>
   </g>
   <g id="line2d_21">
    <path clip-path="url(#p139723a50b)" d="M 379.730769 302.613373 
L 379.730769 302.608316 
" style="fill:none;stroke:#1f77b4;stroke-linecap:round;stroke-width:2.7;"/>
   </g>
   <g id="line2d_22">
    <path clip-path="url(#p139723a50b)" d="M 401.192308 302.579935 
L 401.192308 302.579236 
" style="fill:none;stroke:#1f77b4;stroke-linecap:round;stroke-width:2.7;"/>
   </g>
   <g id="line2d_23">
    <path clip-path="url(#p139723a50b)" d="M 422.653846 302.522269 
L 422.653846 302.50761 
" style="fill:none;stroke:#1f77b4;stroke-linecap:round;stroke-width:2.7;"/>
   </g>
   <g id="line2d_24">
    <path clip-path="url(#p139723a50b)" d="M 444.115385 302.40421 
L 444.115385 302.393389 
" style="fill:none;stroke:#1f77b4;stroke-linecap:round;stroke-width:2.7;"/>
   </g>
   <g id="line2d_25">
    <path clip-path="url(#p139723a50b)" d="M 465.576923 302.170805 
L 465.576923 302.155472 
" style="fill:none;stroke:#1f77b4;stroke-linecap:round;stroke-width:2.7;"/>
   </g>
   <g id="line2d_26">
    <path clip-path="url(#p139723a50b)" d="M 487.038462 301.708912 
L 487.038462 301.691463 
" style="fill:none;stroke:#1f77b4;stroke-linecap:round;stroke-width:2.7;"/>
   </g>
   <g id="line2d_27">
    <path clip-path="url(#p139723a50b)" d="M 508.5 300.765604 
L 508.5 300.754158 
" style="fill:none;stroke:#1f77b4;stroke-linecap:round;stroke-width:2.7;"/>
   </g>
   <g id="line2d_28">
    <path clip-path="url(#p139723a50b)" d="M 529.961538 298.938103 
L 529.961538 298.855411 
" style="fill:none;stroke:#1f77b4;stroke-linecap:round;stroke-width:2.7;"/>
   </g>
   <g id="line2d_29">
    <path clip-path="url(#p139723a50b)" d="M 551.423077 295.245191 
L 551.423077 295.13721 
" style="fill:none;stroke:#1f77b4;stroke-linecap:round;stroke-width:2.7;"/>
   </g>
   <g id="line2d_30">
    <path clip-path="url(#p139723a50b)" d="M 572.884615 287.969989 
L 572.884615 287.76961 
" style="fill:none;stroke:#1f77b4;stroke-linecap:round;stroke-width:2.7;"/>
   </g>
   <g id="line2d_31">
    <path clip-path="url(#p139723a50b)" d="M 594.346154 273.117473 
L 594.346154 272.841406 
" style="fill:none;stroke:#1f77b4;stroke-linecap:round;stroke-width:2.7;"/>
   </g>
   <g id="line2d_32">
    <path clip-path="url(#p139723a50b)" d="M 615.807692 243.699085 
L 615.807692 242.089349 
" style="fill:none;stroke:#1f77b4;stroke-linecap:round;stroke-width:2.7;"/>
   </g>
   <g id="line2d_33">
    <path clip-path="url(#p139723a50b)" d="M 637.269231 185.221291 
L 637.269231 183.90964 
" style="fill:none;stroke:#1f77b4;stroke-linecap:round;stroke-width:2.7;"/>
   </g>
   <g id="PathCollection_2">
    <defs>
     <path d="M 0 3.383948 
C 0.897434 3.383948 1.758231 3.027394 2.392813 2.392813 
C 3.027394 1.758231 3.383948 0.897434 3.383948 0 
C 3.383948 -0.897434 3.027394 -1.758231 2.392813 -2.392813 
C 1.758231 -3.027394 0.897434 -3.383948 0 -3.383948 
C -0.897434 -3.383948 -1.758231 -3.027394 -2.392813 -2.392813 
C -3.027394 -1.758231 -3.383948 -0.897434 -3.383948 0 
C -3.383948 0.897434 -3.027394 1.758231 -2.392813 2.392813 
C -1.758231 3.027394 -0.897434 3.383948 0 3.383948 
z
" id="mea27babd39" style="stroke:#ff7f0e;stroke-width:2.025;"/>
    </defs>
    <g clip-path="url(#p139723a50b)">
     <use style="fill:#ff7f0e;stroke:#ff7f0e;stroke-width:2.025;" x="100.730769" xlink:href="#mea27babd39" y="302.645445"/>
     <use style="fill:#ff7f0e;stroke:#ff7f0e;stroke-width:2.025;" x="122.192308" xlink:href="#mea27babd39" y="302.645435"/>
     <use style="fill:#ff7f0e;stroke:#ff7f0e;stroke-width:2.025;" x="143.653846" xlink:href="#mea27babd39" y="302.645429"/>
     <use style="fill:#ff7f0e;stroke:#ff7f0e;stroke-width:2.025;" x="165.115385" xlink:href="#mea27babd39" y="302.645411"/>
     <use style="fill:#ff7f0e;stroke:#ff7f0e;stroke-width:2.025;" x="186.576923" xlink:href="#mea27babd39" y="302.645398"/>
     <use style="fill:#ff7f0e;stroke:#ff7f0e;stroke-width:2.025;" x="208.038462" xlink:href="#mea27babd39" y="302.645354"/>
     <use style="fill:#ff7f0e;stroke:#ff7f0e;stroke-width:2.025;" x="229.5" xlink:href="#mea27babd39" y="302.645279"/>
     <use style="fill:#ff7f0e;stroke:#ff7f0e;stroke-width:2.025;" x="250.961538" xlink:href="#mea27babd39" y="302.645228"/>
     <use style="fill:#ff7f0e;stroke:#ff7f0e;stroke-width:2.025;" x="272.423077" xlink:href="#mea27babd39" y="302.645107"/>
     <use style="fill:#ff7f0e;stroke:#ff7f0e;stroke-width:2.025;" x="293.884615" xlink:href="#mea27babd39" y="302.644965"/>
     <use style="fill:#ff7f0e;stroke:#ff7f0e;stroke-width:2.025;" x="315.346154" xlink:href="#mea27babd39" y="302.644721"/>
     <use style="fill:#ff7f0e;stroke:#ff7f0e;stroke-width:2.025;" x="336.807692" xlink:href="#mea27babd39" y="302.644375"/>
     <use style="fill:#ff7f0e;stroke:#ff7f0e;stroke-width:2.025;" x="358.269231" xlink:href="#mea27babd39" y="302.643699"/>
     <use style="fill:#ff7f0e;stroke:#ff7f0e;stroke-width:2.025;" x="379.730769" xlink:href="#mea27babd39" y="302.643126"/>
     <use style="fill:#ff7f0e;stroke:#ff7f0e;stroke-width:2.025;" x="401.192308" xlink:href="#mea27babd39" y="302.641835"/>
     <use style="fill:#ff7f0e;stroke:#ff7f0e;stroke-width:2.025;" x="422.653846" xlink:href="#mea27babd39" y="302.640173"/>
     <use style="fill:#ff7f0e;stroke:#ff7f0e;stroke-width:2.025;" x="444.115385" xlink:href="#mea27babd39" y="302.637178"/>
     <use style="fill:#ff7f0e;stroke:#ff7f0e;stroke-width:2.025;" x="465.576923" xlink:href="#mea27babd39" y="302.634102"/>
     <use style="fill:#ff7f0e;stroke:#ff7f0e;stroke-width:2.025;" x="487.038462" xlink:href="#mea27babd39" y="302.62737"/>
     <use style="fill:#ff7f0e;stroke:#ff7f0e;stroke-width:2.025;" x="508.5" xlink:href="#mea27babd39" y="302.619943"/>
     <use style="fill:#ff7f0e;stroke:#ff7f0e;stroke-width:2.025;" x="529.961538" xlink:href="#mea27babd39" y="302.605235"/>
     <use style="fill:#ff7f0e;stroke:#ff7f0e;stroke-width:2.025;" x="551.423077" xlink:href="#mea27babd39" y="302.590669"/>
     <use style="fill:#ff7f0e;stroke:#ff7f0e;stroke-width:2.025;" x="572.884615" xlink:href="#mea27babd39" y="302.561725"/>
     <use style="fill:#ff7f0e;stroke:#ff7f0e;stroke-width:2.025;" x="594.346154" xlink:href="#mea27babd39" y="302.525093"/>
     <use style="fill:#ff7f0e;stroke:#ff7f0e;stroke-width:2.025;" x="615.807692" xlink:href="#mea27babd39" y="302.469479"/>
     <use style="fill:#ff7f0e;stroke:#ff7f0e;stroke-width:2.025;" x="637.269231" xlink:href="#mea27babd39" y="302.396838"/>
    </g>
   </g>
   <g id="line2d_34">
    <path clip-path="url(#p139723a50b)" d="M 100.730769 302.645445 
L 100.730769 302.645444 
" style="fill:none;stroke:#ff7f0e;stroke-linecap:round;stroke-width:2.7;"/>
   </g>
   <g id="line2d_35">
    <path clip-path="url(#p139723a50b)" d="M 122.192308 302.645436 
L 122.192308 302.645434 
" style="fill:none;stroke:#ff7f0e;stroke-linecap:round;stroke-width:2.7;"/>
   </g>
   <g id="line2d_36">
    <path clip-path="url(#p139723a50b)" d="M 143.653846 302.645433 
L 143.653846 302.645424 
" style="fill:none;stroke:#ff7f0e;stroke-linecap:round;stroke-width:2.7;"/>
   </g>
   <g id="line2d_37">
    <path clip-path="url(#p139723a50b)" d="M 165.115385 302.645413 
L 165.115385 302.645409 
" style="fill:none;stroke:#ff7f0e;stroke-linecap:round;stroke-width:2.7;"/>
   </g>
   <g id="line2d_38">
    <path clip-path="url(#p139723a50b)" d="M 186.576923 302.645399 
L 186.576923 302.645396 
" style="fill:none;stroke:#ff7f0e;stroke-linecap:round;stroke-width:2.7;"/>
   </g>
   <g id="line2d_39">
    <path clip-path="url(#p139723a50b)" d="M 208.038462 302.64537 
L 208.038462 302.645342 
" style="fill:none;stroke:#ff7f0e;stroke-linecap:round;stroke-width:2.7;"/>
   </g>
   <g id="line2d_40">
    <path clip-path="url(#p139723a50b)" d="M 229.5 302.645287 
L 229.5 302.645264 
" style="fill:none;stroke:#ff7f0e;stroke-linecap:round;stroke-width:2.7;"/>
   </g>
   <g id="line2d_41">
    <path clip-path="url(#p139723a50b)" d="M 250.961538 302.645245 
L 250.961538 302.645214 
" style="fill:none;stroke:#ff7f0e;stroke-linecap:round;stroke-width:2.7;"/>
   </g>
   <g id="line2d_42">
    <path clip-path="url(#p139723a50b)" d="M 272.423077 302.645148 
L 272.423077 302.645064 
" style="fill:none;stroke:#ff7f0e;stroke-linecap:round;stroke-width:2.7;"/>
   </g>
   <g id="line2d_43">
    <path clip-path="url(#p139723a50b)" d="M 293.884615 302.645016 
L 293.884615 302.644908 
" style="fill:none;stroke:#ff7f0e;stroke-linecap:round;stroke-width:2.7;"/>
   </g>
   <g id="line2d_44">
    <path clip-path="url(#p139723a50b)" d="M 315.346154 302.644755 
L 315.346154 302.644654 
" style="fill:none;stroke:#ff7f0e;stroke-linecap:round;stroke-width:2.7;"/>
   </g>
   <g id="line2d_45">
    <path clip-path="url(#p139723a50b)" d="M 336.807692 302.644436 
L 336.807692 302.644299 
" style="fill:none;stroke:#ff7f0e;stroke-linecap:round;stroke-width:2.7;"/>
   </g>
   <g id="line2d_46">
    <path clip-path="url(#p139723a50b)" d="M 358.269231 302.643795 
L 358.269231 302.64358 
" style="fill:none;stroke:#ff7f0e;stroke-linecap:round;stroke-width:2.7;"/>
   </g>
   <g id="line2d_47">
    <path clip-path="url(#p139723a50b)" d="M 379.730769 302.643257 
L 379.730769 302.642999 
" style="fill:none;stroke:#ff7f0e;stroke-linecap:round;stroke-width:2.7;"/>
   </g>
   <g id="line2d_48">
    <path clip-path="url(#p139723a50b)" d="M 401.192308 302.641991 
L 401.192308 302.64171 
" style="fill:none;stroke:#ff7f0e;stroke-linecap:round;stroke-width:2.7;"/>
   </g>
   <g id="line2d_49">
    <path clip-path="url(#p139723a50b)" d="M 422.653846 302.640382 
L 422.653846 302.640058 
" style="fill:none;stroke:#ff7f0e;stroke-linecap:round;stroke-width:2.7;"/>
   </g>
   <g id="line2d_50">
    <path clip-path="url(#p139723a50b)" d="M 444.115385 302.637531 
L 444.115385 302.636596 
" style="fill:none;stroke:#ff7f0e;stroke-linecap:round;stroke-width:2.7;"/>
   </g>
   <g id="line2d_51">
    <path clip-path="url(#p139723a50b)" d="M 465.576923 302.634495 
L 465.576923 302.633712 
" style="fill:none;stroke:#ff7f0e;stroke-linecap:round;stroke-width:2.7;"/>
   </g>
   <g id="line2d_52">
    <path clip-path="url(#p139723a50b)" d="M 487.038462 302.627755 
L 487.038462 302.626979 
" style="fill:none;stroke:#ff7f0e;stroke-linecap:round;stroke-width:2.7;"/>
   </g>
   <g id="line2d_53">
    <path clip-path="url(#p139723a50b)" d="M 508.5 302.620844 
L 508.5 302.619184 
" style="fill:none;stroke:#ff7f0e;stroke-linecap:round;stroke-width:2.7;"/>
   </g>
   <g id="line2d_54">
    <path clip-path="url(#p139723a50b)" d="M 529.961538 302.607351 
L 529.961538 302.602419 
" style="fill:none;stroke:#ff7f0e;stroke-linecap:round;stroke-width:2.7;"/>
   </g>
   <g id="line2d_55">
    <path clip-path="url(#p139723a50b)" d="M 551.423077 302.592778 
L 551.423077 302.589474 
" style="fill:none;stroke:#ff7f0e;stroke-linecap:round;stroke-width:2.7;"/>
   </g>
   <g id="line2d_56">
    <path clip-path="url(#p139723a50b)" d="M 572.884615 302.562973 
L 572.884615 302.560261 
" style="fill:none;stroke:#ff7f0e;stroke-linecap:round;stroke-width:2.7;"/>
   </g>
   <g id="line2d_57">
    <path clip-path="url(#p139723a50b)" d="M 594.346154 302.531437 
L 594.346154 302.512943 
" style="fill:none;stroke:#ff7f0e;stroke-linecap:round;stroke-width:2.7;"/>
   </g>
   <g id="line2d_58">
    <path clip-path="url(#p139723a50b)" d="M 615.807692 302.471315 
L 615.807692 302.467136 
" style="fill:none;stroke:#ff7f0e;stroke-linecap:round;stroke-width:2.7;"/>
   </g>
   <g id="line2d_59">
    <path clip-path="url(#p139723a50b)" d="M 637.269231 302.40387 
L 637.269231 302.393127 
" style="fill:none;stroke:#ff7f0e;stroke-linecap:round;stroke-width:2.7;"/>
   </g>
   <g id="patch_3">
    <path d="M 90 315 
L 90 43.2 
" style="fill:none;stroke:#cccccc;stroke-linecap:square;stroke-linejoin:miter;stroke-width:0.8;"/>
   </g>
   <g id="patch_4">
    <path d="M 648 315 
L 648 43.2 
" style="fill:none;stroke:#cccccc;stroke-linecap:square;stroke-linejoin:miter;stroke-width:0.8;"/>
   </g>
   <g id="patch_5">
    <path d="M 90 315 
L 648 315 
" style="fill:none;stroke:#cccccc;stroke-linecap:square;stroke-linejoin:miter;stroke-width:0.8;"/>
   </g>
   <g id="patch_6">
    <path d="M 90 43.2 
L 648 43.2 
" style="fill:none;stroke:#cccccc;stroke-linecap:square;stroke-linejoin:miter;stroke-width:0.8;"/>
   </g>
   <g id="PathCollection_3">
    <defs>
     <path d="M 0 3.383948 
C 0.897434 3.383948 1.758231 3.027394 2.392813 2.392813 
C 3.027394 1.758231 3.383948 0.897434 3.383948 0 
C 3.383948 -0.897434 3.027394 -1.758231 2.392813 -2.392813 
C 1.758231 -3.027394 0.897434 -3.383948 0 -3.383948 
C -0.897434 -3.383948 -1.758231 -3.027394 -2.392813 -2.392813 
C -3.027394 -1.758231 -3.383948 -0.897434 -3.383948 0 
C -3.383948 0.897434 -3.027394 1.758231 -2.392813 2.392813 
C -1.758231 3.027394 -0.897434 3.383948 0 3.383948 
z
" id="m32dcbfa93d" style="stroke:#2ca02c;stroke-width:2.025;"/>
    </defs>
    <g clip-path="url(#p139723a50b)">
     <use style="fill:#2ca02c;stroke:#2ca02c;stroke-width:2.025;" x="100.730769" xlink:href="#m32dcbfa93d" y="302.645454"/>
     <use style="fill:#2ca02c;stroke:#2ca02c;stroke-width:2.025;" x="122.192308" xlink:href="#m32dcbfa93d" y="302.645452"/>
     <use style="fill:#2ca02c;stroke:#2ca02c;stroke-width:2.025;" x="143.653846" xlink:href="#m32dcbfa93d" y="302.645451"/>
     <use style="fill:#2ca02c;stroke:#2ca02c;stroke-width:2.025;" x="165.115385" xlink:href="#m32dcbfa93d" y="302.645449"/>
     <use style="fill:#2ca02c;stroke:#2ca02c;stroke-width:2.025;" x="186.576923" xlink:href="#m32dcbfa93d" y="302.645448"/>
     <use style="fill:#2ca02c;stroke:#2ca02c;stroke-width:2.025;" x="208.038462" xlink:href="#m32dcbfa93d" y="302.645441"/>
     <use style="fill:#2ca02c;stroke:#2ca02c;stroke-width:2.025;" x="229.5" xlink:href="#m32dcbfa93d" y="302.645435"/>
     <use style="fill:#2ca02c;stroke:#2ca02c;stroke-width:2.025;" x="250.961538" xlink:href="#m32dcbfa93d" y="302.645423"/>
     <use style="fill:#2ca02c;stroke:#2ca02c;stroke-width:2.025;" x="272.423077" xlink:href="#m32dcbfa93d" y="302.645409"/>
     <use style="fill:#2ca02c;stroke:#2ca02c;stroke-width:2.025;" x="293.884615" xlink:href="#m32dcbfa93d" y="302.645374"/>
     <use style="fill:#2ca02c;stroke:#2ca02c;stroke-width:2.025;" x="315.346154" xlink:href="#m32dcbfa93d" y="302.645341"/>
     <use style="fill:#2ca02c;stroke:#2ca02c;stroke-width:2.025;" x="336.807692" xlink:href="#m32dcbfa93d" y="302.645267"/>
     <use style="fill:#2ca02c;stroke:#2ca02c;stroke-width:2.025;" x="358.269231" xlink:href="#m32dcbfa93d" y="302.64515"/>
     <use style="fill:#2ca02c;stroke:#2ca02c;stroke-width:2.025;" x="379.730769" xlink:href="#m32dcbfa93d" y="302.644989"/>
     <use style="fill:#2ca02c;stroke:#2ca02c;stroke-width:2.025;" x="401.192308" xlink:href="#m32dcbfa93d" y="302.644697"/>
     <use style="fill:#2ca02c;stroke:#2ca02c;stroke-width:2.025;" x="422.653846" xlink:href="#m32dcbfa93d" y="302.644254"/>
     <use style="fill:#2ca02c;stroke:#2ca02c;stroke-width:2.025;" x="444.115385" xlink:href="#m32dcbfa93d" y="302.643288"/>
     <use style="fill:#2ca02c;stroke:#2ca02c;stroke-width:2.025;" x="465.576923" xlink:href="#m32dcbfa93d" y="302.642065"/>
     <use style="fill:#2ca02c;stroke:#2ca02c;stroke-width:2.025;" x="487.038462" xlink:href="#m32dcbfa93d" y="302.64032"/>
     <use style="fill:#2ca02c;stroke:#2ca02c;stroke-width:2.025;" x="508.5" xlink:href="#m32dcbfa93d" y="302.63694"/>
     <use style="fill:#2ca02c;stroke:#2ca02c;stroke-width:2.025;" x="529.961538" xlink:href="#m32dcbfa93d" y="302.631537"/>
     <use style="fill:#2ca02c;stroke:#2ca02c;stroke-width:2.025;" x="551.423077" xlink:href="#m32dcbfa93d" y="302.62203"/>
     <use style="fill:#2ca02c;stroke:#2ca02c;stroke-width:2.025;" x="572.884615" xlink:href="#m32dcbfa93d" y="302.609457"/>
     <use style="fill:#2ca02c;stroke:#2ca02c;stroke-width:2.025;" x="594.346154" xlink:href="#m32dcbfa93d" y="302.586504"/>
     <use style="fill:#2ca02c;stroke:#2ca02c;stroke-width:2.025;" x="615.807692" xlink:href="#m32dcbfa93d" y="302.549465"/>
     <use style="fill:#2ca02c;stroke:#2ca02c;stroke-width:2.025;" x="637.269231" xlink:href="#m32dcbfa93d" y="302.488766"/>
    </g>
   </g>
   <g id="line2d_60">
    <path clip-path="url(#p139723a50b)" d="M 100.730769 302.645455 
L 100.730769 302.645453 
" style="fill:none;stroke:#2ca02c;stroke-linecap:round;stroke-width:2.7;"/>
   </g>
   <g id="line2d_61">
    <path clip-path="url(#p139723a50b)" d="M 122.192308 302.645453 
L 122.192308 302.645452 
" style="fill:none;stroke:#2ca02c;stroke-linecap:round;stroke-width:2.7;"/>
   </g>
   <g id="line2d_62">
    <path clip-path="url(#p139723a50b)" d="M 143.653846 302.645452 
L 143.653846 302.645451 
" style="fill:none;stroke:#2ca02c;stroke-linecap:round;stroke-width:2.7;"/>
   </g>
   <g id="line2d_63">
    <path clip-path="url(#p139723a50b)" d="M 165.115385 302.645451 
L 165.115385 302.645449 
" style="fill:none;stroke:#2ca02c;stroke-linecap:round;stroke-width:2.7;"/>
   </g>
   <g id="line2d_64">
    <path clip-path="url(#p139723a50b)" d="M 186.576923 302.645449 
L 186.576923 302.645446 
" style="fill:none;stroke:#2ca02c;stroke-linecap:round;stroke-width:2.7;"/>
   </g>
   <g id="line2d_65">
    <path clip-path="url(#p139723a50b)" d="M 208.038462 302.645442 
L 208.038462 302.645439 
" style="fill:none;stroke:#2ca02c;stroke-linecap:round;stroke-width:2.7;"/>
   </g>
   <g id="line2d_66">
    <path clip-path="url(#p139723a50b)" d="M 229.5 302.645438 
L 229.5 302.645431 
" style="fill:none;stroke:#2ca02c;stroke-linecap:round;stroke-width:2.7;"/>
   </g>
   <g id="line2d_67">
    <path clip-path="url(#p139723a50b)" d="M 250.961538 302.645429 
L 250.961538 302.645418 
" style="fill:none;stroke:#2ca02c;stroke-linecap:round;stroke-width:2.7;"/>
   </g>
   <g id="line2d_68">
    <path clip-path="url(#p139723a50b)" d="M 272.423077 302.645413 
L 272.423077 302.645401 
" style="fill:none;stroke:#2ca02c;stroke-linecap:round;stroke-width:2.7;"/>
   </g>
   <g id="line2d_69">
    <path clip-path="url(#p139723a50b)" d="M 293.884615 302.645386 
L 293.884615 302.645369 
" style="fill:none;stroke:#2ca02c;stroke-linecap:round;stroke-width:2.7;"/>
   </g>
   <g id="line2d_70">
    <path clip-path="url(#p139723a50b)" d="M 315.346154 302.645348 
L 315.346154 302.645333 
" style="fill:none;stroke:#2ca02c;stroke-linecap:round;stroke-width:2.7;"/>
   </g>
   <g id="line2d_71">
    <path clip-path="url(#p139723a50b)" d="M 336.807692 302.645281 
L 336.807692 302.645242 
" style="fill:none;stroke:#2ca02c;stroke-linecap:round;stroke-width:2.7;"/>
   </g>
   <g id="line2d_72">
    <path clip-path="url(#p139723a50b)" d="M 358.269231 302.645184 
L 358.269231 302.645118 
" style="fill:none;stroke:#2ca02c;stroke-linecap:round;stroke-width:2.7;"/>
   </g>
   <g id="line2d_73">
    <path clip-path="url(#p139723a50b)" d="M 379.730769 302.645018 
L 379.730769 302.644933 
" style="fill:none;stroke:#2ca02c;stroke-linecap:round;stroke-width:2.7;"/>
   </g>
   <g id="line2d_74">
    <path clip-path="url(#p139723a50b)" d="M 401.192308 302.644749 
L 401.192308 302.644614 
" style="fill:none;stroke:#2ca02c;stroke-linecap:round;stroke-width:2.7;"/>
   </g>
   <g id="line2d_75">
    <path clip-path="url(#p139723a50b)" d="M 422.653846 302.644279 
L 422.653846 302.64424 
" style="fill:none;stroke:#2ca02c;stroke-linecap:round;stroke-width:2.7;"/>
   </g>
   <g id="line2d_76">
    <path clip-path="url(#p139723a50b)" d="M 444.115385 302.64343 
L 444.115385 302.643069 
" style="fill:none;stroke:#2ca02c;stroke-linecap:round;stroke-width:2.7;"/>
   </g>
   <g id="line2d_77">
    <path clip-path="url(#p139723a50b)" d="M 465.576923 302.64222 
L 465.576923 302.641898 
" style="fill:none;stroke:#2ca02c;stroke-linecap:round;stroke-width:2.7;"/>
   </g>
   <g id="line2d_78">
    <path clip-path="url(#p139723a50b)" d="M 487.038462 302.640479 
L 487.038462 302.640195 
" style="fill:none;stroke:#2ca02c;stroke-linecap:round;stroke-width:2.7;"/>
   </g>
   <g id="line2d_79">
    <path clip-path="url(#p139723a50b)" d="M 508.5 302.637097 
L 508.5 302.636721 
" style="fill:none;stroke:#2ca02c;stroke-linecap:round;stroke-width:2.7;"/>
   </g>
   <g id="line2d_80">
    <path clip-path="url(#p139723a50b)" d="M 529.961538 302.631837 
L 529.961538 302.631203 
" style="fill:none;stroke:#2ca02c;stroke-linecap:round;stroke-width:2.7;"/>
   </g>
   <g id="line2d_81">
    <path clip-path="url(#p139723a50b)" d="M 551.423077 302.62245 
L 551.423077 302.621814 
" style="fill:none;stroke:#2ca02c;stroke-linecap:round;stroke-width:2.7;"/>
   </g>
   <g id="line2d_82">
    <path clip-path="url(#p139723a50b)" d="M 572.884615 302.610074 
L 572.884615 302.608436 
" style="fill:none;stroke:#2ca02c;stroke-linecap:round;stroke-width:2.7;"/>
   </g>
   <g id="line2d_83">
    <path clip-path="url(#p139723a50b)" d="M 594.346154 302.586652 
L 594.346154 302.586403 
" style="fill:none;stroke:#2ca02c;stroke-linecap:round;stroke-width:2.7;"/>
   </g>
   <g id="line2d_84">
    <path clip-path="url(#p139723a50b)" d="M 615.807692 302.550882 
L 615.807692 302.548313 
" style="fill:none;stroke:#2ca02c;stroke-linecap:round;stroke-width:2.7;"/>
   </g>
   <g id="line2d_85">
    <path clip-path="url(#p139723a50b)" d="M 637.269231 302.494377 
L 637.269231 302.483247 
" style="fill:none;stroke:#2ca02c;stroke-linecap:round;stroke-width:2.7;"/>
   </g>
   <g id="text_36">
    <!-- Comparativa podas para identicos -->
    <g style="fill:#262626;" transform="translate(265.890938 37.2)scale(0.12 -0.12)">
     <defs>
      <path d="M 64.40625 67.28125 
L 64.40625 56.890625 
Q 59.421875 61.53125 53.78125 63.8125 
Q 48.140625 66.109375 41.796875 66.109375 
Q 29.296875 66.109375 22.65625 58.46875 
Q 16.015625 50.828125 16.015625 36.375 
Q 16.015625 21.96875 22.65625 14.328125 
Q 29.296875 6.6875 41.796875 6.6875 
Q 48.140625 6.6875 53.78125 8.984375 
Q 59.421875 11.28125 64.40625 15.921875 
L 64.40625 5.609375 
Q 59.234375 2.09375 53.4375 0.328125 
Q 47.65625 -1.421875 41.21875 -1.421875 
Q 24.65625 -1.421875 15.125 8.703125 
Q 5.609375 18.84375 5.609375 36.375 
Q 5.609375 53.953125 15.125 64.078125 
Q 24.65625 74.21875 41.21875 74.21875 
Q 47.75 74.21875 53.53125 72.484375 
Q 59.328125 70.75 64.40625 67.28125 
z
" id="DejaVuSans-67"/>
      <path d="M 30.609375 48.390625 
Q 23.390625 48.390625 19.1875 42.75 
Q 14.984375 37.109375 14.984375 27.296875 
Q 14.984375 17.484375 19.15625 11.84375 
Q 23.34375 6.203125 30.609375 6.203125 
Q 37.796875 6.203125 41.984375 11.859375 
Q 46.1875 17.53125 46.1875 27.296875 
Q 46.1875 37.015625 41.984375 42.703125 
Q 37.796875 48.390625 30.609375 48.390625 
z
M 30.609375 56 
Q 42.328125 56 49.015625 48.375 
Q 55.71875 40.765625 55.71875 27.296875 
Q 55.71875 13.875 49.015625 6.21875 
Q 42.328125 -1.421875 30.609375 -1.421875 
Q 18.84375 -1.421875 12.171875 6.21875 
Q 5.515625 13.875 5.515625 27.296875 
Q 5.515625 40.765625 12.171875 48.375 
Q 18.84375 56 30.609375 56 
z
" id="DejaVuSans-111"/>
      <path d="M 18.109375 8.203125 
L 18.109375 -20.796875 
L 9.078125 -20.796875 
L 9.078125 54.6875 
L 18.109375 54.6875 
L 18.109375 46.390625 
Q 20.953125 51.265625 25.265625 53.625 
Q 29.59375 56 35.59375 56 
Q 45.5625 56 51.78125 48.09375 
Q 58.015625 40.1875 58.015625 27.296875 
Q 58.015625 14.40625 51.78125 6.484375 
Q 45.5625 -1.421875 35.59375 -1.421875 
Q 29.59375 -1.421875 25.265625 0.953125 
Q 20.953125 3.328125 18.109375 8.203125 
z
M 48.6875 27.296875 
Q 48.6875 37.203125 44.609375 42.84375 
Q 40.53125 48.484375 33.40625 48.484375 
Q 26.265625 48.484375 22.1875 42.84375 
Q 18.109375 37.203125 18.109375 27.296875 
Q 18.109375 17.390625 22.1875 11.75 
Q 26.265625 6.109375 33.40625 6.109375 
Q 40.53125 6.109375 44.609375 11.75 
Q 48.6875 17.390625 48.6875 27.296875 
z
" id="DejaVuSans-112"/>
      <path d="M 34.28125 27.484375 
Q 23.390625 27.484375 19.1875 25 
Q 14.984375 22.515625 14.984375 16.5 
Q 14.984375 11.71875 18.140625 8.90625 
Q 21.296875 6.109375 26.703125 6.109375 
Q 34.1875 6.109375 38.703125 11.40625 
Q 43.21875 16.703125 43.21875 25.484375 
L 43.21875 27.484375 
z
M 52.203125 31.203125 
L 52.203125 0 
L 43.21875 0 
L 43.21875 8.296875 
Q 40.140625 3.328125 35.546875 0.953125 
Q 30.953125 -1.421875 24.3125 -1.421875 
Q 15.921875 -1.421875 10.953125 3.296875 
Q 6 8.015625 6 15.921875 
Q 6 25.140625 12.171875 29.828125 
Q 18.359375 34.515625 30.609375 34.515625 
L 43.21875 34.515625 
L 43.21875 35.40625 
Q 43.21875 41.609375 39.140625 45 
Q 35.0625 48.390625 27.6875 48.390625 
Q 23 48.390625 18.546875 47.265625 
Q 14.109375 46.140625 10.015625 43.890625 
L 10.015625 52.203125 
Q 14.9375 54.109375 19.578125 55.046875 
Q 24.21875 56 28.609375 56 
Q 40.484375 56 46.34375 49.84375 
Q 52.203125 43.703125 52.203125 31.203125 
z
" id="DejaVuSans-97"/>
      <path d="M 41.109375 46.296875 
Q 39.59375 47.171875 37.8125 47.578125 
Q 36.03125 48 33.890625 48 
Q 26.265625 48 22.1875 43.046875 
Q 18.109375 38.09375 18.109375 28.8125 
L 18.109375 0 
L 9.078125 0 
L 9.078125 54.6875 
L 18.109375 54.6875 
L 18.109375 46.1875 
Q 20.953125 51.171875 25.484375 53.578125 
Q 30.03125 56 36.53125 56 
Q 37.453125 56 38.578125 55.875 
Q 39.703125 55.765625 41.0625 55.515625 
z
" id="DejaVuSans-114"/>
      <path d="M 2.984375 54.6875 
L 12.5 54.6875 
L 29.59375 8.796875 
L 46.6875 54.6875 
L 56.203125 54.6875 
L 35.6875 0 
L 23.484375 0 
z
" id="DejaVuSans-118"/>
      <path id="DejaVuSans-32"/>
      <path d="M 45.40625 46.390625 
L 45.40625 75.984375 
L 54.390625 75.984375 
L 54.390625 0 
L 45.40625 0 
L 45.40625 8.203125 
Q 42.578125 3.328125 38.25 0.953125 
Q 33.9375 -1.421875 27.875 -1.421875 
Q 17.96875 -1.421875 11.734375 6.484375 
Q 5.515625 14.40625 5.515625 27.296875 
Q 5.515625 40.1875 11.734375 48.09375 
Q 17.96875 56 27.875 56 
Q 33.9375 56 38.25 53.625 
Q 42.578125 51.265625 45.40625 46.390625 
z
M 14.796875 27.296875 
Q 14.796875 17.390625 18.875 11.75 
Q 22.953125 6.109375 30.078125 6.109375 
Q 37.203125 6.109375 41.296875 11.75 
Q 45.40625 17.390625 45.40625 27.296875 
Q 45.40625 37.203125 41.296875 42.84375 
Q 37.203125 48.484375 30.078125 48.484375 
Q 22.953125 48.484375 18.875 42.84375 
Q 14.796875 37.203125 14.796875 27.296875 
z
" id="DejaVuSans-100"/>
      <path d="M 48.78125 52.59375 
L 48.78125 44.1875 
Q 44.96875 46.296875 41.140625 47.34375 
Q 37.3125 48.390625 33.40625 48.390625 
Q 24.65625 48.390625 19.8125 42.84375 
Q 14.984375 37.3125 14.984375 27.296875 
Q 14.984375 17.28125 19.8125 11.734375 
Q 24.65625 6.203125 33.40625 6.203125 
Q 37.3125 6.203125 41.140625 7.25 
Q 44.96875 8.296875 48.78125 10.40625 
L 48.78125 2.09375 
Q 45.015625 0.34375 40.984375 -0.53125 
Q 36.96875 -1.421875 32.421875 -1.421875 
Q 20.0625 -1.421875 12.78125 6.34375 
Q 5.515625 14.109375 5.515625 27.296875 
Q 5.515625 40.671875 12.859375 48.328125 
Q 20.21875 56 33.015625 56 
Q 37.15625 56 41.109375 55.140625 
Q 45.0625 54.296875 48.78125 52.59375 
z
" id="DejaVuSans-99"/>
     </defs>
     <use xlink:href="#DejaVuSans-67"/>
     <use x="69.824219" xlink:href="#DejaVuSans-111"/>
     <use x="131.005859" xlink:href="#DejaVuSans-109"/>
     <use x="228.417969" xlink:href="#DejaVuSans-112"/>
     <use x="291.894531" xlink:href="#DejaVuSans-97"/>
     <use x="353.173828" xlink:href="#DejaVuSans-114"/>
     <use x="394.287109" xlink:href="#DejaVuSans-97"/>
     <use x="455.566406" xlink:href="#DejaVuSans-116"/>
     <use x="494.775391" xlink:href="#DejaVuSans-105"/>
     <use x="522.558594" xlink:href="#DejaVuSans-118"/>
     <use x="581.738281" xlink:href="#DejaVuSans-97"/>
     <use x="643.017578" xlink:href="#DejaVuSans-32"/>
     <use x="674.804688" xlink:href="#DejaVuSans-112"/>
     <use x="738.28125" xlink:href="#DejaVuSans-111"/>
     <use x="799.462891" xlink:href="#DejaVuSans-100"/>
     <use x="862.939453" xlink:href="#DejaVuSans-97"/>
     <use x="924.21875" xlink:href="#DejaVuSans-115"/>
     <use x="976.318359" xlink:href="#DejaVuSans-32"/>
     <use x="1008.105469" xlink:href="#DejaVuSans-112"/>
     <use x="1071.582031" xlink:href="#DejaVuSans-97"/>
     <use x="1132.861328" xlink:href="#DejaVuSans-114"/>
     <use x="1173.974609" xlink:href="#DejaVuSans-97"/>
     <use x="1235.253906" xlink:href="#DejaVuSans-32"/>
     <use x="1267.041016" xlink:href="#DejaVuSans-105"/>
     <use x="1294.824219" xlink:href="#DejaVuSans-100"/>
     <use x="1358.300781" xlink:href="#DejaVuSans-101"/>
     <use x="1419.824219" xlink:href="#DejaVuSans-110"/>
     <use x="1483.203125" xlink:href="#DejaVuSans-116"/>
     <use x="1522.412109" xlink:href="#DejaVuSans-105"/>
     <use x="1550.195312" xlink:href="#DejaVuSans-99"/>
     <use x="1605.175781" xlink:href="#DejaVuSans-111"/>
     <use x="1666.357422" xlink:href="#DejaVuSans-115"/>
    </g>
   </g>
   <g id="PathCollection_4">
    <defs>
     <path d="M 0 3.383948 
C 0.897434 3.383948 1.758231 3.027394 2.392813 2.392813 
C 3.027394 1.758231 3.383948 0.897434 3.383948 0 
C 3.383948 -0.897434 3.027394 -1.758231 2.392813 -2.392813 
C 1.758231 -3.027394 0.897434 -3.383948 0 -3.383948 
C -0.897434 -3.383948 -1.758231 -3.027394 -2.392813 -2.392813 
C -3.027394 -1.758231 -3.383948 -0.897434 -3.383948 0 
C -3.383948 0.897434 -3.027394 1.758231 -2.392813 2.392813 
C -1.758231 3.027394 -0.897434 3.383948 0 3.383948 
z
" id="m97cb0827a7" style="stroke:#d62728;stroke-width:2.025;"/>
    </defs>
    <g clip-path="url(#p139723a50b)">
     <use style="fill:#d62728;stroke:#d62728;stroke-width:2.025;" x="100.730769" xlink:href="#m97cb0827a7" y="302.645437"/>
     <use style="fill:#d62728;stroke:#d62728;stroke-width:2.025;" x="122.192308" xlink:href="#m97cb0827a7" y="302.645425"/>
     <use style="fill:#d62728;stroke:#d62728;stroke-width:2.025;" x="143.653846" xlink:href="#m97cb0827a7" y="302.645406"/>
     <use style="fill:#d62728;stroke:#d62728;stroke-width:2.025;" x="165.115385" xlink:href="#m97cb0827a7" y="302.645366"/>
     <use style="fill:#d62728;stroke:#d62728;stroke-width:2.025;" x="186.576923" xlink:href="#m97cb0827a7" y="302.645286"/>
     <use style="fill:#d62728;stroke:#d62728;stroke-width:2.025;" x="208.038462" xlink:href="#m97cb0827a7" y="302.645072"/>
     <use style="fill:#d62728;stroke:#d62728;stroke-width:2.025;" x="229.5" xlink:href="#m97cb0827a7" y="302.644797"/>
     <use style="fill:#d62728;stroke:#d62728;stroke-width:2.025;" x="250.961538" xlink:href="#m97cb0827a7" y="302.644171"/>
     <use style="fill:#d62728;stroke:#d62728;stroke-width:2.025;" x="272.423077" xlink:href="#m97cb0827a7" y="302.642137"/>
     <use style="fill:#d62728;stroke:#d62728;stroke-width:2.025;" x="293.884615" xlink:href="#m97cb0827a7" y="302.640664"/>
     <use style="fill:#d62728;stroke:#d62728;stroke-width:2.025;" x="315.346154" xlink:href="#m97cb0827a7" y="302.636075"/>
     <use style="fill:#d62728;stroke:#d62728;stroke-width:2.025;" x="336.807692" xlink:href="#m97cb0827a7" y="302.628085"/>
     <use style="fill:#d62728;stroke:#d62728;stroke-width:2.025;" x="358.269231" xlink:href="#m97cb0827a7" y="302.608235"/>
     <use style="fill:#d62728;stroke:#d62728;stroke-width:2.025;" x="379.730769" xlink:href="#m97cb0827a7" y="302.578477"/>
     <use style="fill:#d62728;stroke:#d62728;stroke-width:2.025;" x="401.192308" xlink:href="#m97cb0827a7" y="302.507007"/>
     <use style="fill:#d62728;stroke:#d62728;stroke-width:2.025;" x="422.653846" xlink:href="#m97cb0827a7" y="302.384702"/>
     <use style="fill:#d62728;stroke:#d62728;stroke-width:2.025;" x="444.115385" xlink:href="#m97cb0827a7" y="302.124821"/>
     <use style="fill:#d62728;stroke:#d62728;stroke-width:2.025;" x="465.576923" xlink:href="#m97cb0827a7" y="301.638605"/>
     <use style="fill:#d62728;stroke:#d62728;stroke-width:2.025;" x="487.038462" xlink:href="#m97cb0827a7" y="300.598203"/>
     <use style="fill:#d62728;stroke:#d62728;stroke-width:2.025;" x="508.5" xlink:href="#m97cb0827a7" y="298.682205"/>
     <use style="fill:#d62728;stroke:#d62728;stroke-width:2.025;" x="529.961538" xlink:href="#m97cb0827a7" y="294.63177"/>
     <use style="fill:#d62728;stroke:#d62728;stroke-width:2.025;" x="551.423077" xlink:href="#m97cb0827a7" y="287.038121"/>
     <use style="fill:#d62728;stroke:#d62728;stroke-width:2.025;" x="572.884615" xlink:href="#m97cb0827a7" y="271.055302"/>
     <use style="fill:#d62728;stroke:#d62728;stroke-width:2.025;" x="594.346154" xlink:href="#m97cb0827a7" y="241.896146"/>
     <use style="fill:#d62728;stroke:#d62728;stroke-width:2.025;" x="615.807692" xlink:href="#m97cb0827a7" y="177.538066"/>
     <use style="fill:#d62728;stroke:#d62728;stroke-width:2.025;" x="637.269231" xlink:href="#m97cb0827a7" y="57.404029"/>
    </g>
   </g>
   <g id="line2d_86">
    <path clip-path="url(#p139723a50b)" d="M 100.730769 302.645439 
L 100.730769 302.645435 
" style="fill:none;stroke:#d62728;stroke-linecap:round;stroke-width:2.7;"/>
   </g>
   <g id="line2d_87">
    <path clip-path="url(#p139723a50b)" d="M 122.192308 302.645429 
L 122.192308 302.64542 
" style="fill:none;stroke:#d62728;stroke-linecap:round;stroke-width:2.7;"/>
   </g>
   <g id="line2d_88">
    <path clip-path="url(#p139723a50b)" d="M 143.653846 302.64541 
L 143.653846 302.6454 
" style="fill:none;stroke:#d62728;stroke-linecap:round;stroke-width:2.7;"/>
   </g>
   <g id="line2d_89">
    <path clip-path="url(#p139723a50b)" d="M 165.115385 302.645372 
L 165.115385 302.645354 
" style="fill:none;stroke:#d62728;stroke-linecap:round;stroke-width:2.7;"/>
   </g>
   <g id="line2d_90">
    <path clip-path="url(#p139723a50b)" d="M 186.576923 302.645303 
L 186.576923 302.645259 
" style="fill:none;stroke:#d62728;stroke-linecap:round;stroke-width:2.7;"/>
   </g>
   <g id="line2d_91">
    <path clip-path="url(#p139723a50b)" d="M 208.038462 302.645094 
L 208.038462 302.64506 
" style="fill:none;stroke:#d62728;stroke-linecap:round;stroke-width:2.7;"/>
   </g>
   <g id="line2d_92">
    <path clip-path="url(#p139723a50b)" d="M 229.5 302.644856 
L 229.5 302.644716 
" style="fill:none;stroke:#d62728;stroke-linecap:round;stroke-width:2.7;"/>
   </g>
   <g id="line2d_93">
    <path clip-path="url(#p139723a50b)" d="M 250.961538 302.644358 
L 250.961538 302.643827 
" style="fill:none;stroke:#d62728;stroke-linecap:round;stroke-width:2.7;"/>
   </g>
   <g id="line2d_94">
    <path clip-path="url(#p139723a50b)" d="M 272.423077 302.643234 
L 272.423077 302.640761 
" style="fill:none;stroke:#d62728;stroke-linecap:round;stroke-width:2.7;"/>
   </g>
   <g id="line2d_95">
    <path clip-path="url(#p139723a50b)" d="M 293.884615 302.641337 
L 293.884615 302.640302 
" style="fill:none;stroke:#d62728;stroke-linecap:round;stroke-width:2.7;"/>
   </g>
   <g id="line2d_96">
    <path clip-path="url(#p139723a50b)" d="M 315.346154 302.637377 
L 315.346154 302.634859 
" style="fill:none;stroke:#d62728;stroke-linecap:round;stroke-width:2.7;"/>
   </g>
   <g id="line2d_97">
    <path clip-path="url(#p139723a50b)" d="M 336.807692 302.629213 
L 336.807692 302.626278 
" style="fill:none;stroke:#d62728;stroke-linecap:round;stroke-width:2.7;"/>
   </g>
   <g id="line2d_98">
    <path clip-path="url(#p139723a50b)" d="M 358.269231 302.610865 
L 358.269231 302.605449 
" style="fill:none;stroke:#d62728;stroke-linecap:round;stroke-width:2.7;"/>
   </g>
   <g id="line2d_99">
    <path clip-path="url(#p139723a50b)" d="M 379.730769 302.579805 
L 379.730769 302.577593 
" style="fill:none;stroke:#d62728;stroke-linecap:round;stroke-width:2.7;"/>
   </g>
   <g id="line2d_100">
    <path clip-path="url(#p139723a50b)" d="M 401.192308 302.509827 
L 401.192308 302.503963 
" style="fill:none;stroke:#d62728;stroke-linecap:round;stroke-width:2.7;"/>
   </g>
   <g id="line2d_101">
    <path clip-path="url(#p139723a50b)" d="M 422.653846 302.394783 
L 422.653846 302.36992 
" style="fill:none;stroke:#d62728;stroke-linecap:round;stroke-width:2.7;"/>
   </g>
   <g id="line2d_102">
    <path clip-path="url(#p139723a50b)" d="M 444.115385 302.129735 
L 444.115385 302.117872 
" style="fill:none;stroke:#d62728;stroke-linecap:round;stroke-width:2.7;"/>
   </g>
   <g id="line2d_103">
    <path clip-path="url(#p139723a50b)" d="M 465.576923 301.65097 
L 465.576923 301.626698 
" style="fill:none;stroke:#d62728;stroke-linecap:round;stroke-width:2.7;"/>
   </g>
   <g id="line2d_104">
    <path clip-path="url(#p139723a50b)" d="M 487.038462 300.620972 
L 487.038462 300.572044 
" style="fill:none;stroke:#d62728;stroke-linecap:round;stroke-width:2.7;"/>
   </g>
   <g id="line2d_105">
    <path clip-path="url(#p139723a50b)" d="M 508.5 298.750404 
L 508.5 298.573321 
" style="fill:none;stroke:#d62728;stroke-linecap:round;stroke-width:2.7;"/>
   </g>
   <g id="line2d_106">
    <path clip-path="url(#p139723a50b)" d="M 529.961538 294.721735 
L 529.961538 294.491246 
" style="fill:none;stroke:#d62728;stroke-linecap:round;stroke-width:2.7;"/>
   </g>
   <g id="line2d_107">
    <path clip-path="url(#p139723a50b)" d="M 551.423077 287.16053 
L 551.423077 286.895753 
" style="fill:none;stroke:#d62728;stroke-linecap:round;stroke-width:2.7;"/>
   </g>
   <g id="line2d_108">
    <path clip-path="url(#p139723a50b)" d="M 572.884615 271.250225 
L 572.884615 270.691766 
" style="fill:none;stroke:#d62728;stroke-linecap:round;stroke-width:2.7;"/>
   </g>
   <g id="line2d_109">
    <path clip-path="url(#p139723a50b)" d="M 594.346154 242.37238 
L 594.346154 241.498071 
" style="fill:none;stroke:#d62728;stroke-linecap:round;stroke-width:2.7;"/>
   </g>
   <g id="line2d_110">
    <path clip-path="url(#p139723a50b)" d="M 615.807692 178.237362 
L 615.807692 176.947541 
" style="fill:none;stroke:#d62728;stroke-linecap:round;stroke-width:2.7;"/>
   </g>
   <g id="line2d_111">
    <path clip-path="url(#p139723a50b)" d="M 637.269231 60.951697 
L 637.269231 55.554545 
" style="fill:none;stroke:#d62728;stroke-linecap:round;stroke-width:2.7;"/>
   </g>
   <g id="PathCollection_5">
    <defs>
     <path d="M 0 3.383948 
C 0.897434 3.383948 1.758231 3.027394 2.392813 2.392813 
C 3.027394 1.758231 3.383948 0.897434 3.383948 0 
C 3.383948 -0.897434 3.027394 -1.758231 2.392813 -2.392813 
C 1.758231 -3.027394 0.897434 -3.383948 0 -3.383948 
C -0.897434 -3.383948 -1.758231 -3.027394 -2.392813 -2.392813 
C -3.027394 -1.758231 -3.383948 -0.897434 -3.383948 0 
C -3.383948 0.897434 -3.027394 1.758231 -2.392813 2.392813 
C -1.758231 3.027394 -0.897434 3.383948 0 3.383948 
z
" id="m7ef65c0dd7" style="stroke:#9467bd;stroke-width:2.025;"/>
    </defs>
    <g clip-path="url(#p139723a50b)">
     <use style="fill:#9467bd;stroke:#9467bd;stroke-width:2.025;" x="100.730769" xlink:href="#m7ef65c0dd7" y="302.64545"/>
     <use style="fill:#9467bd;stroke:#9467bd;stroke-width:2.025;" x="122.192308" xlink:href="#m7ef65c0dd7" y="302.645447"/>
     <use style="fill:#9467bd;stroke:#9467bd;stroke-width:2.025;" x="143.653846" xlink:href="#m7ef65c0dd7" y="302.645442"/>
     <use style="fill:#9467bd;stroke:#9467bd;stroke-width:2.025;" x="165.115385" xlink:href="#m7ef65c0dd7" y="302.645425"/>
     <use style="fill:#9467bd;stroke:#9467bd;stroke-width:2.025;" x="186.576923" xlink:href="#m7ef65c0dd7" y="302.645409"/>
     <use style="fill:#9467bd;stroke:#9467bd;stroke-width:2.025;" x="208.038462" xlink:href="#m7ef65c0dd7" y="302.64537"/>
     <use style="fill:#9467bd;stroke:#9467bd;stroke-width:2.025;" x="229.5" xlink:href="#m7ef65c0dd7" y="302.64532"/>
     <use style="fill:#9467bd;stroke:#9467bd;stroke-width:2.025;" x="250.961538" xlink:href="#m7ef65c0dd7" y="302.645204"/>
     <use style="fill:#9467bd;stroke:#9467bd;stroke-width:2.025;" x="272.423077" xlink:href="#m7ef65c0dd7" y="302.645"/>
     <use style="fill:#9467bd;stroke:#9467bd;stroke-width:2.025;" x="293.884615" xlink:href="#m7ef65c0dd7" y="302.644565"/>
     <use style="fill:#9467bd;stroke:#9467bd;stroke-width:2.025;" x="315.346154" xlink:href="#m7ef65c0dd7" y="302.643687"/>
     <use style="fill:#9467bd;stroke:#9467bd;stroke-width:2.025;" x="336.807692" xlink:href="#m7ef65c0dd7" y="302.642547"/>
     <use style="fill:#9467bd;stroke:#9467bd;stroke-width:2.025;" x="358.269231" xlink:href="#m7ef65c0dd7" y="302.639853"/>
     <use style="fill:#9467bd;stroke:#9467bd;stroke-width:2.025;" x="379.730769" xlink:href="#m7ef65c0dd7" y="302.634322"/>
     <use style="fill:#9467bd;stroke:#9467bd;stroke-width:2.025;" x="401.192308" xlink:href="#m7ef65c0dd7" y="302.623569"/>
     <use style="fill:#9467bd;stroke:#9467bd;stroke-width:2.025;" x="422.653846" xlink:href="#m7ef65c0dd7" y="302.600332"/>
     <use style="fill:#9467bd;stroke:#9467bd;stroke-width:2.025;" x="444.115385" xlink:href="#m7ef65c0dd7" y="302.557764"/>
     <use style="fill:#9467bd;stroke:#9467bd;stroke-width:2.025;" x="465.576923" xlink:href="#m7ef65c0dd7" y="302.480346"/>
     <use style="fill:#9467bd;stroke:#9467bd;stroke-width:2.025;" x="487.038462" xlink:href="#m7ef65c0dd7" y="302.312425"/>
     <use style="fill:#9467bd;stroke:#9467bd;stroke-width:2.025;" x="508.5" xlink:href="#m7ef65c0dd7" y="301.980878"/>
     <use style="fill:#9467bd;stroke:#9467bd;stroke-width:2.025;" x="529.961538" xlink:href="#m7ef65c0dd7" y="301.336106"/>
     <use style="fill:#9467bd;stroke:#9467bd;stroke-width:2.025;" x="551.423077" xlink:href="#m7ef65c0dd7" y="300.08444"/>
     <use style="fill:#9467bd;stroke:#9467bd;stroke-width:2.025;" x="572.884615" xlink:href="#m7ef65c0dd7" y="297.51626"/>
     <use style="fill:#9467bd;stroke:#9467bd;stroke-width:2.025;" x="594.346154" xlink:href="#m7ef65c0dd7" y="292.586837"/>
     <use style="fill:#9467bd;stroke:#9467bd;stroke-width:2.025;" x="615.807692" xlink:href="#m7ef65c0dd7" y="282.480916"/>
     <use style="fill:#9467bd;stroke:#9467bd;stroke-width:2.025;" x="637.269231" xlink:href="#m7ef65c0dd7" y="262.962976"/>
    </g>
   </g>
   <g id="line2d_112">
    <path clip-path="url(#p139723a50b)" d="M 100.730769 302.645452 
L 100.730769 302.645449 
" style="fill:none;stroke:#9467bd;stroke-linecap:round;stroke-width:2.7;"/>
   </g>
   <g id="line2d_113">
    <path clip-path="url(#p139723a50b)" d="M 122.192308 302.645448 
L 122.192308 302.645446 
" style="fill:none;stroke:#9467bd;stroke-linecap:round;stroke-width:2.7;"/>
   </g>
   <g id="line2d_114">
    <path clip-path="url(#p139723a50b)" d="M 143.653846 302.645444 
L 143.653846 302.645437 
" style="fill:none;stroke:#9467bd;stroke-linecap:round;stroke-width:2.7;"/>
   </g>
   <g id="line2d_115">
    <path clip-path="url(#p139723a50b)" d="M 165.115385 302.645426 
L 165.115385 302.645423 
" style="fill:none;stroke:#9467bd;stroke-linecap:round;stroke-width:2.7;"/>
   </g>
   <g id="line2d_116">
    <path clip-path="url(#p139723a50b)" d="M 186.576923 302.645416 
L 186.576923 302.645405 
" style="fill:none;stroke:#9467bd;stroke-linecap:round;stroke-width:2.7;"/>
   </g>
   <g id="line2d_117">
    <path clip-path="url(#p139723a50b)" d="M 208.038462 302.645389 
L 208.038462 302.645358 
" style="fill:none;stroke:#9467bd;stroke-linecap:round;stroke-width:2.7;"/>
   </g>
   <g id="line2d_118">
    <path clip-path="url(#p139723a50b)" d="M 229.5 302.645325 
L 229.5 302.645315 
" style="fill:none;stroke:#9467bd;stroke-linecap:round;stroke-width:2.7;"/>
   </g>
   <g id="line2d_119">
    <path clip-path="url(#p139723a50b)" d="M 250.961538 302.645227 
L 250.961538 302.645177 
" style="fill:none;stroke:#9467bd;stroke-linecap:round;stroke-width:2.7;"/>
   </g>
   <g id="line2d_120">
    <path clip-path="url(#p139723a50b)" d="M 272.423077 302.645037 
L 272.423077 302.644948 
" style="fill:none;stroke:#9467bd;stroke-linecap:round;stroke-width:2.7;"/>
   </g>
   <g id="line2d_121">
    <path clip-path="url(#p139723a50b)" d="M 293.884615 302.644636 
L 293.884615 302.644508 
" style="fill:none;stroke:#9467bd;stroke-linecap:round;stroke-width:2.7;"/>
   </g>
   <g id="line2d_122">
    <path clip-path="url(#p139723a50b)" d="M 315.346154 302.64402 
L 315.346154 302.643191 
" style="fill:none;stroke:#9467bd;stroke-linecap:round;stroke-width:2.7;"/>
   </g>
   <g id="line2d_123">
    <path clip-path="url(#p139723a50b)" d="M 336.807692 302.642622 
L 336.807692 302.642452 
" style="fill:none;stroke:#9467bd;stroke-linecap:round;stroke-width:2.7;"/>
   </g>
   <g id="line2d_124">
    <path clip-path="url(#p139723a50b)" d="M 358.269231 302.64018 
L 358.269231 302.639645 
" style="fill:none;stroke:#9467bd;stroke-linecap:round;stroke-width:2.7;"/>
   </g>
   <g id="line2d_125">
    <path clip-path="url(#p139723a50b)" d="M 379.730769 302.634756 
L 379.730769 302.633742 
" style="fill:none;stroke:#9467bd;stroke-linecap:round;stroke-width:2.7;"/>
   </g>
   <g id="line2d_126">
    <path clip-path="url(#p139723a50b)" d="M 401.192308 302.623843 
L 401.192308 302.623042 
" style="fill:none;stroke:#9467bd;stroke-linecap:round;stroke-width:2.7;"/>
   </g>
   <g id="line2d_127">
    <path clip-path="url(#p139723a50b)" d="M 422.653846 302.601627 
L 422.653846 302.598907 
" style="fill:none;stroke:#9467bd;stroke-linecap:round;stroke-width:2.7;"/>
   </g>
   <g id="line2d_128">
    <path clip-path="url(#p139723a50b)" d="M 444.115385 302.560565 
L 444.115385 302.555239 
" style="fill:none;stroke:#9467bd;stroke-linecap:round;stroke-width:2.7;"/>
   </g>
   <g id="line2d_129">
    <path clip-path="url(#p139723a50b)" d="M 465.576923 302.481819 
L 465.576923 302.477773 
" style="fill:none;stroke:#9467bd;stroke-linecap:round;stroke-width:2.7;"/>
   </g>
   <g id="line2d_130">
    <path clip-path="url(#p139723a50b)" d="M 487.038462 302.318866 
L 487.038462 302.306466 
" style="fill:none;stroke:#9467bd;stroke-linecap:round;stroke-width:2.7;"/>
   </g>
   <g id="line2d_131">
    <path clip-path="url(#p139723a50b)" d="M 508.5 301.996293 
L 508.5 301.968359 
" style="fill:none;stroke:#9467bd;stroke-linecap:round;stroke-width:2.7;"/>
   </g>
   <g id="line2d_132">
    <path clip-path="url(#p139723a50b)" d="M 529.961538 301.356531 
L 529.961538 301.30749 
" style="fill:none;stroke:#9467bd;stroke-linecap:round;stroke-width:2.7;"/>
   </g>
   <g id="line2d_133">
    <path clip-path="url(#p139723a50b)" d="M 551.423077 300.096793 
L 551.423077 300.06735 
" style="fill:none;stroke:#9467bd;stroke-linecap:round;stroke-width:2.7;"/>
   </g>
   <g id="line2d_134">
    <path clip-path="url(#p139723a50b)" d="M 572.884615 297.531967 
L 572.884615 297.500239 
" style="fill:none;stroke:#9467bd;stroke-linecap:round;stroke-width:2.7;"/>
   </g>
   <g id="line2d_135">
    <path clip-path="url(#p139723a50b)" d="M 594.346154 292.683238 
L 594.346154 292.537432 
" style="fill:none;stroke:#9467bd;stroke-linecap:round;stroke-width:2.7;"/>
   </g>
   <g id="line2d_136">
    <path clip-path="url(#p139723a50b)" d="M 615.807692 282.621089 
L 615.807692 282.352323 
" style="fill:none;stroke:#9467bd;stroke-linecap:round;stroke-width:2.7;"/>
   </g>
   <g id="line2d_137">
    <path clip-path="url(#p139723a50b)" d="M 637.269231 263.417882 
L 637.269231 262.643312 
" style="fill:none;stroke:#9467bd;stroke-linecap:round;stroke-width:2.7;"/>
   </g>
   <g id="legend_1">
    <g id="patch_7">
     <path d="M 97 139.26875 
L 164.804688 139.26875 
Q 166.804688 139.26875 166.804688 137.26875 
L 166.804688 50.2 
Q 166.804688 48.2 164.804688 48.2 
L 97 48.2 
Q 95 48.2 95 50.2 
L 95 137.26875 
Q 95 139.26875 97 139.26875 
z
" style="fill:#ffffff;opacity:0.8;stroke:#cccccc;stroke-linejoin:miter;"/>
    </g>
    <g id="text_37">
     <!-- algorithm -->
     <g style="fill:#262626;" transform="translate(106.771875 59.798437)scale(0.1 -0.1)">
      <defs>
       <path d="M 9.421875 75.984375 
L 18.40625 75.984375 
L 18.40625 0 
L 9.421875 0 
z
" id="DejaVuSans-108"/>
       <path d="M 45.40625 27.984375 
Q 45.40625 37.75 41.375 43.109375 
Q 37.359375 48.484375 30.078125 48.484375 
Q 22.859375 48.484375 18.828125 43.109375 
Q 14.796875 37.75 14.796875 27.984375 
Q 14.796875 18.265625 18.828125 12.890625 
Q 22.859375 7.515625 30.078125 7.515625 
Q 37.359375 7.515625 41.375 12.890625 
Q 45.40625 18.265625 45.40625 27.984375 
z
M 54.390625 6.78125 
Q 54.390625 -7.171875 48.1875 -13.984375 
Q 42 -20.796875 29.203125 -20.796875 
Q 24.46875 -20.796875 20.265625 -20.09375 
Q 16.0625 -19.390625 12.109375 -17.921875 
L 12.109375 -9.1875 
Q 16.0625 -11.328125 19.921875 -12.34375 
Q 23.78125 -13.375 27.78125 -13.375 
Q 36.625 -13.375 41.015625 -8.765625 
Q 45.40625 -4.15625 45.40625 5.171875 
L 45.40625 9.625 
Q 42.625 4.78125 38.28125 2.390625 
Q 33.9375 0 27.875 0 
Q 17.828125 0 11.671875 7.65625 
Q 5.515625 15.328125 5.515625 27.984375 
Q 5.515625 40.671875 11.671875 48.328125 
Q 17.828125 56 27.875 56 
Q 33.9375 56 38.28125 53.609375 
Q 42.625 51.21875 45.40625 46.390625 
L 45.40625 54.6875 
L 54.390625 54.6875 
z
" id="DejaVuSans-103"/>
       <path d="M 54.890625 33.015625 
L 54.890625 0 
L 45.90625 0 
L 45.90625 32.71875 
Q 45.90625 40.484375 42.875 44.328125 
Q 39.84375 48.1875 33.796875 48.1875 
Q 26.515625 48.1875 22.3125 43.546875 
Q 18.109375 38.921875 18.109375 30.90625 
L 18.109375 0 
L 9.078125 0 
L 9.078125 75.984375 
L 18.109375 75.984375 
L 18.109375 46.1875 
Q 21.34375 51.125 25.703125 53.5625 
Q 30.078125 56 35.796875 56 
Q 45.21875 56 50.046875 50.171875 
Q 54.890625 44.34375 54.890625 33.015625 
z
" id="DejaVuSans-104"/>
      </defs>
      <use xlink:href="#DejaVuSans-97"/>
      <use x="61.279297" xlink:href="#DejaVuSans-108"/>
      <use x="89.0625" xlink:href="#DejaVuSans-103"/>
      <use x="152.539062" xlink:href="#DejaVuSans-111"/>
      <use x="213.720703" xlink:href="#DejaVuSans-114"/>
      <use x="254.833984" xlink:href="#DejaVuSans-105"/>
      <use x="282.617188" xlink:href="#DejaVuSans-116"/>
      <use x="321.826172" xlink:href="#DejaVuSans-104"/>
      <use x="385.205078" xlink:href="#DejaVuSans-109"/>
     </g>
    </g>
    <g id="PathCollection_6">
     <g>
      <use style="fill:#1f77b4;stroke:#1f77b4;stroke-width:2.025;" x="109" xlink:href="#mdcdfae1941" y="71.851562"/>
     </g>
    </g>
    <g id="text_38">
     <!-- FB -->
     <g style="fill:#262626;" transform="translate(127 74.476562)scale(0.1 -0.1)">
      <defs>
       <path d="M 9.8125 72.90625 
L 51.703125 72.90625 
L 51.703125 64.59375 
L 19.671875 64.59375 
L 19.671875 43.109375 
L 48.578125 43.109375 
L 48.578125 34.8125 
L 19.671875 34.8125 
L 19.671875 0 
L 9.8125 0 
z
" id="DejaVuSans-70"/>
       <path d="M 19.671875 34.8125 
L 19.671875 8.109375 
L 35.5 8.109375 
Q 43.453125 8.109375 47.28125 11.40625 
Q 51.125 14.703125 51.125 21.484375 
Q 51.125 28.328125 47.28125 31.5625 
Q 43.453125 34.8125 35.5 34.8125 
z
M 19.671875 64.796875 
L 19.671875 42.828125 
L 34.28125 42.828125 
Q 41.5 42.828125 45.03125 45.53125 
Q 48.578125 48.25 48.578125 53.8125 
Q 48.578125 59.328125 45.03125 62.0625 
Q 41.5 64.796875 34.28125 64.796875 
z
M 9.8125 72.90625 
L 35.015625 72.90625 
Q 46.296875 72.90625 52.390625 68.21875 
Q 58.5 63.53125 58.5 54.890625 
Q 58.5 48.1875 55.375 44.234375 
Q 52.25 40.28125 46.1875 39.3125 
Q 53.46875 37.75 57.5 32.78125 
Q 61.53125 27.828125 61.53125 20.40625 
Q 61.53125 10.640625 54.890625 5.3125 
Q 48.25 0 35.984375 0 
L 9.8125 0 
z
" id="DejaVuSans-66"/>
      </defs>
      <use xlink:href="#DejaVuSans-70"/>
      <use x="57.519531" xlink:href="#DejaVuSans-66"/>
     </g>
    </g>
    <g id="PathCollection_7">
     <g>
      <use style="fill:#ff7f0e;stroke:#ff7f0e;stroke-width:2.025;" x="109" xlink:href="#mea27babd39" y="86.529688"/>
     </g>
    </g>
    <g id="text_39">
     <!-- BT -->
     <g style="fill:#262626;" transform="translate(127 89.154688)scale(0.1 -0.1)">
      <defs>
       <path d="M -0.296875 72.90625 
L 61.375 72.90625 
L 61.375 64.59375 
L 35.5 64.59375 
L 35.5 0 
L 25.59375 0 
L 25.59375 64.59375 
L -0.296875 64.59375 
z
" id="DejaVuSans-84"/>
      </defs>
      <use xlink:href="#DejaVuSans-66"/>
      <use x="68.603516" xlink:href="#DejaVuSans-84"/>
     </g>
    </g>
    <g id="PathCollection_8">
     <g>
      <use style="fill:#2ca02c;stroke:#2ca02c;stroke-width:2.025;" x="109" xlink:href="#m32dcbfa93d" y="101.207812"/>
     </g>
    </g>
    <g id="text_40">
     <!-- BT-F -->
     <g style="fill:#262626;" transform="translate(127 103.832812)scale(0.1 -0.1)">
      <defs>
       <path d="M 4.890625 31.390625 
L 31.203125 31.390625 
L 31.203125 23.390625 
L 4.890625 23.390625 
z
" id="DejaVuSans-45"/>
      </defs>
      <use xlink:href="#DejaVuSans-66"/>
      <use x="68.603516" xlink:href="#DejaVuSans-84"/>
      <use x="120.5625" xlink:href="#DejaVuSans-45"/>
      <use x="156.646484" xlink:href="#DejaVuSans-70"/>
     </g>
    </g>
    <g id="PathCollection_9">
     <g>
      <use style="fill:#d62728;stroke:#d62728;stroke-width:2.025;" x="109" xlink:href="#m97cb0827a7" y="115.885938"/>
     </g>
    </g>
    <g id="text_41">
     <!-- BT-O-G -->
     <g style="fill:#262626;" transform="translate(127 118.510938)scale(0.1 -0.1)">
      <defs>
       <path d="M 39.40625 66.21875 
Q 28.65625 66.21875 22.328125 58.203125 
Q 16.015625 50.203125 16.015625 36.375 
Q 16.015625 22.609375 22.328125 14.59375 
Q 28.65625 6.59375 39.40625 6.59375 
Q 50.140625 6.59375 56.421875 14.59375 
Q 62.703125 22.609375 62.703125 36.375 
Q 62.703125 50.203125 56.421875 58.203125 
Q 50.140625 66.21875 39.40625 66.21875 
z
M 39.40625 74.21875 
Q 54.734375 74.21875 63.90625 63.9375 
Q 73.09375 53.65625 73.09375 36.375 
Q 73.09375 19.140625 63.90625 8.859375 
Q 54.734375 -1.421875 39.40625 -1.421875 
Q 24.03125 -1.421875 14.8125 8.828125 
Q 5.609375 19.09375 5.609375 36.375 
Q 5.609375 53.65625 14.8125 63.9375 
Q 24.03125 74.21875 39.40625 74.21875 
z
" id="DejaVuSans-79"/>
       <path d="M 59.515625 10.40625 
L 59.515625 29.984375 
L 43.40625 29.984375 
L 43.40625 38.09375 
L 69.28125 38.09375 
L 69.28125 6.78125 
Q 63.578125 2.734375 56.6875 0.65625 
Q 49.8125 -1.421875 42 -1.421875 
Q 24.90625 -1.421875 15.25 8.5625 
Q 5.609375 18.5625 5.609375 36.375 
Q 5.609375 54.25 15.25 64.234375 
Q 24.90625 74.21875 42 74.21875 
Q 49.125 74.21875 55.546875 72.453125 
Q 61.96875 70.703125 67.390625 67.28125 
L 67.390625 56.78125 
Q 61.921875 61.421875 55.765625 63.765625 
Q 49.609375 66.109375 42.828125 66.109375 
Q 29.4375 66.109375 22.71875 58.640625 
Q 16.015625 51.171875 16.015625 36.375 
Q 16.015625 21.625 22.71875 14.15625 
Q 29.4375 6.6875 42.828125 6.6875 
Q 48.046875 6.6875 52.140625 7.59375 
Q 56.25 8.5 59.515625 10.40625 
z
" id="DejaVuSans-71"/>
      </defs>
      <use xlink:href="#DejaVuSans-66"/>
      <use x="68.603516" xlink:href="#DejaVuSans-84"/>
      <use x="120.5625" xlink:href="#DejaVuSans-45"/>
      <use x="159.396484" xlink:href="#DejaVuSans-79"/>
      <use x="240.857422" xlink:href="#DejaVuSans-45"/>
      <use x="280.566406" xlink:href="#DejaVuSans-71"/>
     </g>
    </g>
    <g id="PathCollection_10">
     <g>
      <use style="fill:#9467bd;stroke:#9467bd;stroke-width:2.025;" x="109" xlink:href="#m7ef65c0dd7" y="130.564063"/>
     </g>
    </g>
    <g id="text_42">
     <!-- BT-O-C -->
     <g style="fill:#262626;" transform="translate(127 133.189063)scale(0.1 -0.1)">
      <use xlink:href="#DejaVuSans-66"/>
      <use x="68.603516" xlink:href="#DejaVuSans-84"/>
      <use x="120.5625" xlink:href="#DejaVuSans-45"/>
      <use x="159.396484" xlink:href="#DejaVuSans-79"/>
      <use x="240.857422" xlink:href="#DejaVuSans-45"/>
      <use x="276.941406" xlink:href="#DejaVuSans-67"/>
     </g>
    </g>
   </g>
  </g>
 </g>
 <defs>
  <clipPath id="p139723a50b">
   <rect height="271.8" width="558" x="90" y="43.2"/>
  </clipPath>
 </defs>
</svg>
