<svg xmlns="http://www.w3.org/2000/svg" xmlns:xlink="http://www.w3.org/1999/xlink" xmlns:lucid="lucid" width="1640" height="740"><g transform="translate(0 0)" lucid:page-tab-id="0_0"><path d="M400 126c0-3.3 2.7-6 6-6h228c3.3 0 6 2.7 6 6v48c0 3.3-2.7 6-6 6H406c-3.3 0-6-2.7-6-6z" fill="none"/><use xlink:href="#a" transform="matrix(1,0,0,1,400,120) translate(95.3395061728395 34.44444444444444)"/><use xlink:href="#b" transform="matrix(1,0,0,1,400,120) translate(117.5 34.44444444444444)"/><path d="M900 50c0 27.6-22.4 50-50 50s-50-22.4-50-50 22.4-50 50-50 50 22.4 50 50z" stroke="#5e5e5e" stroke-width="3" fill="#fff"/><path d="M804.35 75.78L467.48 192.44" stroke="#5e5e5e" stroke-width="2" fill="none"/><path d="M805.8 76.34l-1.15.4-.65-1.9.8-.27z" fill="#5e5e5e"/><path d="M453.06 197.44l11.96-9.05 3.04 8.75z" stroke="#5e5e5e" stroke-width="2" fill="#5e5e5e"/><path d="M896.55 74.2l336 118.16" stroke="#5e5e5e" stroke-width="2" fill="none"/><path d="M896.9 73.27l-.66 1.9-1.1-.4.1-.1.8-1.7z" fill="#5e5e5e"/><path d="M1246.95 197.43l-15-.36 3.08-8.75z" stroke="#5e5e5e" stroke-width="2" fill="#5e5e5e"/><path d="M500 250c0 27.6-22.4 50-50 50s-50-22.4-50-50 22.4-50 50-50 50 22.4 50 50zM300 450c0 27.6-22.4 50-50 50s-50-22.4-50-50 22.4-50 50-50 50 22.4 50 50zM700 450c0 27.6-22.4 50-50 50s-50-22.4-50-50 22.4-50 50-50 50 22.4 50 50z" stroke="#5e5e5e" stroke-width="3" fill="#fff"/><path d="M200 650c0 27.6-22.4 50-50 50s-50-22.4-50-50 22.4-50 50-50 50 22.4 50 50zM400 650c0 27.6-22.4 50-50 50s-50-22.4-50-50 22.4-50 50-50 50 22.4 50 50z" stroke="#5e5e5e" stroke-width="3" fill="#de5f85"/><path d="M600 650c0 27.6-22.4 50-50 50s-50-22.4-50-50 22.4-50 50-50 50 22.4 50 50z" stroke="#5e5e5e" stroke-width="3" fill="#a3d977"/><path d="M800 650c0 27.6-22.4 50-50 50s-50-22.4-50-50 22.4-50 50-50 50 22.4 50 50z" stroke="#5e5e5e" stroke-width="3" fill="#99d2f2"/><path d="M1300 250c0 27.6-22.4 50-50 50s-50-22.4-50-50 22.4-50 50-50 50 22.4 50 50zM1100 450c0 27.6-22.4 50-50 50s-50-22.4-50-50 22.4-50 50-50 50 22.4 50 50zM1500 450c0 27.6-22.4 50-50 50s-50-22.4-50-50 22.4-50 50-50 50 22.4 50 50z" stroke="#5e5e5e" stroke-width="3" fill="#fff"/><path d="M1000 650c0 27.6-22.4 50-50 50s-50-22.4-50-50 22.4-50 50-50 50 22.4 50 50z" stroke="#5e5e5e" stroke-width="3" fill="#de5f85"/><path d="M1200 650c0 27.6-22.4 50-50 50s-50-22.4-50-50 22.4-50 50-50 50 22.4 50 50zM1400 650c0 27.6-22.4 50-50 50s-50-22.4-50-50 22.4-50 50-50 50 22.4 50 50zM1600 650c0 27.6-22.4 50-50 50s-50-22.4-50-50 22.4-50 50-50 50 22.4 50 50z" stroke="#5e5e5e" stroke-width="3" fill="#99d2f2"/><path d="M160 326c0-3.3 2.7-6 6-6h228c3.3 0 6 2.7 6 6v48c0 3.3-2.7 6-6 6H166c-3.3 0-6-2.7-6-6z" fill="none"/><use xlink:href="#a" transform="matrix(1,0,0,1,160,320) translate(95.3395061728395 34.44444444444444)"/><use xlink:href="#c" transform="matrix(1,0,0,1,160,320) translate(117.5 34.44444444444444)"/><path d="M0 526c0-3.3 2.7-6 6-6h228c3.3 0 6 2.7 6 6v48c0 3.3-2.7 6-6 6H6c-3.3 0-6-2.7-6-6z" fill="none"/><use xlink:href="#a" transform="matrix(1,0,0,1,0,520) translate(95.3395061728395 34.44444444444444)"/><use xlink:href="#d" transform="matrix(1,0,0,1,0,520) translate(117.5 34.44444444444444)"/><path d="M400 526c0-3.3 2.7-6 6-6h228c3.3 0 6 2.7 6 6v48c0 3.3-2.7 6-6 6H406c-3.3 0-6-2.7-6-6z" fill="none"/><use xlink:href="#a" transform="matrix(1,0,0,1,400,520) translate(95.3395061728395 34.44444444444444)"/><use xlink:href="#d" transform="matrix(1,0,0,1,400,520) translate(117.5 34.44444444444444)"/><path d="M960 326c0-3.3 2.7-6 6-6h228c3.3 0 6 2.7 6 6v48c0 3.3-2.7 6-6 6H966c-3.3 0-6-2.7-6-6z" fill="none"/><use xlink:href="#a" transform="matrix(1,0,0,1,960,320) translate(95.3395061728395 34.44444444444444)"/><use xlink:href="#c" transform="matrix(1,0,0,1,960,320) translate(117.5 34.44444444444444)"/><path d="M800 526c0-3.3 2.7-6 6-6h228c3.3 0 6 2.7 6 6v48c0 3.3-2.7 6-6 6H806c-3.3 0-6-2.7-6-6z" fill="none"/><use xlink:href="#a" transform="matrix(1,0,0,1,800,520) translate(95.3395061728395 34.44444444444444)"/><use xlink:href="#d" transform="matrix(1,0,0,1,800,520) translate(117.5 34.44444444444444)"/><path d="M1200 526c0-3.3 2.7-6 6-6h228c3.3 0 6 2.7 6 6v48c0 3.3-2.7 6-6 6h-228c-3.3 0-6-2.7-6-6z" fill="none"/><use xlink:href="#a" transform="matrix(1,0,0,1,1200,520) translate(95.3395061728395 34.44444444444444)"/><use xlink:href="#d" transform="matrix(1,0,0,1,1200,520) translate(117.5 34.44444444444444)"/><path d="M413.9 288L265.34 388.16M413.88 288.02l.85-.58" stroke="#5e5e5e" stroke-width="2" fill="none"/><path d="M252.68 396.7l9.24-11.83 5.18 7.7z" stroke="#5e5e5e" stroke-width="2" fill="#5e5e5e"/><path d="M492.22 281.1l142.94 106.36M492.24 281.13l-.82-.6" stroke="#5e5e5e" stroke-width="2" fill="none"/><path d="M647.4 396.57l-14.2-4.8 5.52-7.44z" stroke="#5e5e5e" stroke-width="2" fill="#5e5e5e"/><path d="M209.62 483.38l-51.1 98.7M209.6 483.4l.48-.9" stroke="#5e5e5e" stroke-width="2" fill="none"/><path d="M151.5 595.63l2.43-14.8 8.24 4.26z" stroke="#5e5e5e" stroke-width="2" fill="#5e5e5e"/><path d="M293.58 478.94l48.52 102.83M293.6 478.97l-.45-.93" stroke="#5e5e5e" stroke-width="2" fill="none"/><path d="M348.62 595.57l-10.28-10.92 8.38-3.96z" stroke="#5e5e5e" stroke-width="2" fill="#5e5e5e"/><path d="M607.25 480.17l-49.2 101.67M607.24 480.2l.45-.93" stroke="#5e5e5e" stroke-width="2" fill="none"/><path d="M551.4 595.6l2.05-14.87 8.35 4.03z" stroke="#5e5e5e" stroke-width="2" fill="#5e5e5e"/><path d="M693.35 479.32l48.7 102.47M693.36 479.34l-.44-.93" stroke="#5e5e5e" stroke-width="2" fill="none"/><path d="M748.6 595.58l-10.3-10.9 8.37-3.98z" stroke="#5e5e5e" stroke-width="2" fill="#5e5e5e"/><path d="M1213.9 289.5l-148.5 98.75M1213.88 289.5l.85-.56" stroke="#5e5e5e" stroke-width="2" fill="none"/><path d="M1052.7 396.7l9.3-11.75 5.14 7.72z" stroke="#5e5e5e" stroke-width="2" fill="#5e5e5e"/><path d="M1292.22 282.6l142.87 104.95M1292.24 282.62l-.82-.6" stroke="#5e5e5e" stroke-width="2" fill="none"/><path d="M1447.4 396.58l-14.25-4.7 5.5-7.48z" stroke="#5e5e5e" stroke-width="2" fill="#5e5e5e"/><path d="M1009.62 484.88l-51.02 97.24M1009.6 484.9l.48-.9" stroke="#5e5e5e" stroke-width="2" fill="none"/><path d="M951.5 595.63l2.53-14.78 8.2 4.3z" stroke="#5e5e5e" stroke-width="2" fill="#5e5e5e"/><path d="M1093.58 480.44l48.44 101.37M1093.6 480.47l-.45-.93" stroke="#5e5e5e" stroke-width="2" fill="none"/><path d="M1148.6 595.58l-10.33-10.87 8.37-4z" stroke="#5e5e5e" stroke-width="2" fill="#5e5e5e"/><path d="M1407.25 481.67l-49.1 100.2M1407.24 481.7l.45-.93" stroke="#5e5e5e" stroke-width="2" fill="none"/><path d="M1351.42 595.6l2.12-14.86 8.32 4.08z" stroke="#5e5e5e" stroke-width="2" fill="#5e5e5e"/><path d="M1493.36 480.82l48.62 101M1493.37 480.84l-.45-.92" stroke="#5e5e5e" stroke-width="2" fill="none"/><path d="M1548.6 595.58l-10.37-10.84 8.36-4.02z" stroke="#5e5e5e" stroke-width="2" fill="#5e5e5e"/><defs><path fill="#333" d="M232-93c-1 65-40 97-104 97C67 4 28-28 28-90v-158h33c8 89-33 224 67 224 102 0 64-133 71-224h33v155" id="e"/><use transform="matrix(0.06172839506172839,0,0,0.06172839506172839,0,0)" xlink:href="#e" id="a"/><path fill="#333" d="M39-94c74 12-11 154 75 146v23c-44 4-70-10-70-52C44-23 55-84 6-82v-22c81 4-7-162 84-157h24v23c-82-15-2 131-75 144" id="f"/><path fill="#333" d="M27 0v-27h64v-190l-56 39v-29l58-41h29v221h61V0H27" id="g"/><path fill="#333" d="M76-40C78 24 84 88 6 75V52C86 64 9-79 80-94c-40-6-34-59-34-106 1-29-11-41-40-38v-23c44-4 70 10 70 52 0 47-12 108 38 105v22c-26 1-39 14-38 42" id="h"/><g id="b"><use transform="matrix(0.06172839506172839,0,0,0.06172839506172839,0,0)" xlink:href="#f"/><use transform="matrix(0.06172839506172839,0,0,0.06172839506172839,7.4074074074074066,0)" xlink:href="#g"/><use transform="matrix(0.06172839506172839,0,0,0.06172839506172839,19.753086419753085,0)" xlink:href="#h"/></g><path fill="#333" d="M101-251c82-7 93 87 43 132L82-64C71-53 59-42 53-27h129V0H18c2-99 128-94 128-182 0-28-16-43-45-43s-46 15-49 41l-32-3c6-41 34-60 81-64" id="i"/><g id="c"><use transform="matrix(0.06172839506172839,0,0,0.06172839506172839,0,0)" xlink:href="#f"/><use transform="matrix(0.06172839506172839,0,0,0.06172839506172839,7.4074074074074066,0)" xlink:href="#i"/><use transform="matrix(0.06172839506172839,0,0,0.06172839506172839,19.753086419753085,0)" xlink:href="#h"/></g><path fill="#333" d="M126-127c33 6 58 20 58 59 0 88-139 92-164 29-3-8-5-16-6-25l32-3c6 27 21 44 54 44 32 0 52-15 52-46 0-38-36-46-79-43v-28c39 1 72-4 72-42 0-27-17-43-46-43-28 0-47 15-49 41l-32-3c6-42 35-63 81-64 48-1 79 21 79 65 0 36-21 52-52 59" id="j"/><g id="d"><use transform="matrix(0.06172839506172839,0,0,0.06172839506172839,0,0)" xlink:href="#f"/><use transform="matrix(0.06172839506172839,0,0,0.06172839506172839,7.4074074074074066,0)" xlink:href="#j"/><use transform="matrix(0.06172839506172839,0,0,0.06172839506172839,19.753086419753085,0)" xlink:href="#h"/></g></defs></g></svg>