<?xml version="1.0" encoding="utf-8" standalone="no"?>
<!DOCTYPE svg PUBLIC "-//W3C//DTD SVG 1.1//EN"
  "http://www.w3.org/Graphics/SVG/1.1/DTD/svg11.dtd">
<!-- Created with matplotlib (https://matplotlib.org/) -->
<svg height="360pt" version="1.1" viewBox="0 0 720 360" width="720pt" xmlns="http://www.w3.org/2000/svg" xmlns:xlink="http://www.w3.org/1999/xlink">
 <metadata>
  <rdf:RDF xmlns:cc="http://creativecommons.org/ns#" xmlns:dc="http://purl.org/dc/elements/1.1/" xmlns:rdf="http://www.w3.org/1999/02/22-rdf-syntax-ns#">
   <cc:Work>
    <dc:type rdf:resource="http://purl.org/dc/dcmitype/StillImage"/>
    <dc:date>2020-10-02T19:38:37.023300</dc:date>
    <dc:format>image/svg+xml</dc:format>
    <dc:creator>
     <cc:Agent>
      <dc:title>Matplotlib v3.3.2, https://matplotlib.org/</dc:title>
     </cc:Agent>
    </dc:creator>
   </cc:Work>
  </rdf:RDF>
 </metadata>
 <defs>
  <style type="text/css">*{stroke-linecap:butt;stroke-linejoin:round;}</style>
 </defs>
 <g id="figure_1">
  <g id="patch_1">
   <path d="M 0 360 
L 720 360 
L 720 0 
L 0 0 
z
" style="fill:#ffffff;"/>
  </g>
  <g id="axes_1">
   <g id="patch_2">
    <path d="M 90 315 
L 648 315 
L 648 43.2 
L 90 43.2 
z
" style="fill:#ffffff;"/>
   </g>
   <g id="matplotlib.axis_1">
    <g id="xtick_1">
     <g id="line2d_1">
      <path clip-path="url(#pa63b73a939)" d="M 115.363636 315 
L 115.363636 43.2 
" style="fill:none;stroke:#cccccc;stroke-linecap:round;stroke-width:0.8;"/>
     </g>
     <g id="text_1">
      <!-- 5.0 -->
      <g style="fill:#262626;" transform="translate(107.412074 329.598437)scale(0.1 -0.1)">
       <defs>
        <path d="M 10.796875 72.90625 
L 49.515625 72.90625 
L 49.515625 64.59375 
L 19.828125 64.59375 
L 19.828125 46.734375 
Q 21.96875 47.46875 24.109375 47.828125 
Q 26.265625 48.1875 28.421875 48.1875 
Q 40.625 48.1875 47.75 41.5 
Q 54.890625 34.8125 54.890625 23.390625 
Q 54.890625 11.625 47.5625 5.09375 
Q 40.234375 -1.421875 26.90625 -1.421875 
Q 22.3125 -1.421875 17.546875 -0.640625 
Q 12.796875 0.140625 7.71875 1.703125 
L 7.71875 11.625 
Q 12.109375 9.234375 16.796875 8.0625 
Q 21.484375 6.890625 26.703125 6.890625 
Q 35.15625 6.890625 40.078125 11.328125 
Q 45.015625 15.765625 45.015625 23.390625 
Q 45.015625 31 40.078125 35.4375 
Q 35.15625 39.890625 26.703125 39.890625 
Q 22.75 39.890625 18.8125 39.015625 
Q 14.890625 38.140625 10.796875 36.28125 
z
" id="DejaVuSans-53"/>
        <path d="M 10.6875 12.40625 
L 21 12.40625 
L 21 0 
L 10.6875 0 
z
" id="DejaVuSans-46"/>
        <path d="M 31.78125 66.40625 
Q 24.171875 66.40625 20.328125 58.90625 
Q 16.5 51.421875 16.5 36.375 
Q 16.5 21.390625 20.328125 13.890625 
Q 24.171875 6.390625 31.78125 6.390625 
Q 39.453125 6.390625 43.28125 13.890625 
Q 47.125 21.390625 47.125 36.375 
Q 47.125 51.421875 43.28125 58.90625 
Q 39.453125 66.40625 31.78125 66.40625 
z
M 31.78125 74.21875 
Q 44.046875 74.21875 50.515625 64.515625 
Q 56.984375 54.828125 56.984375 36.375 
Q 56.984375 17.96875 50.515625 8.265625 
Q 44.046875 -1.421875 31.78125 -1.421875 
Q 19.53125 -1.421875 13.0625 8.265625 
Q 6.59375 17.96875 6.59375 36.375 
Q 6.59375 54.828125 13.0625 64.515625 
Q 19.53125 74.21875 31.78125 74.21875 
z
" id="DejaVuSans-48"/>
       </defs>
       <use xlink:href="#DejaVuSans-53"/>
       <use x="63.623047" xlink:href="#DejaVuSans-46"/>
       <use x="95.410156" xlink:href="#DejaVuSans-48"/>
      </g>
     </g>
    </g>
    <g id="xtick_2">
     <g id="line2d_2">
      <path clip-path="url(#pa63b73a939)" d="M 178.772727 315 
L 178.772727 43.2 
" style="fill:none;stroke:#cccccc;stroke-linecap:round;stroke-width:0.8;"/>
     </g>
     <g id="text_2">
      <!-- 7.5 -->
      <g style="fill:#262626;" transform="translate(170.821165 329.598437)scale(0.1 -0.1)">
       <defs>
        <path d="M 8.203125 72.90625 
L 55.078125 72.90625 
L 55.078125 68.703125 
L 28.609375 0 
L 18.3125 0 
L 43.21875 64.59375 
L 8.203125 64.59375 
z
" id="DejaVuSans-55"/>
       </defs>
       <use xlink:href="#DejaVuSans-55"/>
       <use x="63.623047" xlink:href="#DejaVuSans-46"/>
       <use x="95.410156" xlink:href="#DejaVuSans-53"/>
      </g>
     </g>
    </g>
    <g id="xtick_3">
     <g id="line2d_3">
      <path clip-path="url(#pa63b73a939)" d="M 242.181818 315 
L 242.181818 43.2 
" style="fill:none;stroke:#cccccc;stroke-linecap:round;stroke-width:0.8;"/>
     </g>
     <g id="text_3">
      <!-- 10.0 -->
      <g style="fill:#262626;" transform="translate(231.049006 329.598437)scale(0.1 -0.1)">
       <defs>
        <path d="M 12.40625 8.296875 
L 28.515625 8.296875 
L 28.515625 63.921875 
L 10.984375 60.40625 
L 10.984375 69.390625 
L 28.421875 72.90625 
L 38.28125 72.90625 
L 38.28125 8.296875 
L 54.390625 8.296875 
L 54.390625 0 
L 12.40625 0 
z
" id="DejaVuSans-49"/>
       </defs>
       <use xlink:href="#DejaVuSans-49"/>
       <use x="63.623047" xlink:href="#DejaVuSans-48"/>
       <use x="127.246094" xlink:href="#DejaVuSans-46"/>
       <use x="159.033203" xlink:href="#DejaVuSans-48"/>
      </g>
     </g>
    </g>
    <g id="xtick_4">
     <g id="line2d_4">
      <path clip-path="url(#pa63b73a939)" d="M 305.590909 315 
L 305.590909 43.2 
" style="fill:none;stroke:#cccccc;stroke-linecap:round;stroke-width:0.8;"/>
     </g>
     <g id="text_4">
      <!-- 12.5 -->
      <g style="fill:#262626;" transform="translate(294.458097 329.598437)scale(0.1 -0.1)">
       <defs>
        <path d="M 19.1875 8.296875 
L 53.609375 8.296875 
L 53.609375 0 
L 7.328125 0 
L 7.328125 8.296875 
Q 12.9375 14.109375 22.625 23.890625 
Q 32.328125 33.6875 34.8125 36.53125 
Q 39.546875 41.84375 41.421875 45.53125 
Q 43.3125 49.21875 43.3125 52.78125 
Q 43.3125 58.59375 39.234375 62.25 
Q 35.15625 65.921875 28.609375 65.921875 
Q 23.96875 65.921875 18.8125 64.3125 
Q 13.671875 62.703125 7.8125 59.421875 
L 7.8125 69.390625 
Q 13.765625 71.78125 18.9375 73 
Q 24.125 74.21875 28.421875 74.21875 
Q 39.75 74.21875 46.484375 68.546875 
Q 53.21875 62.890625 53.21875 53.421875 
Q 53.21875 48.921875 51.53125 44.890625 
Q 49.859375 40.875 45.40625 35.40625 
Q 44.1875 33.984375 37.640625 27.21875 
Q 31.109375 20.453125 19.1875 8.296875 
z
" id="DejaVuSans-50"/>
       </defs>
       <use xlink:href="#DejaVuSans-49"/>
       <use x="63.623047" xlink:href="#DejaVuSans-50"/>
       <use x="127.246094" xlink:href="#DejaVuSans-46"/>
       <use x="159.033203" xlink:href="#DejaVuSans-53"/>
      </g>
     </g>
    </g>
    <g id="xtick_5">
     <g id="line2d_5">
      <path clip-path="url(#pa63b73a939)" d="M 369 315 
L 369 43.2 
" style="fill:none;stroke:#cccccc;stroke-linecap:round;stroke-width:0.8;"/>
     </g>
     <g id="text_5">
      <!-- 15.0 -->
      <g style="fill:#262626;" transform="translate(357.867188 329.598437)scale(0.1 -0.1)">
       <use xlink:href="#DejaVuSans-49"/>
       <use x="63.623047" xlink:href="#DejaVuSans-53"/>
       <use x="127.246094" xlink:href="#DejaVuSans-46"/>
       <use x="159.033203" xlink:href="#DejaVuSans-48"/>
      </g>
     </g>
    </g>
    <g id="xtick_6">
     <g id="line2d_6">
      <path clip-path="url(#pa63b73a939)" d="M 432.409091 315 
L 432.409091 43.2 
" style="fill:none;stroke:#cccccc;stroke-linecap:round;stroke-width:0.8;"/>
     </g>
     <g id="text_6">
      <!-- 17.5 -->
      <g style="fill:#262626;" transform="translate(421.276278 329.598437)scale(0.1 -0.1)">
       <use xlink:href="#DejaVuSans-49"/>
       <use x="63.623047" xlink:href="#DejaVuSans-55"/>
       <use x="127.246094" xlink:href="#DejaVuSans-46"/>
       <use x="159.033203" xlink:href="#DejaVuSans-53"/>
      </g>
     </g>
    </g>
    <g id="xtick_7">
     <g id="line2d_7">
      <path clip-path="url(#pa63b73a939)" d="M 495.818182 315 
L 495.818182 43.2 
" style="fill:none;stroke:#cccccc;stroke-linecap:round;stroke-width:0.8;"/>
     </g>
     <g id="text_7">
      <!-- 20.0 -->
      <g style="fill:#262626;" transform="translate(484.685369 329.598437)scale(0.1 -0.1)">
       <use xlink:href="#DejaVuSans-50"/>
       <use x="63.623047" xlink:href="#DejaVuSans-48"/>
       <use x="127.246094" xlink:href="#DejaVuSans-46"/>
       <use x="159.033203" xlink:href="#DejaVuSans-48"/>
      </g>
     </g>
    </g>
    <g id="xtick_8">
     <g id="line2d_8">
      <path clip-path="url(#pa63b73a939)" d="M 559.227273 315 
L 559.227273 43.2 
" style="fill:none;stroke:#cccccc;stroke-linecap:round;stroke-width:0.8;"/>
     </g>
     <g id="text_8">
      <!-- 22.5 -->
      <g style="fill:#262626;" transform="translate(548.09446 329.598437)scale(0.1 -0.1)">
       <use xlink:href="#DejaVuSans-50"/>
       <use x="63.623047" xlink:href="#DejaVuSans-50"/>
       <use x="127.246094" xlink:href="#DejaVuSans-46"/>
       <use x="159.033203" xlink:href="#DejaVuSans-53"/>
      </g>
     </g>
    </g>
    <g id="xtick_9">
     <g id="line2d_9">
      <path clip-path="url(#pa63b73a939)" d="M 622.636364 315 
L 622.636364 43.2 
" style="fill:none;stroke:#cccccc;stroke-linecap:round;stroke-width:0.8;"/>
     </g>
     <g id="text_9">
      <!-- 25.0 -->
      <g style="fill:#262626;" transform="translate(611.503551 329.598437)scale(0.1 -0.1)">
       <use xlink:href="#DejaVuSans-50"/>
       <use x="63.623047" xlink:href="#DejaVuSans-53"/>
       <use x="127.246094" xlink:href="#DejaVuSans-46"/>
       <use x="159.033203" xlink:href="#DejaVuSans-48"/>
      </g>
     </g>
    </g>
    <g id="text_10">
     <!-- n -->
     <g style="fill:#262626;" transform="translate(365.83125 343.276563)scale(0.1 -0.1)">
      <defs>
       <path d="M 54.890625 33.015625 
L 54.890625 0 
L 45.90625 0 
L 45.90625 32.71875 
Q 45.90625 40.484375 42.875 44.328125 
Q 39.84375 48.1875 33.796875 48.1875 
Q 26.515625 48.1875 22.3125 43.546875 
Q 18.109375 38.921875 18.109375 30.90625 
L 18.109375 0 
L 9.078125 0 
L 9.078125 54.6875 
L 18.109375 54.6875 
L 18.109375 46.1875 
Q 21.34375 51.125 25.703125 53.5625 
Q 30.078125 56 35.796875 56 
Q 45.21875 56 50.046875 50.171875 
Q 54.890625 44.34375 54.890625 33.015625 
z
" id="DejaVuSans-110"/>
      </defs>
      <use xlink:href="#DejaVuSans-110"/>
     </g>
    </g>
   </g>
   <g id="matplotlib.axis_2">
    <g id="ytick_1">
     <g id="line2d_10">
      <path clip-path="url(#pa63b73a939)" d="M 90 302.645494 
L 648 302.645494 
" style="fill:none;stroke:#cccccc;stroke-linecap:round;stroke-width:0.8;"/>
     </g>
     <g id="text_11">
      <!-- 0 -->
      <g style="fill:#262626;" transform="translate(76.6375 306.444713)scale(0.1 -0.1)">
       <use xlink:href="#DejaVuSans-48"/>
      </g>
     </g>
    </g>
    <g id="ytick_2">
     <g id="line2d_11">
      <path clip-path="url(#pa63b73a939)" d="M 90 267.179659 
L 648 267.179659 
" style="fill:none;stroke:#cccccc;stroke-linecap:round;stroke-width:0.8;"/>
     </g>
     <g id="text_12">
      <!-- 50 -->
      <g style="fill:#262626;" transform="translate(70.275 270.978878)scale(0.1 -0.1)">
       <use xlink:href="#DejaVuSans-53"/>
       <use x="63.623047" xlink:href="#DejaVuSans-48"/>
      </g>
     </g>
    </g>
    <g id="ytick_3">
     <g id="line2d_12">
      <path clip-path="url(#pa63b73a939)" d="M 90 231.713823 
L 648 231.713823 
" style="fill:none;stroke:#cccccc;stroke-linecap:round;stroke-width:0.8;"/>
     </g>
     <g id="text_13">
      <!-- 100 -->
      <g style="fill:#262626;" transform="translate(63.9125 235.513042)scale(0.1 -0.1)">
       <use xlink:href="#DejaVuSans-49"/>
       <use x="63.623047" xlink:href="#DejaVuSans-48"/>
       <use x="127.246094" xlink:href="#DejaVuSans-48"/>
      </g>
     </g>
    </g>
    <g id="ytick_4">
     <g id="line2d_13">
      <path clip-path="url(#pa63b73a939)" d="M 90 196.247988 
L 648 196.247988 
" style="fill:none;stroke:#cccccc;stroke-linecap:round;stroke-width:0.8;"/>
     </g>
     <g id="text_14">
      <!-- 150 -->
      <g style="fill:#262626;" transform="translate(63.9125 200.047207)scale(0.1 -0.1)">
       <use xlink:href="#DejaVuSans-49"/>
       <use x="63.623047" xlink:href="#DejaVuSans-53"/>
       <use x="127.246094" xlink:href="#DejaVuSans-48"/>
      </g>
     </g>
    </g>
    <g id="ytick_5">
     <g id="line2d_14">
      <path clip-path="url(#pa63b73a939)" d="M 90 160.782152 
L 648 160.782152 
" style="fill:none;stroke:#cccccc;stroke-linecap:round;stroke-width:0.8;"/>
     </g>
     <g id="text_15">
      <!-- 200 -->
      <g style="fill:#262626;" transform="translate(63.9125 164.581371)scale(0.1 -0.1)">
       <use xlink:href="#DejaVuSans-50"/>
       <use x="63.623047" xlink:href="#DejaVuSans-48"/>
       <use x="127.246094" xlink:href="#DejaVuSans-48"/>
      </g>
     </g>
    </g>
    <g id="ytick_6">
     <g id="line2d_15">
      <path clip-path="url(#pa63b73a939)" d="M 90 125.316317 
L 648 125.316317 
" style="fill:none;stroke:#cccccc;stroke-linecap:round;stroke-width:0.8;"/>
     </g>
     <g id="text_16">
      <!-- 250 -->
      <g style="fill:#262626;" transform="translate(63.9125 129.115536)scale(0.1 -0.1)">
       <use xlink:href="#DejaVuSans-50"/>
       <use x="63.623047" xlink:href="#DejaVuSans-53"/>
       <use x="127.246094" xlink:href="#DejaVuSans-48"/>
      </g>
     </g>
    </g>
    <g id="ytick_7">
     <g id="line2d_16">
      <path clip-path="url(#pa63b73a939)" d="M 90 89.850481 
L 648 89.850481 
" style="fill:none;stroke:#cccccc;stroke-linecap:round;stroke-width:0.8;"/>
     </g>
     <g id="text_17">
      <!-- 300 -->
      <g style="fill:#262626;" transform="translate(63.9125 93.6497)scale(0.1 -0.1)">
       <defs>
        <path d="M 40.578125 39.3125 
Q 47.65625 37.796875 51.625 33 
Q 55.609375 28.21875 55.609375 21.1875 
Q 55.609375 10.40625 48.1875 4.484375 
Q 40.765625 -1.421875 27.09375 -1.421875 
Q 22.515625 -1.421875 17.65625 -0.515625 
Q 12.796875 0.390625 7.625 2.203125 
L 7.625 11.71875 
Q 11.71875 9.328125 16.59375 8.109375 
Q 21.484375 6.890625 26.8125 6.890625 
Q 36.078125 6.890625 40.9375 10.546875 
Q 45.796875 14.203125 45.796875 21.1875 
Q 45.796875 27.640625 41.28125 31.265625 
Q 36.765625 34.90625 28.71875 34.90625 
L 20.21875 34.90625 
L 20.21875 43.015625 
L 29.109375 43.015625 
Q 36.375 43.015625 40.234375 45.921875 
Q 44.09375 48.828125 44.09375 54.296875 
Q 44.09375 59.90625 40.109375 62.90625 
Q 36.140625 65.921875 28.71875 65.921875 
Q 24.65625 65.921875 20.015625 65.03125 
Q 15.375 64.15625 9.8125 62.3125 
L 9.8125 71.09375 
Q 15.4375 72.65625 20.34375 73.4375 
Q 25.25 74.21875 29.59375 74.21875 
Q 40.828125 74.21875 47.359375 69.109375 
Q 53.90625 64.015625 53.90625 55.328125 
Q 53.90625 49.265625 50.4375 45.09375 
Q 46.96875 40.921875 40.578125 39.3125 
z
" id="DejaVuSans-51"/>
       </defs>
       <use xlink:href="#DejaVuSans-51"/>
       <use x="63.623047" xlink:href="#DejaVuSans-48"/>
       <use x="127.246094" xlink:href="#DejaVuSans-48"/>
      </g>
     </g>
    </g>
    <g id="ytick_8">
     <g id="line2d_17">
      <path clip-path="url(#pa63b73a939)" d="M 90 54.384646 
L 648 54.384646 
" style="fill:none;stroke:#cccccc;stroke-linecap:round;stroke-width:0.8;"/>
     </g>
     <g id="text_18">
      <!-- 350 -->
      <g style="fill:#262626;" transform="translate(63.9125 58.183865)scale(0.1 -0.1)">
       <use xlink:href="#DejaVuSans-51"/>
       <use x="63.623047" xlink:href="#DejaVuSans-53"/>
       <use x="127.246094" xlink:href="#DejaVuSans-48"/>
      </g>
     </g>
    </g>
    <g id="text_19">
     <!-- time_ms -->
     <g style="fill:#262626;" transform="translate(57.554687 200.371094)rotate(-90)scale(0.1 -0.1)">
      <defs>
       <path d="M 18.3125 70.21875 
L 18.3125 54.6875 
L 36.8125 54.6875 
L 36.8125 47.703125 
L 18.3125 47.703125 
L 18.3125 18.015625 
Q 18.3125 11.328125 20.140625 9.421875 
Q 21.96875 7.515625 27.59375 7.515625 
L 36.8125 7.515625 
L 36.8125 0 
L 27.59375 0 
Q 17.1875 0 13.234375 3.875 
Q 9.28125 7.765625 9.28125 18.015625 
L 9.28125 47.703125 
L 2.6875 47.703125 
L 2.6875 54.6875 
L 9.28125 54.6875 
L 9.28125 70.21875 
z
" id="DejaVuSans-116"/>
       <path d="M 9.421875 54.6875 
L 18.40625 54.6875 
L 18.40625 0 
L 9.421875 0 
z
M 9.421875 75.984375 
L 18.40625 75.984375 
L 18.40625 64.59375 
L 9.421875 64.59375 
z
" id="DejaVuSans-105"/>
       <path d="M 52 44.1875 
Q 55.375 50.25 60.0625 53.125 
Q 64.75 56 71.09375 56 
Q 79.640625 56 84.28125 50.015625 
Q 88.921875 44.046875 88.921875 33.015625 
L 88.921875 0 
L 79.890625 0 
L 79.890625 32.71875 
Q 79.890625 40.578125 77.09375 44.375 
Q 74.3125 48.1875 68.609375 48.1875 
Q 61.625 48.1875 57.5625 43.546875 
Q 53.515625 38.921875 53.515625 30.90625 
L 53.515625 0 
L 44.484375 0 
L 44.484375 32.71875 
Q 44.484375 40.625 41.703125 44.40625 
Q 38.921875 48.1875 33.109375 48.1875 
Q 26.21875 48.1875 22.15625 43.53125 
Q 18.109375 38.875 18.109375 30.90625 
L 18.109375 0 
L 9.078125 0 
L 9.078125 54.6875 
L 18.109375 54.6875 
L 18.109375 46.1875 
Q 21.1875 51.21875 25.484375 53.609375 
Q 29.78125 56 35.6875 56 
Q 41.65625 56 45.828125 52.96875 
Q 50 49.953125 52 44.1875 
z
" id="DejaVuSans-109"/>
       <path d="M 56.203125 29.59375 
L 56.203125 25.203125 
L 14.890625 25.203125 
Q 15.484375 15.921875 20.484375 11.0625 
Q 25.484375 6.203125 34.421875 6.203125 
Q 39.59375 6.203125 44.453125 7.46875 
Q 49.3125 8.734375 54.109375 11.28125 
L 54.109375 2.78125 
Q 49.265625 0.734375 44.1875 -0.34375 
Q 39.109375 -1.421875 33.890625 -1.421875 
Q 20.796875 -1.421875 13.15625 6.1875 
Q 5.515625 13.8125 5.515625 26.8125 
Q 5.515625 40.234375 12.765625 48.109375 
Q 20.015625 56 32.328125 56 
Q 43.359375 56 49.78125 48.890625 
Q 56.203125 41.796875 56.203125 29.59375 
z
M 47.21875 32.234375 
Q 47.125 39.59375 43.09375 43.984375 
Q 39.0625 48.390625 32.421875 48.390625 
Q 24.90625 48.390625 20.390625 44.140625 
Q 15.875 39.890625 15.1875 32.171875 
z
" id="DejaVuSans-101"/>
       <path d="M 50.984375 -16.609375 
L 50.984375 -23.578125 
L -0.984375 -23.578125 
L -0.984375 -16.609375 
z
" id="DejaVuSans-95"/>
       <path d="M 44.28125 53.078125 
L 44.28125 44.578125 
Q 40.484375 46.53125 36.375 47.5 
Q 32.28125 48.484375 27.875 48.484375 
Q 21.1875 48.484375 17.84375 46.4375 
Q 14.5 44.390625 14.5 40.28125 
Q 14.5 37.15625 16.890625 35.375 
Q 19.28125 33.59375 26.515625 31.984375 
L 29.59375 31.296875 
Q 39.15625 29.25 43.1875 25.515625 
Q 47.21875 21.78125 47.21875 15.09375 
Q 47.21875 7.46875 41.1875 3.015625 
Q 35.15625 -1.421875 24.609375 -1.421875 
Q 20.21875 -1.421875 15.453125 -0.5625 
Q 10.6875 0.296875 5.421875 2 
L 5.421875 11.28125 
Q 10.40625 8.6875 15.234375 7.390625 
Q 20.0625 6.109375 24.8125 6.109375 
Q 31.15625 6.109375 34.5625 8.28125 
Q 37.984375 10.453125 37.984375 14.40625 
Q 37.984375 18.0625 35.515625 20.015625 
Q 33.0625 21.96875 24.703125 23.78125 
L 21.578125 24.515625 
Q 13.234375 26.265625 9.515625 29.90625 
Q 5.8125 33.546875 5.8125 39.890625 
Q 5.8125 47.609375 11.28125 51.796875 
Q 16.75 56 26.8125 56 
Q 31.78125 56 36.171875 55.265625 
Q 40.578125 54.546875 44.28125 53.078125 
z
" id="DejaVuSans-115"/>
      </defs>
      <use xlink:href="#DejaVuSans-116"/>
      <use x="39.208984" xlink:href="#DejaVuSans-105"/>
      <use x="66.992188" xlink:href="#DejaVuSans-109"/>
      <use x="164.404297" xlink:href="#DejaVuSans-101"/>
      <use x="225.927734" xlink:href="#DejaVuSans-95"/>
      <use x="275.927734" xlink:href="#DejaVuSans-109"/>
      <use x="373.339844" xlink:href="#DejaVuSans-115"/>
     </g>
    </g>
   </g>
   <g id="PathCollection_1">
    <defs>
     <path d="M 0 3 
C 0.795609 3 1.55874 2.683901 2.12132 2.12132 
C 2.683901 1.55874 3 0.795609 3 -0 
C 3 -0.795609 2.683901 -1.55874 2.12132 -2.12132 
C 1.55874 -2.683901 0.795609 -3 0 -3 
C -0.795609 -3 -1.55874 -2.683901 -2.12132 -2.12132 
C -2.683901 -1.55874 -3 -0.795609 -3 0 
C -3 0.795609 -2.683901 1.55874 -2.12132 2.12132 
C -1.55874 2.683901 -0.795609 3 0 3 
z
" id="C0_0_04fbb21fc6"/>
    </defs>
    <g clip-path="url(#pa63b73a939)">
     <use style="fill:#1f77b4;stroke:#ffffff;stroke-width:0.48;" x="115.363636" xlink:href="#C0_0_04fbb21fc6" y="302.643378"/>
    </g>
    <g clip-path="url(#pa63b73a939)">
     <use style="fill:#1f77b4;stroke:#ffffff;stroke-width:0.48;" x="140.727273" xlink:href="#C0_0_04fbb21fc6" y="302.642919"/>
    </g>
    <g clip-path="url(#pa63b73a939)">
     <use style="fill:#1f77b4;stroke:#ffffff;stroke-width:0.48;" x="166.090909" xlink:href="#C0_0_04fbb21fc6" y="302.642113"/>
    </g>
    <g clip-path="url(#pa63b73a939)">
     <use style="fill:#1f77b4;stroke:#ffffff;stroke-width:0.48;" x="191.454545" xlink:href="#C0_0_04fbb21fc6" y="302.641208"/>
    </g>
    <g clip-path="url(#pa63b73a939)">
     <use style="fill:#1f77b4;stroke:#ffffff;stroke-width:0.48;" x="216.818182" xlink:href="#C0_0_04fbb21fc6" y="302.638895"/>
    </g>
    <g clip-path="url(#pa63b73a939)">
     <use style="fill:#1f77b4;stroke:#ffffff;stroke-width:0.48;" x="242.181818" xlink:href="#C0_0_04fbb21fc6" y="302.636503"/>
    </g>
    <g clip-path="url(#pa63b73a939)">
     <use style="fill:#1f77b4;stroke:#ffffff;stroke-width:0.48;" x="267.545455" xlink:href="#C0_0_04fbb21fc6" y="302.627179"/>
    </g>
    <g clip-path="url(#pa63b73a939)">
     <use style="fill:#1f77b4;stroke:#ffffff;stroke-width:0.48;" x="292.909091" xlink:href="#C0_0_04fbb21fc6" y="302.62162"/>
    </g>
    <g clip-path="url(#pa63b73a939)">
     <use style="fill:#1f77b4;stroke:#ffffff;stroke-width:0.48;" x="318.272727" xlink:href="#C0_0_04fbb21fc6" y="302.576258"/>
    </g>
    <g clip-path="url(#pa63b73a939)">
     <use style="fill:#1f77b4;stroke:#ffffff;stroke-width:0.48;" x="343.636364" xlink:href="#C0_0_04fbb21fc6" y="302.528592"/>
    </g>
    <g clip-path="url(#pa63b73a939)">
     <use style="fill:#1f77b4;stroke:#ffffff;stroke-width:0.48;" x="369" xlink:href="#C0_0_04fbb21fc6" y="302.376428"/>
    </g>
    <g clip-path="url(#pa63b73a939)">
     <use style="fill:#1f77b4;stroke:#ffffff;stroke-width:0.48;" x="394.363636" xlink:href="#C0_0_04fbb21fc6" y="302.265122"/>
    </g>
    <g clip-path="url(#pa63b73a939)">
     <use style="fill:#1f77b4;stroke:#ffffff;stroke-width:0.48;" x="419.727273" xlink:href="#C0_0_04fbb21fc6" y="301.871627"/>
    </g>
    <g clip-path="url(#pa63b73a939)">
     <use style="fill:#1f77b4;stroke:#ffffff;stroke-width:0.48;" x="445.090909" xlink:href="#C0_0_04fbb21fc6" y="300.747112"/>
    </g>
    <g clip-path="url(#pa63b73a939)">
     <use style="fill:#1f77b4;stroke:#ffffff;stroke-width:0.48;" x="470.454545" xlink:href="#C0_0_04fbb21fc6" y="299.481887"/>
    </g>
    <g clip-path="url(#pa63b73a939)">
     <use style="fill:#1f77b4;stroke:#ffffff;stroke-width:0.48;" x="495.818182" xlink:href="#C0_0_04fbb21fc6" y="297.753301"/>
    </g>
    <g clip-path="url(#pa63b73a939)">
     <use style="fill:#1f77b4;stroke:#ffffff;stroke-width:0.48;" x="521.181818" xlink:href="#C0_0_04fbb21fc6" y="291.671206"/>
    </g>
    <g clip-path="url(#pa63b73a939)">
     <use style="fill:#1f77b4;stroke:#ffffff;stroke-width:0.48;" x="546.545455" xlink:href="#C0_0_04fbb21fc6" y="283.76502"/>
    </g>
    <g clip-path="url(#pa63b73a939)">
     <use style="fill:#1f77b4;stroke:#ffffff;stroke-width:0.48;" x="571.909091" xlink:href="#C0_0_04fbb21fc6" y="262.958562"/>
    </g>
    <g clip-path="url(#pa63b73a939)">
     <use style="fill:#1f77b4;stroke:#ffffff;stroke-width:0.48;" x="597.272727" xlink:href="#C0_0_04fbb21fc6" y="222.10698"/>
    </g>
    <g clip-path="url(#pa63b73a939)">
     <use style="fill:#1f77b4;stroke:#ffffff;stroke-width:0.48;" x="622.636364" xlink:href="#C0_0_04fbb21fc6" y="170.717315"/>
    </g>
    <g clip-path="url(#pa63b73a939)">
     <use style="fill:#ff7f0e;stroke:#ffffff;stroke-width:0.48;" x="115.363636" xlink:href="#C0_0_04fbb21fc6" y="302.64359"/>
    </g>
    <g clip-path="url(#pa63b73a939)">
     <use style="fill:#ff7f0e;stroke:#ffffff;stroke-width:0.48;" x="140.727273" xlink:href="#C0_0_04fbb21fc6" y="302.642847"/>
    </g>
    <g clip-path="url(#pa63b73a939)">
     <use style="fill:#ff7f0e;stroke:#ffffff;stroke-width:0.48;" x="166.090909" xlink:href="#C0_0_04fbb21fc6" y="302.642094"/>
    </g>
    <g clip-path="url(#pa63b73a939)">
     <use style="fill:#ff7f0e;stroke:#ffffff;stroke-width:0.48;" x="191.454545" xlink:href="#C0_0_04fbb21fc6" y="302.640019"/>
    </g>
    <g clip-path="url(#pa63b73a939)">
     <use style="fill:#ff7f0e;stroke:#ffffff;stroke-width:0.48;" x="216.818182" xlink:href="#C0_0_04fbb21fc6" y="302.636297"/>
    </g>
    <g clip-path="url(#pa63b73a939)">
     <use style="fill:#ff7f0e;stroke:#ffffff;stroke-width:0.48;" x="242.181818" xlink:href="#C0_0_04fbb21fc6" y="302.629383"/>
    </g>
    <g clip-path="url(#pa63b73a939)">
     <use style="fill:#ff7f0e;stroke:#ffffff;stroke-width:0.48;" x="267.545455" xlink:href="#C0_0_04fbb21fc6" y="302.606006"/>
    </g>
    <g clip-path="url(#pa63b73a939)">
     <use style="fill:#ff7f0e;stroke:#ffffff;stroke-width:0.48;" x="292.909091" xlink:href="#C0_0_04fbb21fc6" y="302.596663"/>
    </g>
    <g clip-path="url(#pa63b73a939)">
     <use style="fill:#ff7f0e;stroke:#ffffff;stroke-width:0.48;" x="318.272727" xlink:href="#C0_0_04fbb21fc6" y="302.543427"/>
    </g>
    <g clip-path="url(#pa63b73a939)">
     <use style="fill:#ff7f0e;stroke:#ffffff;stroke-width:0.48;" x="343.636364" xlink:href="#C0_0_04fbb21fc6" y="302.497591"/>
    </g>
    <g clip-path="url(#pa63b73a939)">
     <use style="fill:#ff7f0e;stroke:#ffffff;stroke-width:0.48;" x="369" xlink:href="#C0_0_04fbb21fc6" y="302.353873"/>
    </g>
    <g clip-path="url(#pa63b73a939)">
     <use style="fill:#ff7f0e;stroke:#ffffff;stroke-width:0.48;" x="394.363636" xlink:href="#C0_0_04fbb21fc6" y="302.090562"/>
    </g>
    <g clip-path="url(#pa63b73a939)">
     <use style="fill:#ff7f0e;stroke:#ffffff;stroke-width:0.48;" x="419.727273" xlink:href="#C0_0_04fbb21fc6" y="301.588336"/>
    </g>
    <g clip-path="url(#pa63b73a939)">
     <use style="fill:#ff7f0e;stroke:#ffffff;stroke-width:0.48;" x="445.090909" xlink:href="#C0_0_04fbb21fc6" y="300.556675"/>
    </g>
    <g clip-path="url(#pa63b73a939)">
     <use style="fill:#ff7f0e;stroke:#ffffff;stroke-width:0.48;" x="470.454545" xlink:href="#C0_0_04fbb21fc6" y="298.546315"/>
    </g>
    <g clip-path="url(#pa63b73a939)">
     <use style="fill:#ff7f0e;stroke:#ffffff;stroke-width:0.48;" x="495.818182" xlink:href="#C0_0_04fbb21fc6" y="293.622253"/>
    </g>
    <g clip-path="url(#pa63b73a939)">
     <use style="fill:#ff7f0e;stroke:#ffffff;stroke-width:0.48;" x="521.181818" xlink:href="#C0_0_04fbb21fc6" y="286.54514"/>
    </g>
    <g clip-path="url(#pa63b73a939)">
     <use style="fill:#ff7f0e;stroke:#ffffff;stroke-width:0.48;" x="546.545455" xlink:href="#C0_0_04fbb21fc6" y="270.338341"/>
    </g>
    <g clip-path="url(#pa63b73a939)">
     <use style="fill:#ff7f0e;stroke:#ffffff;stroke-width:0.48;" x="571.909091" xlink:href="#C0_0_04fbb21fc6" y="239.671458"/>
    </g>
    <g clip-path="url(#pa63b73a939)">
     <use style="fill:#ff7f0e;stroke:#ffffff;stroke-width:0.48;" x="597.272727" xlink:href="#C0_0_04fbb21fc6" y="179.287516"/>
    </g>
    <g clip-path="url(#pa63b73a939)">
     <use style="fill:#ff7f0e;stroke:#ffffff;stroke-width:0.48;" x="622.636364" xlink:href="#C0_0_04fbb21fc6" y="55.554545"/>
    </g>
    <g clip-path="url(#pa63b73a939)">
     <use style="fill:#2ca02c;stroke:#ffffff;stroke-width:0.48;" x="115.363636" xlink:href="#C0_0_04fbb21fc6" y="302.643594"/>
    </g>
    <g clip-path="url(#pa63b73a939)">
     <use style="fill:#2ca02c;stroke:#ffffff;stroke-width:0.48;" x="140.727273" xlink:href="#C0_0_04fbb21fc6" y="302.643214"/>
    </g>
    <g clip-path="url(#pa63b73a939)">
     <use style="fill:#2ca02c;stroke:#ffffff;stroke-width:0.48;" x="166.090909" xlink:href="#C0_0_04fbb21fc6" y="302.642073"/>
    </g>
    <g clip-path="url(#pa63b73a939)">
     <use style="fill:#2ca02c;stroke:#ffffff;stroke-width:0.48;" x="191.454545" xlink:href="#C0_0_04fbb21fc6" y="302.641004"/>
    </g>
    <g clip-path="url(#pa63b73a939)">
     <use style="fill:#2ca02c;stroke:#ffffff;stroke-width:0.48;" x="216.818182" xlink:href="#C0_0_04fbb21fc6" y="302.638824"/>
    </g>
    <g clip-path="url(#pa63b73a939)">
     <use style="fill:#2ca02c;stroke:#ffffff;stroke-width:0.48;" x="242.181818" xlink:href="#C0_0_04fbb21fc6" y="302.634021"/>
    </g>
    <g clip-path="url(#pa63b73a939)">
     <use style="fill:#2ca02c;stroke:#ffffff;stroke-width:0.48;" x="267.545455" xlink:href="#C0_0_04fbb21fc6" y="302.626882"/>
    </g>
    <g clip-path="url(#pa63b73a939)">
     <use style="fill:#2ca02c;stroke:#ffffff;stroke-width:0.48;" x="292.909091" xlink:href="#C0_0_04fbb21fc6" y="302.610944"/>
    </g>
    <g clip-path="url(#pa63b73a939)">
     <use style="fill:#2ca02c;stroke:#ffffff;stroke-width:0.48;" x="318.272727" xlink:href="#C0_0_04fbb21fc6" y="302.586013"/>
    </g>
    <g clip-path="url(#pa63b73a939)">
     <use style="fill:#2ca02c;stroke:#ffffff;stroke-width:0.48;" x="343.636364" xlink:href="#C0_0_04fbb21fc6" y="302.534278"/>
    </g>
    <g clip-path="url(#pa63b73a939)">
     <use style="fill:#2ca02c;stroke:#ffffff;stroke-width:0.48;" x="369" xlink:href="#C0_0_04fbb21fc6" y="302.443236"/>
    </g>
    <g clip-path="url(#pa63b73a939)">
     <use style="fill:#2ca02c;stroke:#ffffff;stroke-width:0.48;" x="394.363636" xlink:href="#C0_0_04fbb21fc6" y="302.253083"/>
    </g>
    <g clip-path="url(#pa63b73a939)">
     <use style="fill:#2ca02c;stroke:#ffffff;stroke-width:0.48;" x="419.727273" xlink:href="#C0_0_04fbb21fc6" y="301.959713"/>
    </g>
    <g clip-path="url(#pa63b73a939)">
     <use style="fill:#2ca02c;stroke:#ffffff;stroke-width:0.48;" x="445.090909" xlink:href="#C0_0_04fbb21fc6" y="301.298388"/>
    </g>
    <g clip-path="url(#pa63b73a939)">
     <use style="fill:#2ca02c;stroke:#ffffff;stroke-width:0.48;" x="470.454545" xlink:href="#C0_0_04fbb21fc6" y="300.033825"/>
    </g>
    <g clip-path="url(#pa63b73a939)">
     <use style="fill:#2ca02c;stroke:#ffffff;stroke-width:0.48;" x="495.818182" xlink:href="#C0_0_04fbb21fc6" y="297.414415"/>
    </g>
    <g clip-path="url(#pa63b73a939)">
     <use style="fill:#2ca02c;stroke:#ffffff;stroke-width:0.48;" x="521.181818" xlink:href="#C0_0_04fbb21fc6" y="292.512607"/>
    </g>
    <g clip-path="url(#pa63b73a939)">
     <use style="fill:#2ca02c;stroke:#ffffff;stroke-width:0.48;" x="546.545455" xlink:href="#C0_0_04fbb21fc6" y="282.594307"/>
    </g>
    <g clip-path="url(#pa63b73a939)">
     <use style="fill:#2ca02c;stroke:#ffffff;stroke-width:0.48;" x="571.909091" xlink:href="#C0_0_04fbb21fc6" y="263.940715"/>
    </g>
    <g clip-path="url(#pa63b73a939)">
     <use style="fill:#2ca02c;stroke:#ffffff;stroke-width:0.48;" x="597.272727" xlink:href="#C0_0_04fbb21fc6" y="225.762884"/>
    </g>
    <g clip-path="url(#pa63b73a939)">
     <use style="fill:#2ca02c;stroke:#ffffff;stroke-width:0.48;" x="622.636364" xlink:href="#C0_0_04fbb21fc6" y="154.223819"/>
    </g>
   </g>
   <g id="PathCollection_2"/>
   <g id="PathCollection_3"/>
   <g id="PathCollection_4"/>
   <g id="PolyCollection_1">
    <defs>
     <path d="M 115.363636 -57.354545 
L 115.363636 -57.354545 
L 140.727273 -57.354601 
L 166.090909 -57.354728 
L 191.454545 -57.355014 
L 216.818182 -57.35565 
L 242.181818 -57.357048 
L 267.545455 -57.360099 
L 292.909091 -57.366708 
L 318.272727 -57.380945 
L 343.636364 -57.411451 
L 369 -57.476531 
L 394.363636 -57.614826 
L 419.727273 -57.907687 
L 445.090909 -58.525947 
L 470.454545 -59.827549 
L 495.818182 -62.560913 
L 521.181818 -68.287961 
L 546.545455 -80.262698 
L 571.909091 -105.253453 
L 597.272727 -157.317527 
L 622.636364 -265.6108 
L 622.636364 -265.6108 
L 622.636364 -265.6108 
L 597.272727 -157.317527 
L 571.909091 -105.253453 
L 546.545455 -80.262698 
L 521.181818 -68.287961 
L 495.818182 -62.560913 
L 470.454545 -59.827549 
L 445.090909 -58.525947 
L 419.727273 -57.907687 
L 394.363636 -57.614826 
L 369 -57.476531 
L 343.636364 -57.411451 
L 318.272727 -57.380945 
L 292.909091 -57.366708 
L 267.545455 -57.360099 
L 242.181818 -57.357048 
L 216.818182 -57.35565 
L 191.454545 -57.355014 
L 166.090909 -57.354728 
L 140.727273 -57.354601 
L 115.363636 -57.354545 
z
" id="m5a28359422" style="stroke:#ffa500;stroke-opacity:0.2;"/>
    </defs>
    <g clip-path="url(#pa63b73a939)">
     <use style="fill:#ffa500;fill-opacity:0.2;stroke:#ffa500;stroke-opacity:0.2;" x="0" xlink:href="#m5a28359422" y="360"/>
    </g>
   </g>
   <g id="line2d_18">
    <path clip-path="url(#pa63b73a939)" d="M 115.363636 302.645455 
L 140.727273 302.645399 
L 166.090909 302.645272 
L 191.454545 302.644986 
L 216.818182 302.64435 
L 242.181818 302.642952 
L 267.545455 302.639901 
L 292.909091 302.633292 
L 318.272727 302.619055 
L 343.636364 302.588549 
L 369 302.523469 
L 394.363636 302.385174 
L 419.727273 302.092313 
L 445.090909 301.474053 
L 470.454545 300.172451 
L 495.818182 297.439087 
L 521.181818 291.712039 
L 546.545455 279.737302 
L 571.909091 254.746547 
L 597.272727 202.682473 
L 622.636364 94.3892 
" style="fill:none;stroke:#ffa500;stroke-linecap:round;stroke-width:1.5;"/>
   </g>
   <g id="patch_3">
    <path d="M 90 315 
L 90 43.2 
" style="fill:none;stroke:#cccccc;stroke-linecap:square;stroke-linejoin:miter;stroke-width:0.8;"/>
   </g>
   <g id="patch_4">
    <path d="M 648 315 
L 648 43.2 
" style="fill:none;stroke:#cccccc;stroke-linecap:square;stroke-linejoin:miter;stroke-width:0.8;"/>
   </g>
   <g id="patch_5">
    <path d="M 90 315 
L 648 315 
" style="fill:none;stroke:#cccccc;stroke-linecap:square;stroke-linejoin:miter;stroke-width:0.8;"/>
   </g>
   <g id="patch_6">
    <path d="M 90 43.2 
L 648 43.2 
" style="fill:none;stroke:#cccccc;stroke-linecap:square;stroke-linejoin:miter;stroke-width:0.8;"/>
   </g>
   <g id="text_20">
    <!-- Complejidad de BT-O-C -->
    <g style="fill:#262626;" transform="translate(299.3775 37.2)scale(0.12 -0.12)">
     <defs>
      <path d="M 64.40625 67.28125 
L 64.40625 56.890625 
Q 59.421875 61.53125 53.78125 63.8125 
Q 48.140625 66.109375 41.796875 66.109375 
Q 29.296875 66.109375 22.65625 58.46875 
Q 16.015625 50.828125 16.015625 36.375 
Q 16.015625 21.96875 22.65625 14.328125 
Q 29.296875 6.6875 41.796875 6.6875 
Q 48.140625 6.6875 53.78125 8.984375 
Q 59.421875 11.28125 64.40625 15.921875 
L 64.40625 5.609375 
Q 59.234375 2.09375 53.4375 0.328125 
Q 47.65625 -1.421875 41.21875 -1.421875 
Q 24.65625 -1.421875 15.125 8.703125 
Q 5.609375 18.84375 5.609375 36.375 
Q 5.609375 53.953125 15.125 64.078125 
Q 24.65625 74.21875 41.21875 74.21875 
Q 47.75 74.21875 53.53125 72.484375 
Q 59.328125 70.75 64.40625 67.28125 
z
" id="DejaVuSans-67"/>
      <path d="M 30.609375 48.390625 
Q 23.390625 48.390625 19.1875 42.75 
Q 14.984375 37.109375 14.984375 27.296875 
Q 14.984375 17.484375 19.15625 11.84375 
Q 23.34375 6.203125 30.609375 6.203125 
Q 37.796875 6.203125 41.984375 11.859375 
Q 46.1875 17.53125 46.1875 27.296875 
Q 46.1875 37.015625 41.984375 42.703125 
Q 37.796875 48.390625 30.609375 48.390625 
z
M 30.609375 56 
Q 42.328125 56 49.015625 48.375 
Q 55.71875 40.765625 55.71875 27.296875 
Q 55.71875 13.875 49.015625 6.21875 
Q 42.328125 -1.421875 30.609375 -1.421875 
Q 18.84375 -1.421875 12.171875 6.21875 
Q 5.515625 13.875 5.515625 27.296875 
Q 5.515625 40.765625 12.171875 48.375 
Q 18.84375 56 30.609375 56 
z
" id="DejaVuSans-111"/>
      <path d="M 18.109375 8.203125 
L 18.109375 -20.796875 
L 9.078125 -20.796875 
L 9.078125 54.6875 
L 18.109375 54.6875 
L 18.109375 46.390625 
Q 20.953125 51.265625 25.265625 53.625 
Q 29.59375 56 35.59375 56 
Q 45.5625 56 51.78125 48.09375 
Q 58.015625 40.1875 58.015625 27.296875 
Q 58.015625 14.40625 51.78125 6.484375 
Q 45.5625 -1.421875 35.59375 -1.421875 
Q 29.59375 -1.421875 25.265625 0.953125 
Q 20.953125 3.328125 18.109375 8.203125 
z
M 48.6875 27.296875 
Q 48.6875 37.203125 44.609375 42.84375 
Q 40.53125 48.484375 33.40625 48.484375 
Q 26.265625 48.484375 22.1875 42.84375 
Q 18.109375 37.203125 18.109375 27.296875 
Q 18.109375 17.390625 22.1875 11.75 
Q 26.265625 6.109375 33.40625 6.109375 
Q 40.53125 6.109375 44.609375 11.75 
Q 48.6875 17.390625 48.6875 27.296875 
z
" id="DejaVuSans-112"/>
      <path d="M 9.421875 75.984375 
L 18.40625 75.984375 
L 18.40625 0 
L 9.421875 0 
z
" id="DejaVuSans-108"/>
      <path d="M 9.421875 54.6875 
L 18.40625 54.6875 
L 18.40625 -0.984375 
Q 18.40625 -11.421875 14.421875 -16.109375 
Q 10.453125 -20.796875 1.609375 -20.796875 
L -1.8125 -20.796875 
L -1.8125 -13.1875 
L 0.59375 -13.1875 
Q 5.71875 -13.1875 7.5625 -10.8125 
Q 9.421875 -8.453125 9.421875 -0.984375 
z
M 9.421875 75.984375 
L 18.40625 75.984375 
L 18.40625 64.59375 
L 9.421875 64.59375 
z
" id="DejaVuSans-106"/>
      <path d="M 45.40625 46.390625 
L 45.40625 75.984375 
L 54.390625 75.984375 
L 54.390625 0 
L 45.40625 0 
L 45.40625 8.203125 
Q 42.578125 3.328125 38.25 0.953125 
Q 33.9375 -1.421875 27.875 -1.421875 
Q 17.96875 -1.421875 11.734375 6.484375 
Q 5.515625 14.40625 5.515625 27.296875 
Q 5.515625 40.1875 11.734375 48.09375 
Q 17.96875 56 27.875 56 
Q 33.9375 56 38.25 53.625 
Q 42.578125 51.265625 45.40625 46.390625 
z
M 14.796875 27.296875 
Q 14.796875 17.390625 18.875 11.75 
Q 22.953125 6.109375 30.078125 6.109375 
Q 37.203125 6.109375 41.296875 11.75 
Q 45.40625 17.390625 45.40625 27.296875 
Q 45.40625 37.203125 41.296875 42.84375 
Q 37.203125 48.484375 30.078125 48.484375 
Q 22.953125 48.484375 18.875 42.84375 
Q 14.796875 37.203125 14.796875 27.296875 
z
" id="DejaVuSans-100"/>
      <path d="M 34.28125 27.484375 
Q 23.390625 27.484375 19.1875 25 
Q 14.984375 22.515625 14.984375 16.5 
Q 14.984375 11.71875 18.140625 8.90625 
Q 21.296875 6.109375 26.703125 6.109375 
Q 34.1875 6.109375 38.703125 11.40625 
Q 43.21875 16.703125 43.21875 25.484375 
L 43.21875 27.484375 
z
M 52.203125 31.203125 
L 52.203125 0 
L 43.21875 0 
L 43.21875 8.296875 
Q 40.140625 3.328125 35.546875 0.953125 
Q 30.953125 -1.421875 24.3125 -1.421875 
Q 15.921875 -1.421875 10.953125 3.296875 
Q 6 8.015625 6 15.921875 
Q 6 25.140625 12.171875 29.828125 
Q 18.359375 34.515625 30.609375 34.515625 
L 43.21875 34.515625 
L 43.21875 35.40625 
Q 43.21875 41.609375 39.140625 45 
Q 35.0625 48.390625 27.6875 48.390625 
Q 23 48.390625 18.546875 47.265625 
Q 14.109375 46.140625 10.015625 43.890625 
L 10.015625 52.203125 
Q 14.9375 54.109375 19.578125 55.046875 
Q 24.21875 56 28.609375 56 
Q 40.484375 56 46.34375 49.84375 
Q 52.203125 43.703125 52.203125 31.203125 
z
" id="DejaVuSans-97"/>
      <path id="DejaVuSans-32"/>
      <path d="M 19.671875 34.8125 
L 19.671875 8.109375 
L 35.5 8.109375 
Q 43.453125 8.109375 47.28125 11.40625 
Q 51.125 14.703125 51.125 21.484375 
Q 51.125 28.328125 47.28125 31.5625 
Q 43.453125 34.8125 35.5 34.8125 
z
M 19.671875 64.796875 
L 19.671875 42.828125 
L 34.28125 42.828125 
Q 41.5 42.828125 45.03125 45.53125 
Q 48.578125 48.25 48.578125 53.8125 
Q 48.578125 59.328125 45.03125 62.0625 
Q 41.5 64.796875 34.28125 64.796875 
z
M 9.8125 72.90625 
L 35.015625 72.90625 
Q 46.296875 72.90625 52.390625 68.21875 
Q 58.5 63.53125 58.5 54.890625 
Q 58.5 48.1875 55.375 44.234375 
Q 52.25 40.28125 46.1875 39.3125 
Q 53.46875 37.75 57.5 32.78125 
Q 61.53125 27.828125 61.53125 20.40625 
Q 61.53125 10.640625 54.890625 5.3125 
Q 48.25 0 35.984375 0 
L 9.8125 0 
z
" id="DejaVuSans-66"/>
      <path d="M -0.296875 72.90625 
L 61.375 72.90625 
L 61.375 64.59375 
L 35.5 64.59375 
L 35.5 0 
L 25.59375 0 
L 25.59375 64.59375 
L -0.296875 64.59375 
z
" id="DejaVuSans-84"/>
      <path d="M 4.890625 31.390625 
L 31.203125 31.390625 
L 31.203125 23.390625 
L 4.890625 23.390625 
z
" id="DejaVuSans-45"/>
      <path d="M 39.40625 66.21875 
Q 28.65625 66.21875 22.328125 58.203125 
Q 16.015625 50.203125 16.015625 36.375 
Q 16.015625 22.609375 22.328125 14.59375 
Q 28.65625 6.59375 39.40625 6.59375 
Q 50.140625 6.59375 56.421875 14.59375 
Q 62.703125 22.609375 62.703125 36.375 
Q 62.703125 50.203125 56.421875 58.203125 
Q 50.140625 66.21875 39.40625 66.21875 
z
M 39.40625 74.21875 
Q 54.734375 74.21875 63.90625 63.9375 
Q 73.09375 53.65625 73.09375 36.375 
Q 73.09375 19.140625 63.90625 8.859375 
Q 54.734375 -1.421875 39.40625 -1.421875 
Q 24.03125 -1.421875 14.8125 8.828125 
Q 5.609375 19.09375 5.609375 36.375 
Q 5.609375 53.65625 14.8125 63.9375 
Q 24.03125 74.21875 39.40625 74.21875 
z
" id="DejaVuSans-79"/>
     </defs>
     <use xlink:href="#DejaVuSans-67"/>
     <use x="69.824219" xlink:href="#DejaVuSans-111"/>
     <use x="131.005859" xlink:href="#DejaVuSans-109"/>
     <use x="228.417969" xlink:href="#DejaVuSans-112"/>
     <use x="291.894531" xlink:href="#DejaVuSans-108"/>
     <use x="319.677734" xlink:href="#DejaVuSans-101"/>
     <use x="381.201172" xlink:href="#DejaVuSans-106"/>
     <use x="408.984375" xlink:href="#DejaVuSans-105"/>
     <use x="436.767578" xlink:href="#DejaVuSans-100"/>
     <use x="500.244141" xlink:href="#DejaVuSans-97"/>
     <use x="561.523438" xlink:href="#DejaVuSans-100"/>
     <use x="625" xlink:href="#DejaVuSans-32"/>
     <use x="656.787109" xlink:href="#DejaVuSans-100"/>
     <use x="720.263672" xlink:href="#DejaVuSans-101"/>
     <use x="781.787109" xlink:href="#DejaVuSans-32"/>
     <use x="813.574219" xlink:href="#DejaVuSans-66"/>
     <use x="882.177734" xlink:href="#DejaVuSans-84"/>
     <use x="934.136719" xlink:href="#DejaVuSans-45"/>
     <use x="972.970703" xlink:href="#DejaVuSans-79"/>
     <use x="1054.431641" xlink:href="#DejaVuSans-45"/>
     <use x="1090.515625" xlink:href="#DejaVuSans-67"/>
    </g>
   </g>
   <g id="legend_1">
    <g id="patch_7">
     <path d="M 97 95.234375 
L 184.43125 95.234375 
Q 186.43125 95.234375 186.43125 93.234375 
L 186.43125 50.2 
Q 186.43125 48.2 184.43125 48.2 
L 97 48.2 
Q 95 48.2 95 50.2 
L 95 93.234375 
Q 95 95.234375 97 95.234375 
z
" style="fill:#ffffff;opacity:0.8;stroke:#cccccc;stroke-linejoin:miter;"/>
    </g>
    <g id="PathCollection_5">
     <defs>
      <path d="M 0 3 
C 0.795609 3 1.55874 2.683901 2.12132 2.12132 
C 2.683901 1.55874 3 0.795609 3 0 
C 3 -0.795609 2.683901 -1.55874 2.12132 -2.12132 
C 1.55874 -2.683901 0.795609 -3 0 -3 
C -0.795609 -3 -1.55874 -2.683901 -2.12132 -2.12132 
C -2.683901 -1.55874 -3 -0.795609 -3 0 
C -3 0.795609 -2.683901 1.55874 -2.12132 2.12132 
C -1.55874 2.683901 -0.795609 3 0 3 
z
" id="m52897fd913" style="stroke:#1f77b4;"/>
     </defs>
     <g>
      <use style="fill:#1f77b4;stroke:#1f77b4;" x="109" xlink:href="#m52897fd913" y="57.173437"/>
     </g>
    </g>
    <g id="text_21">
     <!-- control -->
     <g style="fill:#262626;" transform="translate(127 59.798437)scale(0.1 -0.1)">
      <defs>
       <path d="M 48.78125 52.59375 
L 48.78125 44.1875 
Q 44.96875 46.296875 41.140625 47.34375 
Q 37.3125 48.390625 33.40625 48.390625 
Q 24.65625 48.390625 19.8125 42.84375 
Q 14.984375 37.3125 14.984375 27.296875 
Q 14.984375 17.28125 19.8125 11.734375 
Q 24.65625 6.203125 33.40625 6.203125 
Q 37.3125 6.203125 41.140625 7.25 
Q 44.96875 8.296875 48.78125 10.40625 
L 48.78125 2.09375 
Q 45.015625 0.34375 40.984375 -0.53125 
Q 36.96875 -1.421875 32.421875 -1.421875 
Q 20.0625 -1.421875 12.78125 6.34375 
Q 5.515625 14.109375 5.515625 27.296875 
Q 5.515625 40.671875 12.859375 48.328125 
Q 20.21875 56 33.015625 56 
Q 37.15625 56 41.109375 55.140625 
Q 45.0625 54.296875 48.78125 52.59375 
z
" id="DejaVuSans-99"/>
       <path d="M 41.109375 46.296875 
Q 39.59375 47.171875 37.8125 47.578125 
Q 36.03125 48 33.890625 48 
Q 26.265625 48 22.1875 43.046875 
Q 18.109375 38.09375 18.109375 28.8125 
L 18.109375 0 
L 9.078125 0 
L 9.078125 54.6875 
L 18.109375 54.6875 
L 18.109375 46.1875 
Q 20.953125 51.171875 25.484375 53.578125 
Q 30.03125 56 36.53125 56 
Q 37.453125 56 38.578125 55.875 
Q 39.703125 55.765625 41.0625 55.515625 
z
" id="DejaVuSans-114"/>
      </defs>
      <use xlink:href="#DejaVuSans-99"/>
      <use x="54.980469" xlink:href="#DejaVuSans-111"/>
      <use x="116.162109" xlink:href="#DejaVuSans-110"/>
      <use x="179.541016" xlink:href="#DejaVuSans-116"/>
      <use x="218.75" xlink:href="#DejaVuSans-114"/>
      <use x="257.613281" xlink:href="#DejaVuSans-111"/>
      <use x="318.794922" xlink:href="#DejaVuSans-108"/>
     </g>
    </g>
    <g id="PathCollection_6">
     <defs>
      <path d="M 0 3 
C 0.795609 3 1.55874 2.683901 2.12132 2.12132 
C 2.683901 1.55874 3 0.795609 3 0 
C 3 -0.795609 2.683901 -1.55874 2.12132 -2.12132 
C 1.55874 -2.683901 0.795609 -3 0 -3 
C -0.795609 -3 -1.55874 -2.683901 -2.12132 -2.12132 
C -2.683901 -1.55874 -3 -0.795609 -3 0 
C -3 0.795609 -2.683901 1.55874 -2.12132 2.12132 
C -1.55874 2.683901 -0.795609 3 0 3 
z
" id="m2ca2ea4bb5" style="stroke:#ff7f0e;"/>
     </defs>
     <g>
      <use style="fill:#ff7f0e;stroke:#ff7f0e;" x="109" xlink:href="#m2ca2ea4bb5" y="71.851562"/>
     </g>
    </g>
    <g id="text_22">
     <!-- identicos -->
     <g style="fill:#262626;" transform="translate(127 74.476562)scale(0.1 -0.1)">
      <use xlink:href="#DejaVuSans-105"/>
      <use x="27.783203" xlink:href="#DejaVuSans-100"/>
      <use x="91.259766" xlink:href="#DejaVuSans-101"/>
      <use x="152.783203" xlink:href="#DejaVuSans-110"/>
      <use x="216.162109" xlink:href="#DejaVuSans-116"/>
      <use x="255.371094" xlink:href="#DejaVuSans-105"/>
      <use x="283.154297" xlink:href="#DejaVuSans-99"/>
      <use x="338.134766" xlink:href="#DejaVuSans-111"/>
      <use x="399.316406" xlink:href="#DejaVuSans-115"/>
     </g>
    </g>
    <g id="PathCollection_7">
     <defs>
      <path d="M 0 3 
C 0.795609 3 1.55874 2.683901 2.12132 2.12132 
C 2.683901 1.55874 3 0.795609 3 0 
C 3 -0.795609 2.683901 -1.55874 2.12132 -2.12132 
C 1.55874 -2.683901 0.795609 -3 0 -3 
C -0.795609 -3 -1.55874 -2.683901 -2.12132 -2.12132 
C -2.683901 -1.55874 -3 -0.795609 -3 0 
C -3 0.795609 -2.683901 1.55874 -2.12132 2.12132 
C -1.55874 2.683901 -0.795609 3 0 3 
z
" id="m29c60a824b" style="stroke:#2ca02c;"/>
     </defs>
     <g>
      <use style="fill:#2ca02c;stroke:#2ca02c;" x="109" xlink:href="#m29c60a824b" y="86.529687"/>
     </g>
    </g>
    <g id="text_23">
     <!-- one-to-rule -->
     <g style="fill:#262626;" transform="translate(127 89.154687)scale(0.1 -0.1)">
      <defs>
       <path d="M 8.5 21.578125 
L 8.5 54.6875 
L 17.484375 54.6875 
L 17.484375 21.921875 
Q 17.484375 14.15625 20.5 10.265625 
Q 23.53125 6.390625 29.59375 6.390625 
Q 36.859375 6.390625 41.078125 11.03125 
Q 45.3125 15.671875 45.3125 23.6875 
L 45.3125 54.6875 
L 54.296875 54.6875 
L 54.296875 0 
L 45.3125 0 
L 45.3125 8.40625 
Q 42.046875 3.421875 37.71875 1 
Q 33.40625 -1.421875 27.6875 -1.421875 
Q 18.265625 -1.421875 13.375 4.4375 
Q 8.5 10.296875 8.5 21.578125 
z
M 31.109375 56 
z
" id="DejaVuSans-117"/>
      </defs>
      <use xlink:href="#DejaVuSans-111"/>
      <use x="61.181641" xlink:href="#DejaVuSans-110"/>
      <use x="124.560547" xlink:href="#DejaVuSans-101"/>
      <use x="186.083984" xlink:href="#DejaVuSans-45"/>
      <use x="222.167969" xlink:href="#DejaVuSans-116"/>
      <use x="261.376953" xlink:href="#DejaVuSans-111"/>
      <use x="324.433594" xlink:href="#DejaVuSans-45"/>
      <use x="360.517578" xlink:href="#DejaVuSans-114"/>
      <use x="401.630859" xlink:href="#DejaVuSans-117"/>
      <use x="465.009766" xlink:href="#DejaVuSans-108"/>
      <use x="492.792969" xlink:href="#DejaVuSans-101"/>
     </g>
    </g>
   </g>
  </g>
 </g>
 <defs>
  <clipPath id="pa63b73a939">
   <rect height="271.8" width="558" x="90" y="43.2"/>
  </clipPath>
 </defs>
</svg>
