<?xml version="1.0" encoding="utf-8" standalone="no"?>
<!DOCTYPE svg PUBLIC "-//W3C//DTD SVG 1.1//EN"
  "http://www.w3.org/Graphics/SVG/1.1/DTD/svg11.dtd">
<!-- Created with matplotlib (https://matplotlib.org/) -->
<svg height="360pt" version="1.1" viewBox="0 0 720 360" width="720pt" xmlns="http://www.w3.org/2000/svg" xmlns:xlink="http://www.w3.org/1999/xlink">
 <metadata>
  <rdf:RDF xmlns:cc="http://creativecommons.org/ns#" xmlns:dc="http://purl.org/dc/elements/1.1/" xmlns:rdf="http://www.w3.org/1999/02/22-rdf-syntax-ns#">
   <cc:Work>
    <dc:type rdf:resource="http://purl.org/dc/dcmitype/StillImage"/>
    <dc:date>2020-10-03T21:03:22.089993</dc:date>
    <dc:format>image/svg+xml</dc:format>
    <dc:creator>
     <cc:Agent>
      <dc:title>Matplotlib v3.3.2, https://matplotlib.org/</dc:title>
     </cc:Agent>
    </dc:creator>
   </cc:Work>
  </rdf:RDF>
 </metadata>
 <defs>
  <style type="text/css">*{stroke-linecap:butt;stroke-linejoin:round;}</style>
 </defs>
 <g id="figure_1">
  <g id="patch_1">
   <path d="M 0 360 
L 720 360 
L 720 0 
L 0 0 
z
" style="fill:#ffffff;"/>
  </g>
  <g id="axes_1">
   <g id="patch_2">
    <path d="M 90 315 
L 648 315 
L 648 43.2 
L 90 43.2 
z
" style="fill:#ffffff;"/>
   </g>
   <g id="matplotlib.axis_1">
    <g id="xtick_1">
     <g id="text_1">
      <!-- 5 -->
      <g style="fill:#262626;" transform="translate(97.549519 329.598437)scale(0.1 -0.1)">
       <defs>
        <path d="M 10.796875 72.90625 
L 49.515625 72.90625 
L 49.515625 64.59375 
L 19.828125 64.59375 
L 19.828125 46.734375 
Q 21.96875 47.46875 24.109375 47.828125 
Q 26.265625 48.1875 28.421875 48.1875 
Q 40.625 48.1875 47.75 41.5 
Q 54.890625 34.8125 54.890625 23.390625 
Q 54.890625 11.625 47.5625 5.09375 
Q 40.234375 -1.421875 26.90625 -1.421875 
Q 22.3125 -1.421875 17.546875 -0.640625 
Q 12.796875 0.140625 7.71875 1.703125 
L 7.71875 11.625 
Q 12.109375 9.234375 16.796875 8.0625 
Q 21.484375 6.890625 26.703125 6.890625 
Q 35.15625 6.890625 40.078125 11.328125 
Q 45.015625 15.765625 45.015625 23.390625 
Q 45.015625 31 40.078125 35.4375 
Q 35.15625 39.890625 26.703125 39.890625 
Q 22.75 39.890625 18.8125 39.015625 
Q 14.890625 38.140625 10.796875 36.28125 
z
" id="DejaVuSans-53"/>
       </defs>
       <use xlink:href="#DejaVuSans-53"/>
      </g>
     </g>
    </g>
    <g id="xtick_2">
     <g id="text_2">
      <!-- 6 -->
      <g style="fill:#262626;" transform="translate(119.011058 329.598437)scale(0.1 -0.1)">
       <defs>
        <path d="M 33.015625 40.375 
Q 26.375 40.375 22.484375 35.828125 
Q 18.609375 31.296875 18.609375 23.390625 
Q 18.609375 15.53125 22.484375 10.953125 
Q 26.375 6.390625 33.015625 6.390625 
Q 39.65625 6.390625 43.53125 10.953125 
Q 47.40625 15.53125 47.40625 23.390625 
Q 47.40625 31.296875 43.53125 35.828125 
Q 39.65625 40.375 33.015625 40.375 
z
M 52.59375 71.296875 
L 52.59375 62.3125 
Q 48.875 64.0625 45.09375 64.984375 
Q 41.3125 65.921875 37.59375 65.921875 
Q 27.828125 65.921875 22.671875 59.328125 
Q 17.53125 52.734375 16.796875 39.40625 
Q 19.671875 43.65625 24.015625 45.921875 
Q 28.375 48.1875 33.59375 48.1875 
Q 44.578125 48.1875 50.953125 41.515625 
Q 57.328125 34.859375 57.328125 23.390625 
Q 57.328125 12.15625 50.6875 5.359375 
Q 44.046875 -1.421875 33.015625 -1.421875 
Q 20.359375 -1.421875 13.671875 8.265625 
Q 6.984375 17.96875 6.984375 36.375 
Q 6.984375 53.65625 15.1875 63.9375 
Q 23.390625 74.21875 37.203125 74.21875 
Q 40.921875 74.21875 44.703125 73.484375 
Q 48.484375 72.75 52.59375 71.296875 
z
" id="DejaVuSans-54"/>
       </defs>
       <use xlink:href="#DejaVuSans-54"/>
      </g>
     </g>
    </g>
    <g id="xtick_3">
     <g id="text_3">
      <!-- 7 -->
      <g style="fill:#262626;" transform="translate(140.472596 329.598437)scale(0.1 -0.1)">
       <defs>
        <path d="M 8.203125 72.90625 
L 55.078125 72.90625 
L 55.078125 68.703125 
L 28.609375 0 
L 18.3125 0 
L 43.21875 64.59375 
L 8.203125 64.59375 
z
" id="DejaVuSans-55"/>
       </defs>
       <use xlink:href="#DejaVuSans-55"/>
      </g>
     </g>
    </g>
    <g id="xtick_4">
     <g id="text_4">
      <!-- 8 -->
      <g style="fill:#262626;" transform="translate(161.934135 329.598437)scale(0.1 -0.1)">
       <defs>
        <path d="M 31.78125 34.625 
Q 24.75 34.625 20.71875 30.859375 
Q 16.703125 27.09375 16.703125 20.515625 
Q 16.703125 13.921875 20.71875 10.15625 
Q 24.75 6.390625 31.78125 6.390625 
Q 38.8125 6.390625 42.859375 10.171875 
Q 46.921875 13.96875 46.921875 20.515625 
Q 46.921875 27.09375 42.890625 30.859375 
Q 38.875 34.625 31.78125 34.625 
z
M 21.921875 38.8125 
Q 15.578125 40.375 12.03125 44.71875 
Q 8.5 49.078125 8.5 55.328125 
Q 8.5 64.0625 14.71875 69.140625 
Q 20.953125 74.21875 31.78125 74.21875 
Q 42.671875 74.21875 48.875 69.140625 
Q 55.078125 64.0625 55.078125 55.328125 
Q 55.078125 49.078125 51.53125 44.71875 
Q 48 40.375 41.703125 38.8125 
Q 48.828125 37.15625 52.796875 32.3125 
Q 56.78125 27.484375 56.78125 20.515625 
Q 56.78125 9.90625 50.3125 4.234375 
Q 43.84375 -1.421875 31.78125 -1.421875 
Q 19.734375 -1.421875 13.25 4.234375 
Q 6.78125 9.90625 6.78125 20.515625 
Q 6.78125 27.484375 10.78125 32.3125 
Q 14.796875 37.15625 21.921875 38.8125 
z
M 18.3125 54.390625 
Q 18.3125 48.734375 21.84375 45.5625 
Q 25.390625 42.390625 31.78125 42.390625 
Q 38.140625 42.390625 41.71875 45.5625 
Q 45.3125 48.734375 45.3125 54.390625 
Q 45.3125 60.0625 41.71875 63.234375 
Q 38.140625 66.40625 31.78125 66.40625 
Q 25.390625 66.40625 21.84375 63.234375 
Q 18.3125 60.0625 18.3125 54.390625 
z
" id="DejaVuSans-56"/>
       </defs>
       <use xlink:href="#DejaVuSans-56"/>
      </g>
     </g>
    </g>
    <g id="xtick_5">
     <g id="text_5">
      <!-- 9 -->
      <g style="fill:#262626;" transform="translate(183.395673 329.598437)scale(0.1 -0.1)">
       <defs>
        <path d="M 10.984375 1.515625 
L 10.984375 10.5 
Q 14.703125 8.734375 18.5 7.8125 
Q 22.3125 6.890625 25.984375 6.890625 
Q 35.75 6.890625 40.890625 13.453125 
Q 46.046875 20.015625 46.78125 33.40625 
Q 43.953125 29.203125 39.59375 26.953125 
Q 35.25 24.703125 29.984375 24.703125 
Q 19.046875 24.703125 12.671875 31.3125 
Q 6.296875 37.9375 6.296875 49.421875 
Q 6.296875 60.640625 12.9375 67.421875 
Q 19.578125 74.21875 30.609375 74.21875 
Q 43.265625 74.21875 49.921875 64.515625 
Q 56.59375 54.828125 56.59375 36.375 
Q 56.59375 19.140625 48.40625 8.859375 
Q 40.234375 -1.421875 26.421875 -1.421875 
Q 22.703125 -1.421875 18.890625 -0.6875 
Q 15.09375 0.046875 10.984375 1.515625 
z
M 30.609375 32.421875 
Q 37.25 32.421875 41.125 36.953125 
Q 45.015625 41.5 45.015625 49.421875 
Q 45.015625 57.28125 41.125 61.84375 
Q 37.25 66.40625 30.609375 66.40625 
Q 23.96875 66.40625 20.09375 61.84375 
Q 16.21875 57.28125 16.21875 49.421875 
Q 16.21875 41.5 20.09375 36.953125 
Q 23.96875 32.421875 30.609375 32.421875 
z
" id="DejaVuSans-57"/>
       </defs>
       <use xlink:href="#DejaVuSans-57"/>
      </g>
     </g>
    </g>
    <g id="xtick_6">
     <g id="text_6">
      <!-- 10 -->
      <g style="fill:#262626;" transform="translate(201.675962 329.598437)scale(0.1 -0.1)">
       <defs>
        <path d="M 12.40625 8.296875 
L 28.515625 8.296875 
L 28.515625 63.921875 
L 10.984375 60.40625 
L 10.984375 69.390625 
L 28.421875 72.90625 
L 38.28125 72.90625 
L 38.28125 8.296875 
L 54.390625 8.296875 
L 54.390625 0 
L 12.40625 0 
z
" id="DejaVuSans-49"/>
        <path d="M 31.78125 66.40625 
Q 24.171875 66.40625 20.328125 58.90625 
Q 16.5 51.421875 16.5 36.375 
Q 16.5 21.390625 20.328125 13.890625 
Q 24.171875 6.390625 31.78125 6.390625 
Q 39.453125 6.390625 43.28125 13.890625 
Q 47.125 21.390625 47.125 36.375 
Q 47.125 51.421875 43.28125 58.90625 
Q 39.453125 66.40625 31.78125 66.40625 
z
M 31.78125 74.21875 
Q 44.046875 74.21875 50.515625 64.515625 
Q 56.984375 54.828125 56.984375 36.375 
Q 56.984375 17.96875 50.515625 8.265625 
Q 44.046875 -1.421875 31.78125 -1.421875 
Q 19.53125 -1.421875 13.0625 8.265625 
Q 6.59375 17.96875 6.59375 36.375 
Q 6.59375 54.828125 13.0625 64.515625 
Q 19.53125 74.21875 31.78125 74.21875 
z
" id="DejaVuSans-48"/>
       </defs>
       <use xlink:href="#DejaVuSans-49"/>
       <use x="63.623047" xlink:href="#DejaVuSans-48"/>
      </g>
     </g>
    </g>
    <g id="xtick_7">
     <g id="text_7">
      <!-- 11 -->
      <g style="fill:#262626;" transform="translate(223.1375 329.598437)scale(0.1 -0.1)">
       <use xlink:href="#DejaVuSans-49"/>
       <use x="63.623047" xlink:href="#DejaVuSans-49"/>
      </g>
     </g>
    </g>
    <g id="xtick_8">
     <g id="text_8">
      <!-- 12 -->
      <g style="fill:#262626;" transform="translate(244.599038 329.598437)scale(0.1 -0.1)">
       <defs>
        <path d="M 19.1875 8.296875 
L 53.609375 8.296875 
L 53.609375 0 
L 7.328125 0 
L 7.328125 8.296875 
Q 12.9375 14.109375 22.625 23.890625 
Q 32.328125 33.6875 34.8125 36.53125 
Q 39.546875 41.84375 41.421875 45.53125 
Q 43.3125 49.21875 43.3125 52.78125 
Q 43.3125 58.59375 39.234375 62.25 
Q 35.15625 65.921875 28.609375 65.921875 
Q 23.96875 65.921875 18.8125 64.3125 
Q 13.671875 62.703125 7.8125 59.421875 
L 7.8125 69.390625 
Q 13.765625 71.78125 18.9375 73 
Q 24.125 74.21875 28.421875 74.21875 
Q 39.75 74.21875 46.484375 68.546875 
Q 53.21875 62.890625 53.21875 53.421875 
Q 53.21875 48.921875 51.53125 44.890625 
Q 49.859375 40.875 45.40625 35.40625 
Q 44.1875 33.984375 37.640625 27.21875 
Q 31.109375 20.453125 19.1875 8.296875 
z
" id="DejaVuSans-50"/>
       </defs>
       <use xlink:href="#DejaVuSans-49"/>
       <use x="63.623047" xlink:href="#DejaVuSans-50"/>
      </g>
     </g>
    </g>
    <g id="xtick_9">
     <g id="text_9">
      <!-- 13 -->
      <g style="fill:#262626;" transform="translate(266.060577 329.598437)scale(0.1 -0.1)">
       <defs>
        <path d="M 40.578125 39.3125 
Q 47.65625 37.796875 51.625 33 
Q 55.609375 28.21875 55.609375 21.1875 
Q 55.609375 10.40625 48.1875 4.484375 
Q 40.765625 -1.421875 27.09375 -1.421875 
Q 22.515625 -1.421875 17.65625 -0.515625 
Q 12.796875 0.390625 7.625 2.203125 
L 7.625 11.71875 
Q 11.71875 9.328125 16.59375 8.109375 
Q 21.484375 6.890625 26.8125 6.890625 
Q 36.078125 6.890625 40.9375 10.546875 
Q 45.796875 14.203125 45.796875 21.1875 
Q 45.796875 27.640625 41.28125 31.265625 
Q 36.765625 34.90625 28.71875 34.90625 
L 20.21875 34.90625 
L 20.21875 43.015625 
L 29.109375 43.015625 
Q 36.375 43.015625 40.234375 45.921875 
Q 44.09375 48.828125 44.09375 54.296875 
Q 44.09375 59.90625 40.109375 62.90625 
Q 36.140625 65.921875 28.71875 65.921875 
Q 24.65625 65.921875 20.015625 65.03125 
Q 15.375 64.15625 9.8125 62.3125 
L 9.8125 71.09375 
Q 15.4375 72.65625 20.34375 73.4375 
Q 25.25 74.21875 29.59375 74.21875 
Q 40.828125 74.21875 47.359375 69.109375 
Q 53.90625 64.015625 53.90625 55.328125 
Q 53.90625 49.265625 50.4375 45.09375 
Q 46.96875 40.921875 40.578125 39.3125 
z
" id="DejaVuSans-51"/>
       </defs>
       <use xlink:href="#DejaVuSans-49"/>
       <use x="63.623047" xlink:href="#DejaVuSans-51"/>
      </g>
     </g>
    </g>
    <g id="xtick_10">
     <g id="text_10">
      <!-- 14 -->
      <g style="fill:#262626;" transform="translate(287.522115 329.598437)scale(0.1 -0.1)">
       <defs>
        <path d="M 37.796875 64.3125 
L 12.890625 25.390625 
L 37.796875 25.390625 
z
M 35.203125 72.90625 
L 47.609375 72.90625 
L 47.609375 25.390625 
L 58.015625 25.390625 
L 58.015625 17.1875 
L 47.609375 17.1875 
L 47.609375 0 
L 37.796875 0 
L 37.796875 17.1875 
L 4.890625 17.1875 
L 4.890625 26.703125 
z
" id="DejaVuSans-52"/>
       </defs>
       <use xlink:href="#DejaVuSans-49"/>
       <use x="63.623047" xlink:href="#DejaVuSans-52"/>
      </g>
     </g>
    </g>
    <g id="xtick_11">
     <g id="text_11">
      <!-- 15 -->
      <g style="fill:#262626;" transform="translate(308.983654 329.598437)scale(0.1 -0.1)">
       <use xlink:href="#DejaVuSans-49"/>
       <use x="63.623047" xlink:href="#DejaVuSans-53"/>
      </g>
     </g>
    </g>
    <g id="xtick_12">
     <g id="text_12">
      <!-- 16 -->
      <g style="fill:#262626;" transform="translate(330.445192 329.598437)scale(0.1 -0.1)">
       <use xlink:href="#DejaVuSans-49"/>
       <use x="63.623047" xlink:href="#DejaVuSans-54"/>
      </g>
     </g>
    </g>
    <g id="xtick_13">
     <g id="text_13">
      <!-- 17 -->
      <g style="fill:#262626;" transform="translate(351.906731 329.598437)scale(0.1 -0.1)">
       <use xlink:href="#DejaVuSans-49"/>
       <use x="63.623047" xlink:href="#DejaVuSans-55"/>
      </g>
     </g>
    </g>
    <g id="xtick_14">
     <g id="text_14">
      <!-- 18 -->
      <g style="fill:#262626;" transform="translate(373.368269 329.598437)scale(0.1 -0.1)">
       <use xlink:href="#DejaVuSans-49"/>
       <use x="63.623047" xlink:href="#DejaVuSans-56"/>
      </g>
     </g>
    </g>
    <g id="xtick_15">
     <g id="text_15">
      <!-- 19 -->
      <g style="fill:#262626;" transform="translate(394.829808 329.598437)scale(0.1 -0.1)">
       <use xlink:href="#DejaVuSans-49"/>
       <use x="63.623047" xlink:href="#DejaVuSans-57"/>
      </g>
     </g>
    </g>
    <g id="xtick_16">
     <g id="text_16">
      <!-- 20 -->
      <g style="fill:#262626;" transform="translate(416.291346 329.598437)scale(0.1 -0.1)">
       <use xlink:href="#DejaVuSans-50"/>
       <use x="63.623047" xlink:href="#DejaVuSans-48"/>
      </g>
     </g>
    </g>
    <g id="xtick_17">
     <g id="text_17">
      <!-- 21 -->
      <g style="fill:#262626;" transform="translate(437.752885 329.598437)scale(0.1 -0.1)">
       <use xlink:href="#DejaVuSans-50"/>
       <use x="63.623047" xlink:href="#DejaVuSans-49"/>
      </g>
     </g>
    </g>
    <g id="xtick_18">
     <g id="text_18">
      <!-- 22 -->
      <g style="fill:#262626;" transform="translate(459.214423 329.598437)scale(0.1 -0.1)">
       <use xlink:href="#DejaVuSans-50"/>
       <use x="63.623047" xlink:href="#DejaVuSans-50"/>
      </g>
     </g>
    </g>
    <g id="xtick_19">
     <g id="text_19">
      <!-- 23 -->
      <g style="fill:#262626;" transform="translate(480.675962 329.598437)scale(0.1 -0.1)">
       <use xlink:href="#DejaVuSans-50"/>
       <use x="63.623047" xlink:href="#DejaVuSans-51"/>
      </g>
     </g>
    </g>
    <g id="xtick_20">
     <g id="text_20">
      <!-- 24 -->
      <g style="fill:#262626;" transform="translate(502.1375 329.598437)scale(0.1 -0.1)">
       <use xlink:href="#DejaVuSans-50"/>
       <use x="63.623047" xlink:href="#DejaVuSans-52"/>
      </g>
     </g>
    </g>
    <g id="xtick_21">
     <g id="text_21">
      <!-- 25 -->
      <g style="fill:#262626;" transform="translate(523.599038 329.598437)scale(0.1 -0.1)">
       <use xlink:href="#DejaVuSans-50"/>
       <use x="63.623047" xlink:href="#DejaVuSans-53"/>
      </g>
     </g>
    </g>
    <g id="xtick_22">
     <g id="text_22">
      <!-- 26 -->
      <g style="fill:#262626;" transform="translate(545.060577 329.598437)scale(0.1 -0.1)">
       <use xlink:href="#DejaVuSans-50"/>
       <use x="63.623047" xlink:href="#DejaVuSans-54"/>
      </g>
     </g>
    </g>
    <g id="xtick_23">
     <g id="text_23">
      <!-- 27 -->
      <g style="fill:#262626;" transform="translate(566.522115 329.598437)scale(0.1 -0.1)">
       <use xlink:href="#DejaVuSans-50"/>
       <use x="63.623047" xlink:href="#DejaVuSans-55"/>
      </g>
     </g>
    </g>
    <g id="xtick_24">
     <g id="text_24">
      <!-- 28 -->
      <g style="fill:#262626;" transform="translate(587.983654 329.598437)scale(0.1 -0.1)">
       <use xlink:href="#DejaVuSans-50"/>
       <use x="63.623047" xlink:href="#DejaVuSans-56"/>
      </g>
     </g>
    </g>
    <g id="xtick_25">
     <g id="text_25">
      <!-- 29 -->
      <g style="fill:#262626;" transform="translate(609.445192 329.598437)scale(0.1 -0.1)">
       <use xlink:href="#DejaVuSans-50"/>
       <use x="63.623047" xlink:href="#DejaVuSans-57"/>
      </g>
     </g>
    </g>
    <g id="xtick_26">
     <g id="text_26">
      <!-- 30 -->
      <g style="fill:#262626;" transform="translate(630.906731 329.598437)scale(0.1 -0.1)">
       <use xlink:href="#DejaVuSans-51"/>
       <use x="63.623047" xlink:href="#DejaVuSans-48"/>
      </g>
     </g>
    </g>
    <g id="text_27">
     <!-- n -->
     <g style="fill:#262626;" transform="translate(365.83125 343.276563)scale(0.1 -0.1)">
      <defs>
       <path d="M 54.890625 33.015625 
L 54.890625 0 
L 45.90625 0 
L 45.90625 32.71875 
Q 45.90625 40.484375 42.875 44.328125 
Q 39.84375 48.1875 33.796875 48.1875 
Q 26.515625 48.1875 22.3125 43.546875 
Q 18.109375 38.921875 18.109375 30.90625 
L 18.109375 0 
L 9.078125 0 
L 9.078125 54.6875 
L 18.109375 54.6875 
L 18.109375 46.1875 
Q 21.34375 51.125 25.703125 53.5625 
Q 30.078125 56 35.796875 56 
Q 45.21875 56 50.046875 50.171875 
Q 54.890625 44.34375 54.890625 33.015625 
z
" id="DejaVuSans-110"/>
      </defs>
      <use xlink:href="#DejaVuSans-110"/>
     </g>
    </g>
   </g>
   <g id="matplotlib.axis_2">
    <g id="ytick_1">
     <g id="line2d_1">
      <path clip-path="url(#p36d65035bc)" d="M 90 306.270859 
L 648 306.270859 
" style="fill:none;stroke:#cccccc;stroke-linecap:round;stroke-width:0.8;"/>
     </g>
     <g id="text_28">
      <!-- 0.00 -->
      <g style="fill:#262626;" transform="translate(60.734375 310.070078)scale(0.1 -0.1)">
       <defs>
        <path d="M 10.6875 12.40625 
L 21 12.40625 
L 21 0 
L 10.6875 0 
z
" id="DejaVuSans-46"/>
       </defs>
       <use xlink:href="#DejaVuSans-48"/>
       <use x="63.623047" xlink:href="#DejaVuSans-46"/>
       <use x="95.410156" xlink:href="#DejaVuSans-48"/>
       <use x="159.033203" xlink:href="#DejaVuSans-48"/>
      </g>
     </g>
    </g>
    <g id="ytick_2">
     <g id="line2d_2">
      <path clip-path="url(#p36d65035bc)" d="M 90 271.570023 
L 648 271.570023 
" style="fill:none;stroke:#cccccc;stroke-linecap:round;stroke-width:0.8;"/>
     </g>
     <g id="text_29">
      <!-- 0.25 -->
      <g style="fill:#262626;" transform="translate(60.734375 275.369242)scale(0.1 -0.1)">
       <use xlink:href="#DejaVuSans-48"/>
       <use x="63.623047" xlink:href="#DejaVuSans-46"/>
       <use x="95.410156" xlink:href="#DejaVuSans-50"/>
       <use x="159.033203" xlink:href="#DejaVuSans-53"/>
      </g>
     </g>
    </g>
    <g id="ytick_3">
     <g id="line2d_3">
      <path clip-path="url(#p36d65035bc)" d="M 90 236.869188 
L 648 236.869188 
" style="fill:none;stroke:#cccccc;stroke-linecap:round;stroke-width:0.8;"/>
     </g>
     <g id="text_30">
      <!-- 0.50 -->
      <g style="fill:#262626;" transform="translate(60.734375 240.668407)scale(0.1 -0.1)">
       <use xlink:href="#DejaVuSans-48"/>
       <use x="63.623047" xlink:href="#DejaVuSans-46"/>
       <use x="95.410156" xlink:href="#DejaVuSans-53"/>
       <use x="159.033203" xlink:href="#DejaVuSans-48"/>
      </g>
     </g>
    </g>
    <g id="ytick_4">
     <g id="line2d_4">
      <path clip-path="url(#p36d65035bc)" d="M 90 202.168352 
L 648 202.168352 
" style="fill:none;stroke:#cccccc;stroke-linecap:round;stroke-width:0.8;"/>
     </g>
     <g id="text_31">
      <!-- 0.75 -->
      <g style="fill:#262626;" transform="translate(60.734375 205.967571)scale(0.1 -0.1)">
       <use xlink:href="#DejaVuSans-48"/>
       <use x="63.623047" xlink:href="#DejaVuSans-46"/>
       <use x="95.410156" xlink:href="#DejaVuSans-55"/>
       <use x="159.033203" xlink:href="#DejaVuSans-53"/>
      </g>
     </g>
    </g>
    <g id="ytick_5">
     <g id="line2d_5">
      <path clip-path="url(#p36d65035bc)" d="M 90 167.467516 
L 648 167.467516 
" style="fill:none;stroke:#cccccc;stroke-linecap:round;stroke-width:0.8;"/>
     </g>
     <g id="text_32">
      <!-- 1.00 -->
      <g style="fill:#262626;" transform="translate(60.734375 171.266735)scale(0.1 -0.1)">
       <use xlink:href="#DejaVuSans-49"/>
       <use x="63.623047" xlink:href="#DejaVuSans-46"/>
       <use x="95.410156" xlink:href="#DejaVuSans-48"/>
       <use x="159.033203" xlink:href="#DejaVuSans-48"/>
      </g>
     </g>
    </g>
    <g id="ytick_6">
     <g id="line2d_6">
      <path clip-path="url(#p36d65035bc)" d="M 90 132.766681 
L 648 132.766681 
" style="fill:none;stroke:#cccccc;stroke-linecap:round;stroke-width:0.8;"/>
     </g>
     <g id="text_33">
      <!-- 1.25 -->
      <g style="fill:#262626;" transform="translate(60.734375 136.5659)scale(0.1 -0.1)">
       <use xlink:href="#DejaVuSans-49"/>
       <use x="63.623047" xlink:href="#DejaVuSans-46"/>
       <use x="95.410156" xlink:href="#DejaVuSans-50"/>
       <use x="159.033203" xlink:href="#DejaVuSans-53"/>
      </g>
     </g>
    </g>
    <g id="ytick_7">
     <g id="line2d_7">
      <path clip-path="url(#p36d65035bc)" d="M 90 98.065845 
L 648 98.065845 
" style="fill:none;stroke:#cccccc;stroke-linecap:round;stroke-width:0.8;"/>
     </g>
     <g id="text_34">
      <!-- 1.50 -->
      <g style="fill:#262626;" transform="translate(60.734375 101.865064)scale(0.1 -0.1)">
       <use xlink:href="#DejaVuSans-49"/>
       <use x="63.623047" xlink:href="#DejaVuSans-46"/>
       <use x="95.410156" xlink:href="#DejaVuSans-53"/>
       <use x="159.033203" xlink:href="#DejaVuSans-48"/>
      </g>
     </g>
    </g>
    <g id="ytick_8">
     <g id="line2d_8">
      <path clip-path="url(#p36d65035bc)" d="M 90 63.36501 
L 648 63.36501 
" style="fill:none;stroke:#cccccc;stroke-linecap:round;stroke-width:0.8;"/>
     </g>
     <g id="text_35">
      <!-- 1.75 -->
      <g style="fill:#262626;" transform="translate(60.734375 67.164228)scale(0.1 -0.1)">
       <use xlink:href="#DejaVuSans-49"/>
       <use x="63.623047" xlink:href="#DejaVuSans-46"/>
       <use x="95.410156" xlink:href="#DejaVuSans-55"/>
       <use x="159.033203" xlink:href="#DejaVuSans-53"/>
      </g>
     </g>
    </g>
    <g id="text_36">
     <!-- time_ms -->
     <g style="fill:#262626;" transform="translate(54.376562 200.371094)rotate(-90)scale(0.1 -0.1)">
      <defs>
       <path d="M 18.3125 70.21875 
L 18.3125 54.6875 
L 36.8125 54.6875 
L 36.8125 47.703125 
L 18.3125 47.703125 
L 18.3125 18.015625 
Q 18.3125 11.328125 20.140625 9.421875 
Q 21.96875 7.515625 27.59375 7.515625 
L 36.8125 7.515625 
L 36.8125 0 
L 27.59375 0 
Q 17.1875 0 13.234375 3.875 
Q 9.28125 7.765625 9.28125 18.015625 
L 9.28125 47.703125 
L 2.6875 47.703125 
L 2.6875 54.6875 
L 9.28125 54.6875 
L 9.28125 70.21875 
z
" id="DejaVuSans-116"/>
       <path d="M 9.421875 54.6875 
L 18.40625 54.6875 
L 18.40625 0 
L 9.421875 0 
z
M 9.421875 75.984375 
L 18.40625 75.984375 
L 18.40625 64.59375 
L 9.421875 64.59375 
z
" id="DejaVuSans-105"/>
       <path d="M 52 44.1875 
Q 55.375 50.25 60.0625 53.125 
Q 64.75 56 71.09375 56 
Q 79.640625 56 84.28125 50.015625 
Q 88.921875 44.046875 88.921875 33.015625 
L 88.921875 0 
L 79.890625 0 
L 79.890625 32.71875 
Q 79.890625 40.578125 77.09375 44.375 
Q 74.3125 48.1875 68.609375 48.1875 
Q 61.625 48.1875 57.5625 43.546875 
Q 53.515625 38.921875 53.515625 30.90625 
L 53.515625 0 
L 44.484375 0 
L 44.484375 32.71875 
Q 44.484375 40.625 41.703125 44.40625 
Q 38.921875 48.1875 33.109375 48.1875 
Q 26.21875 48.1875 22.15625 43.53125 
Q 18.109375 38.875 18.109375 30.90625 
L 18.109375 0 
L 9.078125 0 
L 9.078125 54.6875 
L 18.109375 54.6875 
L 18.109375 46.1875 
Q 21.1875 51.21875 25.484375 53.609375 
Q 29.78125 56 35.6875 56 
Q 41.65625 56 45.828125 52.96875 
Q 50 49.953125 52 44.1875 
z
" id="DejaVuSans-109"/>
       <path d="M 56.203125 29.59375 
L 56.203125 25.203125 
L 14.890625 25.203125 
Q 15.484375 15.921875 20.484375 11.0625 
Q 25.484375 6.203125 34.421875 6.203125 
Q 39.59375 6.203125 44.453125 7.46875 
Q 49.3125 8.734375 54.109375 11.28125 
L 54.109375 2.78125 
Q 49.265625 0.734375 44.1875 -0.34375 
Q 39.109375 -1.421875 33.890625 -1.421875 
Q 20.796875 -1.421875 13.15625 6.1875 
Q 5.515625 13.8125 5.515625 26.8125 
Q 5.515625 40.234375 12.765625 48.109375 
Q 20.015625 56 32.328125 56 
Q 43.359375 56 49.78125 48.890625 
Q 56.203125 41.796875 56.203125 29.59375 
z
M 47.21875 32.234375 
Q 47.125 39.59375 43.09375 43.984375 
Q 39.0625 48.390625 32.421875 48.390625 
Q 24.90625 48.390625 20.390625 44.140625 
Q 15.875 39.890625 15.1875 32.171875 
z
" id="DejaVuSans-101"/>
       <path d="M 50.984375 -16.609375 
L 50.984375 -23.578125 
L -0.984375 -23.578125 
L -0.984375 -16.609375 
z
" id="DejaVuSans-95"/>
       <path d="M 44.28125 53.078125 
L 44.28125 44.578125 
Q 40.484375 46.53125 36.375 47.5 
Q 32.28125 48.484375 27.875 48.484375 
Q 21.1875 48.484375 17.84375 46.4375 
Q 14.5 44.390625 14.5 40.28125 
Q 14.5 37.15625 16.890625 35.375 
Q 19.28125 33.59375 26.515625 31.984375 
L 29.59375 31.296875 
Q 39.15625 29.25 43.1875 25.515625 
Q 47.21875 21.78125 47.21875 15.09375 
Q 47.21875 7.46875 41.1875 3.015625 
Q 35.15625 -1.421875 24.609375 -1.421875 
Q 20.21875 -1.421875 15.453125 -0.5625 
Q 10.6875 0.296875 5.421875 2 
L 5.421875 11.28125 
Q 10.40625 8.6875 15.234375 7.390625 
Q 20.0625 6.109375 24.8125 6.109375 
Q 31.15625 6.109375 34.5625 8.28125 
Q 37.984375 10.453125 37.984375 14.40625 
Q 37.984375 18.0625 35.515625 20.015625 
Q 33.0625 21.96875 24.703125 23.78125 
L 21.578125 24.515625 
Q 13.234375 26.265625 9.515625 29.90625 
Q 5.8125 33.546875 5.8125 39.890625 
Q 5.8125 47.609375 11.28125 51.796875 
Q 16.75 56 26.8125 56 
Q 31.78125 56 36.171875 55.265625 
Q 40.578125 54.546875 44.28125 53.078125 
z
" id="DejaVuSans-115"/>
      </defs>
      <use xlink:href="#DejaVuSans-116"/>
      <use x="39.208984" xlink:href="#DejaVuSans-105"/>
      <use x="66.992188" xlink:href="#DejaVuSans-109"/>
      <use x="164.404297" xlink:href="#DejaVuSans-101"/>
      <use x="225.927734" xlink:href="#DejaVuSans-95"/>
      <use x="275.927734" xlink:href="#DejaVuSans-109"/>
      <use x="373.339844" xlink:href="#DejaVuSans-115"/>
     </g>
    </g>
   </g>
   <g id="PathCollection_1">
    <defs>
     <path d="M 0 3.383948 
C 0.897434 3.383948 1.758231 3.027394 2.392813 2.392813 
C 3.027394 1.758231 3.383948 0.897434 3.383948 0 
C 3.383948 -0.897434 3.027394 -1.758231 2.392813 -2.392813 
C 1.758231 -3.027394 0.897434 -3.383948 0 -3.383948 
C -0.897434 -3.383948 -1.758231 -3.027394 -2.392813 -2.392813 
C -3.027394 -1.758231 -3.383948 -0.897434 -3.383948 0 
C -3.383948 0.897434 -3.027394 1.758231 -2.392813 2.392813 
C -1.758231 3.027394 -0.897434 3.383948 0 3.383948 
z
" id="m869cc2bd96" style="stroke:#1f77b4;stroke-width:2.025;"/>
    </defs>
    <g clip-path="url(#p36d65035bc)">
     <use style="fill:#1f77b4;stroke:#1f77b4;stroke-width:2.025;" x="100.730769" xlink:href="#m869cc2bd96" y="302.315704"/>
     <use style="fill:#1f77b4;stroke:#1f77b4;stroke-width:2.025;" x="122.192308" xlink:href="#m869cc2bd96" y="300.800804"/>
     <use style="fill:#1f77b4;stroke:#1f77b4;stroke-width:2.025;" x="143.653846" xlink:href="#m869cc2bd96" y="300.948352"/>
     <use style="fill:#1f77b4;stroke:#1f77b4;stroke-width:2.025;" x="165.115385" xlink:href="#m869cc2bd96" y="299.140716"/>
     <use style="fill:#1f77b4;stroke:#1f77b4;stroke-width:2.025;" x="186.576923" xlink:href="#m869cc2bd96" y="298.93265"/>
     <use style="fill:#1f77b4;stroke:#1f77b4;stroke-width:2.025;" x="208.038462" xlink:href="#m869cc2bd96" y="297.644648"/>
     <use style="fill:#1f77b4;stroke:#1f77b4;stroke-width:2.025;" x="229.5" xlink:href="#m869cc2bd96" y="296.354609"/>
     <use style="fill:#1f77b4;stroke:#1f77b4;stroke-width:2.025;" x="250.961538" xlink:href="#m869cc2bd96" y="293.862164"/>
     <use style="fill:#1f77b4;stroke:#1f77b4;stroke-width:2.025;" x="272.423077" xlink:href="#m869cc2bd96" y="296.450106"/>
     <use style="fill:#1f77b4;stroke:#1f77b4;stroke-width:2.025;" x="293.884615" xlink:href="#m869cc2bd96" y="290.083845"/>
     <use style="fill:#1f77b4;stroke:#1f77b4;stroke-width:2.025;" x="315.346154" xlink:href="#m869cc2bd96" y="289.138733"/>
     <use style="fill:#1f77b4;stroke:#1f77b4;stroke-width:2.025;" x="336.807692" xlink:href="#m869cc2bd96" y="280.505535"/>
     <use style="fill:#1f77b4;stroke:#1f77b4;stroke-width:2.025;" x="358.269231" xlink:href="#m869cc2bd96" y="281.105535"/>
     <use style="fill:#1f77b4;stroke:#1f77b4;stroke-width:2.025;" x="379.730769" xlink:href="#m869cc2bd96" y="275.586576"/>
     <use style="fill:#1f77b4;stroke:#1f77b4;stroke-width:2.025;" x="401.192308" xlink:href="#m869cc2bd96" y="279.382523"/>
     <use style="fill:#1f77b4;stroke:#1f77b4;stroke-width:2.025;" x="422.653846" xlink:href="#m869cc2bd96" y="273.748218"/>
     <use style="fill:#1f77b4;stroke:#1f77b4;stroke-width:2.025;" x="444.115385" xlink:href="#m869cc2bd96" y="269.467338"/>
     <use style="fill:#1f77b4;stroke:#1f77b4;stroke-width:2.025;" x="465.576923" xlink:href="#m869cc2bd96" y="266.126897"/>
     <use style="fill:#1f77b4;stroke:#1f77b4;stroke-width:2.025;" x="487.038462" xlink:href="#m869cc2bd96" y="265.988926"/>
     <use style="fill:#1f77b4;stroke:#1f77b4;stroke-width:2.025;" x="508.5" xlink:href="#m869cc2bd96" y="266.34181"/>
     <use style="fill:#1f77b4;stroke:#1f77b4;stroke-width:2.025;" x="529.961538" xlink:href="#m869cc2bd96" y="261.748299"/>
     <use style="fill:#1f77b4;stroke:#1f77b4;stroke-width:2.025;" x="551.423077" xlink:href="#m869cc2bd96" y="254.136092"/>
     <use style="fill:#1f77b4;stroke:#1f77b4;stroke-width:2.025;" x="572.884615" xlink:href="#m869cc2bd96" y="258.761205"/>
     <use style="fill:#1f77b4;stroke:#1f77b4;stroke-width:2.025;" x="594.346154" xlink:href="#m869cc2bd96" y="235.611583"/>
     <use style="fill:#1f77b4;stroke:#1f77b4;stroke-width:2.025;" x="615.807692" xlink:href="#m869cc2bd96" y="242.699206"/>
     <use style="fill:#1f77b4;stroke:#1f77b4;stroke-width:2.025;" x="637.269231" xlink:href="#m869cc2bd96" y="245.872158"/>
    </g>
   </g>
   <g id="line2d_9">
    <path clip-path="url(#p36d65035bc)" d="M 100.730769 302.645455 
L 100.730769 301.67286 
" style="fill:none;stroke:#1f77b4;stroke-linecap:round;stroke-width:2.7;"/>
   </g>
   <g id="line2d_10">
    <path clip-path="url(#p36d65035bc)" d="M 122.192308 301.32835 
L 122.192308 300.351035 
" style="fill:none;stroke:#1f77b4;stroke-linecap:round;stroke-width:2.7;"/>
   </g>
   <g id="line2d_11">
    <path clip-path="url(#p36d65035bc)" d="M 143.653846 301.526422 
L 143.653846 300.010967 
" style="fill:none;stroke:#1f77b4;stroke-linecap:round;stroke-width:2.7;"/>
   </g>
   <g id="line2d_12">
    <path clip-path="url(#p36d65035bc)" d="M 165.115385 299.803178 
L 165.115385 298.805182 
" style="fill:none;stroke:#1f77b4;stroke-linecap:round;stroke-width:2.7;"/>
   </g>
   <g id="line2d_13">
    <path clip-path="url(#p36d65035bc)" d="M 186.576923 300.331048 
L 186.576923 297.826897 
" style="fill:none;stroke:#1f77b4;stroke-linecap:round;stroke-width:2.7;"/>
   </g>
   <g id="line2d_14">
    <path clip-path="url(#p36d65035bc)" d="M 208.038462 299.901035 
L 208.038462 296.051324 
" style="fill:none;stroke:#1f77b4;stroke-linecap:round;stroke-width:2.7;"/>
   </g>
   <g id="line2d_15">
    <path clip-path="url(#p36d65035bc)" d="M 229.5 299.169402 
L 229.5 294.567378 
" style="fill:none;stroke:#1f77b4;stroke-linecap:round;stroke-width:2.7;"/>
   </g>
   <g id="line2d_16">
    <path clip-path="url(#p36d65035bc)" d="M 250.961538 296.703145 
L 250.961538 290.557904 
" style="fill:none;stroke:#1f77b4;stroke-linecap:round;stroke-width:2.7;"/>
   </g>
   <g id="line2d_17">
    <path clip-path="url(#p36d65035bc)" d="M 272.423077 296.747978 
L 272.423077 295.951108 
" style="fill:none;stroke:#1f77b4;stroke-linecap:round;stroke-width:2.7;"/>
   </g>
   <g id="line2d_18">
    <path clip-path="url(#p36d65035bc)" d="M 293.884615 294.160406 
L 293.884615 286.901269 
" style="fill:none;stroke:#1f77b4;stroke-linecap:round;stroke-width:2.7;"/>
   </g>
   <g id="line2d_19">
    <path clip-path="url(#p36d65035bc)" d="M 315.346154 294.789602 
L 315.346154 285.983918 
" style="fill:none;stroke:#1f77b4;stroke-linecap:round;stroke-width:2.7;"/>
   </g>
   <g id="line2d_20">
    <path clip-path="url(#p36d65035bc)" d="M 336.807692 286.869483 
L 336.807692 276.061283 
" style="fill:none;stroke:#1f77b4;stroke-linecap:round;stroke-width:2.7;"/>
   </g>
   <g id="line2d_21">
    <path clip-path="url(#p36d65035bc)" d="M 358.269231 284.788127 
L 358.269231 277.850875 
" style="fill:none;stroke:#1f77b4;stroke-linecap:round;stroke-width:2.7;"/>
   </g>
   <g id="line2d_22">
    <path clip-path="url(#p36d65035bc)" d="M 379.730769 283.812617 
L 379.730769 265.184514 
" style="fill:none;stroke:#1f77b4;stroke-linecap:round;stroke-width:2.7;"/>
   </g>
   <g id="line2d_23">
    <path clip-path="url(#p36d65035bc)" d="M 401.192308 284.844065 
L 401.192308 275.124777 
" style="fill:none;stroke:#1f77b4;stroke-linecap:round;stroke-width:2.7;"/>
   </g>
   <g id="line2d_24">
    <path clip-path="url(#p36d65035bc)" d="M 422.653846 278.003836 
L 422.653846 268.353117 
" style="fill:none;stroke:#1f77b4;stroke-linecap:round;stroke-width:2.7;"/>
   </g>
   <g id="line2d_25">
    <path clip-path="url(#p36d65035bc)" d="M 444.115385 275.940941 
L 444.115385 259.433337 
" style="fill:none;stroke:#1f77b4;stroke-linecap:round;stroke-width:2.7;"/>
   </g>
   <g id="line2d_26">
    <path clip-path="url(#p36d65035bc)" d="M 465.576923 273.643468 
L 465.576923 261.576044 
" style="fill:none;stroke:#1f77b4;stroke-linecap:round;stroke-width:2.7;"/>
   </g>
   <g id="line2d_27">
    <path clip-path="url(#p36d65035bc)" d="M 487.038462 271.765736 
L 487.038462 256.777335 
" style="fill:none;stroke:#1f77b4;stroke-linecap:round;stroke-width:2.7;"/>
   </g>
   <g id="line2d_28">
    <path clip-path="url(#p36d65035bc)" d="M 508.5 271.99615 
L 508.5 261.274702 
" style="fill:none;stroke:#1f77b4;stroke-linecap:round;stroke-width:2.7;"/>
   </g>
   <g id="line2d_29">
    <path clip-path="url(#p36d65035bc)" d="M 529.961538 270.80605 
L 529.961538 249.233928 
" style="fill:none;stroke:#1f77b4;stroke-linecap:round;stroke-width:2.7;"/>
   </g>
   <g id="line2d_30">
    <path clip-path="url(#p36d65035bc)" d="M 551.423077 264.037721 
L 551.423077 241.005666 
" style="fill:none;stroke:#1f77b4;stroke-linecap:round;stroke-width:2.7;"/>
   </g>
   <g id="line2d_31">
    <path clip-path="url(#p36d65035bc)" d="M 572.884615 266.695805 
L 572.884615 252.284965 
" style="fill:none;stroke:#1f77b4;stroke-linecap:round;stroke-width:2.7;"/>
   </g>
   <g id="line2d_32">
    <path clip-path="url(#p36d65035bc)" d="M 594.346154 255.02522 
L 594.346154 215.602711 
" style="fill:none;stroke:#1f77b4;stroke-linecap:round;stroke-width:2.7;"/>
   </g>
   <g id="line2d_33">
    <path clip-path="url(#p36d65035bc)" d="M 615.807692 253.681326 
L 615.807692 229.763706 
" style="fill:none;stroke:#1f77b4;stroke-linecap:round;stroke-width:2.7;"/>
   </g>
   <g id="line2d_34">
    <path clip-path="url(#p36d65035bc)" d="M 637.269231 252.537031 
L 637.269231 240.050144 
" style="fill:none;stroke:#1f77b4;stroke-linecap:round;stroke-width:2.7;"/>
   </g>
   <g id="PathCollection_2">
    <defs>
     <path d="M 0 3.383948 
C 0.897434 3.383948 1.758231 3.027394 2.392813 2.392813 
C 3.027394 1.758231 3.383948 0.897434 3.383948 0 
C 3.383948 -0.897434 3.027394 -1.758231 2.392813 -2.392813 
C 1.758231 -3.027394 0.897434 -3.383948 0 -3.383948 
C -0.897434 -3.383948 -1.758231 -3.027394 -2.392813 -2.392813 
C -3.027394 -1.758231 -3.383948 -0.897434 -3.383948 0 
C -3.383948 0.897434 -3.027394 1.758231 -2.392813 2.392813 
C -1.758231 3.027394 -0.897434 3.383948 0 3.383948 
z
" id="m9ad999c721" style="stroke:#ff7f0e;stroke-width:2.025;"/>
    </defs>
    <g clip-path="url(#p36d65035bc)">
     <use style="fill:#ff7f0e;stroke:#ff7f0e;stroke-width:2.025;" x="100.730769" xlink:href="#m9ad999c721" y="296.733635"/>
     <use style="fill:#ff7f0e;stroke:#ff7f0e;stroke-width:2.025;" x="122.192308" xlink:href="#m9ad999c721" y="296.122068"/>
     <use style="fill:#ff7f0e;stroke:#ff7f0e;stroke-width:2.025;" x="143.653846" xlink:href="#m9ad999c721" y="293.708277"/>
     <use style="fill:#ff7f0e;stroke:#ff7f0e;stroke-width:2.025;" x="165.115385" xlink:href="#m9ad999c721" y="291.186683"/>
     <use style="fill:#ff7f0e;stroke:#ff7f0e;stroke-width:2.025;" x="186.576923" xlink:href="#m9ad999c721" y="292.241126"/>
     <use style="fill:#ff7f0e;stroke:#ff7f0e;stroke-width:2.025;" x="208.038462" xlink:href="#m9ad999c721" y="291.063333"/>
     <use style="fill:#ff7f0e;stroke:#ff7f0e;stroke-width:2.025;" x="229.5" xlink:href="#m9ad999c721" y="286.806374"/>
     <use style="fill:#ff7f0e;stroke:#ff7f0e;stroke-width:2.025;" x="250.961538" xlink:href="#m9ad999c721" y="279.700244"/>
     <use style="fill:#ff7f0e;stroke:#ff7f0e;stroke-width:2.025;" x="272.423077" xlink:href="#m9ad999c721" y="281.284962"/>
     <use style="fill:#ff7f0e;stroke:#ff7f0e;stroke-width:2.025;" x="293.884615" xlink:href="#m9ad999c721" y="269.309611"/>
     <use style="fill:#ff7f0e;stroke:#ff7f0e;stroke-width:2.025;" x="315.346154" xlink:href="#m9ad999c721" y="263.787135"/>
     <use style="fill:#ff7f0e;stroke:#ff7f0e;stroke-width:2.025;" x="336.807692" xlink:href="#m9ad999c721" y="267.561753"/>
     <use style="fill:#ff7f0e;stroke:#ff7f0e;stroke-width:2.025;" x="358.269231" xlink:href="#m9ad999c721" y="257.69191"/>
     <use style="fill:#ff7f0e;stroke:#ff7f0e;stroke-width:2.025;" x="379.730769" xlink:href="#m9ad999c721" y="240.337837"/>
     <use style="fill:#ff7f0e;stroke:#ff7f0e;stroke-width:2.025;" x="401.192308" xlink:href="#m9ad999c721" y="242.190492"/>
     <use style="fill:#ff7f0e;stroke:#ff7f0e;stroke-width:2.025;" x="422.653846" xlink:href="#m9ad999c721" y="233.18544"/>
     <use style="fill:#ff7f0e;stroke:#ff7f0e;stroke-width:2.025;" x="444.115385" xlink:href="#m9ad999c721" y="212.093994"/>
     <use style="fill:#ff7f0e;stroke:#ff7f0e;stroke-width:2.025;" x="465.576923" xlink:href="#m9ad999c721" y="220.451713"/>
     <use style="fill:#ff7f0e;stroke:#ff7f0e;stroke-width:2.025;" x="487.038462" xlink:href="#m9ad999c721" y="204.569696"/>
     <use style="fill:#ff7f0e;stroke:#ff7f0e;stroke-width:2.025;" x="508.5" xlink:href="#m9ad999c721" y="213.320553"/>
     <use style="fill:#ff7f0e;stroke:#ff7f0e;stroke-width:2.025;" x="529.961538" xlink:href="#m9ad999c721" y="194.185911"/>
     <use style="fill:#ff7f0e;stroke:#ff7f0e;stroke-width:2.025;" x="551.423077" xlink:href="#m9ad999c721" y="184.219969"/>
     <use style="fill:#ff7f0e;stroke:#ff7f0e;stroke-width:2.025;" x="572.884615" xlink:href="#m9ad999c721" y="154.342457"/>
     <use style="fill:#ff7f0e;stroke:#ff7f0e;stroke-width:2.025;" x="594.346154" xlink:href="#m9ad999c721" y="207.056543"/>
     <use style="fill:#ff7f0e;stroke:#ff7f0e;stroke-width:2.025;" x="615.807692" xlink:href="#m9ad999c721" y="197.619304"/>
     <use style="fill:#ff7f0e;stroke:#ff7f0e;stroke-width:2.025;" x="637.269231" xlink:href="#m9ad999c721" y="188.164483"/>
    </g>
   </g>
   <g id="line2d_35">
    <path clip-path="url(#p36d65035bc)" d="M 100.730769 299.353594 
L 100.730769 294.43371 
" style="fill:none;stroke:#ff7f0e;stroke-linecap:round;stroke-width:2.7;"/>
   </g>
   <g id="line2d_36">
    <path clip-path="url(#p36d65035bc)" d="M 122.192308 298.600586 
L 122.192308 294.743797 
" style="fill:none;stroke:#ff7f0e;stroke-linecap:round;stroke-width:2.7;"/>
   </g>
   <g id="line2d_37">
    <path clip-path="url(#p36d65035bc)" d="M 143.653846 294.164709 
L 143.653846 293.446402 
" style="fill:none;stroke:#ff7f0e;stroke-linecap:round;stroke-width:2.7;"/>
   </g>
   <g id="line2d_38">
    <path clip-path="url(#p36d65035bc)" d="M 165.115385 292.115417 
L 165.115385 289.519933 
" style="fill:none;stroke:#ff7f0e;stroke-linecap:round;stroke-width:2.7;"/>
   </g>
   <g id="line2d_39">
    <path clip-path="url(#p36d65035bc)" d="M 186.576923 295.280133 
L 186.576923 289.509106 
" style="fill:none;stroke:#ff7f0e;stroke-linecap:round;stroke-width:2.7;"/>
   </g>
   <g id="line2d_40">
    <path clip-path="url(#p36d65035bc)" d="M 208.038462 293.795076 
L 208.038462 286.764131 
" style="fill:none;stroke:#ff7f0e;stroke-linecap:round;stroke-width:2.7;"/>
   </g>
   <g id="line2d_41">
    <path clip-path="url(#p36d65035bc)" d="M 229.5 291.815463 
L 229.5 281.298611 
" style="fill:none;stroke:#ff7f0e;stroke-linecap:round;stroke-width:2.7;"/>
   </g>
   <g id="line2d_42">
    <path clip-path="url(#p36d65035bc)" d="M 250.961538 280.169584 
L 250.961538 279.076092 
" style="fill:none;stroke:#ff7f0e;stroke-linecap:round;stroke-width:2.7;"/>
   </g>
   <g id="line2d_43">
    <path clip-path="url(#p36d65035bc)" d="M 272.423077 285.840673 
L 272.423077 276.33653 
" style="fill:none;stroke:#ff7f0e;stroke-linecap:round;stroke-width:2.7;"/>
   </g>
   <g id="line2d_44">
    <path clip-path="url(#p36d65035bc)" d="M 293.884615 278.98351 
L 293.884615 258.370242 
" style="fill:none;stroke:#ff7f0e;stroke-linecap:round;stroke-width:2.7;"/>
   </g>
   <g id="line2d_45">
    <path clip-path="url(#p36d65035bc)" d="M 315.346154 276.129991 
L 315.346154 256.392572 
" style="fill:none;stroke:#ff7f0e;stroke-linecap:round;stroke-width:2.7;"/>
   </g>
   <g id="line2d_46">
    <path clip-path="url(#p36d65035bc)" d="M 336.807692 271.743805 
L 336.807692 260.788474 
" style="fill:none;stroke:#ff7f0e;stroke-linecap:round;stroke-width:2.7;"/>
   </g>
   <g id="line2d_47">
    <path clip-path="url(#p36d65035bc)" d="M 358.269231 261.694027 
L 358.269231 254.951377 
" style="fill:none;stroke:#ff7f0e;stroke-linecap:round;stroke-width:2.7;"/>
   </g>
   <g id="line2d_48">
    <path clip-path="url(#p36d65035bc)" d="M 379.730769 250.940515 
L 379.730769 229.864477 
" style="fill:none;stroke:#ff7f0e;stroke-linecap:round;stroke-width:2.7;"/>
   </g>
   <g id="line2d_49">
    <path clip-path="url(#p36d65035bc)" d="M 401.192308 256.835493 
L 401.192308 234.52702 
" style="fill:none;stroke:#ff7f0e;stroke-linecap:round;stroke-width:2.7;"/>
   </g>
   <g id="line2d_50">
    <path clip-path="url(#p36d65035bc)" d="M 422.653846 252.045668 
L 422.653846 202.524244 
" style="fill:none;stroke:#ff7f0e;stroke-linecap:round;stroke-width:2.7;"/>
   </g>
   <g id="line2d_51">
    <path clip-path="url(#p36d65035bc)" d="M 444.115385 225.315336 
L 444.115385 204.619619 
" style="fill:none;stroke:#ff7f0e;stroke-linecap:round;stroke-width:2.7;"/>
   </g>
   <g id="line2d_52">
    <path clip-path="url(#p36d65035bc)" d="M 465.576923 228.217714 
L 465.576923 216.188184 
" style="fill:none;stroke:#ff7f0e;stroke-linecap:round;stroke-width:2.7;"/>
   </g>
   <g id="line2d_53">
    <path clip-path="url(#p36d65035bc)" d="M 487.038462 219.543199 
L 487.038462 175.670794 
" style="fill:none;stroke:#ff7f0e;stroke-linecap:round;stroke-width:2.7;"/>
   </g>
   <g id="line2d_54">
    <path clip-path="url(#p36d65035bc)" d="M 508.5 228.640787 
L 508.5 205.596239 
" style="fill:none;stroke:#ff7f0e;stroke-linecap:round;stroke-width:2.7;"/>
   </g>
   <g id="line2d_55">
    <path clip-path="url(#p36d65035bc)" d="M 529.961538 207.371395 
L 529.961538 178.108458 
" style="fill:none;stroke:#ff7f0e;stroke-linecap:round;stroke-width:2.7;"/>
   </g>
   <g id="line2d_56">
    <path clip-path="url(#p36d65035bc)" d="M 551.423077 195.418009 
L 551.423077 169.023086 
" style="fill:none;stroke:#ff7f0e;stroke-linecap:round;stroke-width:2.7;"/>
   </g>
   <g id="line2d_57">
    <path clip-path="url(#p36d65035bc)" d="M 572.884615 174.380478 
L 572.884615 144.17354 
" style="fill:none;stroke:#ff7f0e;stroke-linecap:round;stroke-width:2.7;"/>
   </g>
   <g id="line2d_58">
    <path clip-path="url(#p36d65035bc)" d="M 594.346154 210.041278 
L 594.346154 203.487261 
" style="fill:none;stroke:#ff7f0e;stroke-linecap:round;stroke-width:2.7;"/>
   </g>
   <g id="line2d_59">
    <path clip-path="url(#p36d65035bc)" d="M 615.807692 204.314113 
L 615.807692 186.995342 
" style="fill:none;stroke:#ff7f0e;stroke-linecap:round;stroke-width:2.7;"/>
   </g>
   <g id="line2d_60">
    <path clip-path="url(#p36d65035bc)" d="M 637.269231 189.060088 
L 637.269231 186.390715 
" style="fill:none;stroke:#ff7f0e;stroke-linecap:round;stroke-width:2.7;"/>
   </g>
   <g id="patch_3">
    <path d="M 90 315 
L 90 43.2 
" style="fill:none;stroke:#cccccc;stroke-linecap:square;stroke-linejoin:miter;stroke-width:0.8;"/>
   </g>
   <g id="patch_4">
    <path d="M 648 315 
L 648 43.2 
" style="fill:none;stroke:#cccccc;stroke-linecap:square;stroke-linejoin:miter;stroke-width:0.8;"/>
   </g>
   <g id="patch_5">
    <path d="M 90 315 
L 648 315 
" style="fill:none;stroke:#cccccc;stroke-linecap:square;stroke-linejoin:miter;stroke-width:0.8;"/>
   </g>
   <g id="patch_6">
    <path d="M 90 43.2 
L 648 43.2 
" style="fill:none;stroke:#cccccc;stroke-linecap:square;stroke-linejoin:miter;stroke-width:0.8;"/>
   </g>
   <g id="PathCollection_3">
    <defs>
     <path d="M 0 3.383948 
C 0.897434 3.383948 1.758231 3.027394 2.392813 2.392813 
C 3.027394 1.758231 3.383948 0.897434 3.383948 0 
C 3.383948 -0.897434 3.027394 -1.758231 2.392813 -2.392813 
C 1.758231 -3.027394 0.897434 -3.383948 0 -3.383948 
C -0.897434 -3.383948 -1.758231 -3.027394 -2.392813 -2.392813 
C -3.027394 -1.758231 -3.383948 -0.897434 -3.383948 0 
C -3.383948 0.897434 -3.027394 1.758231 -2.392813 2.392813 
C -1.758231 3.027394 -0.897434 3.383948 0 3.383948 
z
" id="mff1db12e25" style="stroke:#2ca02c;stroke-width:2.025;"/>
    </defs>
    <g clip-path="url(#p36d65035bc)">
     <use style="fill:#2ca02c;stroke:#2ca02c;stroke-width:2.025;" x="100.730769" xlink:href="#mff1db12e25" y="293.198083"/>
     <use style="fill:#2ca02c;stroke:#2ca02c;stroke-width:2.025;" x="122.192308" xlink:href="#mff1db12e25" y="290.448759"/>
     <use style="fill:#2ca02c;stroke:#2ca02c;stroke-width:2.025;" x="143.653846" xlink:href="#mff1db12e25" y="287.263361"/>
     <use style="fill:#2ca02c;stroke:#2ca02c;stroke-width:2.025;" x="165.115385" xlink:href="#mff1db12e25" y="287.12428"/>
     <use style="fill:#2ca02c;stroke:#2ca02c;stroke-width:2.025;" x="186.576923" xlink:href="#mff1db12e25" y="285.503057"/>
     <use style="fill:#2ca02c;stroke:#2ca02c;stroke-width:2.025;" x="208.038462" xlink:href="#mff1db12e25" y="286.655078"/>
     <use style="fill:#2ca02c;stroke:#2ca02c;stroke-width:2.025;" x="229.5" xlink:href="#mff1db12e25" y="281.487661"/>
     <use style="fill:#2ca02c;stroke:#2ca02c;stroke-width:2.025;" x="250.961538" xlink:href="#mff1db12e25" y="276.234972"/>
     <use style="fill:#2ca02c;stroke:#2ca02c;stroke-width:2.025;" x="272.423077" xlink:href="#mff1db12e25" y="272.27792"/>
     <use style="fill:#2ca02c;stroke:#2ca02c;stroke-width:2.025;" x="293.884615" xlink:href="#mff1db12e25" y="256.38193"/>
     <use style="fill:#2ca02c;stroke:#2ca02c;stroke-width:2.025;" x="315.346154" xlink:href="#mff1db12e25" y="251.626158"/>
     <use style="fill:#2ca02c;stroke:#2ca02c;stroke-width:2.025;" x="336.807692" xlink:href="#mff1db12e25" y="236.781742"/>
     <use style="fill:#2ca02c;stroke:#2ca02c;stroke-width:2.025;" x="358.269231" xlink:href="#mff1db12e25" y="239.55147"/>
     <use style="fill:#2ca02c;stroke:#2ca02c;stroke-width:2.025;" x="379.730769" xlink:href="#mff1db12e25" y="217.806955"/>
     <use style="fill:#2ca02c;stroke:#2ca02c;stroke-width:2.025;" x="401.192308" xlink:href="#mff1db12e25" y="188.714792"/>
     <use style="fill:#2ca02c;stroke:#2ca02c;stroke-width:2.025;" x="422.653846" xlink:href="#mff1db12e25" y="190.72943"/>
     <use style="fill:#2ca02c;stroke:#2ca02c;stroke-width:2.025;" x="444.115385" xlink:href="#mff1db12e25" y="174.742153"/>
     <use style="fill:#2ca02c;stroke:#2ca02c;stroke-width:2.025;" x="465.576923" xlink:href="#mff1db12e25" y="164.597433"/>
     <use style="fill:#2ca02c;stroke:#2ca02c;stroke-width:2.025;" x="487.038462" xlink:href="#mff1db12e25" y="145.165521"/>
     <use style="fill:#2ca02c;stroke:#2ca02c;stroke-width:2.025;" x="508.5" xlink:href="#mff1db12e25" y="163.115153"/>
     <use style="fill:#2ca02c;stroke:#2ca02c;stroke-width:2.025;" x="529.961538" xlink:href="#mff1db12e25" y="142.758763"/>
     <use style="fill:#2ca02c;stroke:#2ca02c;stroke-width:2.025;" x="551.423077" xlink:href="#mff1db12e25" y="152.936241"/>
     <use style="fill:#2ca02c;stroke:#2ca02c;stroke-width:2.025;" x="572.884615" xlink:href="#mff1db12e25" y="161.909553"/>
     <use style="fill:#2ca02c;stroke:#2ca02c;stroke-width:2.025;" x="594.346154" xlink:href="#mff1db12e25" y="155.067289"/>
     <use style="fill:#2ca02c;stroke:#2ca02c;stroke-width:2.025;" x="615.807692" xlink:href="#mff1db12e25" y="142.609689"/>
     <use style="fill:#2ca02c;stroke:#2ca02c;stroke-width:2.025;" x="637.269231" xlink:href="#mff1db12e25" y="114.128631"/>
    </g>
   </g>
   <g id="line2d_61">
    <path clip-path="url(#p36d65035bc)" d="M 100.730769 294.705209 
L 100.730769 292.057397 
" style="fill:none;stroke:#2ca02c;stroke-linecap:round;stroke-width:2.7;"/>
   </g>
   <g id="line2d_62">
    <path clip-path="url(#p36d65035bc)" d="M 122.192308 293.893349 
L 122.192308 287.558919 
" style="fill:none;stroke:#2ca02c;stroke-linecap:round;stroke-width:2.7;"/>
   </g>
   <g id="line2d_63">
    <path clip-path="url(#p36d65035bc)" d="M 143.653846 288.954032 
L 143.653846 286.205309 
" style="fill:none;stroke:#2ca02c;stroke-linecap:round;stroke-width:2.7;"/>
   </g>
   <g id="line2d_64">
    <path clip-path="url(#p36d65035bc)" d="M 165.115385 290.956131 
L 165.115385 284.547581 
" style="fill:none;stroke:#2ca02c;stroke-linecap:round;stroke-width:2.7;"/>
   </g>
   <g id="line2d_65">
    <path clip-path="url(#p36d65035bc)" d="M 186.576923 290.472679 
L 186.576923 281.921144 
" style="fill:none;stroke:#2ca02c;stroke-linecap:round;stroke-width:2.7;"/>
   </g>
   <g id="line2d_66">
    <path clip-path="url(#p36d65035bc)" d="M 208.038462 288.474605 
L 208.038462 285.577224 
" style="fill:none;stroke:#2ca02c;stroke-linecap:round;stroke-width:2.7;"/>
   </g>
   <g id="line2d_67">
    <path clip-path="url(#p36d65035bc)" d="M 229.5 285.9674 
L 229.5 278.42552 
" style="fill:none;stroke:#2ca02c;stroke-linecap:round;stroke-width:2.7;"/>
   </g>
   <g id="line2d_68">
    <path clip-path="url(#p36d65035bc)" d="M 250.961538 280.667056 
L 250.961538 271.564888 
" style="fill:none;stroke:#2ca02c;stroke-linecap:round;stroke-width:2.7;"/>
   </g>
   <g id="line2d_69">
    <path clip-path="url(#p36d65035bc)" d="M 272.423077 277.468471 
L 272.423077 262.388738 
" style="fill:none;stroke:#2ca02c;stroke-linecap:round;stroke-width:2.7;"/>
   </g>
   <g id="line2d_70">
    <path clip-path="url(#p36d65035bc)" d="M 293.884615 259.604065 
L 293.884615 253.032837 
" style="fill:none;stroke:#2ca02c;stroke-linecap:round;stroke-width:2.7;"/>
   </g>
   <g id="line2d_71">
    <path clip-path="url(#p36d65035bc)" d="M 315.346154 264.754918 
L 315.346154 242.181192 
" style="fill:none;stroke:#2ca02c;stroke-linecap:round;stroke-width:2.7;"/>
   </g>
   <g id="line2d_72">
    <path clip-path="url(#p36d65035bc)" d="M 336.807692 245.301213 
L 336.807692 219.932404 
" style="fill:none;stroke:#2ca02c;stroke-linecap:round;stroke-width:2.7;"/>
   </g>
   <g id="line2d_73">
    <path clip-path="url(#p36d65035bc)" d="M 358.269231 241.531314 
L 358.269231 236.970792 
" style="fill:none;stroke:#2ca02c;stroke-linecap:round;stroke-width:2.7;"/>
   </g>
   <g id="line2d_74">
    <path clip-path="url(#p36d65035bc)" d="M 379.730769 234.229009 
L 379.730769 205.390117 
" style="fill:none;stroke:#2ca02c;stroke-linecap:round;stroke-width:2.7;"/>
   </g>
   <g id="line2d_75">
    <path clip-path="url(#p36d65035bc)" d="M 401.192308 198.09378 
L 401.192308 183.494028 
" style="fill:none;stroke:#2ca02c;stroke-linecap:round;stroke-width:2.7;"/>
   </g>
   <g id="line2d_76">
    <path clip-path="url(#p36d65035bc)" d="M 422.653846 202.411952 
L 422.653846 181.409063 
" style="fill:none;stroke:#2ca02c;stroke-linecap:round;stroke-width:2.7;"/>
   </g>
   <g id="line2d_77">
    <path clip-path="url(#p36d65035bc)" d="M 444.115385 204.147549 
L 444.115385 157.57639 
" style="fill:none;stroke:#2ca02c;stroke-linecap:round;stroke-width:2.7;"/>
   </g>
   <g id="line2d_78">
    <path clip-path="url(#p36d65035bc)" d="M 465.576923 201.447685 
L 465.576923 135.091637 
" style="fill:none;stroke:#2ca02c;stroke-linecap:round;stroke-width:2.7;"/>
   </g>
   <g id="line2d_79">
    <path clip-path="url(#p36d65035bc)" d="M 487.038462 158.002517 
L 487.038462 136.011903 
" style="fill:none;stroke:#2ca02c;stroke-linecap:round;stroke-width:2.7;"/>
   </g>
   <g id="line2d_80">
    <path clip-path="url(#p36d65035bc)" d="M 508.5 185.553731 
L 508.5 142.174771 
" style="fill:none;stroke:#2ca02c;stroke-linecap:round;stroke-width:2.7;"/>
   </g>
   <g id="line2d_81">
    <path clip-path="url(#p36d65035bc)" d="M 529.961538 172.93387 
L 529.961538 106.514805 
" style="fill:none;stroke:#2ca02c;stroke-linecap:round;stroke-width:2.7;"/>
   </g>
   <g id="line2d_82">
    <path clip-path="url(#p36d65035bc)" d="M 551.423077 173.699925 
L 551.423077 120.693566 
" style="fill:none;stroke:#2ca02c;stroke-linecap:round;stroke-width:2.7;"/>
   </g>
   <g id="line2d_83">
    <path clip-path="url(#p36d65035bc)" d="M 572.884615 174.626854 
L 572.884615 142.817431 
" style="fill:none;stroke:#2ca02c;stroke-linecap:round;stroke-width:2.7;"/>
   </g>
   <g id="line2d_84">
    <path clip-path="url(#p36d65035bc)" d="M 594.346154 159.436355 
L 594.346154 148.94421 
" style="fill:none;stroke:#2ca02c;stroke-linecap:round;stroke-width:2.7;"/>
   </g>
   <g id="line2d_85">
    <path clip-path="url(#p36d65035bc)" d="M 615.807692 158.470284 
L 615.807692 131.192651 
" style="fill:none;stroke:#2ca02c;stroke-linecap:round;stroke-width:2.7;"/>
   </g>
   <g id="line2d_86">
    <path clip-path="url(#p36d65035bc)" d="M 637.269231 145.558797 
L 637.269231 73.59898 
" style="fill:none;stroke:#2ca02c;stroke-linecap:round;stroke-width:2.7;"/>
   </g>
   <g id="text_37">
    <!-- Tiempo por M para cache y DP -->
    <g style="fill:#262626;" transform="translate(277.086563 37.2)scale(0.12 -0.12)">
     <defs>
      <path d="M -0.296875 72.90625 
L 61.375 72.90625 
L 61.375 64.59375 
L 35.5 64.59375 
L 35.5 0 
L 25.59375 0 
L 25.59375 64.59375 
L -0.296875 64.59375 
z
" id="DejaVuSans-84"/>
      <path d="M 18.109375 8.203125 
L 18.109375 -20.796875 
L 9.078125 -20.796875 
L 9.078125 54.6875 
L 18.109375 54.6875 
L 18.109375 46.390625 
Q 20.953125 51.265625 25.265625 53.625 
Q 29.59375 56 35.59375 56 
Q 45.5625 56 51.78125 48.09375 
Q 58.015625 40.1875 58.015625 27.296875 
Q 58.015625 14.40625 51.78125 6.484375 
Q 45.5625 -1.421875 35.59375 -1.421875 
Q 29.59375 -1.421875 25.265625 0.953125 
Q 20.953125 3.328125 18.109375 8.203125 
z
M 48.6875 27.296875 
Q 48.6875 37.203125 44.609375 42.84375 
Q 40.53125 48.484375 33.40625 48.484375 
Q 26.265625 48.484375 22.1875 42.84375 
Q 18.109375 37.203125 18.109375 27.296875 
Q 18.109375 17.390625 22.1875 11.75 
Q 26.265625 6.109375 33.40625 6.109375 
Q 40.53125 6.109375 44.609375 11.75 
Q 48.6875 17.390625 48.6875 27.296875 
z
" id="DejaVuSans-112"/>
      <path d="M 30.609375 48.390625 
Q 23.390625 48.390625 19.1875 42.75 
Q 14.984375 37.109375 14.984375 27.296875 
Q 14.984375 17.484375 19.15625 11.84375 
Q 23.34375 6.203125 30.609375 6.203125 
Q 37.796875 6.203125 41.984375 11.859375 
Q 46.1875 17.53125 46.1875 27.296875 
Q 46.1875 37.015625 41.984375 42.703125 
Q 37.796875 48.390625 30.609375 48.390625 
z
M 30.609375 56 
Q 42.328125 56 49.015625 48.375 
Q 55.71875 40.765625 55.71875 27.296875 
Q 55.71875 13.875 49.015625 6.21875 
Q 42.328125 -1.421875 30.609375 -1.421875 
Q 18.84375 -1.421875 12.171875 6.21875 
Q 5.515625 13.875 5.515625 27.296875 
Q 5.515625 40.765625 12.171875 48.375 
Q 18.84375 56 30.609375 56 
z
" id="DejaVuSans-111"/>
      <path id="DejaVuSans-32"/>
      <path d="M 41.109375 46.296875 
Q 39.59375 47.171875 37.8125 47.578125 
Q 36.03125 48 33.890625 48 
Q 26.265625 48 22.1875 43.046875 
Q 18.109375 38.09375 18.109375 28.8125 
L 18.109375 0 
L 9.078125 0 
L 9.078125 54.6875 
L 18.109375 54.6875 
L 18.109375 46.1875 
Q 20.953125 51.171875 25.484375 53.578125 
Q 30.03125 56 36.53125 56 
Q 37.453125 56 38.578125 55.875 
Q 39.703125 55.765625 41.0625 55.515625 
z
" id="DejaVuSans-114"/>
      <path d="M 9.8125 72.90625 
L 24.515625 72.90625 
L 43.109375 23.296875 
L 61.8125 72.90625 
L 76.515625 72.90625 
L 76.515625 0 
L 66.890625 0 
L 66.890625 64.015625 
L 48.09375 14.015625 
L 38.1875 14.015625 
L 19.390625 64.015625 
L 19.390625 0 
L 9.8125 0 
z
" id="DejaVuSans-77"/>
      <path d="M 34.28125 27.484375 
Q 23.390625 27.484375 19.1875 25 
Q 14.984375 22.515625 14.984375 16.5 
Q 14.984375 11.71875 18.140625 8.90625 
Q 21.296875 6.109375 26.703125 6.109375 
Q 34.1875 6.109375 38.703125 11.40625 
Q 43.21875 16.703125 43.21875 25.484375 
L 43.21875 27.484375 
z
M 52.203125 31.203125 
L 52.203125 0 
L 43.21875 0 
L 43.21875 8.296875 
Q 40.140625 3.328125 35.546875 0.953125 
Q 30.953125 -1.421875 24.3125 -1.421875 
Q 15.921875 -1.421875 10.953125 3.296875 
Q 6 8.015625 6 15.921875 
Q 6 25.140625 12.171875 29.828125 
Q 18.359375 34.515625 30.609375 34.515625 
L 43.21875 34.515625 
L 43.21875 35.40625 
Q 43.21875 41.609375 39.140625 45 
Q 35.0625 48.390625 27.6875 48.390625 
Q 23 48.390625 18.546875 47.265625 
Q 14.109375 46.140625 10.015625 43.890625 
L 10.015625 52.203125 
Q 14.9375 54.109375 19.578125 55.046875 
Q 24.21875 56 28.609375 56 
Q 40.484375 56 46.34375 49.84375 
Q 52.203125 43.703125 52.203125 31.203125 
z
" id="DejaVuSans-97"/>
      <path d="M 48.78125 52.59375 
L 48.78125 44.1875 
Q 44.96875 46.296875 41.140625 47.34375 
Q 37.3125 48.390625 33.40625 48.390625 
Q 24.65625 48.390625 19.8125 42.84375 
Q 14.984375 37.3125 14.984375 27.296875 
Q 14.984375 17.28125 19.8125 11.734375 
Q 24.65625 6.203125 33.40625 6.203125 
Q 37.3125 6.203125 41.140625 7.25 
Q 44.96875 8.296875 48.78125 10.40625 
L 48.78125 2.09375 
Q 45.015625 0.34375 40.984375 -0.53125 
Q 36.96875 -1.421875 32.421875 -1.421875 
Q 20.0625 -1.421875 12.78125 6.34375 
Q 5.515625 14.109375 5.515625 27.296875 
Q 5.515625 40.671875 12.859375 48.328125 
Q 20.21875 56 33.015625 56 
Q 37.15625 56 41.109375 55.140625 
Q 45.0625 54.296875 48.78125 52.59375 
z
" id="DejaVuSans-99"/>
      <path d="M 54.890625 33.015625 
L 54.890625 0 
L 45.90625 0 
L 45.90625 32.71875 
Q 45.90625 40.484375 42.875 44.328125 
Q 39.84375 48.1875 33.796875 48.1875 
Q 26.515625 48.1875 22.3125 43.546875 
Q 18.109375 38.921875 18.109375 30.90625 
L 18.109375 0 
L 9.078125 0 
L 9.078125 75.984375 
L 18.109375 75.984375 
L 18.109375 46.1875 
Q 21.34375 51.125 25.703125 53.5625 
Q 30.078125 56 35.796875 56 
Q 45.21875 56 50.046875 50.171875 
Q 54.890625 44.34375 54.890625 33.015625 
z
" id="DejaVuSans-104"/>
      <path d="M 32.171875 -5.078125 
Q 28.375 -14.84375 24.75 -17.8125 
Q 21.140625 -20.796875 15.09375 -20.796875 
L 7.90625 -20.796875 
L 7.90625 -13.28125 
L 13.1875 -13.28125 
Q 16.890625 -13.28125 18.9375 -11.515625 
Q 21 -9.765625 23.484375 -3.21875 
L 25.09375 0.875 
L 2.984375 54.6875 
L 12.5 54.6875 
L 29.59375 11.921875 
L 46.6875 54.6875 
L 56.203125 54.6875 
z
" id="DejaVuSans-121"/>
      <path d="M 19.671875 64.796875 
L 19.671875 8.109375 
L 31.59375 8.109375 
Q 46.6875 8.109375 53.6875 14.9375 
Q 60.6875 21.78125 60.6875 36.53125 
Q 60.6875 51.171875 53.6875 57.984375 
Q 46.6875 64.796875 31.59375 64.796875 
z
M 9.8125 72.90625 
L 30.078125 72.90625 
Q 51.265625 72.90625 61.171875 64.09375 
Q 71.09375 55.28125 71.09375 36.53125 
Q 71.09375 17.671875 61.125 8.828125 
Q 51.171875 0 30.078125 0 
L 9.8125 0 
z
" id="DejaVuSans-68"/>
      <path d="M 19.671875 64.796875 
L 19.671875 37.40625 
L 32.078125 37.40625 
Q 38.96875 37.40625 42.71875 40.96875 
Q 46.484375 44.53125 46.484375 51.125 
Q 46.484375 57.671875 42.71875 61.234375 
Q 38.96875 64.796875 32.078125 64.796875 
z
M 9.8125 72.90625 
L 32.078125 72.90625 
Q 44.34375 72.90625 50.609375 67.359375 
Q 56.890625 61.8125 56.890625 51.125 
Q 56.890625 40.328125 50.609375 34.8125 
Q 44.34375 29.296875 32.078125 29.296875 
L 19.671875 29.296875 
L 19.671875 0 
L 9.8125 0 
z
" id="DejaVuSans-80"/>
     </defs>
     <use xlink:href="#DejaVuSans-84"/>
     <use x="57.958984" xlink:href="#DejaVuSans-105"/>
     <use x="85.742188" xlink:href="#DejaVuSans-101"/>
     <use x="147.265625" xlink:href="#DejaVuSans-109"/>
     <use x="244.677734" xlink:href="#DejaVuSans-112"/>
     <use x="308.154297" xlink:href="#DejaVuSans-111"/>
     <use x="369.335938" xlink:href="#DejaVuSans-32"/>
     <use x="401.123047" xlink:href="#DejaVuSans-112"/>
     <use x="464.599609" xlink:href="#DejaVuSans-111"/>
     <use x="525.78125" xlink:href="#DejaVuSans-114"/>
     <use x="566.894531" xlink:href="#DejaVuSans-32"/>
     <use x="598.681641" xlink:href="#DejaVuSans-77"/>
     <use x="684.960938" xlink:href="#DejaVuSans-32"/>
     <use x="716.748047" xlink:href="#DejaVuSans-112"/>
     <use x="780.224609" xlink:href="#DejaVuSans-97"/>
     <use x="841.503906" xlink:href="#DejaVuSans-114"/>
     <use x="882.617188" xlink:href="#DejaVuSans-97"/>
     <use x="943.896484" xlink:href="#DejaVuSans-32"/>
     <use x="975.683594" xlink:href="#DejaVuSans-99"/>
     <use x="1030.664062" xlink:href="#DejaVuSans-97"/>
     <use x="1091.943359" xlink:href="#DejaVuSans-99"/>
     <use x="1146.923828" xlink:href="#DejaVuSans-104"/>
     <use x="1210.302734" xlink:href="#DejaVuSans-101"/>
     <use x="1271.826172" xlink:href="#DejaVuSans-32"/>
     <use x="1303.613281" xlink:href="#DejaVuSans-121"/>
     <use x="1362.792969" xlink:href="#DejaVuSans-32"/>
     <use x="1394.580078" xlink:href="#DejaVuSans-68"/>
     <use x="1471.582031" xlink:href="#DejaVuSans-80"/>
    </g>
   </g>
   <g id="PathCollection_4">
    <defs>
     <path d="M 0 3.383948 
C 0.897434 3.383948 1.758231 3.027394 2.392813 2.392813 
C 3.027394 1.758231 3.383948 0.897434 3.383948 0 
C 3.383948 -0.897434 3.027394 -1.758231 2.392813 -2.392813 
C 1.758231 -3.027394 0.897434 -3.383948 0 -3.383948 
C -0.897434 -3.383948 -1.758231 -3.027394 -2.392813 -2.392813 
C -3.027394 -1.758231 -3.383948 -0.897434 -3.383948 0 
C -3.383948 0.897434 -3.027394 1.758231 -2.392813 2.392813 
C -1.758231 3.027394 -0.897434 3.383948 0 3.383948 
z
" id="m1e31b2398a" style="stroke:#d62728;stroke-width:2.025;"/>
    </defs>
    <g clip-path="url(#p36d65035bc)">
     <use style="fill:#d62728;stroke:#d62728;stroke-width:2.025;" x="100.730769" xlink:href="#m1e31b2398a" y="290.94151"/>
     <use style="fill:#d62728;stroke:#d62728;stroke-width:2.025;" x="122.192308" xlink:href="#m1e31b2398a" y="281.987955"/>
     <use style="fill:#d62728;stroke:#d62728;stroke-width:2.025;" x="143.653846" xlink:href="#m1e31b2398a" y="281.310224"/>
     <use style="fill:#d62728;stroke:#d62728;stroke-width:2.025;" x="165.115385" xlink:href="#m1e31b2398a" y="278.876354"/>
     <use style="fill:#d62728;stroke:#d62728;stroke-width:2.025;" x="186.576923" xlink:href="#m1e31b2398a" y="278.372544"/>
     <use style="fill:#d62728;stroke:#d62728;stroke-width:2.025;" x="208.038462" xlink:href="#m1e31b2398a" y="274.090137"/>
     <use style="fill:#d62728;stroke:#d62728;stroke-width:2.025;" x="229.5" xlink:href="#m1e31b2398a" y="268.249524"/>
     <use style="fill:#d62728;stroke:#d62728;stroke-width:2.025;" x="250.961538" xlink:href="#m1e31b2398a" y="264.900106"/>
     <use style="fill:#d62728;stroke:#d62728;stroke-width:2.025;" x="272.423077" xlink:href="#m1e31b2398a" y="258.377321"/>
     <use style="fill:#d62728;stroke:#d62728;stroke-width:2.025;" x="293.884615" xlink:href="#m1e31b2398a" y="254.56171"/>
     <use style="fill:#d62728;stroke:#d62728;stroke-width:2.025;" x="315.346154" xlink:href="#m1e31b2398a" y="245.136407"/>
     <use style="fill:#d62728;stroke:#d62728;stroke-width:2.025;" x="336.807692" xlink:href="#m1e31b2398a" y="221.496856"/>
     <use style="fill:#d62728;stroke:#d62728;stroke-width:2.025;" x="358.269231" xlink:href="#m1e31b2398a" y="214.148885"/>
     <use style="fill:#d62728;stroke:#d62728;stroke-width:2.025;" x="379.730769" xlink:href="#m1e31b2398a" y="209.151271"/>
     <use style="fill:#d62728;stroke:#d62728;stroke-width:2.025;" x="401.192308" xlink:href="#m1e31b2398a" y="200.062752"/>
     <use style="fill:#d62728;stroke:#d62728;stroke-width:2.025;" x="422.653846" xlink:href="#m1e31b2398a" y="154.543584"/>
     <use style="fill:#d62728;stroke:#d62728;stroke-width:2.025;" x="444.115385" xlink:href="#m1e31b2398a" y="118.990449"/>
     <use style="fill:#d62728;stroke:#d62728;stroke-width:2.025;" x="465.576923" xlink:href="#m1e31b2398a" y="147.026642"/>
     <use style="fill:#d62728;stroke:#d62728;stroke-width:2.025;" x="487.038462" xlink:href="#m1e31b2398a" y="121.893752"/>
     <use style="fill:#d62728;stroke:#d62728;stroke-width:2.025;" x="508.5" xlink:href="#m1e31b2398a" y="117.941558"/>
     <use style="fill:#d62728;stroke:#d62728;stroke-width:2.025;" x="529.961538" xlink:href="#m1e31b2398a" y="99.472386"/>
     <use style="fill:#d62728;stroke:#d62728;stroke-width:2.025;" x="551.423077" xlink:href="#m1e31b2398a" y="90.278515"/>
     <use style="fill:#d62728;stroke:#d62728;stroke-width:2.025;" x="572.884615" xlink:href="#m1e31b2398a" y="114.560309"/>
     <use style="fill:#d62728;stroke:#d62728;stroke-width:2.025;" x="594.346154" xlink:href="#m1e31b2398a" y="123.861058"/>
     <use style="fill:#d62728;stroke:#d62728;stroke-width:2.025;" x="615.807692" xlink:href="#m1e31b2398a" y="99.576951"/>
     <use style="fill:#d62728;stroke:#d62728;stroke-width:2.025;" x="637.269231" xlink:href="#m1e31b2398a" y="78.629676"/>
    </g>
   </g>
   <g id="line2d_87">
    <path clip-path="url(#p36d65035bc)" d="M 100.730769 293.871834 
L 100.730769 288.941678 
" style="fill:none;stroke:#d62728;stroke-linecap:round;stroke-width:2.7;"/>
   </g>
   <g id="line2d_88">
    <path clip-path="url(#p36d65035bc)" d="M 122.192308 283.591226 
L 122.192308 279.462243 
" style="fill:none;stroke:#d62728;stroke-linecap:round;stroke-width:2.7;"/>
   </g>
   <g id="line2d_89">
    <path clip-path="url(#p36d65035bc)" d="M 143.653846 283.075155 
L 143.653846 279.698208 
" style="fill:none;stroke:#d62728;stroke-linecap:round;stroke-width:2.7;"/>
   </g>
   <g id="line2d_90">
    <path clip-path="url(#p36d65035bc)" d="M 165.115385 280.046188 
L 165.115385 277.067885 
" style="fill:none;stroke:#d62728;stroke-linecap:round;stroke-width:2.7;"/>
   </g>
   <g id="line2d_91">
    <path clip-path="url(#p36d65035bc)" d="M 186.576923 283.734054 
L 186.576923 275.236236 
" style="fill:none;stroke:#d62728;stroke-linecap:round;stroke-width:2.7;"/>
   </g>
   <g id="line2d_92">
    <path clip-path="url(#p36d65035bc)" d="M 208.038462 281.101788 
L 208.038462 262.36292 
" style="fill:none;stroke:#d62728;stroke-linecap:round;stroke-width:2.7;"/>
   </g>
   <g id="line2d_93">
    <path clip-path="url(#p36d65035bc)" d="M 229.5 272.519299 
L 229.5 265.551927 
" style="fill:none;stroke:#d62728;stroke-linecap:round;stroke-width:2.7;"/>
   </g>
   <g id="line2d_94">
    <path clip-path="url(#p36d65035bc)" d="M 250.961538 276.458122 
L 250.961538 254.114254 
" style="fill:none;stroke:#d62728;stroke-linecap:round;stroke-width:2.7;"/>
   </g>
   <g id="line2d_95">
    <path clip-path="url(#p36d65035bc)" d="M 272.423077 268.880847 
L 272.423077 245.613104 
" style="fill:none;stroke:#d62728;stroke-linecap:round;stroke-width:2.7;"/>
   </g>
   <g id="line2d_96">
    <path clip-path="url(#p36d65035bc)" d="M 293.884615 263.207538 
L 293.884615 243.993686 
" style="fill:none;stroke:#d62728;stroke-linecap:round;stroke-width:2.7;"/>
   </g>
   <g id="line2d_97">
    <path clip-path="url(#p36d65035bc)" d="M 315.346154 255.00551 
L 315.346154 237.388867 
" style="fill:none;stroke:#d62728;stroke-linecap:round;stroke-width:2.7;"/>
   </g>
   <g id="line2d_98">
    <path clip-path="url(#p36d65035bc)" d="M 336.807692 244.380531 
L 336.807692 195.486498 
" style="fill:none;stroke:#d62728;stroke-linecap:round;stroke-width:2.7;"/>
   </g>
   <g id="line2d_99">
    <path clip-path="url(#p36d65035bc)" d="M 358.269231 237.534611 
L 358.269231 176.319977 
" style="fill:none;stroke:#d62728;stroke-linecap:round;stroke-width:2.7;"/>
   </g>
   <g id="line2d_100">
    <path clip-path="url(#p36d65035bc)" d="M 379.730769 216.898996 
L 379.730769 202.181261 
" style="fill:none;stroke:#d62728;stroke-linecap:round;stroke-width:2.7;"/>
   </g>
   <g id="line2d_101">
    <path clip-path="url(#p36d65035bc)" d="M 401.192308 227.681656 
L 401.192308 174.683486 
" style="fill:none;stroke:#d62728;stroke-linecap:round;stroke-width:2.7;"/>
   </g>
   <g id="line2d_102">
    <path clip-path="url(#p36d65035bc)" d="M 422.653846 173.140548 
L 422.653846 124.251096 
" style="fill:none;stroke:#d62728;stroke-linecap:round;stroke-width:2.7;"/>
   </g>
   <g id="line2d_103">
    <path clip-path="url(#p36d65035bc)" d="M 444.115385 154.836412 
L 444.115385 96.44601 
" style="fill:none;stroke:#d62728;stroke-linecap:round;stroke-width:2.7;"/>
   </g>
   <g id="line2d_104">
    <path clip-path="url(#p36d65035bc)" d="M 465.576923 190.825759 
L 465.576923 69.166989 
" style="fill:none;stroke:#d62728;stroke-linecap:round;stroke-width:2.7;"/>
   </g>
   <g id="line2d_105">
    <path clip-path="url(#p36d65035bc)" d="M 487.038462 152.880673 
L 487.038462 96.311371 
" style="fill:none;stroke:#d62728;stroke-linecap:round;stroke-width:2.7;"/>
   </g>
   <g id="line2d_106">
    <path clip-path="url(#p36d65035bc)" d="M 508.5 128.606745 
L 508.5 106.871529 
" style="fill:none;stroke:#d62728;stroke-linecap:round;stroke-width:2.7;"/>
   </g>
   <g id="line2d_107">
    <path clip-path="url(#p36d65035bc)" d="M 529.961538 138.148086 
L 529.961538 79.208023 
" style="fill:none;stroke:#d62728;stroke-linecap:round;stroke-width:2.7;"/>
   </g>
   <g id="line2d_108">
    <path clip-path="url(#p36d65035bc)" d="M 551.423077 129.657486 
L 551.423077 55.554545 
" style="fill:none;stroke:#d62728;stroke-linecap:round;stroke-width:2.7;"/>
   </g>
   <g id="line2d_109">
    <path clip-path="url(#p36d65035bc)" d="M 572.884615 127.372783 
L 572.884615 89.562752 
" style="fill:none;stroke:#d62728;stroke-linecap:round;stroke-width:2.7;"/>
   </g>
   <g id="line2d_110">
    <path clip-path="url(#p36d65035bc)" d="M 594.346154 128.989842 
L 594.346154 119.061239 
" style="fill:none;stroke:#d62728;stroke-linecap:round;stroke-width:2.7;"/>
   </g>
   <g id="line2d_111">
    <path clip-path="url(#p36d65035bc)" d="M 615.807692 115.455128 
L 615.807692 86.570152 
" style="fill:none;stroke:#d62728;stroke-linecap:round;stroke-width:2.7;"/>
   </g>
   <g id="line2d_112">
    <path clip-path="url(#p36d65035bc)" d="M 637.269231 86.336963 
L 637.269231 64.505973 
" style="fill:none;stroke:#d62728;stroke-linecap:round;stroke-width:2.7;"/>
   </g>
   <g id="legend_1">
    <g id="patch_7">
     <path d="M 97 124.590625 
L 154.45 124.590625 
Q 156.45 124.590625 156.45 122.590625 
L 156.45 50.2 
Q 156.45 48.2 154.45 48.2 
L 97 48.2 
Q 95 48.2 95 50.2 
L 95 122.590625 
Q 95 124.590625 97 124.590625 
z
" style="fill:#ffffff;opacity:0.8;stroke:#cccccc;stroke-linejoin:miter;"/>
    </g>
    <g id="text_38">
     <!-- m -->
     <g style="fill:#262626;" transform="translate(120.854687 59.798437)scale(0.1 -0.1)">
      <use xlink:href="#DejaVuSans-109"/>
     </g>
    </g>
    <g id="PathCollection_5">
     <g>
      <use style="fill:#1f77b4;stroke:#1f77b4;stroke-width:2.025;" x="109" xlink:href="#m869cc2bd96" y="71.851562"/>
     </g>
    </g>
    <g id="text_39">
     <!-- 1000 -->
     <g style="fill:#262626;" transform="translate(127 74.476562)scale(0.1 -0.1)">
      <use xlink:href="#DejaVuSans-49"/>
      <use x="63.623047" xlink:href="#DejaVuSans-48"/>
      <use x="127.246094" xlink:href="#DejaVuSans-48"/>
      <use x="190.869141" xlink:href="#DejaVuSans-48"/>
     </g>
    </g>
    <g id="PathCollection_6">
     <g>
      <use style="fill:#ff7f0e;stroke:#ff7f0e;stroke-width:2.025;" x="109" xlink:href="#m9ad999c721" y="86.529688"/>
     </g>
    </g>
    <g id="text_40">
     <!-- 2000 -->
     <g style="fill:#262626;" transform="translate(127 89.154688)scale(0.1 -0.1)">
      <use xlink:href="#DejaVuSans-50"/>
      <use x="63.623047" xlink:href="#DejaVuSans-48"/>
      <use x="127.246094" xlink:href="#DejaVuSans-48"/>
      <use x="190.869141" xlink:href="#DejaVuSans-48"/>
     </g>
    </g>
    <g id="PathCollection_7">
     <g>
      <use style="fill:#2ca02c;stroke:#2ca02c;stroke-width:2.025;" x="109" xlink:href="#mff1db12e25" y="101.207812"/>
     </g>
    </g>
    <g id="text_41">
     <!-- 3000 -->
     <g style="fill:#262626;" transform="translate(127 103.832812)scale(0.1 -0.1)">
      <use xlink:href="#DejaVuSans-51"/>
      <use x="63.623047" xlink:href="#DejaVuSans-48"/>
      <use x="127.246094" xlink:href="#DejaVuSans-48"/>
      <use x="190.869141" xlink:href="#DejaVuSans-48"/>
     </g>
    </g>
    <g id="PathCollection_8">
     <g>
      <use style="fill:#d62728;stroke:#d62728;stroke-width:2.025;" x="109" xlink:href="#m1e31b2398a" y="115.885938"/>
     </g>
    </g>
    <g id="text_42">
     <!-- 4000 -->
     <g style="fill:#262626;" transform="translate(127 118.510938)scale(0.1 -0.1)">
      <use xlink:href="#DejaVuSans-52"/>
      <use x="63.623047" xlink:href="#DejaVuSans-48"/>
      <use x="127.246094" xlink:href="#DejaVuSans-48"/>
      <use x="190.869141" xlink:href="#DejaVuSans-48"/>
     </g>
    </g>
   </g>
  </g>
 </g>
 <defs>
  <clipPath id="p36d65035bc">
   <rect height="271.8" width="558" x="90" y="43.2"/>
  </clipPath>
 </defs>
</svg>
